<?xml version="1.0" encoding="utf-8"?>
<!-- Generator: Adobe Illustrator 16.0.0, SVG Export Plug-In . SVG Version: 6.00 Build 0)  -->
<!DOCTYPE svg PUBLIC "-//W3C//DTD SVG 1.1//EN" "http://www.w3.org/Graphics/SVG/1.1/DTD/svg11.dtd">
<svg version="1.1" id="Layer_1" xmlns="http://www.w3.org/2000/svg" xmlns:xlink="http://www.w3.org/1999/xlink" x="0px" y="0px"
	 width="432px" height="748.463px" viewBox="0 0 432 748.463" enable-background="new 0 0 432 748.463" xml:space="preserve">
<path opacity="0.5" fill="#009900" d="M50.163,306.586c-58.892-83.21-39.173-198.4,44.035-257.29
	c83.21-58.891,198.393-39.177,257.286,44.036c58.887,83.203,39.175,198.387-44.035,257.277
	C224.241,409.496,109.051,389.792,50.163,306.586z"/>
<path opacity="0.7" fill="#00CCCC" d="M135.87,662.556c-49.694-70.211-33.056-167.406,37.154-217.094
	c70.213-49.691,167.403-33.057,217.097,37.157c49.689,70.207,33.055,167.394-37.155,217.086
	C282.755,749.393,185.558,732.764,135.87,662.556z"/>
<path opacity="0.5" fill="#FFFF00" d="M0.586,493.9c-36.923-52.168-24.562-124.387,27.606-161.305
	c52.167-36.92,124.381-24.562,161.304,27.608c36.918,52.164,24.561,124.376-27.609,161.296
	C109.722,558.42,37.504,546.064,0.586,493.9z"/>
<path opacity="0.5" fill="#663399" d="M300.173,464.505c-25.793-36.443-17.157-86.893,19.285-112.684
	c36.444-25.791,86.89-17.158,112.684,19.286c25.789,36.441,17.154,86.886-19.287,112.678
	C376.412,509.576,325.962,500.945,300.173,464.505z"/>
<g>
	<path d="M380.527,393.033c-1.632,0-2.959,1.064-2.959,2.368v15.78c0,1.306,1.426,2.367,3.062,2.367c1.633,0,3.06-1.061,3.06-2.367
		v-0.002c0,0.013-0.076,0.01-0.059,0.027c0,0-0.101-16.197-0.135-16.145C383.282,393.916,382.015,393.033,380.527,393.033z"/>
	<path d="M391.424,397.738c0.862-2.498,1.307-5.094,1.307-7.757c0-3.237-0.647-6.323-1.812-9.141c0.262-1.047,0.1-2.188-0.537-3.152
		c-4.312-6.559-11.261-10.746-18.945-11.574c-0.271-0.033-0.544-0.055-0.812-0.078c-0.164-0.01-0.325-0.027-0.489-0.041
		c-0.47-0.027-0.95-0.044-1.43-0.044c-0.01,0-0.017,0-0.027,0c-0.014,0-0.027,0-0.045,0c-0.155,0-0.309,0.009-0.461,0.018
		c-0.263,0.001-0.524,0.005-0.786,0.023c-8.184,0.393-15.714,4.596-20.336,11.436c-0.689,1.016-0.844,2.236-0.532,3.332
		c-1.187,2.842-1.845,5.959-1.845,9.223c0,2.845,0.501,5.615,1.488,8.271c-1.199,1.512-1.843,3.428-1.843,5.508
		c0,4.846,4.006,8.774,8.768,8.891v-17.782c-1.358,0.032-2.459,0.307-3.515,0.78c-0.552-1.84-0.866-3.734-0.866-5.67
		c0-2.232,0.353-4.375,1.029-6.378c1.486,0.236,3.038-0.374,3.942-1.706c3.365-4.982,8.952-7.957,14.953-7.957
		c6.088,0,11.725,3.041,15.076,8.135c0.769,1.164,2.039,1.799,3.338,1.799c0.237,0,0.472-0.027,0.71-0.072
		c0.634,1.949,0.978,4.023,0.978,6.179c0,1.714-0.301,3.398-0.731,5.039c-1.085-0.506-2.271-0.807-3.633-0.838v17.777
		c4.763-0.117,8.769-4.042,8.769-8.886C393.139,401.07,392.543,399.226,391.424,397.738z"/>
	<path d="M356.827,393.285c-1.635,0-3.061,1.065-3.061,2.369v0.004c0-0.009,0.077-0.009,0.063-0.027c0,0,0.099,16.195,0.135,16.144
		c0.208,1.146,1.455,2.025,2.939,2.025c1.633,0,2.983-1.061,2.983-2.367v-15.78C359.888,394.345,358.458,393.285,356.827,393.285z"
		/>
</g>
<text transform="matrix(1 0 0 1 332.3291 426.8516)"><tspan x="0" y="0" fill="#000100" font-family="'Lato'" font-size="9.6207">AUDIO TRACKS: </tspan><tspan x="13.06" y="11.545" fill="#000100" font-family="'Lato'" font-size="9.6207">4 MILLION</tspan></text>
<rect x="-1" y="85.325" opacity="0.8" fill="#FFFF00" width="434.334" height="26.5"/>
<rect x="-1" y="116.825" opacity="0.8" fill="#FFFF00" width="434.334" height="26.5"/>
<path opacity="0.6" fill="#CC3300" d="M187.048,413.462c-22.277-31.476-14.814-75.044,16.659-97.318
	c31.475-22.273,75.045-14.816,97.321,16.66c22.274,31.471,14.816,75.037-16.658,97.308
	C252.895,452.388,209.322,444.933,187.048,413.462z"/>
<text transform="matrix(1 0 0 1 221.7544 391.998)"><tspan x="0" y="0" fill="#000100" font-family="'Lato'" font-size="9.6207">RESEARCH  </tspan><tspan x="-23.005" y="11.545" fill="#000100" font-family="'Lato'" font-size="9.6207">(JOURNAL ARTICLES): </tspan><tspan x="-2.008" y="23.09" fill="#000100" font-family="'Lato'" font-size="9.6207">1.4 MILLION</tspan></text>
<g>
	<g>
		<path d="M247.348,359.149c0,1.928-2.889,1.928-2.889,0C244.459,357.225,247.348,357.225,247.348,359.149"/>
		<path d="M254.476,360.944c-0.702,0.23-1.485,0.426-2.318,0.594c-0.326-0.814-0.696-1.646-1.116-2.496
			c0.437-0.9,0.822-1.785,1.158-2.648c0.641,0.11,1.23,0.241,1.765,0.381c0.02,0.072,0.043,0.145,0.078,0.219
			c0.312,0.659,1.095,0.942,1.757,0.633c0.084-0.041,0.161-0.085,0.229-0.142c0.991,0.458,1.526,0.953,1.532,1.388
			C257.57,359.36,256.767,360.2,254.476,360.944z M251.736,369.136c-0.09,0.051-0.196,0.074-0.326,0.074
			c-0.976,0-2.675-1.223-4.558-3.418c0.582-0.746,1.146-1.535,1.678-2.339c0.943-0.077,1.855-0.186,2.724-0.327
			C252.417,366.428,252.468,368.713,251.736,369.136z M240.505,369.245c-0.13,0-0.235-0.025-0.321-0.072
			c-0.298-0.169-0.537-0.76-0.485-1.893c0.652-0.314,0.931-1.093,0.624-1.748c-0.072-0.15-0.171-0.277-0.282-0.385
			c0.144-0.594,0.326-1.217,0.546-1.868c0.893,0.116,1.835,0.2,2.805,0.249c0.538,0.807,1.091,1.575,1.648,2.283
			C243.17,368.017,241.479,369.245,240.505,369.245z M234.297,359.241c-0.014-0.846,1.979-1.977,5.404-2.671
			c0.326,0.816,0.695,1.654,1.117,2.5c-0.438,0.898-0.822,1.785-1.157,2.648C236.268,361.125,234.312,360.073,234.297,359.241z
			 M239.924,352.688c-0.531-2.351-0.226-3.47,0.199-3.713c0.089-0.053,0.196-0.078,0.327-0.078c0.526,0,1.263,0.361,2.122,1.029
			c-0.007,0.205,0.026,0.416,0.12,0.619c0.251,0.533,0.814,0.812,1.372,0.739c0.309,0.316,0.623,0.66,0.943,1.035
			c-0.583,0.744-1.146,1.533-1.677,2.339c-0.946,0.077-1.856,0.186-2.727,0.32C240.323,354.18,240.088,353.407,239.924,352.688z
			 M249.847,356.799c-0.147-0.254-0.298-0.502-0.447-0.752c0.476,0.038,0.935,0.08,1.375,0.135c-0.168,0.418-0.351,0.85-0.55,1.293
			C250.098,357.253,249.974,357.026,249.847,356.799z M245.086,354.563c0.279-0.394,0.554-0.771,0.826-1.133
			c0.271,0.356,0.547,0.719,0.819,1.107c-0.073,0-0.146-0.006-0.218-0.006c-0.217,0-0.436,0-0.655,0.01
			C245.599,354.543,245.344,354.553,245.086,354.563z M241.629,357.504c-0.184-0.398-0.353-0.791-0.512-1.18
			c0.409-0.064,0.835-0.115,1.273-0.166c-0.133,0.223-0.261,0.442-0.387,0.665C241.874,357.052,241.753,357.276,241.629,357.504z
			 M242.016,361.309c0.147,0.254,0.296,0.502,0.447,0.75c-0.478-0.037-0.935-0.08-1.375-0.131c0.172-0.427,0.351-0.858,0.55-1.297
			C241.765,360.86,241.883,361.085,242.016,361.309z M246.773,363.549c-0.277,0.395-0.553,0.774-0.825,1.131
			c-0.271-0.35-0.545-0.719-0.819-1.107c0.075,0,0.147,0.005,0.224,0.005c0.215,0,0.432-0.004,0.647-0.009
			C246.263,363.569,246.518,363.557,246.773,363.549z M248.635,360.592c-0.298,0.518-0.598,1.019-0.899,1.502
			c-0.577,0.035-1.161,0.06-1.758,0.073c-0.208,0.003-0.417,0.005-0.625,0.005c-0.402,0-0.794-0.005-1.179-0.018
			c-0.316-0.492-0.631-1.005-0.94-1.543c-0.298-0.517-0.574-1.031-0.84-1.542c0.263-0.514,0.536-1.028,0.828-1.547
			c0.297-0.523,0.599-1.025,0.9-1.503c0.566-0.035,1.151-0.061,1.757-0.068c0.211-0.006,0.423-0.006,0.632-0.006
			c0.398,0,0.791,0.006,1.172,0.02c0.314,0.494,0.629,1.004,0.94,1.543c0.302,0.525,0.58,1.039,0.843,1.541
			C249.209,359.549,248.935,360.067,248.635,360.592z M250.23,360.606c0.182,0.404,0.354,0.798,0.513,1.18
			c-0.415,0.06-0.838,0.118-1.274,0.164c0.132-0.219,0.262-0.442,0.389-0.663C249.984,361.061,250.106,360.835,250.23,360.606z
			 M251.355,348.868c0.128,0,0.233,0.023,0.321,0.072c0.726,0.413,0.7,2.652-0.402,5.893c-0.895-0.119-1.835-0.199-2.808-0.248
			c-0.536-0.806-1.091-1.573-1.647-2.283C248.692,350.094,250.383,348.868,251.355,348.868z M256.527,356.174
			c-0.021-0.104-0.051-0.209-0.097-0.306c-0.311-0.661-1.097-0.944-1.754-0.632c-0.113,0.05-0.208,0.122-0.295,0.196
			c-0.532-0.145-1.099-0.268-1.699-0.377c0.242-0.729,0.444-1.435,0.589-2.098c0.605-2.75,0.294-4.561-0.897-5.24
			c-0.302-0.17-0.644-0.258-1.019-0.258c-1.575,0-3.558,1.577-5.443,3.76c-0.255-0.297-0.515-0.577-0.769-0.84
			c0.098-0.305,0.088-0.646-0.061-0.957c-0.304-0.646-1.062-0.93-1.71-0.648c-0.942-0.719-1.978-1.279-2.922-1.279
			c-0.378,0-0.726,0.09-1.026,0.26c-1.192,0.688-1.492,2.499-0.869,5.242c0.159,0.711,0.383,1.463,0.649,2.242
			c-0.808,0.17-1.566,0.364-2.256,0.59c-2.675,0.872-4.08,2.059-4.058,3.436c0.015,0.93,0.712,2.244,3.943,3.239
			c0.71,0.215,1.5,0.4,2.342,0.552c-0.205,0.629-0.378,1.232-0.517,1.809c-0.032,0.012-0.065,0.018-0.099,0.033
			c-0.66,0.311-0.943,1.1-0.632,1.756c0.09,0.191,0.218,0.343,0.369,0.465c-0.094,1.656,0.307,2.775,1.187,3.277
			c0.3,0.168,0.644,0.258,1.019,0.258c1.575,0,3.555-1.573,5.441-3.76c0.311,0.355,0.623,0.701,0.931,1.01
			c1.222,1.24,2.999,2.718,4.528,2.718c0.381,0,0.728-0.09,1.028-0.265c1.19-0.688,1.49-2.497,0.87-5.245
			c-0.158-0.705-0.384-1.458-0.652-2.238c0.809-0.17,1.57-0.367,2.26-0.592c2.675-0.871,4.077-2.061,4.054-3.434
			C258.957,358.087,258.485,357.063,256.527,356.174z"/>
	</g>
	<path d="M262.887,374.795h-34.14v-49.318h15.516l0.177,0.176v18.275h18.275l0.175,0.174v30.693H262.887z M246.952,328.465
		l12.945,12.947h-12.945V328.465z M245.423,322.674h-19.476v54.92h39.742v-34.652L245.423,322.674z"/>
</g>
<circle opacity="0.5" fill="#003399" cx="360.651" cy="297.629" r="56.658"/>
<text transform="matrix(1 0 0 1 311.2544 311.1074)"><tspan x="0" y="0" fill="#000100" font-family="'Lato'" font-size="9.6207">OPEN EDUCATIONAL  </tspan><tspan x="4.25" y="11.545" fill="#000100" font-family="'Lato'" font-size="9.6207">RESOURCES: </tspan><tspan x="63.455" y="11.545" fill="#000100" font-family="'Lato'" font-size="9.6207">76,000</tspan></text>
<g>
	<path fill="none" stroke="#000000" stroke-width="2" stroke-linecap="round" stroke-linejoin="round" stroke-miterlimit="10" d="
		M362.276,291.4c-6.159-3.867-13.531-3.863-19.688,0c0-10.336,0-20.674,0-31.006c6.157-3.869,13.529-3.869,19.688,0
		C362.276,270.73,362.276,281.064,362.276,291.4z"/>
	<path fill="none" stroke="#000000" stroke-width="2" stroke-linecap="round" stroke-linejoin="round" stroke-miterlimit="10" d="
		M381.961,291.4c-6.158-3.867-13.528-3.867-19.685,0c0-10.336,0-20.674,0-31.006c6.156-3.869,13.526-3.869,19.685,0
		C381.961,270.73,381.961,281.064,381.961,291.4z"/>
	
		<polyline fill="none" stroke="#000000" stroke-width="2" stroke-linecap="round" stroke-linejoin="round" stroke-miterlimit="10" points="
		362.276,297.595 339.113,293.469 339.113,263.387 342.588,262.112 	"/>
	
		<polyline fill="none" stroke="#000000" stroke-width="2" stroke-linecap="round" stroke-linejoin="round" stroke-miterlimit="10" points="
		362.276,297.595 385.437,293.469 385.437,263.387 381.961,262.112 	"/>
	
		<polyline fill="none" stroke="#000000" stroke-width="2" stroke-linecap="round" stroke-linejoin="round" stroke-miterlimit="10" points="
		346.664,258.455 346.664,275.648 350.693,272.24 354.606,275.648 354.606,257.63 	"/>
	<path fill="none" stroke="#000000" stroke-width="2" stroke-linecap="round" stroke-linejoin="round" stroke-miterlimit="10" d="
		M367.527,264.974c0,0,3.946-1.885,9.867,0"/>
	<path fill="none" stroke="#000000" stroke-width="2" stroke-linecap="round" stroke-linejoin="round" stroke-miterlimit="10" d="
		M367.527,270.857c0,0,3.946-1.883,9.867,0"/>
	<path fill="none" stroke="#000000" stroke-width="2" stroke-linecap="round" stroke-linejoin="round" stroke-miterlimit="10" d="
		M367.527,276.74c0,0,3.946-1.882,9.867,0"/>
	<path fill="none" stroke="#000000" stroke-width="2" stroke-linecap="round" stroke-linejoin="round" stroke-miterlimit="10" d="
		M367.527,282.621c0,0,3.946-1.884,9.867,0"/>
</g>
<g>
	<path d="M203.965,234.026h-45.068v-45.07h45.068V234.026z M154.389,184.45v54.082h54.082V184.45H154.389z"/>
	<path d="M167.348,210.482c6.225-3.25,8.012,1.694,12.271,3.614c6.394,0.74,1.813-16.951,9.159-16.888
		c8.66,3.23,12.299,28.562,12.299,28.562h-39.295C161.782,225.771,162.998,212.762,167.348,210.482z"/>
</g>
<text transform="matrix(1 0 0 1 140.979 251.4883)"><tspan x="0" y="0" fill="#000100" font-family="'Lato'" font-size="9.6207">IMAGES (PHOTOS,  </tspan><tspan x="11.838" y="11.545" fill="#000100" font-family="'Lato'" font-size="9.6207">ARTWORKS):  </tspan><tspan x="12.509" y="23.09" fill="#000100" font-family="'Lato'" font-size="9.6207">391 MILLION</tspan></text>
<path d="M275.263,556.316c-0.201-0.736-0.937-1.137-1.607-0.938l-9.245,2.409c-0.734,0.205-1.137,0.939-0.937,1.609
	c0.133,0.602,0.668,1.004,1.273,1.004c0.133,0,0.201,0,0.335-0.064l9.244-2.344C274.996,557.726,275.462,557.054,275.263,556.316z
	 M279.216,546.471c-0.202-0.737-0.937-1.135-1.608-0.938l-13.193,3.416c-0.735,0.199-1.136,0.938-0.938,1.609
	c0.132,0.602,0.67,1.002,1.273,1.002c0.132,0,0.202,0,0.333-0.064l13.196-3.416C278.948,547.876,279.415,547.14,279.216,546.471z
	 M279.216,537.494c-0.202-0.736-0.937-1.135-1.608-0.938l-13.193,3.418c-0.735,0.201-1.136,0.938-0.938,1.605
	c0.132,0.606,0.67,1.006,1.273,1.006c0.132,0,0.202,0,0.333-0.069l13.129-3.414C278.948,538.9,279.415,538.166,279.216,537.494z
	 M282.361,529.457l-22.101,5.693v32.354l22.101-5.694V529.457z M257.581,535.15l-22.104-5.693v32.354l22.104,5.694V535.15z
	 M285.041,527.716v35.164c0,0.604-0.4,1.137-1.004,1.274l-24.78,6.365c-0.135,0.064-0.205,0.064-0.337,0.064
	c-0.133,0-0.202,0-0.334-0.064l-24.782-6.365c-0.604-0.131-1.006-0.67-1.006-1.272v-35.164c0-0.403,0.203-0.805,0.538-1.073
	c0.335-0.27,0.735-0.334,1.137-0.27l24.447,6.363l24.447-6.297c0.402-0.131,0.803,0,1.138,0.271
	C284.84,526.914,285.041,527.316,285.041,527.716z M249.478,556.721l-9.244-2.413c-0.737-0.199-1.473,0.271-1.609,0.939
	c-0.203,0.734,0.268,1.473,0.938,1.607l9.246,2.415c0.132,0,0.201,0.064,0.334,0.064c0.604,0,1.138-0.402,1.273-1.004
	C250.681,557.589,250.212,556.918,249.478,556.721z M253.43,548.88l-13.194-3.414c-0.734-0.203-1.472,0.268-1.607,0.939
	c-0.202,0.734,0.269,1.471,0.938,1.607l13.192,3.414c0.133,0,0.203,0.068,0.335,0.068c0.605,0,1.139-0.402,1.274-1.006
	C254.633,549.82,254.165,549.083,253.43,548.88z M254.434,541.513c-0.132,0.606-0.669,1.004-1.272,1.004
	c-0.133,0-0.202,0-0.335-0.066l-13.197-3.348c-0.737-0.204-1.138-0.938-0.938-1.61c0.201-0.736,0.938-1.135,1.609-0.938
	l13.192,3.418C254.165,540.107,254.633,540.843,254.434,541.513z"/>
<text transform="matrix(1 0 0 1 202.7363 586.1084)"><tspan x="0" y="0" fill="#000100" font-family="'Lato'" font-size="9.6207">TEXTS (ARTICLES, STORIES,  </tspan><tspan x="-3.644" y="11.545" fill="#000100" font-family="'Lato'" font-size="9.6207">DOCUMENTS): </tspan><tspan x="64.546" y="11.545" fill="#000100" font-family="'Lato'" font-size="9.6207">46.9 MILLION</tspan></text>
<g>
	<path d="M72.084,427.912c0-0.699,0.14-1.359,0.342-1.992h-5.571v3.985h5.571C72.224,429.27,72.084,428.609,72.084,427.912z"/>
	<path d="M85.068,427.804c0,0.7-0.141,1.359-0.341,1.992h37.609v-3.986H84.728C84.928,426.439,85.068,427.105,85.068,427.804z"/>
	<path d="M83.269,432.637c-1.191,1.152-2.805,1.871-4.59,1.871c-1.786,0-3.397-0.719-4.587-1.871h-7.237v4.412h55.482v-4.412H83.269
		z"/>
	<path d="M78.679,424.275c-2.006,0-3.639,1.635-3.639,3.637c0,2.008,1.633,3.639,3.639,3.639c2.007,0,3.638-1.627,3.638-3.639
		C82.316,425.91,80.686,424.275,78.679,424.275z"/>
	<path d="M94.59,418.566c-5.436,0-9.842-4.414-9.842-9.855c0-5.441,4.408-9.846,9.842-9.846c5.446,0,9.856,4.408,9.856,9.846
		C104.449,414.152,100.038,418.566,94.59,418.566z M66.854,392.046v31.209h7.158c1.196-1.199,2.845-1.943,4.669-1.943
		s3.473,0.744,4.67,1.943h38.985v-31.209H66.854z"/>
	<path d="M91.128,415.221c-0.569,0.306-0.989,0.066-0.989-0.594v-11.855c0-0.633,0.42-0.9,0.989-0.57l10.271,5.934
		c0.569,0.326,0.569,0.836,0,1.168L91.128,415.221z"/>
</g>
<text transform="matrix(1 0 0 1 42.8599 451.6279)"><tspan x="0" y="0" fill="#000100" font-family="'Lato'" font-size="9.6207">VIDEOS: </tspan><tspan x="38.915" y="0" fill="#000100" font-family="'Lato'" font-size="9.6207">18.4 MILLION</tspan></text>
<line fill="none" stroke="#231F20" stroke-width="0.5" stroke-miterlimit="10" x1="21.004" y1="696.012" x2="409" y2="696.012"/>
<rect x="26.27" y="708.248" fill="none" width="373.73" height="46.33"/>
<text transform="matrix(1 0 0 1 26.2695 715.5332)"><tspan x="0" y="0" fill="#000100" font-family="'Lato'" font-size="10">Note: Data only reflects media on 16 platforms + Directory of Open Access Journals, </tspan><tspan x="0" y="12" fill="#000100" font-family="'Lato'" font-size="10">just a slice of all available CC media on the web. Dig into our data sources.</tspan></text>
<rect x="-1" y="54.325" opacity="0.8" fill="#FFFF00" width="434.334" height="26.5"/>
<rect x="19.315" y="59.597" fill="none" width="327.375" height="117.184"/>
<text transform="matrix(1 0 0 1 19.3154 77.082)"><tspan x="0" y="0" fill="#000100" font-family="'Lato'" font-size="24">From research to cute cat </tspan><tspan x="0" y="30" fill="#000100" font-family="'Lato'" font-size="24">photos, the Commons offers a </tspan><tspan x="0" y="60" fill="#000100" font-family="'Lato'" font-size="24">treasure trove of content.</tspan></text>
<path d="M134.581,675.611c-0.179,0-0.322-0.145-0.322-0.324c0-0.178,0.146-0.323,0.322-0.323c0.179,0,0.322,0.145,0.322,0.323
	C134.903,675.466,134.76,675.611,134.581,675.611z M141.209,676.234c-0.616,0.391-4.947,3.041-5.439,2.711
	c-0.242-0.162,0.758-1.551,0.318-2.145c-0.622-0.838-0.466-1.973-0.776-2.924c-0.278-0.852-1.349-1.472-1.511-2.268
	c-0.14-0.684,0.797-1.053,0.271-1.766c-0.604,0.371-1.206,0.743-1.811,1.117c-0.322-1.443,0.385-2.748-1.636-1.289
	c-1.67,1.205-3.213,2.215-4.057,4.174c-0.641,1.488-0.339,3.787-2.041,4.407c-1.79,0.654-3.642,1.33-5.34,2.201
	c-1.252,0.642-2.396,2.279-3.831,2.445c-1.585,0.184-2.021-3.281-2.174-4.299c-0.261-1.727-0.493-3.564-2.447-4.154
	c-1.581-0.474-3.211,0.797-3.515,2.35c0.024,0.184,0.03,0.596-0.056,0.51c0.698,0.703,1.983-2.172,2.742-0.557
	c0.916,1.947,0.711,4.443,1.134,6.52c0.627,3.094,2.016,7.93,5.448,8.959c0.867,0.262,2.138-0.395,2.05,0.867
	c-0.063,0.934-0.793,1.568,0.043,2.43c1.137,1.174,5.435,0.617,6.961,0.527c0.68-0.039,4.193-0.342,3.207-1.832
	c-0.609-0.926-2.433-0.521-3.342-0.521c0.55-0.971,1.633-1.508,1.957-2.625c1.217,1.631,1.945,5.109,4.113,5.109
	c0.583,0,2.909,0.252,2.382-1.088c-0.304-0.768-1.018-0.518-1.511-1.025c-2.613-2.697-2.109-9.952,1.979-10.952
	c2.444-0.6,5.194-2.406,6.78-4.347c0.883-1.079,3.226-2.512,3.507-3.954C145.071,672.517,141.352,676.144,141.209,676.234z"/>
<path fill-rule="evenodd" clip-rule="evenodd" d="M253.27,667.98c0.948-0.21,1.039,0,1.562,0c0.62,2.591-3.699,2.098-5.465,2.863
	c-2.912,1.262-4.624,4.863-7.548,7.023c-2.532,1.877-4.788,2.043-7.548,3.385c0.572,1.837-1.043,3.656-0.521,5.726
	c0.222,0.881,1.654,1.59,2.083,2.602c0.565,1.328,0.766,4.359,0.52,5.465c-0.282,1.266-2.094,2.73-3.122,1.822
	c-1.027-0.91,1.164-1.992,1.043-3.385c-0.191-2.16-2.374-3.482-4.945-3.383c-1.657,2.312-3.867,7.795-6.247,6.506
	c-2.38-1.287,3.483-3.42,2.863-6.248c-0.668-3.042-5.203-3.112-8.325-1.82c-0.514,1.727-0.65,4.605-1.562,6.506
	c-0.9,1.875-2.964,3.68-4.685,1.039c0.167-1.137,1.991-0.611,2.34-1.562c0.481-1.518,0.578-3.416,0.521-5.465
	c-2.66-0.381-4.295,2.029-5.985,3.121c-0.988,0.639-2.207,0.887-3.121,1.562c-1.211,0.891-2.682,4.252-4.164,2.861
	c-1.484-1.391,5.599-5.172,6.246-8.069c0.778-3.484-2.106-5.08-4.165-5.465c-2.688-0.496-6.098,1.072-6.505-1.293
	c0.003-1.301,0.532-2.021,1.316-3.289c1.626-2.051,1.459-1.416,1.289-3.997c3.268,2.028,9.496,2.815,14.572,2.34
	c4.112-0.383,8.059-1.83,13.01-1.301c2.572,0.273,4.977,1.84,7.286,2.082c7.235,0.764,8.426-4.443,11.971-7.023
	C248.257,668.925,252.325,668.189,253.27,667.98z"/>
<path opacity="0.5" fill="#F06022" d="M21.956,603.492c-17.067-24.113-11.352-57.494,12.763-74.559
	c24.115-17.064,57.495-11.354,74.564,12.762c17.065,24.111,11.353,57.493-12.764,74.557
	C72.405,633.316,39.022,627.605,21.956,603.492z"/>
<text transform="matrix(1 0 0 1 48.7104 584.6582)"><tspan x="0" y="0" fill="#000100" font-family="'Lato'" font-size="9.6207">OTHER  </tspan><tspan x="-25.283" y="11.545" fill="#000100" font-family="'Lato'" font-size="9.6207">(MULTIMEDIA, 3D):</tspan><tspan x="2.122" y="23.09" fill="#000100" font-family="'Lato'" font-size="9.6207">23,000</tspan></text>
<g>
	<path d="M72.869,557.548h12.466c1.525,0,2.715,0.523,2.452,2.393l-0.409,4.035c-0.346,1.771-1.237,2.495-2.763,2.495h-10.17
		c-1.524,0-2.094-0.869-2.762-2.495l-1.376-3.934C69.877,558.24,71.221,557.548,72.869,557.548z M60.673,560.042l-1.376,3.934
		c-0.669,1.625-1.237,2.495-2.763,2.495H46.36c-1.523,0-2.419-0.719-2.761-2.495l-0.411-4.035c-0.262-1.87,0.925-2.393,2.452-2.393
		h12.468C59.756,557.548,61.1,558.24,60.673,560.042z M64.233,555.612H37.069c0,0,1.23,9.573,1.422,10.235
		c0.197,0.69,1.053,0.672,1.596,0.711c0.543,0.039,1.292,0.362,1.651,0.863c0.727,1.01,1.771,0.984,1.771,0.984s16.14,0,17.125,0
		c0.986,0,1.674-0.787,2.323-3.837c0.375-1.758,1.548-2.516,2.578-2.516c0.927,0,2.203,0.757,2.578,2.516
		c0.648,3.051,1.34,3.837,2.322,3.837c0.985,0,17.126,0,17.126,0s1.044,0.03,1.771-0.984c0.358-0.501,1.107-0.824,1.651-0.863
		c0.542-0.039,1.398-0.021,1.596-0.711c0.191-0.662,1.422-10.235,1.422-10.235H64.233z"/>
	<path d="M50.983,544.277c1.012-2.331,0.66,3.156,0.792,3.699c0.132,0.539,0.537-0.119,0.659-0.453
		c0.185-0.494,0.644-2.762,0.265-6.674c-0.525-5.438-3.23-1.445-3.23-1.445l-11.937,15.152h8.441
		C45.974,554.556,50.78,544.748,50.983,544.277z"/>
	<path d="M79.756,547.972c0.133-0.539-0.219-6.027,0.792-3.699c0.203,0.473,5.011,10.283,5.011,10.283h8.442l-11.938-15.152
		c0,0-2.703-3.997-3.23,1.445c-0.378,3.912,0.081,6.18,0.265,6.674C79.22,547.854,79.624,548.515,79.756,547.972z"/>
</g>
</svg>
