<?xml version="1.0" encoding="utf-8"?>
<!-- Generator: Adobe Illustrator 16.0.0, SVG Export Plug-In . SVG Version: 6.00 Build 0)  -->
<!DOCTYPE svg PUBLIC "-//W3C//DTD SVG 1.1//EN" "http://www.w3.org/Graphics/SVG/1.1/DTD/svg11.dtd">
<svg version="1.1" id="Layer_1" xmlns="http://www.w3.org/2000/svg" xmlns:xlink="http://www.w3.org/1999/xlink" x="0px" y="0px"
	 width="432px" height="540px" viewBox="0 0 432 540" enable-background="new 0 0 432 540" xml:space="preserve">
<g opacity="0.7">
	<g transform="translate(125,125)">
		<circle opacity="0.44" fill="#009900" stroke="#00CCCC" cx="-2.062" cy="-36.697" r="1.809"/>
		<circle opacity="0.44" fill="#009900" stroke="#00CCCC" cx="3.033" cy="-34.671" r="3.21"/>
		<circle opacity="0.85" fill="#009900" stroke="#00CCCC" cx="-13.148" cy="-44.282" r="4.851"/>
		<circle opacity="0.85" fill="#009900" stroke="#00CCCC" cx="-37.412" cy="-85.57" r="2.861"/>
		<circle opacity="0.85" fill="#009900" stroke="#00CCCC" cx="-36.819" cy="-47.204" r="6.72"/>
		<circle opacity="0.85" fill="#009900" stroke="#00CCCC" cx="-21.898" cy="-64.474" r="4.586"/>
		<circle opacity="0.85" fill="#009900" stroke="#00CCCC" cx="-3.961" cy="-50.421" r="3.223"/>
		<circle opacity="0.44" fill="#009900" stroke="#00CCCC" cx="22.686" cy="-18.655" r="8.207"/>
		<circle opacity="0.85" fill="#009900" stroke="#00CCCC" cx="-47.681" cy="-94.869" r="2.93"/>
		<circle opacity="0.85" fill="#009900" stroke="#00CCCC" cx="18.015" cy="-48.021" r="1.129"/>
		<circle opacity="0.44" fill="#009900" stroke="#00CCCC" cx="20.153" cy="-18.817" r="3.467"/>
		<circle opacity="0.85" fill="#009900" stroke="#00CCCC" cx="-29.761" cy="-81.911" r="2.294"/>
		<circle opacity="0.44" fill="#009900" stroke="#00CCCC" cx="47.835" cy="-29.365" r="3.025"/>
		<circle opacity="0.44" fill="#009900" stroke="#00CCCC" cx="35.207" cy="-27.527" r="2.531"/>
		<circle opacity="0.85" fill="#009900" stroke="#00CCCC" cx="-11.508" cy="-47.364" r="1.27"/>
		<circle opacity="0.85" fill="#009900" stroke="#00CCCC" cx="37.207" cy="-61.926" r="1.045"/>
		<circle opacity="0.44" fill="#009900" stroke="#00CCCC" cx="0.658" cy="-24.428" r="5.812"/>
		<circle opacity="0.44" fill="#009900" stroke="#00CCCC" cx="33.797" cy="-9.485" r="1.536"/>
		<circle opacity="0.44" fill="#009900" stroke="#00CCCC" cx="1.29" cy="-38.219" r="1.678"/>
		<circle opacity="0.85" fill="#009900" stroke="#00CCCC" cx="-25.281" cy="-64.998" r="3.421"/>
		<circle opacity="0.44" fill="#009900" stroke="#00CCCC" cx="-14.754" cy="-39.01" r="2.342"/>
		<circle opacity="0.85" fill="#009900" stroke="#00CCCC" cx="-23.346" cy="-48.997" r="2.267"/>
		<circle opacity="0.85" fill="#009900" stroke="#00CCCC" cx="-39.988" cy="-88.5" r="2.804"/>
		<circle opacity="0.85" fill="#009900" stroke="#00CCCC" cx="-1.395" cy="-48.183" r="1.55"/>
		<circle opacity="0.44" fill="#009900" stroke="#00CCCC" cx="30.994" cy="-27.088" r="3.466"/>
		<circle opacity="0.85" fill="#009900" stroke="#00CCCC" cx="-36.117" cy="-56.354" r="4.262"/>
		<circle opacity="0.44" fill="#009900" stroke="#00CCCC" cx="15.94" cy="-18.407" r="3.097"/>
		<circle opacity="0.85" fill="#009900" stroke="#00CCCC" cx="-62.892" cy="-96.364" r="2.32"/>
		<circle opacity="0.85" fill="#009900" stroke="#00CCCC" cx="-32.823" cy="-61.682" r="3.304"/>
		<circle opacity="0.85" fill="#009900" stroke="#00CCCC" cx="30.655" cy="-49.082" r="1.333"/>
		<circle opacity="0.85" fill="#009900" stroke="#00CCCC" cx="35.587" cy="-57.519" r="2.194"/>
		<circle opacity="0.44" fill="#009900" stroke="#00CCCC" cx="14.142" cy="-25.53" r="1.553"/>
		<circle opacity="0.44" fill="#009900" stroke="#00CCCC" cx="24.184" cy="-30.961" r="3.983"/>
		<circle opacity="0.85" fill="#009900" stroke="#00CCCC" cx="13.015" cy="-43.907" r="1.914"/>
		<circle opacity="0.44" fill="#009900" stroke="#00CCCC" cx="23.471" cy="-22.502" r="5.967"/>
		<circle opacity="0.85" fill="#009900" stroke="#00CCCC" cx="-10.03" cy="-60.967" r="4.135"/>
		<circle opacity="0.44" fill="#009900" stroke="#00CCCC" cx="-4.607" cy="-37.58" r="1.086"/>
		<circle opacity="0.85" fill="#009900" stroke="#00CCCC" cx="-32.364" cy="-86.513" r="2.592"/>
		<circle opacity="0.44" fill="#009900" stroke="#00CCCC" cx="-1.294" cy="-41.611" r="2.64"/>
		<circle opacity="0.85" fill="#009900" stroke="#00CCCC" cx="-16.647" cy="-52.301" r="4.793"/>
		<circle opacity="0.44" fill="#009900" stroke="#00CCCC" cx="9.745" cy="-37.082" r="1.385"/>
		<circle opacity="0.85" fill="#009900" stroke="#00CCCC" cx="-41.308" cy="-64.664" r="2.883"/>
		<circle opacity="0.44" fill="#009900" stroke="#00CCCC" cx="-5.316" cy="-28.862" r="1.217"/>
		<circle opacity="0.85" fill="#009900" stroke="#00CCCC" cx="-35.635" cy="-79.802" r="3.388"/>
		<circle opacity="0.44" fill="#009900" stroke="#00CCCC" cx="35.311" cy="-20.754" r="2.252"/>
		<circle opacity="0.44" fill="#009900" stroke="#00CCCC" cx="29.308" cy="-27.033" r="1.065"/>
		<circle opacity="0.85" fill="#009900" stroke="#00CCCC" cx="5.383" cy="-46.414" r="3.79"/>
		<circle opacity="0.44" fill="#009900" stroke="#00CCCC" cx="9.777" cy="-35.035" r="3.485"/>
		<circle opacity="0.85" fill="#009900" stroke="#00CCCC" cx="-50.342" cy="-103.275" r="1.821"/>
		<circle opacity="0.85" fill="#009900" stroke="#00CCCC" cx="12.854" cy="-54.313" r="0.996"/>
	</g>
</g>
<g opacity="0.7">
	<g transform="translate(125,125)">
		<circle opacity="0.44" fill="#009900" stroke="#00CCCC" cx="-10.414" cy="-65.718" r="2.672"/>
		<circle opacity="0.44" fill="#009900" stroke="#00CCCC" cx="-16.958" cy="-60.944" r="4.743"/>
		<circle opacity="0.85" fill="#009900" stroke="#00CCCC" cx="7.799" cy="-73.605" r="7.167"/>
		<circle opacity="0.85" fill="#009900" stroke="#00CCCC" cx="78.526" cy="-71.429" r="4.227"/>
		<circle opacity="0.85" fill="#009900" stroke="#00CCCC" cx="30.091" cy="-100.9" r="9.929"/>
		<circle opacity="0.85" fill="#009900" stroke="#00CCCC" cx="39.933" cy="-68.646" r="6.777"/>
		<circle opacity="0.85" fill="#009900" stroke="#00CCCC" cx="8.24" cy="-57.285" r="4.762"/>
		<circle opacity="0.44" fill="#009900" stroke="#00CCCC" cx="-52.459" cy="-48.982" r="12.126"/>
		<circle opacity="0.85" fill="#009900" stroke="#00CCCC" cx="98.238" cy="-76.945" r="4.328"/>
		<circle opacity="0.85" fill="#009900" stroke="#00CCCC" cx="-12.066" cy="-31.701" r="1.667"/>
		<circle opacity="0.44" fill="#009900" stroke="#00CCCC" cx="-50.261" cy="-52.022" r="5.123"/>
		<circle opacity="0.85" fill="#009900" stroke="#00CCCC" cx="67.927" cy="-64.745" r="3.39"/>
		<circle opacity="0.44" fill="#009900" stroke="#00CCCC" cx="-58.872" cy="-9.107" r="4.471"/>
		<circle opacity="0.44" fill="#009900" stroke="#00CCCC" cx="-51.226" cy="-26.343" r="3.741"/>
		<circle opacity="0.85" fill="#009900" stroke="#00CCCC" cx="10.36" cy="-69.128" r="1.877"/>
		<circle opacity="0.85" fill="#009900" stroke="#00CCCC" cx="-9.794" cy="3.245" r="1.545"/>
		<circle opacity="0.44" fill="#009900" stroke="#00CCCC" cx="-27.896" cy="-71.978" r="8.587"/>
		<circle opacity="0.44" fill="#009900" stroke="#00CCCC" cx="-72.673" cy="-42.312" r="2.269"/>
		<circle opacity="0.44" fill="#009900" stroke="#00CCCC" cx="-11.15" cy="-60.329" r="2.48"/>
		<circle opacity="0.85" fill="#009900" stroke="#00CCCC" cx="43.254" cy="-72.462" r="5.055"/>
		<circle opacity="0.44" fill="#009900" stroke="#00CCCC" cx="2.472" cy="-79.765" r="3.459"/>
		<circle opacity="0.85" fill="#009900" stroke="#00CCCC" cx="21.725" cy="-82.643" r="3.349"/>
		<circle opacity="0.85" fill="#009900" stroke="#00CCCC" cx="84.218" cy="-72.343" r="4.143"/>
		<circle opacity="0.85" fill="#009900" stroke="#00CCCC" cx="3.421" cy="-55.839" r="2.29"/>
		<circle opacity="0.44" fill="#009900" stroke="#00CCCC" cx="-48.459" cy="-31.956" r="5.121"/>
		<circle opacity="0.85" fill="#009900" stroke="#00CCCC" cx="40.979" cy="-92.816" r="6.298"/>
		<circle opacity="0.44" fill="#009900" stroke="#00CCCC" cx="-47.457" cy="-57.613" r="4.577"/>
		<circle opacity="0.85" fill="#009900" stroke="#00CCCC" cx="112.085" cy="-94.787" r="3.427"/>
		<circle opacity="0.85" fill="#009900" stroke="#00CCCC" cx="45.047" cy="-84.504" r="4.881"/>
		<circle opacity="0.85" fill="#009900" stroke="#00CCCC" cx="-20.694" cy="-15.062" r="1.97"/>
		<circle opacity="0.85" fill="#009900" stroke="#00CCCC" cx="-14.029" cy="-2.251" r="3.243"/>
		<circle opacity="0.44" fill="#009900" stroke="#00CCCC" cx="-37.136" cy="-54.251" r="2.296"/>
		<circle opacity="0.44" fill="#009900" stroke="#00CCCC" cx="-38.254" cy="-37.42" r="5.886"/>
		<circle opacity="0.85" fill="#009900" stroke="#00CCCC" cx="-13.272" cy="-41.19" r="2.828"/>
		<circle opacity="0.44" fill="#009900" stroke="#00CCCC" cx="-48.268" cy="-44.973" r="8.817"/>
		<circle opacity="0.85" fill="#009900" stroke="#00CCCC" cx="26.204" cy="-56.57" r="6.11"/>
		<circle opacity="0.44" fill="#009900" stroke="#00CCCC" cx="-7.306" cy="-68.204" r="1.605"/>
		<circle opacity="0.85" fill="#009900" stroke="#00CCCC" cx="75.73" cy="-64.375" r="3.83"/>
		<circle opacity="0.44" fill="#009900" stroke="#00CCCC" cx="-4.876" cy="-60.888" r="3.902"/>
		<circle opacity="0.85" fill="#009900" stroke="#00CCCC" cx="20.58" cy="-71.666" r="7.081"/>
		<circle opacity="0.44" fill="#009900" stroke="#00CCCC" cx="-19.231" cy="-50.652" r="2.047"/>
		<circle opacity="0.85" fill="#009900" stroke="#00CCCC" cx="55.456" cy="-92.763" r="4.26"/>
		<circle opacity="0.44" fill="#009900" stroke="#00CCCC" cx="-17.648" cy="-75.957" r="1.798"/>
		<circle opacity="0.85" fill="#009900" stroke="#00CCCC" cx="69.915" cy="-73.749" r="5.005"/>
		<circle opacity="0.44" fill="#009900" stroke="#00CCCC" cx="-59.778" cy="-31.547" r="3.328"/>
		<circle opacity="0.44" fill="#009900" stroke="#00CCCC" cx="-47.199" cy="-34.107" r="1.573"/>
		<circle opacity="0.85" fill="#009900" stroke="#00CCCC" cx="-4.128" cy="-48.759" r="5.6"/>
		<circle opacity="0.44" fill="#009900" stroke="#00CCCC" cx="-21.815" cy="-52.225" r="5.149"/>
		<circle opacity="0.85" fill="#009900" stroke="#00CCCC" cx="110.844" cy="-73.652" r="2.691"/>
		<circle opacity="0.85" fill="#009900" stroke="#00CCCC" cx="-0.135" cy="-33.196" r="1.471"/>
	</g>
</g>
<g opacity="0.7">
	<g transform="translate(125,125)">
		<circle opacity="0.44" fill="#009900" stroke="#00CCCC" cx="115.101" cy="-21.415" r="1.718"/>
		<circle opacity="0.44" fill="#009900" stroke="#00CCCC" cx="120.035" cy="-23.072" r="3.048"/>
		<circle opacity="0.85" fill="#009900" stroke="#00CCCC" cx="102.417" cy="-20.109" r="4.604"/>
		<circle opacity="0.85" fill="#009900" stroke="#00CCCC" cx="59.512" cy="-35.143" r="2.716"/>
		<circle opacity="0.85" fill="#009900" stroke="#00CCCC" cx="83.475" cy="-7.704" r="6.38"/>
		<circle opacity="0.85" fill="#009900" stroke="#00CCCC" cx="83.692" cy="-29.373" r="4.354"/>
		<circle opacity="0.85" fill="#009900" stroke="#00CCCC" cx="105.307" cy="-30.194" r="3.06"/>
		<circle opacity="0.44" fill="#009900" stroke="#00CCCC" cx="144.098" cy="-23.524" r="7.792"/>
		<circle opacity="0.85" fill="#009900" stroke="#00CCCC" cx="46.369" cy="-35.581" r="2.781"/>
		<circle opacity="0.85" fill="#009900" stroke="#00CCCC" cx="122.7" cy="-41.937" r="1.071"/>
		<circle opacity="0.44" fill="#009900" stroke="#00CCCC" cx="142.163" cy="-22.088" r="3.291"/>
		<circle opacity="0.85" fill="#009900" stroke="#00CCCC" cx="67.3" cy="-37.186" r="2.179"/>
		<circle opacity="0.44" fill="#009900" stroke="#00CCCC" cx="155.748" cy="-46.713" r="2.872"/>
		<circle opacity="0.44" fill="#009900" stroke="#00CCCC" cx="147.727" cy="-37.634" r="2.404"/>
		<circle opacity="0.85" fill="#009900" stroke="#00CCCC" cx="101.715" cy="-23.349" r="1.206"/>
		<circle opacity="0.85" fill="#009900" stroke="#00CCCC" cx="128.076" cy="-63.786" r="0.992"/>
		<circle opacity="0.44" fill="#009900" stroke="#00CCCC" cx="124.598" cy="-14.194" r="5.518"/>
		<circle opacity="0.44" fill="#009900" stroke="#00CCCC" cx="157.772" cy="-23.696" r="1.458"/>
		<circle opacity="0.44" fill="#009900" stroke="#00CCCC" cx="116.596" cy="-24.574" r="1.593"/>
		<circle opacity="0.85" fill="#009900" stroke="#00CCCC" cx="80.919" cy="-27.678" r="3.248"/>
		<circle opacity="0.44" fill="#009900" stroke="#00CCCC" cx="104.488" cy="-15.305" r="2.223"/>
		<circle opacity="0.85" fill="#009900" stroke="#00CCCC" cx="92.136" cy="-17.27" r="2.151"/>
		<circle opacity="0.85" fill="#009900" stroke="#00CCCC" cx="55.848" cy="-35.685" r="2.662"/>
		<circle opacity="0.85" fill="#009900" stroke="#00CCCC" cx="108.539" cy="-30.146" r="1.471"/>
		<circle opacity="0.44" fill="#009900" stroke="#00CCCC" cx="144.945" cy="-34.731" r="3.291"/>
		<circle opacity="0.85" fill="#009900" stroke="#00CCCC" cx="78.372" cy="-14.767" r="4.046"/>
		<circle opacity="0.44" fill="#009900" stroke="#00CCCC" cx="139.363" cy="-19.206" r="2.941"/>
		<circle opacity="0.85" fill="#009900" stroke="#00CCCC" cx="34.431" cy="-27.333" r="2.202"/>
		<circle opacity="0.85" fill="#009900" stroke="#00CCCC" cx="77.489" cy="-20.647" r="3.136"/>
		<circle opacity="0.85" fill="#009900" stroke="#00CCCC" cx="131.208" cy="-50.459" r="1.265"/>
		<circle opacity="0.85" fill="#009900" stroke="#00CCCC" cx="129.605" cy="-59.6" r="2.083"/>
		<circle opacity="0.44" fill="#009900" stroke="#00CCCC" cx="133.691" cy="-23.264" r="1.475"/>
		<circle opacity="0.44" fill="#009900" stroke="#00CCCC" cx="137.635" cy="-33.359" r="3.782"/>
		<circle opacity="0.85" fill="#009900" stroke="#00CCCC" cx="121.602" cy="-35.889" r="1.817"/>
		<circle opacity="0.44" fill="#009900" stroke="#00CCCC" cx="142.306" cy="-26.793" r="5.665"/>
		<circle opacity="0.85" fill="#009900" stroke="#00CCCC" cx="94.442" cy="-34.112" r="3.925"/>
		<circle opacity="0.44" fill="#009900" stroke="#00CCCC" cx="112.716" cy="-20.494" r="1.031"/>
		<circle opacity="0.85" fill="#009900" stroke="#00CCCC" cx="62.591" cy="-38.923" r="2.461"/>
		<circle opacity="0.44" fill="#009900" stroke="#00CCCC" cx="112.644" cy="-25.446" r="2.507"/>
		<circle opacity="0.85" fill="#009900" stroke="#00CCCC" cx="94.963" cy="-23.774" r="4.55"/>
		<circle opacity="0.44" fill="#009900" stroke="#00CCCC" cx="123.419" cy="-28.937" r="1.315"/>
		<circle opacity="0.85" fill="#009900" stroke="#00CCCC" cx="69.514" cy="-17.604" r="2.737"/>
		<circle opacity="0.44" fill="#009900" stroke="#00CCCC" cx="117.55" cy="-13.741" r="1.156"/>
		<circle opacity="0.85" fill="#009900" stroke="#00CCCC" cx="64.338" cy="-32.053" r="3.216"/>
		<circle opacity="0.44" fill="#009900" stroke="#00CCCC" cx="151.958" cy="-32.789" r="2.139"/>
		<circle opacity="0.44" fill="#009900" stroke="#00CCCC" cx="143.757" cy="-33.657" r="1.011"/>
		<circle opacity="0.85" fill="#009900" stroke="#00CCCC" cx="114.534" cy="-33.022" r="3.599"/>
		<circle opacity="0.44" fill="#009900" stroke="#00CCCC" cx="124.698" cy="-27.473" r="3.308"/>
		<circle opacity="0.85" fill="#009900" stroke="#00CCCC" cx="39.284" cy="-40.04" r="1.729"/>
		<circle opacity="0.85" fill="#009900" stroke="#00CCCC" cx="115.102" cy="-43.33" r="0.946"/>
	</g>
</g>
<rect y="48.222" opacity="0.8" fill="#FFFF00" width="432" height="26.5"/>
<rect y="79.222" opacity="0.8" fill="#FFFF00" width="432" height="26.5"/>
<text transform="matrix(1 0 0 1 23.2773 70.6484)"><tspan x="0" y="0" fill="#000100" font-family="'Lato-Light'" font-size="24">Wow! Over 1 billion CC licensed  </tspan><tspan x="0" y="30" fill="#000100" font-family="'Lato-Light'" font-size="24">works in the Commons in 2015</tspan></text>
<polygon opacity="0.3" fill="#66CC33" points="263.616,205.974 263.616,157.974 339.799,157.974 339.799,179.501 344.633,184.001 
	339.799,188.459 339.799,205.974 "/>
<rect x="274.433" y="162.576" fill="none" width="55.102" height="55.681"/>
<text transform="matrix(1 0 0 1 274.4326 168.7686)"><tspan x="0" y="0" font-family="'Lato-LightItalic'" font-size="8.5">CC licensed </tspan><tspan x="0" y="10.2" font-family="'Lato-LightItalic'" font-size="8.5">works have </tspan><tspan x="0" y="20.4" font-family="'Lato-LightItalic'" font-size="8.5">nearly tripled in </tspan><tspan x="0" y="30.6" font-family="'Lato-LightItalic'" font-size="8.5">the last 5 years</tspan></text>
<g>
	<path fill="none" stroke="#989898" stroke-width="0.25" stroke-linejoin="round" stroke-miterlimit="10" d="M71.299,153.65h336.725
		 M71.299,210.708h336.306 M71.299,265.867h336.306 M71.299,322.926h336.306 M71.299,378.083h336.306 M71.299,435.143h336.306"/>
</g>
<g>
	<path fill="none" stroke="#989898" stroke-width="0.25" stroke-linejoin="round" stroke-miterlimit="10" d="M71.714,153.65"/>
	<path fill="none" stroke="#989898" stroke-linejoin="round" stroke-miterlimit="10" d="M83.104,491.542"/>
</g>
<g>
	<path fill="none" stroke="#989898" stroke-width="0.25" stroke-linejoin="round" stroke-miterlimit="10" d="M78.341,491.542h4.361"
		/>
</g>
<g>
	<path fill="none" stroke="#989898" stroke-width="0.25" stroke-linejoin="round" stroke-miterlimit="10" d="M407.604,153.643
		v347.736 M371.975,491.25v10.129 M226.611,491.25v10.128 M82.702,153.643v347.735"/>
</g>
<linearGradient id="SVGID_1_" gradientUnits="userSpaceOnUse" x1="82.7246" y1="336.3062" x2="420.5679" y2="336.3062">
	<stop  offset="0" style="stop-color:#99CC00"/>
	<stop  offset="0.0941" style="stop-color:#66CC33"/>
	<stop  offset="0.1483" style="stop-color:#5FC82F"/>
	<stop  offset="0.2282" style="stop-color:#4BBE25"/>
	<stop  offset="0.324" style="stop-color:#2AAE15"/>
	<stop  offset="0.4258" style="stop-color:#009900"/>
	<stop  offset="0.5599" style="stop-color:#00A83D"/>
	<stop  offset="0.8509" style="stop-color:#00CCCC"/>
	<stop  offset="0.97" style="stop-color:#333399"/>
</linearGradient>
<polyline opacity="0.8" fill="url(#SVGID_1_)" points="407.801,491.936 82.725,491.936 82.725,452.666 83.95,452.126 
	227.299,377.009 373.063,241.137 408.643,180.677 "/>
<polyline fill="none" stroke="#333399" stroke-width="2" stroke-linecap="round" stroke-miterlimit="10" points="83.141,452.437 
	226.553,377.755 372.316,241.883 407.563,181.993 "/>
<text transform="matrix(1 0 0 1 73.7729 513.9785)" fill="#231F20" font-family="'Lato-Light'" font-size="8">2006</text>
<text transform="matrix(1 0 0 1 218.3525 513.9785)" fill="#231F20" font-family="'Lato-Light'" font-size="8">2010</text>
<text transform="matrix(1 0 0 1 363.439 513.9785)" fill="#231F20" font-family="'Lato-Light'" font-size="8">2014</text>
<text transform="matrix(1 0 0 1 398.106 513.9785)" fill="#231F20" font-family="'Lato-Light'" font-size="8">2015</text>
<text transform="matrix(1 0 0 1 19.6875 438.6172)"><tspan x="0" y="0" fill="#231F20" font-family="'Lato-Light'" font-size="8">200 </tspan><tspan x="15.464" y="0" fill="#231F20" font-family="'Lato-Light'" font-size="8">M</tspan><tspan x="22.576" y="0" fill="#231F20" font-family="'Lato-Light'" font-size="8">ILLION</tspan></text>
<text transform="matrix(1 0 0 1 19.6875 381.2842)"><tspan x="0" y="0" fill="#231F20" font-family="'Lato-Light'" font-size="8">400 </tspan><tspan x="15.464" y="0" fill="#231F20" font-family="'Lato-Light'" font-size="8">M</tspan><tspan x="22.576" y="0" fill="#231F20" font-family="'Lato-Light'" font-size="8">ILLION</tspan></text>
<text transform="matrix(1 0 0 1 19.6875 325.9512)"><tspan x="0" y="0" fill="#231F20" font-family="'Lato-Light'" font-size="8">600 </tspan><tspan x="15.464" y="0" fill="#231F20" font-family="'Lato-Light'" font-size="8">M</tspan><tspan x="22.576" y="0" fill="#231F20" font-family="'Lato-Light'" font-size="8">ILLION</tspan></text>
<text transform="matrix(1 0 0 1 19.6875 269.2852)"><tspan x="0" y="0" fill="#231F20" font-family="'Lato-Light'" font-size="8">800 </tspan><tspan x="15.464" y="0" fill="#231F20" font-family="'Lato-Light'" font-size="8">M</tspan><tspan x="22.576" y="0" fill="#231F20" font-family="'Lato-Light'" font-size="8">ILLION</tspan></text>
<text transform="matrix(1 0 0 1 31.3247 213.2852)" fill="#231F20" font-family="'Lato-Light'" font-size="8">1 BILLION</text>
<text transform="matrix(1 0 0 1 25.2124 157.292)" fill="#231F20" font-family="'Lato-Light'" font-size="8">1.2 BILLION</text>
<rect x="6.004" y="465.645" fill="none" width="61.742" height="46.333"/>
<text transform="matrix(1 0 0 1 42.3716 471.541)"><tspan x="0" y="0" fill="#000100" font-family="'Lato-Regular'" font-size="8">TOTAL</tspan><tspan x="-12.28" y="9.601" fill="#000100" font-family="'Lato-Regular'" font-size="8">LICENSED</tspan><tspan x="-4" y="19.2" fill="#000100" font-family="'Lato-Regular'" font-size="8">WORKS</tspan></text>
</svg>
