<?xml version="1.0" encoding="UTF-8" standalone="no"?>
<svg
   xmlns:dc="http://purl.org/dc/elements/1.1/"
   xmlns:cc="http://creativecommons.org/ns#"
   xmlns:rdf="http://www.w3.org/1999/02/22-rdf-syntax-ns#"
   xmlns:svg="http://www.w3.org/2000/svg"
   xmlns="http://www.w3.org/2000/svg"
   version="1.1"
   id="svg7845"
   viewBox="0 0 85.850855 142.11675"
   height="40.108505mm"
   width="24.229019mm">
  <defs
     id="defs7847" />
  <metadata
     id="metadata7850">
    <rdf:RDF>
      <cc:Work
         rdf:about="">
        <dc:format>image/svg+xml</dc:format>
        <dc:type
           rdf:resource="http://purl.org/dc/dcmitype/StillImage" />
        <dc:title></dc:title>
      </cc:Work>
    </rdf:RDF>
  </metadata>
  <g
     transform="translate(-458.74817,-655.46253)"
     id="layer1">
    <path
       id="path8399"
       d="m 458.74817,777.39157 0,-20.1875 2.44863,0 c 2.30529,0 2.54511,0.0474 4.09687,0.80961 1.73819,0.85379 4.04175,1.4235 5.21304,1.28927 1.01875,-0.11675 1.34617,-0.91236 1.15698,-2.81138 -0.0846,-0.84906 -0.29987,-1.75456 -0.47841,-2.01222 -0.43492,-0.62767 -0.41784,-1.16187 0.0316,-0.98939 0.26622,0.10215 0.35625,-0.0374 0.35625,-0.55234 0,-0.48046 -0.14379,-0.73468 -0.475,-0.8398 -0.26125,-0.0829 -0.475,-0.24323 -0.475,-0.35625 0,-0.11302 -0.20648,-0.27103 -0.45885,-0.35112 -0.28434,-0.0902 -0.44844,-0.34473 -0.43149,-0.66913 0.0768,-1.46944 -0.074,-2.30475 -0.41591,-2.30475 -0.23221,0 -0.35625,-0.23254 -0.35625,-0.66789 0,-0.36734 -0.21375,-1.1103 -0.475,-1.65103 -0.26739,-0.55343 -0.475,-1.46918 -0.475,-2.09518 0,-1.55677 -0.43909,-2.88361 -1.00308,-3.0311 -0.35657,-0.0932 -0.42574,-0.24361 -0.29767,-0.64713 0.32894,-1.03641 -0.99645,-3.83243 -1.99,-4.19807 -0.54038,-0.19886 -0.73886,-0.54467 -0.74311,-1.29469 -0.002,-0.35274 -0.3777,-1.67471 -0.83489,-2.93771 -0.45719,-1.263 -0.82697,-2.36377 -0.82174,-2.44616 0.0208,-0.32705 0.83604,1.38997 1.64272,3.45969 0.84107,2.15792 0.8759,2.20382 2.86522,3.77635 2.28512,1.80635 3.5225,2.43239 5.20043,2.63112 1.41586,0.16768 2.25307,-0.0192 2.87566,-0.64174 0.46695,-0.46695 0.46896,-0.46654 0.46896,0.0957 0,0.31057 0.16736,0.70357 0.37191,0.87333 0.53282,0.4422 1.05309,1.53027 1.05309,2.20238 0,0.31705 0.16031,0.70951 0.35625,0.87212 0.19594,0.16261 0.35625,0.49968 0.35625,0.74903 0,0.24936 0.18703,0.52238 0.41562,0.60672 0.52933,0.1953 0.76365,0.54019 0.76824,1.13075 0.002,0.25726 0.67161,1.63668 1.48801,3.06537 2.53827,4.44191 5.87403,7.50324 8.18149,7.5084 0.54842,10e-4 1.88436,0.2949 2.96875,0.65261 1.58924,0.52424 2.43228,0.65415 4.34664,0.66981 2.50505,0.0205 3.06158,0.14744 3.74988,0.85533 0.23368,0.24034 0.67646,0.43698 0.98396,0.43698 0.3075,0 0.62321,0.16709 0.70157,0.3713 0.0784,0.20422 0.25708,0.30049 0.39713,0.21392 0.16752,-0.10353 0.11189,-0.31513 -0.16259,-0.61842 -0.38637,-0.42694 -0.38912,-0.50867 -0.0371,-1.10463 0.21773,-0.36858 0.32818,-0.91553 0.2585,-1.28004 -0.0901,-0.47157 0.0679,-0.87238 0.61009,-1.54703 0.79785,-0.99282 1.18814,-2.29079 0.76708,-2.55102 -0.27343,-0.16899 0.14923,-1.21175 0.87258,-2.15283 0.20081,-0.26125 -0.0899,-0.0136 -0.64593,0.55042 -1.09596,1.11154 -1.53442,1.1703 -0.8218,0.11012 0.50795,-0.75569 0.72773,-1.98167 0.27389,-1.52783 -0.30893,0.30893 -0.89104,0.36842 -0.89104,0.0911 0,-0.10036 0.42921,-0.70188 0.9538,-1.33671 0.99958,-1.20963 0.99019,-1.6911 -0.0361,-1.85093 -0.44087,-0.0687 -0.4241,-0.13783 0.24814,-1.02363 0.55386,-0.72982 0.72249,-1.20045 0.72756,-2.03063 0.004,-0.59434 -0.10424,-1.19147 -0.23972,-1.32695 -0.16795,-0.16795 -0.16983,-0.4475 -0.006,-0.87864 0.28223,-0.74233 0.0641,-2.27937 -0.25264,-1.77981 -0.12907,0.2036 -0.20164,-0.009 -0.20398,-0.59808 -0.004,-1.12617 0.5509,-2.339 1.52271,-3.32523 1.267,-1.28581 3.99045,-3.50428 4.13029,-3.36444 0.0734,0.0734 -0.36774,0.64234 -0.98033,1.26429 -1.16571,1.1835 -1.33567,1.57228 -0.78047,1.78533 0.62704,0.24062 1.22117,-0.10419 1.69081,-0.9813 0.3941,-0.73604 0.61091,-0.88878 1.34855,-0.95005 0.62215,-0.0517 0.92173,-0.20782 1.02538,-0.53438 0.27366,-0.86223 0.58942,-0.46572 0.58942,0.74016 0,0.74053 0.0911,1.1452 0.2375,1.05473 0.27334,-0.16893 0.31842,0.81524 0.0557,1.21662 -0.096,0.14663 -0.97605,0.66791 -1.95574,1.15838 -0.97969,0.49047 -1.85977,1.01175 -1.95574,1.15838 -0.35539,0.54304 -0.15784,0.67975 0.76824,0.53167 0.58249,-0.0931 0.95,-0.0589 0.95,0.0884 0,0.3832 1.55179,0.28009 3.73786,-0.24837 1.73978,-0.42058 2.24716,-0.45368 3.64045,-0.2375 0.89041,0.13815 2.56033,0.25318 3.71093,0.25563 1.42276,0.003 2.77581,0.1836 4.22951,0.56443 3.26096,0.8543 4.25797,0.98877 4.09024,0.55166 -0.11269,-0.29367 0.0308,-0.33571 0.79551,-0.23314 1.0467,0.14039 1.20385,-0.15751 0.56457,-1.07022 -0.51244,-0.7316 -1.10865,-1.0096 -3.43157,-1.60005 -1.63958,-0.41676 -2.00488,-0.59077 -1.94492,-0.9265 0.18022,-1.009 -1.43986,-1.70191 -3.40512,-1.45637 -1.0381,0.1297 -1.24614,0.22963 -1.12661,0.54114 0.11628,0.30301 0.0521,0.34201 -0.31024,0.18849 -0.73456,-0.31123 -1.76309,-0.43531 -1.7634,-0.21272 -4.7e-4,0.39299 -1.83845,0.21437 -2.32564,-0.22602 -0.48816,-0.44126 -0.95311,-0.18972 -0.62641,0.3389 0.22612,0.36587 -0.34534,0.67797 -1.24927,0.68231 -0.41682,0.002 -0.82391,0.11051 -0.90464,0.24114 -0.40634,0.65747 -0.60581,0.13559 -0.4556,-1.19201 0.1381,-1.22068 0.10917,-1.40935 -0.198,-1.29148 -0.54387,0.20871 -0.66747,-1.36512 -0.15675,-1.99584 0.21732,-0.26839 0.44738,-0.43573 0.51123,-0.37187 0.0639,0.0639 0.34431,0.16005 0.62323,0.21376 0.36414,0.0701 0.50714,-0.0213 0.50714,-0.32411 0,-0.6975 0.28995,-0.77198 0.87301,-0.22422 l 0.55199,0.51857 0.008,-0.69453 c 0.007,-0.63386 0.0356,-0.65761 0.32817,-0.27191 0.27713,0.36529 0.33951,0.37334 0.45999,0.0594 0.0767,-0.19978 0.0237,-0.36323 -0.11762,-0.36323 -0.14956,0 -0.21396,-0.29323 -0.15406,-0.7014 0.087,-0.59265 -0.002,-0.74503 -0.57651,-0.98284 -0.84305,-0.3492 -1.84752,-1.12448 -1.84752,-1.42597 0,-0.12416 0.26638,-0.0512 0.59197,0.16213 0.77259,0.50622 3.22915,0.66492 3.80254,0.24564 0.57307,-0.41903 0.2965,-0.78751 -0.84858,-1.13058 -1.26015,-0.37755 -1.06377,-0.75553 0.51121,-0.98391 0.96734,-0.14028 1.53434,-0.0924 2.28492,0.19309 1.06479,0.40496 2.44544,1.7712 2.44544,2.41992 0,0.21563 0.23238,0.63941 0.5164,0.94174 0.78545,0.83607 0.37897,0.65806 -0.88797,-0.38888 -1.23748,-1.0226 -1.64091,-1.0507 -1.27521,-0.0888 0.35265,0.92753 0.0632,0.96411 -0.36127,0.0457 -0.3664,-0.79287 -0.36832,-0.79365 -0.23165,-0.0934 l 0.13782,0.70605 -0.51703,-0.4679 -0.51702,-0.4679 0.0892,0.5931 c 0.0502,0.33344 0.22545,0.5642 0.40037,0.52709 0.17114,-0.0363 1.01118,0.43351 1.86677,1.04404 1.34038,0.95649 1.64157,1.07981 2.17696,0.89136 0.47844,-0.1684 0.62334,-0.38122 0.63001,-0.9253 0.0117,-0.95423 0.22795,-1.24398 1.24576,-1.66925 1.04119,-0.43503 1.71433,-1.00952 1.71433,-1.46308 0,-0.18335 0.32344,-0.73584 0.71875,-1.22776 0.92138,-1.14653 1.16431,-2.83648 0.63222,-4.39808 -0.52766,-1.54861 -0.26045,-1.35275 0.56709,0.41567 0.44167,0.94383 0.7568,2.07651 0.84247,3.02813 0.14605,1.62232 0.24382,1.37537 -1.46854,3.70927 -0.36347,0.49539 -0.3507,0.58656 0.2163,1.54375 0.33143,0.55949 0.923,1.61644 1.3146,2.34878 0.39161,0.73234 1.11901,1.67128 1.61644,2.08655 0.80596,0.67283 0.86107,0.7851 0.5062,1.03128 -0.3626,0.25155 -0.33844,0.35173 0.27017,1.12016 0.8546,1.07902 2.1468,3.73866 2.1468,4.41861 0,0.28748 -0.22118,0.66955 -0.49151,0.84904 -0.40119,0.26638 -0.45069,0.43536 -0.26938,0.91959 0.12216,0.32629 0.17174,1.1842 0.11019,1.90648 -0.0889,1.04318 0.0116,1.60675 0.48883,2.74059 0.33043,0.78504 0.59206,1.58346 0.5814,1.77427 -0.0107,0.1908 -0.003,0.71563 0.018,1.16628 0.0605,1.32438 0.47786,0.5349 0.55875,-1.05687 0.0646,-1.27096 0.13018,-1.4332 0.60679,-1.50089 0.29391,-0.0417 0.53504,-0.20206 0.53584,-0.35625 7.1e-4,-0.1542 0.15303,-0.57089 0.33827,-0.92598 0.18524,-0.35508 0.37162,-0.94289 0.41416,-1.30625 0.0426,-0.36334 0.20234,-0.79325 0.3551,-0.95533 0.15275,-0.16209 0.34861,-1.01709 0.43524,-1.9 0.0866,-0.88292 0.3521,-2.35343 0.58994,-3.2678 0.23785,-0.91438 0.6108,-3.53281 0.82879,-5.81875 0.21798,-2.28594 0.4955,-4.25778 0.61669,-4.38188 0.13581,-0.13905 0.22035,0.71298 0.22035,2.22074 0,2.23417 -0.30553,4.66025 -1.33395,10.59239 -0.20381,1.17562 -0.51018,3.04594 -0.68082,4.15625 -0.17065,1.11031 -0.57237,2.60967 -0.89272,3.3319 -0.32035,0.72223 -0.65923,1.68411 -0.75305,2.1375 -0.0938,0.45339 -0.53471,1.51904 -0.97974,2.3681 -0.44503,0.84906 -0.97633,1.91781 -1.18066,2.375 -0.74041,1.65657 -1.34854,2.75198 -1.75155,3.15499 -0.14576,0.14576 -0.26501,0.4464 -0.26501,0.66809 0,0.22169 -0.27586,0.71745 -0.61302,1.10169 -0.33717,0.38424 -0.96661,1.47433 -1.39876,2.42244 -0.62926,1.38053 -1.01212,1.88478 -1.92253,2.53206 -0.62524,0.44452 -1.28594,0.80823 -1.46821,0.80823 -0.18228,0 -0.49172,0.16031 -0.68766,0.35625 -0.19594,0.19594 -0.65061,0.35625 -1.01039,0.35625 -1.03815,0 -1.61354,0.83636 -1.79733,2.6125 -0.0879,0.84906 -0.3127,2.38384 -0.49967,3.41061 -0.18696,1.02678 -0.33993,2.1089 -0.33993,2.40472 0,0.35709 2.73413,3.84042 8.13521,10.36439 4.47436,5.40459 8.54849,10.33419 9.05361,10.95465 l 0.9184,1.12813 -9.52861,0 -9.52861,0 0,-9.01098 c 0,-5.75114 -0.0859,-9.06409 -0.2375,-9.15777 -0.13063,-0.0807 -0.2375,-0.40766 -0.2375,-0.72652 0,-0.35698 -0.13688,-0.57973 -0.35625,-0.57973 -0.19594,0 -0.35625,-0.16031 -0.35625,-0.35625 0,-0.21488 -0.21991,-0.35625 -0.55417,-0.35625 -0.81109,0 -0.88624,-0.18939 -0.47899,-1.20719 0.34691,-0.86702 0.3399,-0.94968 -0.13144,-1.54888 -0.27384,-0.34815 -0.4979,-0.87856 -0.4979,-1.1787 0,-0.34561 -0.18269,-0.60371 -0.49822,-0.70385 -0.36507,-0.11587 -0.47018,-0.30483 -0.39328,-0.70709 0.0932,-0.48743 -0.009,-0.56598 -0.90736,-0.70077 -0.99955,-0.14989 -1.52289,-0.49712 -1.44657,-0.95977 0.0215,-0.13063 -0.51091,-0.25579 -1.18325,-0.27813 -1.29301,-0.043 -2.73193,-0.62342 -2.63521,-1.06301 0.0896,-0.40737 -1.24928,-0.79145 -1.72447,-0.49469 -0.24138,0.15075 -0.52966,0.16507 -0.73289,0.0364 -0.18425,-0.11664 -0.62127,-0.2137 -0.97116,-0.2157 -0.34989,-0.002 -0.79647,-0.16395 -0.99241,-0.35989 -0.19594,-0.19594 -0.73189,-0.35625 -1.191,-0.35625 -1.03826,0 -1.70099,-0.7534 -1.26991,-1.44366 0.40765,-0.65276 0.0927,-0.7622 -0.871,-0.30265 -0.68806,0.32812 -0.92273,0.35166 -1.15752,0.11611 -0.23448,-0.23523 -0.17421,-0.38633 0.2957,-0.74138 0.7809,-0.59002 0.47833,-0.85082 -0.43759,-0.37718 -0.92318,0.4774 -2.14297,0.48659 -2.32297,0.0175 -0.0954,-0.24868 -0.48337,-0.35625 -1.28478,-0.35625 -0.63145,0 -1.21413,-0.10687 -1.29486,-0.2375 -0.0807,-0.13062 -0.57927,-0.2375 -1.10786,-0.2375 -0.90944,0 -1.13165,-0.11579 -2.74149,-1.42858 -0.15777,-0.12865 -0.49368,-0.23391 -0.74647,-0.23391 -0.25278,0 -0.51538,-0.14534 -0.58355,-0.32297 -0.0686,-0.17872 -0.65288,-0.39314 -1.30819,-0.48007 -0.71097,-0.0943 -1.23812,-0.29744 -1.31902,-0.50828 -0.0741,-0.19315 -0.30977,-0.35118 -0.52366,-0.35118 -0.21389,0 -0.59111,-0.25707 -0.83826,-0.57127 -0.24715,-0.3142 -0.93603,-0.7371 -1.53084,-0.93977 -1.52433,-0.5194 -2.71319,-1.53814 -5.22571,-4.47796 -2.57557,-3.01359 -4.25206,-6.07609 -4.6523,-8.4985 -0.14029,-0.84906 -0.51074,-1.99028 -0.82324,-2.53604 -0.31249,-0.54576 -0.56816,-1.16029 -0.56816,-1.36563 0,-0.20533 -0.0924,-0.37333 -0.20522,-0.37333 -0.11286,0 -0.19302,-0.40078 -0.17812,-0.89062 0.0253,-0.83173 -0.0165,-0.88762 -0.63145,-0.84518 -0.41629,0.0287 -0.6007,-0.0481 -0.50131,-0.20893 0.0865,-0.13992 0.0622,-0.20555 -0.054,-0.14584 -0.11615,0.0597 -0.54605,0.2526 -0.95534,0.42867 -0.5575,0.23982 -0.73622,0.46313 -0.7125,0.89026 0.0268,0.48312 0.13254,0.55537 0.69262,0.47337 l 0.66096,-0.0968 -0.72033,0.7432 c -0.71358,0.73622 -1.00464,2.02683 -0.45709,2.02683 0.17136,0 0.20203,0.22797 0.0879,0.65312 -0.21379,0.7961 -0.2755,1.3034 -0.45505,3.74063 -0.077,1.045 -0.26244,2.46123 -0.41213,3.14717 -0.21267,0.97462 -0.20413,1.5307 0.0391,2.54452 0.36295,1.51296 0.19991,4.37848 -0.35059,6.16168 -0.41619,1.34816 -0.46742,3.15172 -0.11578,4.07661 0.27595,0.7258 0.12562,1.04102 -0.2956,0.61981 -0.15457,-0.15457 -0.35219,-0.28104 -0.43915,-0.28104 -0.28059,0 0.17224,1.85991 0.61924,2.54344 0.2384,0.36455 5.79283,7.1362 12.34318,15.04811 6.55035,7.91191 11.98768,14.51144 12.08297,14.66562 0.13259,0.21454 -4.26118,0.28033 -18.72201,0.28033 l -18.89527,0 0,-20.1875 z m 59.39643,-18.65648 c 0.77055,-1.37657 1.31306,-3.76303 1.07294,-4.71975 l -0.16851,-0.67139 -0.53761,0.50506 c -0.29569,0.27778 -0.61088,0.50506 -0.70043,0.50506 -0.27893,0 -0.17867,-0.53867 0.17333,-0.9313 0.43454,-0.48469 0.75765,-2.1562 0.4168,-2.1562 -0.13746,0 -0.31597,0.10688 -0.3967,0.2375 -0.31747,0.51367 -0.57403,0.1969 -0.4328,-0.53438 l 0.14907,-0.77187 -0.51272,0.45375 c -0.67458,0.59701 -0.81992,0.40607 -0.35363,-0.46459 0.20667,-0.38592 0.40791,-1.05377 0.44718,-1.48412 l 0.0714,-0.78246 -0.93181,0.84184 c -1.41238,1.276 -1.9827,1.00269 -0.81169,-0.38898 0.32656,-0.3881 0.59375,-0.80635 0.59375,-0.92944 0,-0.12309 -0.26719,-0.15674 -0.59375,-0.0748 -0.7708,0.19346 -0.75716,-0.14682 0.0441,-1.09901 0.63277,-0.75201 0.63936,-0.75376 0.83572,-0.22295 0.1849,0.49983 0.22619,0.50944 0.62777,0.14601 0.53682,-0.48582 0.98621,-0.50075 0.98621,-0.0328 0,0.43693 1.09259,0.4879 1.27267,0.0594 0.0893,-0.21259 0.19944,-0.17888 0.38785,0.11875 0.32217,0.50898 1.15443,0.54583 1.34109,0.0594 0.18998,-0.49509 0.6298,-0.44467 1.03589,0.11875 0.43118,0.59823 1.1875,0.62662 1.1875,0.0446 0,-0.34542 0.18529,-0.4275 0.93823,-0.41563 0.51603,0.008 1.07178,0.14838 1.235,0.31167 0.16322,0.16328 0.80346,0.29687 1.42275,0.29687 1.19862,0 1.54391,0.24818 1.25495,0.902 -0.0983,0.22234 -0.1966,0.45769 -0.21853,0.523 -0.58686,1.74763 -0.3497,2.35692 0.34665,0.89062 0.29467,-0.62046 0.63086,-1.12812 0.7471,-1.12812 0.28136,0 0.27025,0.0697 -0.13596,0.85263 -0.43052,0.82984 -0.28293,1.02398 0.34585,0.45494 0.50182,-0.45414 0.67856,-0.17967 0.19542,0.30347 -0.15458,0.15458 -0.2022,0.35988 -0.10584,0.45625 0.0964,0.0964 0.27463,0.018 0.39616,-0.17417 0.17732,-0.2804 0.22166,-0.25114 0.22458,0.14819 0.002,0.27367 0.20004,0.67531 0.44009,0.89255 0.40855,0.36973 0.46404,0.36449 0.86806,-0.0819 0.23738,-0.26231 0.58679,-0.47692 0.77646,-0.47692 0.21245,0 0.29114,-0.13997 0.20495,-0.36457 -0.10793,-0.28126 0.008,-0.3491 0.50896,-0.29688 0.64364,0.0671 0.6483,0.0572 0.57877,-1.23855 -0.0386,-0.71844 -0.22559,-1.83331 -0.41563,-2.47748 -0.19004,-0.64418 -0.34552,-1.51959 -0.34552,-1.94536 0,-0.42577 -0.11122,-0.84287 -0.24716,-0.92688 -0.13594,-0.084 -0.18391,-0.35204 -0.1066,-0.59562 0.15855,-0.49956 -0.68929,-1.50489 -1.14191,-1.35402 -0.15316,0.0511 -0.37569,0.4318 -0.49451,0.84609 -0.11882,0.4143 -0.32121,0.75327 -0.44977,0.75327 -0.12855,0 -0.64777,-0.37406 -1.15383,-0.83125 -0.50605,-0.45719 -1.13353,-0.83125 -1.39441,-0.83125 -0.26087,0 -0.47431,-0.15376 -0.47431,-0.3417 0,-0.22894 -0.37227,-0.38958 -1.12813,-0.48679 -0.62047,-0.0798 -1.60805,-0.25468 -2.19463,-0.38861 -0.58658,-0.13393 -2.88439,-0.29078 -5.10625,-0.34855 -2.22186,-0.0578 -4.37903,-0.16759 -4.79371,-0.24403 -0.41468,-0.0764 -1.10937,-0.0255 -1.54375,0.11328 -0.87676,0.28003 -2.97892,0.36715 -4.89155,0.20271 -0.68847,-0.0592 -1.30931,-0.0145 -1.37964,0.0993 -0.23288,0.37682 -0.54062,0.21479 -0.62197,-0.32747 -0.071,-0.47346 -0.11211,-0.44638 -0.36041,0.2375 -0.27178,0.74854 -0.26088,0.77216 0.36052,0.78118 0.63533,0.009 0.63419,0.0122 -0.13561,0.34667 -0.62342,0.27092 -0.77146,0.46794 -0.75143,1.00008 0.0137,0.36449 -0.0506,0.90476 -0.14288,1.2006 -0.12503,0.40079 -0.0848,0.50738 0.15769,0.41813 0.17903,-0.0659 0.47894,-0.0222 0.66648,0.0971 0.26538,0.16882 0.279,0.29159 0.0614,0.55374 -0.15375,0.18525 -0.21837,0.39799 -0.14361,0.47276 0.0748,0.0748 0.0167,0.35883 -0.12916,0.63127 -0.30349,0.56706 -0.19687,0.61551 0.45653,0.20745 0.56455,-0.35256 0.89605,-0.0916 0.49598,0.3905 -0.16049,0.19337 -0.21995,0.46782 -0.13215,0.60989 0.0878,0.14207 0.0209,0.4255 -0.14871,0.62985 -0.25671,0.30931 -0.24107,0.42076 0.0934,0.66532 0.36854,0.26948 0.35116,0.34097 -0.21031,0.86492 -1.05631,0.98573 -1.60332,1.88471 -1.31949,2.16854 0.18104,0.18104 0.15013,0.45642 -0.10706,0.95377 -0.49251,0.95241 -0.22376,1.11051 0.57953,0.34091 1.08484,-1.03934 1.45791,-0.6896 0.39656,0.37176 -0.35565,0.35564 -0.54003,0.74672 -0.45569,0.96651 0.0779,0.20304 -0.13422,0.83992 -0.47141,1.41528 -0.74742,1.2754 -0.75235,1.36064 -0.0787,1.36063 0.59821,0 1.49405,-1.00207 2.28912,-2.56053 0.28114,-0.55108 0.66184,-1.00196 0.84601,-1.00196 0.34744,0 0.28706,0.38042 -0.32041,2.01875 -0.26052,0.70263 -0.25841,0.70546 0.15274,0.20413 0.22931,-0.2796 0.59898,-0.84069 0.8215,-1.24687 0.39969,-0.72958 1.14031,-1.01702 1.13795,-0.44163 -7.1e-4,0.16328 -0.26452,0.72437 -0.58633,1.24687 -0.32182,0.5225 -0.58753,1.21719 -0.59048,1.54375 -0.005,0.57661 0.019,0.56804 0.8388,-0.29687 0.46428,-0.48985 0.91757,-0.89042 1.00731,-0.89016 0.32301,9.5e-4 0.25192,1.39126 -0.0855,1.67126 -0.18982,0.15754 -0.34513,0.55362 -0.34513,0.88018 0,0.52614 0.045,0.55664 0.39556,0.26779 0.21756,-0.17927 0.74109,-0.86496 1.16341,-1.52375 0.86959,-1.35652 1.76149,-2.24279 1.4237,-1.4147 -0.10656,0.26125 -0.24561,0.74219 -0.30899,1.06875 -0.0634,0.32656 -0.4237,0.98826 -0.80071,1.47045 -0.90629,1.15912 -0.92356,1.91388 -0.0414,1.81095 0.5314,-0.062 0.69511,-0.25242 0.93618,-1.08887 0.16068,-0.55755 0.52041,-1.30391 0.7994,-1.65859 0.27899,-0.35468 0.87944,-1.44819 1.33432,-2.43003 0.65438,-1.41243 0.87297,-1.70406 1.0469,-1.39673 0.15918,0.28126 -0.0144,0.83822 -0.6292,2.01875 -0.46697,0.89667 -0.95519,1.75879 -1.08495,1.9158 -0.12976,0.15701 -0.17179,0.48756 -0.0934,0.73455 0.087,0.27423 -0.0546,0.69967 -0.36371,1.09266 -0.27843,0.35397 -0.43548,0.71432 -0.34902,0.80079 0.29848,0.29847 0.96787,-0.34358 1.63389,-1.56715 0.66289,-1.21782 1.43089,-1.70486 1.1809,-0.74888 -0.0688,0.26329 -0.21916,0.53678 -0.33402,0.60777 -0.11486,0.071 -0.20438,0.30979 -0.19894,0.53067 0.007,0.2838 0.24078,0.14036 0.79704,-0.48902 0.43294,-0.48984 0.85779,-0.89062 0.94411,-0.89062 0.0863,0 -0.11921,0.545 -0.45676,1.21111 -0.33754,0.66612 -0.55309,1.27174 -0.479,1.34584 0.0741,0.0741 0.16254,0.0902 0.19655,0.0358 0.034,-0.0544 0.3842,-0.52646 0.7782,-1.04896 0.394,-0.5225 0.86527,-1.27063 1.04726,-1.6625 0.2616,-0.56331 0.35126,-0.62389 0.42816,-0.28935 0.0535,0.23273 -0.23184,1.12645 -0.63409,1.98604 -0.40225,0.85959 -0.73136,1.72011 -0.73136,1.91227 0,0.63516 0.54156,0.18308 1.20893,-1.00919 z m 10.19107,-0.32409 c 0,-0.11995 0.0653,-0.38835 0.14519,-0.59645 0.11093,-0.28907 0.044,-0.33954 -0.28348,-0.21387 -0.37759,0.14489 -0.36475,0.0611 0.10771,-0.70338 0.39288,-0.6357 0.47523,-0.97714 0.30781,-1.2763 -0.19955,-0.35657 -0.29259,-0.30462 -0.73282,0.4092 -0.93335,1.51337 -0.94457,2.59887 -0.0269,2.59887 0.26534,0 0.48245,-0.0981 0.48245,-0.21807 z m -1.67974,-0.88271 c 0.27073,-0.34418 0.48884,-0.7984 0.48469,-1.00937 -0.006,-0.31954 -0.0658,-0.30661 -0.35625,0.0774 -0.44914,0.59381 -0.44571,0.18541 0.008,-0.89939 0.44627,-1.06808 0.48906,-2.04569 0.0713,-1.62788 -0.39561,0.39561 -0.67753,0.35649 -0.51339,-0.0712 0.25825,-0.67299 -0.35298,-0.35522 -1.18385,0.61547 -0.6464,0.75516 -0.94163,0.93685 -1.32476,0.81524 -0.39048,-0.12393 -0.493,-0.0544 -0.493,0.33453 0,0.49127 0.33895,0.66579 0.56927,0.29311 0.0673,-0.10885 0.43708,-0.1517 0.8218,-0.0952 0.55851,0.082 0.73253,-10e-4 0.8634,-0.41375 0.0901,-0.28402 0.2189,-0.46141 0.28612,-0.39419 0.0672,0.0672 -0.0609,0.60182 -0.28481,1.188 -0.34431,0.90156 -0.35733,1.12195 -0.0845,1.43039 0.44422,0.50224 0.57168,0.47498 1.13651,-0.24309 z m -4.7363,-2.45099 c 0.32397,-0.98165 0.19819,-1.48789 -0.25666,-1.03303 -0.3313,0.3313 -0.60526,2.33237 -0.29289,2.13931 0.12743,-0.0788 0.37473,-0.57659 0.54955,-1.10628 z m -0.8641,-0.93053 c 0.43912,-0.36444 0.51341,-0.87752 0.1588,-1.09669 -0.34632,-0.21403 -1.19069,1.31261 -1.18098,2.13524 l 0.008,0.7125 0.31056,-0.71259 c 0.17081,-0.39193 0.48725,-0.85923 0.70321,-1.03846 z m 1.82352,1.02309 c 0.12739,-0.33507 0.23162,-0.71544 0.23162,-0.84527 0,-0.44203 -0.42743,0.0263 -0.67676,0.74154 -0.30888,0.88605 0.11054,0.98378 0.44514,0.10373 z m 11.31886,-6.56032 c -0.0758,-0.18946 -0.1321,-0.13319 -0.14349,0.14349 -0.0103,0.25036 0.0458,0.39064 0.12474,0.31172 0.0789,-0.0789 0.0873,-0.28377 0.0187,-0.45521 z m -10.629,-9.44008 c 0.24669,-0.15612 -0.0418,-0.32567 -1.05523,-0.6203 -1.59372,-0.46331 -3.69952,-0.48643 -4.46401,-0.049 -0.45699,0.26148 -0.30368,0.30631 1.26072,0.36865 0.97954,0.039 1.88263,0.17263 2.00688,0.29688 0.28568,0.28568 1.80216,0.28823 2.25164,0.004 z m -19.22231,-2.60533 c 10e-4,-0.25422 -0.11153,-0.23132 -0.47343,0.0962 -0.26125,0.23643 -0.4743,0.70721 -0.47344,1.04619 l 0.002,0.61631 0.47187,-0.7125 c 0.25952,-0.39188 0.47257,-0.86266 0.47343,-1.04619 z m 13.17082,-7.44444 c 0.15017,-0.6977 0.19296,-0.72996 0.44531,-0.33567 0.65218,1.01896 0.81542,1.17113 1.08054,1.00728 0.19872,-0.12282 0.12323,-0.36469 -0.26085,-0.83572 -0.29727,-0.36458 -0.67067,-0.86423 -0.82977,-1.11032 -0.27482,-0.4251 -0.30223,-0.42644 -0.54897,-0.0268 -0.14284,0.23134 -0.35232,0.36338 -0.46551,0.29343 -0.33831,-0.20909 -0.52404,0.77398 -0.2448,1.29573 0.37001,0.69138 0.63306,0.59948 0.82405,-0.28791 z m -42.14947,5.58126 c -0.003,-0.35922 -0.23777,-1.13407 -0.52202,-1.72188 -0.37579,-0.77714 -0.52524,-1.55476 -0.54774,-2.85 -0.0177,-1.02042 -0.25538,-2.58361 -0.55639,-3.65972 -0.36398,-1.30124 -0.44949,-1.95442 -0.27829,-2.12563 0.37966,-0.37965 0.29574,-1.50769 -0.12414,-1.66881 -0.23092,-0.0886 -0.29887,-0.25536 -0.17971,-0.44104 0.40478,-0.63075 0.72723,-2.3173 0.44304,-2.3173 -0.14961,0 -0.3882,0.11617 -0.53018,0.25815 -0.18588,0.18588 -0.22597,-0.0302 -0.14319,-0.77187 0.10567,-0.9468 0.0523,-1.0762 -0.66101,-1.60139 -0.42679,-0.31425 -1.21201,-0.7004 -1.74494,-0.8581 -0.60563,-0.17922 -0.97001,-0.42865 -0.97176,-0.66521 -0.008,-1.03584 -3.90435,-3.96158 -5.2763,-3.96158 -0.81967,0 -2.67715,0.85427 -2.67715,1.23123 0,0.10657 -0.0966,0.19377 -0.21457,0.19377 -0.11802,0 -0.25161,-1.01932 -0.29688,-2.26515 -0.0614,-1.69016 -0.17273,-2.32135 -0.43855,-2.48651 -0.29369,-0.18248 -0.30412,-0.30546 -0.0594,-0.70037 0.38837,-0.62666 0.3772,-1.18206 -0.0269,-1.33712 -0.33384,-0.12811 -0.6911,-2.16323 -0.72605,-4.13585 -0.0104,-0.58781 -0.10956,-1.20908 -0.22032,-1.38059 -0.12579,-0.19478 -0.0569,-0.47148 0.18345,-0.73709 0.32954,-0.36413 0.35344,-0.70596 0.1663,-2.37864 -0.13522,-1.20861 -0.13338,-2.26183 0.005,-2.76235 0.14665,-0.53112 0.13553,-1.13515 -0.0324,-1.75867 -0.2112,-0.78434 -0.1874,-1.05398 0.1367,-1.54862 0.31043,-0.47378 0.33266,-0.67093 0.10639,-0.94357 -0.15732,-0.18957 -0.203,-0.47903 -0.1015,-0.64326 0.1015,-0.16422 0.26183,-0.73 0.3563,-1.25727 0.32602,-1.81963 0.96578,-3.78554 1.4197,-4.36262 0.25044,-0.31838 0.45535,-0.92544 0.45535,-1.34902 0,-0.42358 0.14844,-0.89333 0.32986,-1.0439 0.18143,-0.15057 0.44646,-0.73678 0.58895,-1.30268 0.33538,-1.33191 1.94511,-3.56449 5.21679,-7.23528 0.74011,-0.8304 1.43112,-1.65868 1.53558,-1.84063 0.10446,-0.18195 0.53196,-0.33421 0.95,-0.33836 0.70306,-0.007 0.72711,-0.0325 0.32066,-0.34045 -0.45253,-0.34284 -0.35315,-0.8395 0.16798,-0.8395 0.16186,0 0.66321,-0.36533 1.11411,-0.81185 0.64358,-0.63732 0.95633,-0.78488 1.4548,-0.68644 0.50288,0.0993 0.81169,-0.0513 1.48438,-0.72398 0.46716,-0.46717 0.84939,-0.94576 0.84939,-1.06354 0,-0.11778 0.438,-0.2729 0.97334,-0.3447 0.53534,-0.0718 1.21336,-0.35603 1.50671,-0.63162 0.29334,-0.27558 0.84393,-0.54237 1.22353,-0.59286 0.91871,-0.12219 1.52142,-0.37292 1.52142,-0.63292 0,-0.11665 0.32062,-0.21209 0.7125,-0.21209 0.475,0 0.7125,-0.11875 0.7125,-0.35625 0,-0.23413 0.23427,-0.35625 0.68342,-0.35625 0.37588,0 0.81166,-0.15452 0.9684,-0.34338 0.21182,-0.25523 0.43663,-0.28571 0.87579,-0.11875 0.32494,0.12355 0.74417,0.22463 0.9316,0.22463 0.39823,0 0.45581,-0.73998 0.0863,-1.10946 -0.39413,-0.39413 0.74721,-1.51604 1.37522,-1.35181 0.27125,0.0709 0.71137,0.0122 0.97805,-0.13052 0.32004,-0.17128 0.5349,-0.17854 0.63204,-0.0213 0.23404,0.37868 0.78757,0.27823 1.36602,-0.24788 0.29391,-0.26732 0.70366,-0.64138 0.91055,-0.83125 0.5829,-0.53495 0.99196,-0.40711 0.4456,0.13925 -1.02336,1.02336 -1.09789,2.4215 -0.10886,2.04197 0.25552,-0.0981 0.33898,-0.30543 0.24371,-0.6056 -0.11774,-0.37095 -0.0534,-0.43256 0.3434,-0.32879 0.34625,0.0905 0.45344,0.033 0.3685,-0.19781 -0.0659,-0.17903 -0.0408,-0.44309 0.0558,-0.58682 0.29489,-0.43877 1.23728,-0.83985 1.53745,-0.65434 0.15579,0.0963 0.63629,0.21128 1.06777,0.25554 l 0.78453,0.0805 -0.15304,-0.95706 c -0.0842,-0.52638 -0.0687,-0.95706 0.0344,-0.95706 0.35523,0 1.73045,1.73512 1.61456,2.03711 -0.13132,0.34222 1.03469,1.20352 1.28732,0.9509 0.0901,-0.0901 0.007,-0.27304 -0.18554,-0.4065 -0.26438,-0.18364 -0.27715,-0.27198 -0.0525,-0.36313 0.43617,-0.17698 0.3617,-0.77907 -0.15217,-1.23031 -0.24698,-0.21688 -0.51186,-0.76838 -0.58863,-1.22557 l -0.13958,-0.83125 0.58745,0.7125 c 0.3231,0.39188 0.58798,0.61578 0.58863,0.49757 7.1e-4,-0.11822 0.21493,-0.0215 0.47618,0.21493 0.26125,0.23643 0.475,0.55215 0.475,0.7016 0,0.14945 0.36878,0.40508 0.81952,0.56807 0.51364,0.18574 0.77449,0.41372 0.69885,0.61082 -0.1951,0.50842 0.68104,0.69971 1.02849,0.22454 0.41995,-0.57431 0.38787,-0.68393 -0.29061,-0.99307 -0.5312,-0.24202 -0.86133,-0.81235 -0.41563,-0.718 0.42262,0.0894 1.02419,-0.37464 1.36114,-1.05007 0.33276,-0.66703 0.32824,-0.76821 -0.0535,-1.19889 -0.40608,-0.45808 -0.40242,-0.46273 0.13988,-0.17792 0.51135,0.26854 0.544,0.25196 0.39962,-0.20295 -0.0865,-0.27246 -0.1011,-0.49538 -0.0325,-0.49538 0.20239,0 1.44181,2.21732 1.44662,2.58797 0.002,0.18694 0.15502,0.39039 0.33912,0.45212 0.23534,0.0789 0.28818,-0.009 0.17796,-0.29628 -0.10041,-0.26166 -0.0553,-0.37469 0.12544,-0.31444 0.59585,0.19862 0.44651,0.66683 -0.25761,0.80765 -0.40098,0.0802 -0.67104,0.23968 -0.60014,0.3544 0.21467,0.34733 0.83088,0.23651 1.71164,-0.30784 l 0.83558,-0.51641 -0.6888,-0.57938 c -0.48527,-0.40818 -0.54844,-0.52834 -0.21379,-0.40664 1.27941,0.46528 1.37722,0.45773 1.08735,-0.0839 -0.15005,-0.28036 -0.4128,-0.50975 -0.5839,-0.50975 -0.17109,0 -0.51468,-0.23627 -0.76352,-0.52505 l -0.45243,-0.52506 0.68742,0.43425 c 0.63556,0.40149 0.70408,0.40448 0.90825,0.0396 0.14184,-0.25345 0.38445,-0.34268 0.67821,-0.24945 0.25649,0.0814 0.45737,0.0338 0.45737,-0.10834 0,-0.47712 0.97962,-1.26888 1.24348,-1.00502 0.16964,0.16964 0.12118,0.37079 -0.15616,0.64813 -0.22118,0.22117 -0.34255,0.55741 -0.26973,0.74719 0.0728,0.18978 0.13241,0.38975 0.13241,0.44437 0,0.0546 0.16922,0.0993 0.37604,0.0993 0.20682,0 0.33699,0.0802 0.28926,0.17812 -0.0477,0.098 -0.23267,0.46887 -0.41096,0.82422 -0.2616,0.52138 -0.2664,0.71571 -0.0249,1.00676 0.36515,0.43998 0.72051,0.26301 0.72051,-0.35881 0,-0.61848 1.8845,-2.83779 2.40968,-2.83779 0.32535,0 0.23429,0.39072 -0.16909,0.7255 -0.67806,0.56273 -1.1095,1.68492 -0.97246,2.52939 0.11877,0.73189 0.0854,0.79195 -0.36088,0.65029 -0.32896,-0.10441 -0.43794,-0.069 -0.32923,0.10688 0.0894,0.14462 0.371,0.26294 0.62582,0.26294 0.25482,0 0.64633,0.21375 0.87002,0.475 0.22369,0.26125 0.54326,0.475 0.71017,0.475 0.36021,0 0.41691,-1.32685 0.066,-1.54375 -0.13063,-0.0807 -0.2375,-0.26598 -0.2375,-0.41167 0,-0.14568 0.24735,-0.0325 0.54968,0.25152 0.69107,0.64923 0.82241,0.64667 0.92381,-0.018 0.0448,-0.2939 0.21259,-0.50765 0.37277,-0.475 0.16018,0.0327 0.29124,-0.0261 0.29124,-0.13062 0,-0.33339 -0.55575,-0.76 -0.99005,-0.76 -0.27737,0 -0.37322,-0.12203 -0.28218,-0.35927 0.0758,-0.19761 0.006,-0.51823 -0.15528,-0.7125 -0.49649,-0.59824 0.12272,-0.38994 0.71501,0.24052 0.57758,0.61481 1.69624,0.79055 2.35973,0.37071 0.273,-0.17275 0.28266,-0.28602 0.0485,-0.56823 -0.41665,-0.50203 -1.76832,-1.10328 -2.56282,-1.13999 -0.62593,-0.0289 -0.61435,-0.0432 0.15464,-0.19097 1.20208,-0.23095 3.14673,0.76582 5.67331,2.90797 0.53694,0.45524 0.98722,0.64722 1.35372,0.57716 0.50266,-0.0961 0.81047,0.19582 0.81047,0.76861 0,0.45491 -0.80942,0.44432 -1.46024,-0.0191 -0.84663,-0.60286 -1.11424,-0.46084 -0.51614,0.27391 1.35312,1.66229 1.81098,2.10965 2.02423,1.97785 0.13063,-0.0807 0.17614,-0.45357 0.10115,-0.82854 -0.1261,-0.63052 -0.10113,-0.65976 0.33232,-0.38906 0.25777,0.16098 0.46868,0.37902 0.46868,0.48453 0,0.10552 0.21375,0.63426 0.475,1.17498 0.26125,0.54073 0.475,1.13885 0.475,1.32916 0,0.3384 0.18109,0.56782 1.65327,2.09442 0.81186,0.84188 0.87943,1.03284 0.36548,1.03284 -0.19594,0 -0.35625,0.16031 -0.35625,0.35625 0,0.47114 0.46951,0.45454 0.82316,-0.0291 0.20276,-0.27729 0.44321,-0.33403 0.85744,-0.20235 0.43229,0.13742 0.4865,0.2186 0.2177,0.32598 -0.56895,0.22726 -1.6608,1.26954 -1.6608,1.5854 0,0.4062 0.67169,0.61568 1.14533,0.35719 0.21913,-0.11959 0.55873,-0.44848 0.75467,-0.73086 0.19594,-0.28238 0.52231,-0.60419 0.72527,-0.71513 0.29968,-0.1638 0.37337,-0.0486 0.39212,0.61296 0.0184,0.6503 -0.068,0.81467 -0.4284,0.81467 -0.24832,0 -0.45149,0.16031 -0.45149,0.35625 0,0.19594 -0.16922,0.35625 -0.37604,0.35625 -0.20683,0 -0.32864,0.13359 -0.2707,0.29687 0.13501,0.38046 1.16457,0.27016 1.48711,-0.15932 0.26395,-0.35146 1.625,-0.23842 1.4055,0.11674 -0.068,0.10998 -0.27957,0.14011 -0.47023,0.067 -0.2045,-0.0785 -0.41505,0.0475 -0.51348,0.30724 -0.26374,0.69598 -0.70505,1.03402 -1.34993,1.03402 -0.69486,0 -0.92582,0.27044 -0.71039,0.83185 0.15614,0.40688 0.32617,0.40573 2.40128,-0.0163 0.95242,-0.1937 1.02058,0.221 0.25906,1.57594 -0.42446,0.75522 -0.46037,0.97563 -0.20842,1.27921 0.16742,0.20173 0.50171,0.36678 0.74287,0.36678 0.31074,0 0.39444,0.1147 0.28735,0.39379 -0.12954,0.33757 -0.024,0.37316 0.73924,0.2493 0.7598,-0.1233 0.84843,-0.094 0.60448,0.19996 -0.20186,0.24323 -0.20752,0.34445 -0.0193,0.34445 0.14662,0 0.26658,0.15767 0.26658,0.35037 0,0.27797 0.12589,0.30251 0.60921,0.11875 0.83352,-0.3169 0.8696,-0.30093 0.57286,0.25352 -0.21464,0.40106 -0.16464,0.56434 0.28852,0.9421 0.66845,0.55723 0.99189,0.58344 1.38311,0.11205 0.24345,-0.29334 0.23042,-0.43748 -0.0698,-0.77187 -0.20304,-0.22614 -0.40482,-0.7318 -0.44841,-1.12367 -0.0643,-0.57822 -0.17995,-0.70184 -0.61362,-0.65593 -0.42615,0.0451 -0.53437,-0.0631 -0.53437,-0.53437 0,-0.59741 -0.32384,-0.79018 -0.59375,-0.35345 -0.0807,0.13062 -0.31735,0.2375 -0.52583,0.2375 -0.34194,0 -0.34057,-0.0425 0.014,-0.43433 0.47027,-0.51964 0.51714,-1.22817 0.0812,-1.22817 -0.1715,0 -0.61899,0.32062 -0.99443,0.7125 -0.37544,0.39187 -0.79328,0.7125 -0.92853,0.7125 -0.13525,0 -0.008,-0.1668 0.28329,-0.37067 0.97861,-0.68544 1.6227,-2.47933 0.89019,-2.47933 -0.22354,0 -0.29592,-0.13777 -0.20157,-0.38366 0.11661,-0.30389 0.0424,-0.3504 -0.35678,-0.22369 -0.46321,0.14702 -0.48044,0.11559 -0.2128,-0.38822 0.6452,-1.21456 0.65717,-1.21909 1.3835,-0.52322 0.37755,0.36171 0.68645,0.88893 0.68645,1.1716 0,0.58744 1.01526,2.60875 1.66552,3.31594 0.24022,0.26125 0.50861,0.76452 0.59642,1.11838 0.0878,0.35386 0.30949,0.76773 0.49261,0.91971 0.18312,0.15198 0.33295,0.50905 0.33295,0.79349 0,0.28444 0.12475,0.64192 0.27721,0.79438 0.21129,0.21129 0.18305,0.31336 -0.11875,0.42916 -0.42557,0.16331 -0.52063,0.96151 -0.17879,1.50136 0.28947,0.45717 0.97033,0.14649 0.97033,-0.44278 0,-0.56752 0.4276,-0.64483 0.63125,-0.11412 0.08,0.20852 -0.0778,0.60161 -0.36371,0.90594 -0.66054,0.70311 -0.64803,1.15407 0.0293,1.05787 0.42647,-0.0606 0.55943,-0.26772 0.65846,-1.02589 l 0.12409,-0.95 0.3777,0.7125 c 0.20774,0.39187 0.33329,0.8363 0.27901,0.98761 -0.0543,0.15131 0.0138,0.34465 0.15133,0.42964 0.13752,0.085 0.25004,0.26141 0.25004,0.39203 0,0.13063 -0.10688,0.17145 -0.2375,0.0907 -0.13856,-0.0856 -0.2375,0.15587 -0.2375,0.57973 0,0.56819 0.10352,0.72652 0.475,0.72652 0.29218,0 0.475,-0.15833 0.475,-0.41138 0,-0.26002 0.23304,-0.0684 0.63333,0.52065 0.34833,0.51262 0.63333,1.21444 0.63333,1.55961 0,0.40198 0.17397,0.70572 0.48396,0.84497 0.78789,0.35394 1.64012,2.78692 1.69838,4.84865 0.0324,1.14485 0.19758,2.06196 0.46246,2.56695 0.37581,0.71647 0.37912,0.82218 0.0376,1.19951 -0.30157,0.33322 -0.32771,0.58319 -0.13425,1.28384 0.13212,0.47852 0.33964,0.93148 0.46115,1.00658 0.2536,0.15673 0.0456,1.51738 -0.29909,1.95643 -0.12719,0.16201 -0.2871,0.9903 -0.35535,1.84063 -0.0683,0.85033 -0.19204,1.54606 -0.27508,1.54606 -0.31851,0 -0.95801,1.60485 -1.18299,2.96875 -0.12928,0.78375 -0.46134,2.11969 -0.73791,2.96875 -0.27656,0.84906 -0.60359,1.87196 -0.72672,2.27311 -0.12313,0.40115 -0.22387,1.71668 -0.22387,2.92339 0,1.40221 -0.0857,2.14106 -0.2375,2.04725 -0.13063,-0.0807 -0.2375,-1.12148 -0.2375,-2.31278 0,-1.91972 -0.31671,-3.63534 -0.7349,-3.98097 -0.079,-0.0653 -0.20703,-0.74851 -0.28447,-1.51821 -0.0774,-0.7697 -0.25382,-1.51248 -0.39196,-1.65062 -0.13815,-0.13814 -0.25117,-0.72222 -0.25117,-1.29794 0,-0.96482 -0.10692,-1.14887 -1.36563,-2.35072 -0.75109,-0.71717 -1.8148,-1.56788 -2.3638,-1.89048 -1.11625,-0.65592 -3.57179,-1.03797 -3.84369,-0.59802 -0.0902,0.1459 -0.9183,0.30331 -1.84028,0.3498 -1.71744,0.0866 -2.47528,0.42556 -3.5091,1.56951 -0.73904,0.81776 -0.25802,0.83906 1.12169,0.0497 1.35464,-0.77504 2.00135,-0.98173 1.21808,-0.38929 -0.63907,0.48336 -0.34087,0.4474 0.87867,-0.10598 0.56942,-0.25839 1.46281,-0.46305 1.98531,-0.45481 l 0.95,0.015 -1.23131,0.29854 c -1.39058,0.33715 -2.53497,0.99384 -2.32474,1.334 0.0772,0.12489 -0.0666,0.22706 -0.3196,0.22706 -0.25297,0 -0.59274,0.16002 -0.75506,0.3556 -0.25851,0.31149 -0.11891,0.33717 1.12562,0.20709 0.94738,-0.099 1.47589,-0.0592 1.5863,0.11941 0.10303,0.16671 -0.0247,0.2679 -0.3382,0.2679 -0.8166,0 -2.93135,0.74286 -3.41664,1.20018 -0.79584,0.74998 -0.35996,1.11958 1.07908,0.91499 0.69825,-0.0993 1.7683,-0.18829 2.37788,-0.19783 0.65923,-0.0103 1.15041,-0.13763 1.21218,-0.31421 0.0747,-0.21352 0.24694,-0.16985 0.61354,0.15556 0.28034,0.24884 0.5097,0.33167 0.5097,0.18406 0,-0.38425 1.41316,-0.0701 2.11015,0.46909 0.31152,0.24099 0.76849,0.43816 1.01548,0.43816 1.1157,0 -1.04397,-2.38619 -2.57581,-2.84599 l -0.66857,-0.20068 0.79242,-0.0204 c 1.37573,-0.0354 3.83883,2.14096 3.83883,3.392 0,0.21317 -0.11831,0.38759 -0.26291,0.38759 -0.15741,0 -0.19408,0.16679 -0.0914,0.41562 0.34526,0.83658 0.56099,2.06945 0.38337,2.19088 -0.10037,0.0686 -0.25149,0.31178 -0.33583,0.54037 -0.11133,0.30175 -0.41569,0.41563 -1.1108,0.41563 -0.5266,0 -0.95745,-0.10687 -0.95745,-0.2375 0,-0.13062 0.10352,-0.2375 0.23005,-0.2375 0.3526,0 -7.2e-4,-0.78141 -0.56136,-1.24159 -0.68323,-0.56079 -1.01625,-0.52276 -0.9938,0.11346 0.0154,0.43736 -0.0889,0.51939 -0.57489,0.45183 -0.32656,-0.0454 -0.70063,-0.16691 -0.83125,-0.27002 -0.13063,-0.10311 -0.68857,-0.26186 -1.23988,-0.35277 -1.27475,-0.21021 -2.20387,-0.92804 -2.20387,-1.70267 0,-0.50125 -0.0967,-0.58074 -0.62917,-0.51714 -0.34604,0.0413 -0.74383,0.25829 -0.88396,0.48214 -0.2041,0.32601 -0.11436,0.5564 0.45104,1.15795 0.91053,0.96874 3.3102,2.11588 4.42667,2.11612 0.47896,10e-5 0.91317,0.12718 0.9649,0.2824 0.0558,0.16736 0.86124,0.34608 1.97917,0.43915 1.03681,0.0863 1.58399,0.17308 1.21597,0.1928 -0.57788,0.031 -0.64712,0.10871 -0.50769,0.57022 0.0888,0.2939 0.44333,0.84234 0.78787,1.21875 0.70124,0.76609 0.64198,0.75881 -1.04118,-0.12788 -2.76278,-1.45543 -5.8427,-2.03724 -6.62791,-1.25204 -0.20527,0.20527 -0.37485,0.76636 -0.37685,1.24688 -0.005,1.17937 -0.37404,0.58983 -0.71696,-1.14509 -0.36599,-1.85158 -1.81686,-6.01392 -2.73925,-7.85848 -0.67,-1.33984 -0.7537,-1.6922 -0.58241,-2.45168 0.16251,-0.72052 0.13716,-0.86283 -0.1351,-0.75835 -0.77295,0.2966 -0.25505,-0.62171 0.79298,-1.40607 2.47263,-1.85055 3.42656,-2.51081 3.27631,-2.26771 -0.0914,0.1479 0.0356,0.25479 0.30274,0.25479 0.28742,0 0.57101,-0.26751 0.75533,-0.7125 0.3408,-0.82277 0.70263,-0.92029 0.88118,-0.2375 0.15826,0.60519 0.56428,0.60519 1.08246,0 0.29766,-0.34764 0.70061,-0.475 1.50288,-0.475 1.31532,0 3.64725,0.57595 4.88165,1.2057 1.50033,0.76541 1.53057,0.72726 1.47353,-1.85883 -0.0887,-4.01876 -0.60133,-6.31154 -2.111,-9.44062 -0.56719,-1.17563 -1.10327,-2.40469 -1.19128,-2.73125 -0.28467,-1.05628 -1.5513,-3.07959 -2.87087,-4.58596 -0.70838,-0.80866 -1.67963,-2.0581 -2.15832,-2.77654 -0.47868,-0.71844 -1.14341,-1.55354 -1.47716,-1.85578 -1.32912,-1.20364 -3.48333,-2.52984 -4.11578,-2.53382 -0.60456,-0.004 -0.64776,0.0547 -0.52335,0.70835 l 0.1356,0.7125 -0.54539,-0.67015 c -1.24368,-1.52814 -2.53622,-2.8807 -2.64701,-2.76991 -0.22535,0.22535 0.46609,3.20504 0.89472,3.85568 0.23665,0.35922 0.33207,0.65313 0.21204,0.65313 -0.30673,0 -1.59955,-1.39364 -2.1523,-2.32018 -0.25477,-0.42703 -1.12069,-1.3714 -1.92427,-2.09861 -0.80359,-0.7272 -1.52581,-1.58015 -1.60494,-1.89545 -0.0915,-0.36458 -0.31509,-0.57326 -0.61419,-0.57326 -0.25867,0 -1.01632,-0.47764 -1.68367,-1.06142 -0.66735,-0.58378 -1.26133,-1.01345 -1.31995,-0.95483 -0.37781,0.37781 1.8785,2.74242 6.96836,7.30282 0.52206,0.46775 0.88666,0.91299 0.81023,0.98942 -0.0764,0.0764 -0.74898,-0.39485 -1.49456,-1.04729 -2.39551,-2.09626 -3.11395,-2.19187 -1.70197,-0.2265 0.48299,0.67229 0.73674,1.13755 0.56389,1.03392 -0.53755,-0.32229 -4.09386,-3.33511 -4.49381,-3.80704 -0.52556,-0.62016 -0.71205,-1.23189 -0.40657,-1.33371 0.14078,-0.0469 -0.66679,-1.00808 -1.79459,-2.13588 -1.12781,-1.12781 -2.05056,-1.92058 -2.05056,-1.76172 0,0.15886 0.53191,0.81275 1.18203,1.45309 0.65011,0.64034 1.13755,1.20873 1.0832,1.26308 -0.0544,0.0544 -0.55955,-0.21725 -1.12266,-0.60357 -0.5631,-0.38632 -1.29101,-0.87783 -1.61757,-1.09225 -0.32656,-0.21441 -0.83422,-0.56393 -1.12813,-0.7767 -1.22133,-0.88417 -0.37101,0.12978 2.13036,2.54032 1.4656,1.41238 2.59112,2.64158 2.50116,2.73154 -0.09,0.09 -0.44748,-0.0379 -0.79449,-0.28423 -1.48045,-1.05076 -1.90679,-1.27662 -2.41203,-1.2778 -0.90571,-0.002 -0.60416,0.41182 1.1875,1.63007 0.94704,0.64393 2.14938,1.61734 2.67188,2.16312 l 0.95,0.99234 -0.95,-0.1684 c -0.5225,-0.0926 -1.12841,-0.26036 -1.34647,-0.37274 -0.23848,-0.12292 -0.42782,-0.11029 -0.47514,0.0317 -0.0433,0.12983 -0.59469,-0.13083 -1.22538,-0.57923 -0.71879,-0.51104 -1.40708,-0.80786 -1.84447,-0.79543 -0.66324,0.0189 -0.67813,0.0416 -0.30073,0.45859 0.37258,0.41169 0.36986,0.43874 -0.044,0.43874 -0.2426,0 -1.22389,-0.81652 -2.18065,-1.81449 -0.95676,-0.99797 -1.80907,-1.74498 -1.89402,-1.66002 -0.085,0.0849 0.15836,0.49806 0.54071,0.91801 0.38236,0.41995 -0.18536,-0.0621 -1.26158,-1.07123 -1.85051,-1.73513 -2.91198,-2.27842 -2.91198,-1.49042 0,0.18939 0.90844,1.10934 2.01875,2.04432 1.83914,1.54873 2.33641,2.12383 1.83638,2.12383 -0.24407,0 -1.83846,-1.07936 -3.0731,-2.08041 -0.54958,-0.4456 -1.1117,-0.74066 -1.24917,-0.6557 -0.13747,0.085 -0.53052,-0.0662 -0.87343,-0.33596 -0.63044,-0.4959 -1.74693,-0.67168 -1.74693,-0.27503 0,0.11846 0.58708,0.40005 1.30462,0.62574 0.71753,0.2257 1.49238,0.56394 1.72187,0.75165 0.37517,0.30686 0.3334,0.3254 -0.41399,0.18374 -0.45719,-0.0867 -1.57938,-0.29877 -2.49375,-0.47135 -0.91438,-0.17259 -2.13016,-0.48342 -2.70174,-0.69074 -2.08477,-0.75617 -2.51639,-0.31699 -0.57755,0.58767 0.74076,0.34564 0.80595,0.42542 0.36045,0.44116 -0.29911,0.0106 -0.94036,-0.18081 -1.425,-0.4253 -1.25008,-0.63063 -2.04964,-0.85898 -1.84429,-0.52671 0.11759,0.19027 -0.31221,0.24885 -1.49339,0.20357 -1.65821,-0.0636 -2.33054,0.14031 -1.71575,0.52027 0.21104,0.13043 -0.22485,0.26082 -1.23269,0.36875 -1.24799,0.13365 -1.58265,0.25671 -1.67675,0.61656 -0.0656,0.25079 -0.3262,0.44959 -0.5894,0.44959 -0.55927,0 -0.87244,0.64727 -0.51914,1.07297 0.18772,0.22619 0.0682,0.36336 -0.48449,0.55603 -0.69452,0.24211 -0.72504,0.22764 -0.57185,-0.27099 0.15856,-0.51607 0.14807,-0.51472 -0.5169,0.067 -1.29387,1.13186 -1.86031,1.78264 -1.79988,2.06786 0.0724,0.34153 -0.88642,0.86891 -2.24334,1.23395 -1.13156,0.30441 -1.88621,0.97319 -1.09815,0.97319 0.25963,0 0.72693,-0.19424 1.03846,-0.43164 0.71724,-0.5466 2.08197,-1.10071 2.26361,-0.91907 0.076,0.076 -0.0964,0.51791 -0.38324,0.98197 -0.2868,0.46406 -0.42373,0.84374 -0.30428,0.84374 0.30338,0 0.20573,0.89833 -0.13465,1.23871 -0.41517,0.41517 -0.34307,0.66129 0.19371,0.66129 0.57555,0 0.58446,0.0872 0.0866,0.84702 -0.46463,0.7091 -0.31221,0.95294 0.36808,0.58887 0.76464,-0.40923 0.60607,0.13052 -0.21716,0.73916 -0.74891,0.55369 -0.96299,1.38745 -0.35625,1.38745 0.61927,0 0.38814,0.36961 -0.56671,0.90627 -1.08502,0.60981 -1.45204,0.65088 -1.45204,0.16248 0,-0.19594 -0.16031,-0.35625 -0.35625,-0.35625 -0.52561,0 -0.43657,-0.26952 0.29687,-0.89858 l 0.65313,-0.56018 -0.95,0.4991 c -0.5225,0.27451 -1.27063,0.5837 -1.6625,0.68709 -0.92487,0.24403 -1.02066,1.11581 -0.11875,1.08071 0.32656,-0.0127 0.78078,-0.1043 1.00937,-0.20353 0.34537,-0.14993 0.41563,-0.0557 0.41563,0.55748 0,0.40585 0.11961,0.73791 0.26581,0.73791 0.14619,0 0.89556,-0.38256 1.66526,-0.85012 0.76969,-0.46757 1.51618,-0.81121 1.65885,-0.76366 0.14266,0.0476 -0.39295,0.80631 -1.19026,1.68611 -2.10945,2.32769 -1.94538,2.61516 0.57309,1.00411 0.72131,-0.46142 1.36284,-0.83894 1.42561,-0.83894 0.4151,0 -0.0879,0.71406 -1.35455,1.92313 -0.80777,0.77103 -1.30914,1.40187 -1.11414,1.40187 0.195,0 0.562,-0.15691 0.81556,-0.3487 0.97454,-0.7371 1.10809,-0.27086 0.22352,0.78039 -1.08215,1.28606 -0.56101,1.39163 0.79998,0.16206 0.50605,-0.45719 0.98729,-0.83125 1.06943,-0.83125 0.33497,0 0.11681,0.83526 -0.34716,1.32913 -0.27307,0.29067 -0.45932,0.7215 -0.41389,0.95739 0.0696,0.36151 0.24094,0.28585 1.09024,-0.48144 1.23369,-1.11456 1.32784,-0.73586 0.14309,0.57551 -0.4755,0.52633 -0.78657,1.03429 -0.69125,1.12881 0.0953,0.0945 0.60236,-0.33581 1.12677,-0.95628 0.91619,-1.08401 1.37904,-1.38571 1.37904,-0.89888 0,0.12608 -0.32063,0.5944 -0.7125,1.04072 -1.08799,1.23915 -0.84816,1.52808 0.35094,0.42279 0.5849,-0.53914 1.11927,-0.98025 1.1875,-0.98025 0.34674,0 0.018,0.57861 -0.94469,1.6625 -0.58781,0.66185 -1.06875,1.31975 -1.06875,1.46201 0,0.31152 0.42961,0.006 1.86914,-1.33009 1.28751,-1.19481 0.90594,-0.36444 -0.42534,0.92566 -0.53284,0.51635 -0.9688,1.03799 -0.9688,1.1592 0,0.1212 0.39011,0.15706 0.86692,0.0797 l 0.86693,-0.14068 -0.60006,0.64398 c -1.51189,1.62256 -3.5051,4.66384 -4.10877,6.26926 -0.35928,0.95547 -0.89447,2.32503 -1.1893,3.04347 -0.53424,1.30179 -1.76265,7.36172 -2.25496,11.12404 -0.14253,1.08916 -0.48655,2.69228 -0.7645,3.5625 -0.32326,1.01208 -0.52187,2.30965 -0.55117,3.60096 -0.0252,1.11031 -0.16545,2.31961 -0.3117,2.68734 -0.40406,1.016 -0.34323,1.40672 0.19253,1.23667 0.41746,-0.1325 0.43521,-0.084 0.19866,0.54272 -0.31371,0.8311 -0.10778,1.47256 0.52594,1.63828 0.37026,0.0968 0.41966,0.21299 0.23631,0.55559 -0.34559,0.64574 -0.28439,1.21086 0.24317,2.24565 0.60344,1.18361 0.59935,1.79661 -0.0172,2.58047 -0.63113,0.80236 -0.93142,0.7936 -0.93798,-0.0273 z m 54.39272,-25.80272 c 0,-0.18196 0.16708,-0.39496 0.3713,-0.47332 0.20422,-0.0784 0.31063,-0.24066 0.23648,-0.36064 -0.17636,-0.28536 -1.55778,0.23212 -1.55778,0.58354 0,0.35425 0.24734,0.58126 0.63333,0.58126 0.17417,0 0.31667,-0.14888 0.31667,-0.33084 z m 11.4,-14.31608 c 0,-0.0877 -0.18703,-0.37049 -0.41563,-0.62845 -0.30622,-0.34557 -0.33709,-0.49649 -0.11727,-0.57336 0.4125,-0.14425 0.12376,-0.53877 -0.39431,-0.53877 -0.2333,0 -0.61761,-0.21375 -0.85404,-0.475 -0.23643,-0.26125 -0.57992,-0.475 -0.76331,-0.475 -0.18394,0 0.22896,0.63893 0.92089,1.425 1.1535,1.31045 1.62367,1.67692 1.62367,1.26558 z m -0.31726,-4.69337 c -0.0786,-0.20471 -0.2645,-0.37221 -0.4132,-0.37221 -0.14896,0 -0.20563,0.16869 -0.1262,0.37568 0.0793,0.20662 0.14416,0.49518 0.14416,0.64125 0,0.19373 0.0728,0.19279 0.26903,-0.003 0.14797,-0.14797 0.20477,-0.43653 0.12621,-0.64125 z m 1.26726,0.25572 c 0,-0.40413 -1.85131,-2.18079 -2.05753,-1.97456 -0.0914,0.0914 0.15832,0.51199 0.55503,0.93456 0.39671,0.42258 0.78943,0.96212 0.87272,1.199 0.16049,0.45646 0.62978,0.33798 0.62978,-0.159 z m -65.76269,-8.54326 c 0.56702,-0.417 0.81238,-1.34717 0.35536,-1.34717 -0.47164,0 -2.04267,1.56905 -2.04267,2.04009 0,0.31785 0.0793,0.31476 0.65312,-0.0255 0.35922,-0.21296 0.82461,-0.51332 1.03419,-0.66746 z m -1.57784,-2.40138 c 0.7781,-0.64981 0.67194,-1.06164 -0.17428,-0.67608 -0.8372,0.38145 -2.08942,1.51108 -1.9411,1.75107 0.15468,0.25028 1.10945,-0.23491 2.11538,-1.07499 z m 2.63576,-4.30658 c 0.43637,-0.35333 0.41816,-0.36603 -0.34054,-0.2375 -0.44086,0.0747 -1.00826,0.13579 -1.26089,0.13579 -0.25264,0 -0.39328,0.10688 -0.31255,0.2375 0.22555,0.36495 1.39831,0.28175 1.91398,-0.13579 z m -3.1209,-2.38337 c 0.20662,-0.0793 0.37567,-0.30243 0.37567,-0.49588 0,-0.28165 -0.20108,-0.31844 -1.00938,-0.18469 -1.14774,0.18992 -1.36562,0.28585 -1.36562,0.60125 0,0.24843 1.41257,0.30448 1.99933,0.0793 z m 3.70067,-1.09959 -0.59375,-0.26363 0.59375,-0.10715 c 0.55319,-0.0998 0.5613,-0.12022 0.11875,-0.29837 -0.41834,-0.1684 -0.39876,-0.19321 0.16411,-0.20791 0.5982,-0.0156 1.24414,-0.49169 0.66714,-0.49169 -0.14604,0 -0.19948,-0.10688 -0.11875,-0.2375 0.0807,-0.13063 0.35423,-0.2375 0.60777,-0.2375 0.25354,0 0.46098,-0.10688 0.46098,-0.2375 0,-0.13063 -0.32063,-0.2375 -0.7125,-0.2375 -0.39188,0 -0.7125,-0.10688 -0.7125,-0.2375 0,-0.13063 0.16031,-0.2375 0.35625,-0.2375 0.58637,0 0.40242,-0.45636 -0.2375,-0.58923 -1.91187,-0.39694 -1.78125,-0.42051 -1.78125,0.32146 0,0.54881 0.12903,0.72366 0.62608,0.84841 l 0.62607,0.15714 -0.67051,0.69986 c -0.36878,0.38492 -0.81083,0.69986 -0.98232,0.69986 -0.4644,0 -0.37718,0.66059 0.1038,0.78629 0.2286,0.0597 0.78969,0.11423 1.24688,0.12111 0.80458,0.0121 0.8122,0.004 0.2375,-0.25115 z m 28.76379,-1.5596 c -0.44273,-0.35222 -1.54661,-1.30837 -2.45308,-2.12478 -0.90647,-0.8164 -1.74659,-1.48437 -1.86692,-1.48437 -0.88798,0 0.84212,1.85038 3.22496,3.44918 1.42517,0.95623 2.24678,1.07626 1.09504,0.15997 z m -3.58891,-1.53103 c -6e-5,-0.16328 -0.56116,-0.77734 -1.24687,-1.36459 l -1.24676,-1.06771 1.1875,1.36159 c 0.65312,0.74888 1.21422,1.36294 1.24687,1.36459 0.0327,0.002 0.0593,-0.13059 0.0593,-0.29388 z m 22.32512,-0.64173 c 0,-0.23956 -0.16031,-0.49709 -0.35625,-0.57228 -0.25309,-0.0971 -0.35625,0.0216 -0.35625,0.41001 0,0.30069 0.0683,0.61506 0.15187,0.69859 0.24248,0.24247 0.56063,-0.0619 0.56063,-0.53632 z m -19.94954,-0.4235 c -0.2615,-0.48791 -0.47546,-1.00625 -0.47546,-1.15186 0,-0.49023 -1.42422,-2.23603 -1.82414,-2.23603 -0.32803,0 -0.30136,0.10091 0.1551,0.58679 0.44902,0.47796 0.49705,0.65209 0.25901,0.93892 -0.24187,0.29143 -0.099,0.55871 0.82889,1.55071 1.32975,1.4216 1.71199,1.53428 1.0566,0.31147 z m -22.43047,-0.27816 c -0.0732,-0.1184 -0.60986,-0.37774 -1.19264,-0.57631 -1.02523,-0.34933 -1.05047,-0.34643 -0.77839,0.0892 0.2962,0.4743 0.654,0.6295 1.55568,0.6748 0.30162,0.0152 0.48852,-0.0693 0.41535,-0.18772 z m 3.19251,-0.54768 c 0,-0.15838 0.29391,-0.52286 0.65312,-0.80996 0.35922,-0.28711 0.58639,-0.58942 0.50483,-0.67181 -0.0816,-0.0824 -0.47106,0.12178 -0.86554,0.45371 -0.39448,0.33193 -1.02243,0.61591 -1.39545,0.63106 -0.4012,0.0163 -0.50845,0.0719 -0.26259,0.13616 0.2286,0.0597 0.41563,0.20766 0.41563,0.3287 0,0.12105 0.21375,0.22009 0.475,0.22009 0.26125,0 0.475,-0.12958 0.475,-0.28795 z m 36.35311,-0.19541 c 0.53437,-0.28598 0.61733,-0.94164 0.11914,-0.94164 -0.18713,0 -0.41302,-0.22931 -0.50197,-0.50957 -0.21462,-0.67619 -1.98088,-2.57793 -2.39428,-2.57793 -0.59437,0 -0.34016,0.52494 0.98529,2.03465 0.7407,0.84367 1.20575,1.55881 1.06875,1.64348 -0.31877,0.19701 -0.31169,0.59687 0.0106,0.59687 0.13921,0 0.45984,-0.11064 0.7125,-0.24586 z m -6.14937,-0.62708 c -0.12911,-0.24124 -0.45839,-0.64102 -0.73174,-0.8884 -0.45031,-0.40753 -0.497,-0.41179 -0.497,-0.0454 0,0.40156 1.16976,1.66613 1.36272,1.47317 0.0554,-0.0554 -0.005,-0.29815 -0.13398,-0.53939 z m -19.18893,-1.15605 c 0.11464,-0.29874 0.24008,-0.31588 0.67854,-0.0927 0.32965,0.16779 0.21608,-0.008 -0.29335,-0.45511 -0.45719,-0.4009 -0.89928,-0.73325 -0.98242,-0.73856 -0.26938,-0.0172 -0.36678,1.40037 -0.10372,1.50955 0.44811,0.186 0.55727,0.15124 0.70095,-0.22319 z m -6.73981,-1.50108 c 0,-0.58301 -1.02967,-0.55872 -1.14236,0.0269 -0.0594,0.30888 0.077,0.41563 0.5312,0.41563 0.4379,0 0.61116,-0.12547 0.61116,-0.44257 z m -2.6125,-0.0184 c 0,-0.32072 -0.43295,-0.54304 -0.71637,-0.36788 -0.13276,0.082 -0.17989,0.24867 -0.10474,0.37027 0.17829,0.28847 0.82111,0.2866 0.82111,-0.002 z m 28.025,-0.1031 c 0,-0.16338 -0.32063,-0.60423 -0.7125,-0.97967 -0.53706,-0.51453 -0.7125,-0.58741 -0.7125,-0.29595 0,0.21267 0.10687,0.45272 0.2375,0.53345 0.13062,0.0807 0.2375,0.33148 0.2375,0.55723 0,0.24018 0.19704,0.42528 0.475,0.44622 0.26125,0.0197 0.475,-0.0979 0.475,-0.26128 z m -11.29054,-1.39529 c -0.14681,-0.49018 -1.07415,-1.4301 -1.24369,-1.26057 -0.0399,0.0399 0.15608,0.46011 0.43554,0.93376 0.56515,0.95786 1.05669,1.15663 0.80815,0.32681 z m 12.24054,-0.52091 c 0,-0.35939 -0.95735,-1.15403 -1.15374,-0.95765 -0.0625,0.0625 0.0293,0.38067 0.20393,0.70704 0.34472,0.64411 0.94981,0.80376 0.94981,0.25061 z m -11.1625,-0.36972 c -0.4679,-0.30238 -1.01813,-0.30238 -0.83125,0 0.0807,0.13062 0.38094,0.23586 0.66714,0.23386 0.42304,-0.003 0.45374,-0.0467 0.16411,-0.23386 z m -40.32908,71.54687 c -0.63319,-0.89623 -1.61541,-3.71472 -1.82087,-5.22499 -0.0933,-0.68579 -0.11657,-1.24688 -0.0517,-1.24688 0.0648,0 0.3459,0.75061 0.62455,1.66803 0.27866,0.91741 0.87688,2.48044 1.32938,3.4734 0.45251,0.99295 0.82274,1.84547 0.82274,1.89447 0,0.30883 -0.51394,-0.0118 -0.90408,-0.56403 z m 5.65408,-1.24687 c -0.2375,-0.15348 -0.25729,-0.23144 -0.0594,-0.23386 0.44242,-0.005 0.36359,-0.35924 -0.29687,-1.33249 -0.69256,-1.02055 -0.72587,-1.53646 -0.22419,-3.47252 0.20326,-0.78439 0.32543,-1.47031 0.27149,-1.52424 -0.42724,-0.42724 -2.46892,2.13141 -2.9951,3.75349 -0.30086,0.92747 -0.84433,1.54414 -1.05724,1.19964 -0.0707,-0.11442 -0.0905,-1.42883 -0.0441,-2.9209 0.084,-2.69544 0.0883,-2.71287 0.66473,-2.71287 0.33664,0 0.99461,-0.37388 1.56735,-0.89063 1.3505,-1.21846 2.26703,-1.12927 3.00206,0.29213 0.5055,0.97752 0.46362,1.2574 -0.47254,3.15767 -0.80516,1.63436 -1.03455,2.54708 -0.64016,2.54708 0.37023,0 1.94641,1.61261 1.94641,1.99141 0,0.43523 -1.06963,0.52923 -1.6625,0.14609 z m 50.66138,-6.49102 c -1.26447,-0.95672 -1.34609,-1.58398 -0.2061,-1.58398 0.94799,0 1.55722,0.67109 1.55722,1.71535 0,0.81725 -0.1117,0.80639 -1.35112,-0.13137 z m -9.30907,-1.41765 c -0.0269,-1.35735 0.4482,-2.77883 0.92879,-2.77883 0.33884,0 0.28369,0.53257 -0.16301,1.57412 -0.21692,0.5058 -0.47182,1.29369 -0.56644,1.75088 -0.15117,0.73045 -0.17534,0.66423 -0.19934,-0.54617 z m -49.77343,-0.94879 c -0.68766,-1.04949 -0.87253,-1.93954 -0.62849,-3.02569 0.26364,-1.17337 0.17743,-1.46059 -0.37479,-1.24868 -0.31992,0.12277 -0.35659,0.0316 -0.21918,-0.54475 0.23063,-0.9674 0.91243,-1.84016 1.64003,-2.09936 0.89946,-0.32042 2.34619,0.41162 4.15422,2.10201 2.2753,2.12727 2.76724,3.46143 1.27631,3.46143 -0.37836,0 -0.98952,-0.23724 -1.35814,-0.52719 l -0.67022,-0.5272 0.57882,-0.14151 c 0.54354,-0.13289 0.50646,-0.18731 -0.60869,-0.89329 -1.67366,-1.05956 -1.93674,-1.00529 -2.35609,0.48606 -0.19284,0.68579 -0.42171,1.75454 -0.50861,2.375 -0.17563,1.2541 -0.39497,1.39236 -0.92517,0.58317 z m 44.63987,-14.29143 c 0.39187,-0.32121 0.87281,-0.58921 1.06875,-0.59554 0.30061,-0.01 -2.26608,-1.64094 -2.6125,-1.66034 -0.0653,-0.004 -0.13058,0.32259 -0.14504,0.725 -0.0447,1.244 -0.68328,1.63364 -2.87809,1.7561 -1.91967,0.10711 -1.94027,0.10213 -2.54361,-0.61489 -0.33454,-0.39759 -0.60826,-0.82866 -0.60826,-0.95794 0,-0.12928 -0.29391,-0.20123 -0.65313,-0.1599 -0.45172,0.052 -0.63332,0.19582 -0.58892,0.46648 0.0488,0.29707 -0.18007,0.42208 -0.95,0.51903 -0.55781,0.0702 -1.36154,0.20018 -1.78608,0.28876 -0.42453,0.0886 -0.77187,0.067 -0.77187,-0.0479 0,-0.24839 2.46766,-1.7792 3.32145,-2.06045 0.32851,-0.10822 1.10338,-0.40442 1.72191,-0.65822 1.79354,-0.73593 6.14615,-0.69276 6.98833,0.0693 0.24039,0.21751 0.95156,0.616 1.58039,0.88553 0.62883,0.26953 1.08233,0.58875 1.00778,0.70937 -0.0745,0.12062 0.13237,0.53769 0.4598,0.92683 0.78672,0.93496 0.75088,1.08783 -0.14627,0.6239 -0.67943,-0.35135 -0.82445,-0.35186 -1.72981,-0.006 -1.37422,0.52481 -1.56415,0.47079 -0.73483,-0.20899 z m -4.49128,-0.95736 c -0.0899,-0.35832 -0.0475,-0.59375 0.10702,-0.59375 0.14082,0 0.18999,-0.10687 0.10926,-0.2375 -0.0807,-0.13062 -0.40767,-0.2375 -0.72652,-0.2375 -1.03878,0 -0.59361,1.61812 0.45539,1.65528 0.11213,0.004 0.13681,-0.25997 0.0549,-0.58653 z m 8.74318,0.007 c 0.12187,-0.48554 0.0206,-0.65173 -0.58944,-0.96718 -0.40512,-0.2095 -0.89402,-0.32049 -1.08644,-0.24665 -0.48856,0.18747 -1.47716,-0.37824 -2.45727,-1.40614 -1.20364,-1.26232 -1.88908,-1.54375 -3.75993,-1.54375 -1.18946,0 -2.09852,0.16996 -3.27742,0.61274 -2.05832,0.77309 -3.88752,1.7596 -3.88808,2.09688 -7.1e-4,0.47362 -1.99884,1.5065 -3.14645,1.62654 -0.62046,0.0649 -1.12795,0.051 -1.12773,-0.031 2.2e-4,-0.0819 0.88194,-0.69826 1.95938,-1.36963 4.41709,-2.75238 7.34958,-3.80619 9.87243,-3.54772 0.86466,0.0886 2.02958,0.36343 2.58871,0.61076 1.00269,0.44353 1.01659,0.44337 1.01659,-0.012 0,-0.56402 0.10612,-0.56378 1.30491,0.003 0.52177,0.24667 1.00254,0.39462 1.06838,0.32877 0.1722,-0.17219 -0.62581,-0.72785 -2.19517,-1.5285 -1.52875,-0.77993 -1.73452,-1.06052 -0.61328,-0.83628 0.7085,0.1417 4.46438,2.52607 6.00713,3.81353 0.86491,0.7218 0.6104,1.11574 -0.29052,0.44968 -1.04932,-0.77578 -2.15668,-1.28175 -2.29949,-1.05068 -0.0729,0.11791 0.40784,0.70019 1.06824,1.29395 1.1912,1.07099 1.19759,1.08436 0.8042,1.68474 -0.52796,0.80577 -1.15936,0.81822 -0.95875,0.0189 z m -23.46913,-3.44635 c 0.35402,-0.65045 0.85149,-1.2486 1.10549,-1.32921 0.25399,-0.0806 0.9289,-0.60706 1.4998,-1.16988 0.5709,-0.56281 1.62979,-1.36189 2.35309,-1.77572 1.29009,-0.73811 1.72146,-1.14988 0.89947,-0.85859 -0.85585,0.30328 0.82119,-0.80787 2.45606,-1.62731 1.87205,-0.93832 2.10761,-0.9998 1.91583,-0.5 -0.0887,0.23102 -0.0179,0.30036 0.21511,0.21093 0.19095,-0.0733 0.49591,-0.01 0.67769,0.14107 0.35682,0.29614 1.56344,0.10559 1.56344,-0.24691 0,-0.11646 0.16031,-0.21175 0.35625,-0.21175 0.19594,0 0.35625,0.15383 0.35625,0.34184 0,0.29348 0.15312,0.28966 1.08266,-0.0271 1.61784,-0.55125 5.27999,-0.34291 6.96264,0.3961 0.97984,0.43034 1.3539,0.74579 1.60935,1.35718 0.28122,0.67306 0.43309,0.78223 0.97971,0.70426 0.53232,-0.0759 0.63897,-0.2034 0.60218,-0.71979 -0.0246,-0.34513 0.0413,-0.62752 0.14645,-0.62752 0.3036,0 2.70078,1.00618 3.21673,1.35017 0.46132,0.30756 0.46084,0.31233 -0.0314,0.31233 -0.43571,0 -0.3815,0.1184 0.42216,0.92206 0.81337,0.81337 1.28229,1.70361 0.71156,1.35088 -0.11577,-0.0716 -0.26608,0.0824 -0.33402,0.34223 -0.1286,0.49178 -0.97553,0.65747 -1.2328,0.24119 -0.0786,-0.12713 -0.51144,-0.40605 -0.96193,-0.61982 -0.45048,-0.21377 -0.75587,-0.49093 -0.67863,-0.61591 0.21429,-0.34672 -0.67816,-0.90704 -1.19546,-0.75056 -0.80553,0.24366 -3.63507,0.13094 -4.19175,-0.16698 -0.2961,-0.15847 -1.18811,-0.32487 -1.98226,-0.36979 -0.79414,-0.0449 -2.17243,-0.14546 -3.06286,-0.22343 -0.89043,-0.078 -1.74543,-0.0454 -1.9,0.0725 -0.15457,0.11781 -0.92229,0.34757 -1.70604,0.51057 -2.18065,0.45352 -4.8819,1.33869 -6.16146,2.01904 -0.74035,0.39365 -1.53007,0.61307 -2.20647,0.61307 -0.88865,0 -1.26623,0.16718 -2.41378,1.06875 -0.7482,0.58781 -1.44053,1.06875 -1.53852,1.06875 -0.098,0 0.11148,-0.53218 0.4655,-1.18263 z m 26.11116,-4.05278 c 0.16475,-0.26657 -0.28599,-0.9396 -0.62926,-0.9396 -0.24335,0 -0.28214,0.79711 -0.0501,1.02917 0.23026,0.23025 0.50399,0.19416 0.67935,-0.0896 z m -13.71018,-1.4621 c 0.4727,-0.4727 0.32312,-0.68316 -0.36813,-0.51794 -0.93462,0.2234 -1.10421,0.35935 -0.73785,0.59149 0.44589,0.28253 0.77156,0.26087 1.10598,-0.0736 z"
       style="fill:#000000" />
  </g>
</svg>
