<?xml version="1.0" encoding="UTF-8" standalone="no"?>
<!-- Created with Inkscape (http://www.inkscape.org/) -->

<svg
   xmlns:dc="http://purl.org/dc/elements/1.1/"
   xmlns:cc="http://creativecommons.org/ns#"
   xmlns:rdf="http://www.w3.org/1999/02/22-rdf-syntax-ns#"
   xmlns:svg="http://www.w3.org/2000/svg"
   xmlns="http://www.w3.org/2000/svg"
   xmlns:sodipodi="http://sodipodi.sourceforge.net/DTD/sodipodi-0.dtd"
   xmlns:inkscape="http://www.inkscape.org/namespaces/inkscape"
   width="88.235542mm"
   height="45.607262mm"
   viewBox="0 0 312.64562 161.60053"
   id="svg13515"
   version="1.1"
   inkscape:version="0.91 r13725"
   sodipodi:docname="bubbles-xx07.svg">
  <defs
     id="defs13517" />
  <sodipodi:namedview
     id="base"
     pagecolor="#ffffff"
     bordercolor="#666666"
     borderopacity="1.0"
     inkscape:pageopacity="0.0"
     inkscape:pageshadow="2"
     inkscape:zoom="0.35"
     inkscape:cx="-367.24861"
     inkscape:cy="-1462.0569"
     inkscape:document-units="px"
     inkscape:current-layer="layer1"
     showgrid="false"
     fit-margin-top="0"
     fit-margin-left="0"
     fit-margin-right="0"
     fit-margin-bottom="0"
     inkscape:window-width="2560"
     inkscape:window-height="1536"
     inkscape:window-x="0"
     inkscape:window-y="27"
     inkscape:window-maximized="1" />
  <metadata
     id="metadata13520">
    <rdf:RDF>
      <cc:Work
         rdf:about="">
        <dc:format>image/svg+xml</dc:format>
        <dc:type
           rdf:resource="http://purl.org/dc/dcmitype/StillImage" />
        <dc:title></dc:title>
      </cc:Work>
    </rdf:RDF>
  </metadata>
  <g
     inkscape:label="Layer 1"
     inkscape:groupmode="layer"
     id="layer1"
     transform="translate(-23.677183,1091.2952)">
    <g
       transform="translate(-12.362819,-1090.7977)"
       style="opacity:0.7"
       id="g12645">
      <g
         transform="translate(125,125)"
         id="g12647">
        <circle
           style="opacity:0.43999999;fill:#009900;stroke:#00b6c1"
           cx="118.453"
           cy="-43.021999"
           r="4.506"
           id="circle12649" />
        <path
           style="opacity:0.43999999;fill:#009900;stroke:#00b6c1"
           inkscape:connector-curvature="0"
           d="m 121.53,-30.494 c -1.942,-3.963 -0.305,-8.749 3.659,-10.693 3.963,-1.943 8.753,-0.306 10.694,3.66 1.943,3.963 0.304,8.75 -3.658,10.693 -3.964,1.945 -8.751,0.304 -10.695,-3.66 z"
           id="path12651" />
        <path
           style="opacity:0.85;fill:#009900;stroke:#00b6c1"
           inkscape:connector-curvature="0"
           d="m 78.25,-53.73 c -2.936,-5.989 -0.46,-13.223 5.53,-16.16 5.988,-2.936 13.225,-0.462 16.16,5.528 2.936,5.988 0.46,13.224 -5.532,16.162 -5.986,2.934 -13.223,0.458 -16.158,-5.53 z"
           id="path12653" />
        <circle
           style="opacity:0.85;fill:#009900;stroke:#00b6c1"
           cx="-29.936001"
           cy="-66.209999"
           r="7.1240001"
           id="circle12655" />
        <path
           style="opacity:0.85;fill:#009900;stroke:#00b6c1"
           inkscape:connector-curvature="0"
           d="m 40.832,-100.898 c -4.066,-8.297 -0.636,-18.322 7.665,-22.39 8.295,-4.067 18.319,-0.638 22.387,7.661 4.066,8.297 0.637,18.324 -7.661,22.389 -8.3,4.068 -18.323,0.639 -22.391,-7.66 z"
           id="path12657" />
        <circle
           style="opacity:0.85;fill:#009900;stroke:#00b6c1"
           cx="34.405998"
           cy="-55.636002"
           r="11.42"
           id="circle12659" />
        <circle
           style="opacity:0.85;fill:#009900;stroke:#00b6c1"
           cx="85.859001"
           cy="-31.725"
           r="8.0249996"
           id="circle12661" />
        <circle
           style="opacity:0.43999999;fill:#009900;stroke:#00b6c1"
           cx="186.45799"
           cy="-8.507"
           r="20.436001"
           id="circle12663" />
        <circle
           style="opacity:0.85;fill:#009900;stroke:#00b6c1"
           cx="-62.174"
           cy="-78.484001"
           r="7.2950001"
           id="circle12665" />
        <circle
           style="opacity:0.85;fill:#009900;stroke:#00b6c1"
           cx="116.021"
           cy="14.319"
           r="2.809"
           id="circle12667" />
        <circle
           style="opacity:0.43999999;fill:#009900;stroke:#00b6c1"
           cx="183.23199"
           cy="-13.945"
           r="8.6330004"
           id="circle12669" />
        <circle
           style="opacity:0.85;fill:#009900;stroke:#00b6c1"
           cx="-13.17"
           cy="-53.373001"
           r="5.7140002"
           id="circle12671" />
        <circle
           style="opacity:0.43999999;fill:#009900;stroke:#00b6c1"
           cx="180.923"
           cy="29.298"
           r="6.3049998"
           id="circle12673" />
        <circle
           style="opacity:0.85;fill:#009900;stroke:#00b6c1"
           cx="84.112999"
           cy="-51.924"
           r="3.1630001"
           id="circle12675" />
        <path
           style="opacity:0.43999999;fill:#009900;stroke:#00b6c1"
           inkscape:connector-curvature="0"
           d="m 135.755,-44.485 c -3.515,-7.176 -0.55,-15.846 6.626,-19.362 7.179,-3.519 15.849,-0.553 19.365,6.625 3.518,7.176 0.552,15.846 -6.626,19.364 -7.175,3.518 -15.846,0.55 -19.365,-6.627 z"
           id="path12677" />
        <path
           style="opacity:0.43999999;fill:#009900;stroke:#00b6c1"
           inkscape:connector-curvature="0"
           d="m 215.926,7.463 c -0.93,-1.896 -0.145,-4.188 1.751,-5.119 1.898,-0.93 4.188,-0.145 5.118,1.753 0.932,1.895 0.148,4.187 -1.751,5.117 -1.896,0.931 -4.188,0.145 -5.118,-1.751 z"
           id="path12679" />
        <path
           style="opacity:0.43999999;fill:#009900;stroke:#00b6c1"
           inkscape:connector-curvature="0"
           d="m 115.113,-32.026 c -1.016,-2.074 -0.16,-4.575 1.912,-5.593 2.072,-1.014 4.576,-0.158 5.593,1.914 1.016,2.074 0.159,4.576 -1.912,5.594 -2.074,1.011 -4.578,0.157 -5.593,-1.915 z"
           id="path12681" />
        <circle
           style="opacity:0.85;fill:#009900;stroke:#00b6c1"
           cx="29.417999"
           cy="-62.549999"
           r="8.5190001"
           id="circle12683" />
        <circle
           style="opacity:0.43999999;fill:#009900;stroke:#00b6c1"
           cx="98.976997"
           cy="-68.569"
           r="5.829"
           id="circle12685" />
        <circle
           style="opacity:0.85;fill:#009900;stroke:#00b6c1"
           cx="67.105003"
           cy="-76.343002"
           r="5.6420002"
           id="circle12687" />
        <path
           style="opacity:0.85;fill:#009900;stroke:#00b6c1"
           inkscape:connector-curvature="0"
           d="m -45.618,-65.546 c -1.696,-3.46 -0.267,-7.642 3.197,-9.338 3.461,-1.698 7.644,-0.267 9.341,3.194 1.696,3.463 0.266,7.645 -3.195,9.343 -3.463,1.697 -7.646,0.265 -9.343,-3.199 z"
           id="path12689" />
        <circle
           style="opacity:0.85;fill:#009900;stroke:#00b6c1"
           cx="93.723999"
           cy="-28.562"
           r="3.859"
           id="circle12691" />
        <circle
           style="opacity:0.43999999;fill:#009900;stroke:#00b6c1"
           cx="177.13901"
           cy="19.455999"
           r="8.6309996"
           id="circle12693" />
        <circle
           style="opacity:0.85;fill:#009900;stroke:#00b6c1"
           cx="36.349998"
           cy="-96.361"
           r="10.613"
           id="circle12695" />
        <circle
           style="opacity:0.43999999;fill:#009900;stroke:#00b6c1"
           cx="179.381"
           cy="-23.754999"
           r="7.7140002"
           id="circle12697" />
        <circle
           style="opacity:0.85;fill:#009900;stroke:#00b6c1"
           cx="-82.683998"
           cy="-110.543"
           r="5.776"
           id="circle12699" />
        <path
           style="opacity:0.85;fill:#009900;stroke:#00b6c1"
           inkscape:connector-curvature="0"
           d="m 20.865,-79.414 c -1.999,-4.078 -0.312,-9.006 3.765,-11.006 4.08,-2 9.008,-0.312 11.007,3.767 1.999,4.077 0.312,9.006 -3.765,11.003 -4.079,2.002 -9.007,0.314 -11.007,-3.764 z"
           id="path12701" />
        <circle
           style="opacity:0.43999999;fill:#009900;stroke:#00b6c1"
           cx="161.547"
           cy="-19.694"
           r="3.869"
           id="circle12703" />
        <path
           style="opacity:0.43999999;fill:#009900;stroke:#00b6c1"
           inkscape:connector-curvature="0"
           d="m 151.939,13.092 c -2.41,-4.919 -0.377,-10.862 4.543,-13.273 4.916,-2.408 10.859,-0.377 13.271,4.541 2.411,4.919 0.377,10.861 -4.541,13.271 -4.919,2.412 -10.86,0.378 -13.273,-4.539 z"
           id="path12705" />
        <circle
           style="opacity:0.85;fill:#009900;stroke:#00b6c1"
           cx="119.499"
           cy="-1.423"
           r="4.7649999"
           id="circle12707" />
        <circle
           style="opacity:0.43999999;fill:#009900;stroke:#00b6c1"
           cx="178.808"
           cy="-2.4189999"
           r="14.859"
           id="circle12709" />
        <circle
           style="opacity:0.85;fill:#009900;stroke:#00b6c1"
           cx="55.599998"
           cy="-33.271"
           r="10.295"
           id="circle12711" />
        <circle
           style="opacity:0.43999999;fill:#009900;stroke:#00b6c1"
           cx="113.618"
           cy="-47.671001"
           r="2.7030001"
           id="circle12713" />
        <path
           style="opacity:0.85;fill:#009900;stroke:#00b6c1"
           inkscape:connector-curvature="0"
           d="m -32.118,-51.104 c -1.569,-3.201 -0.247,-7.067 2.955,-8.638 3.202,-1.569 7.068,-0.245 8.637,2.956 1.568,3.198 0.245,7.068 -2.956,8.637 -3.201,1.569 -7.068,0.243 -8.636,-2.955 z"
           id="path12715" />
        <circle
           style="opacity:0.43999999;fill:#009900;stroke:#00b6c1"
           cx="108.42"
           cy="-35.764999"
           r="6.5749998"
           id="circle12717" />
        <circle
           style="opacity:0.85;fill:#009900;stroke:#00b6c1"
           cx="67.348"
           cy="-57.745998"
           r="11.934"
           id="circle12719" />
        <circle
           style="opacity:0.43999999;fill:#009900;stroke:#00b6c1"
           cx="130.94701"
           cy="-16.393"
           r="3.45"
           id="circle12721" />
        <circle
           style="opacity:0.85;fill:#009900;stroke:#00b6c1"
           cx="12.045"
           cy="-98.485001"
           r="7.178"
           id="circle12723" />
        <circle
           style="opacity:0.43999999;fill:#009900;stroke:#00b6c1"
           cx="132.161"
           cy="-59.098"
           r="3.0309999"
           id="circle12725" />
        <circle
           style="opacity:0.85;fill:#009900;stroke:#00b6c1"
           cx="-15.13"
           cy="-68.788002"
           r="8.434"
           id="circle12727" />
        <circle
           style="opacity:0.43999999;fill:#009900;stroke:#00b6c1"
           cx="196.071"
           cy="21.875"
           r="5.6090002"
           id="circle12729" />
        <circle
           style="opacity:0.43999999;fill:#009900;stroke:#00b6c1"
           cx="175.354"
           cy="15.652"
           r="2.6500001"
           id="circle12731" />
        <circle
           style="opacity:0.85;fill:#009900;stroke:#00b6c1"
           cx="105.311"
           cy="-15.524"
           r="9.4370003"
           id="circle12733" />
        <circle
           style="opacity:0.43999999;fill:#009900;stroke:#00b6c1"
           cx="135.52299"
           cy="-18.635"
           r="8.677"
           id="circle12735" />
        <path
           style="opacity:0.85;fill:#009900;stroke:#00b6c1"
           inkscape:connector-curvature="0"
           d="m -87.905,-72.893 c -1.104,-2.247 -0.173,-4.965 2.075,-6.064 2.25,-1.105 4.965,-0.174 6.069,2.074 1.101,2.248 0.171,4.966 -2.078,6.067 -2.248,1.101 -4.964,0.172 -6.066,-2.077 z"
           id="path12737" />
        <path
           style="opacity:0.85;fill:#009900;stroke:#00b6c1"
           inkscape:connector-curvature="0"
           d="M 94.002,11.073 C 93.4,9.845 93.907,8.36 95.139,7.757 c 1.229,-0.603 2.714,-0.094 3.315,1.135 0.604,1.229 0.096,2.715 -1.134,3.318 -1.229,0.602 -2.716,0.093 -3.318,-1.137 z"
           id="path12739" />
      </g>
    </g>
  </g>
</svg>
