<?xml version="1.0" encoding="UTF-8" standalone="no"?>
<svg
   xmlns:dc="http://purl.org/dc/elements/1.1/"
   xmlns:cc="http://creativecommons.org/ns#"
   xmlns:rdf="http://www.w3.org/1999/02/22-rdf-syntax-ns#"
   xmlns:svg="http://www.w3.org/2000/svg"
   xmlns="http://www.w3.org/2000/svg"
   version="1.1"
   id="Layer_1"
   x="0px"
   y="0px"
   width="467.68799"
   height="739.2132"
   viewBox="0 0 467.68799 739.21318"
   enable-background="new 0 0 432 748.463"
   xml:space="preserve"><metadata
     id="metadata11599"><rdf:RDF><cc:Work
         rdf:about=""><dc:format>image/svg+xml</dc:format><dc:type
           rdf:resource="http://purl.org/dc/dcmitype/StillImage" /><dc:title></dc:title></cc:Work></rdf:RDF></metadata><defs
     id="defs11597" /><path
     d="m 70.850885,291.22124 c -58.892,-83.21 -39.173,-198.400002 44.034995,-257.290002 83.21,-58.891 198.393,-39.1769999 257.286,44.036 58.887,83.203002 39.175,198.387002 -44.035,257.277002 -83.208,58.887 -198.398,39.183 -257.285995,-44.023 z"
     id="path11431"
     style="opacity:0.5;fill:#009900" /><path
     d="m 156.55788,647.19124 c -49.694,-70.211 -33.056,-167.406 37.154,-217.094 70.213,-49.691 167.403,-33.057 217.097,37.157 49.689,70.207 33.055,167.394 -37.155,217.086 -70.211,49.688 -167.408,33.059 -217.096,-37.149 z"
     id="path11433"
     style="opacity:0.7;fill:#00cccc" /><path
     d="m 21.273885,478.53524 c -36.923,-52.168 -24.5620003,-124.387 27.606,-161.305 52.166995,-36.92 124.380995,-24.562 161.303995,27.608 36.918,52.164 24.561,124.376 -27.609,161.296 -52.165,36.921 -124.382995,24.565 -161.300995,-27.599 z"
     id="path11435"
     style="opacity:0.5;fill:#ffff00" /><path
     d="m 320.86088,449.14024 c -25.793,-36.443 -17.157,-86.893 19.285,-112.684 36.444,-25.791 86.89,-17.158 112.684,19.286 25.789,36.441 17.154,86.886 -19.287,112.678 -36.443,25.791 -86.893,17.16 -112.682,-19.28 z"
     id="path11437"
     style="opacity:0.5;fill:#663399" /><g
     id="g11439"
     transform="translate(20.687885,-15.364762)"><path
       d="m 380.527,393.033 c -1.632,0 -2.959,1.064 -2.959,2.368 l 0,15.78 c 0,1.306 1.426,2.367 3.062,2.367 1.633,0 3.06,-1.061 3.06,-2.367 l 0,-0.002 c 0,0.013 -0.076,0.01 -0.059,0.027 0,0 -0.101,-16.197 -0.135,-16.145 -0.214,-1.145 -1.481,-2.028 -2.969,-2.028 z"
       id="path11441" /><path
       d="m 391.424,397.738 c 0.862,-2.498 1.307,-5.094 1.307,-7.757 0,-3.237 -0.647,-6.323 -1.812,-9.141 0.262,-1.047 0.1,-2.188 -0.537,-3.152 -4.312,-6.559 -11.261,-10.746 -18.945,-11.574 -0.271,-0.033 -0.544,-0.055 -0.812,-0.078 -0.164,-0.01 -0.325,-0.027 -0.489,-0.041 -0.47,-0.027 -0.95,-0.044 -1.43,-0.044 -0.01,0 -0.017,0 -0.027,0 -0.014,0 -0.027,0 -0.045,0 -0.155,0 -0.309,0.009 -0.461,0.018 -0.263,0.001 -0.524,0.005 -0.786,0.023 -8.184,0.393 -15.714,4.596 -20.336,11.436 -0.689,1.016 -0.844,2.236 -0.532,3.332 -1.187,2.842 -1.845,5.959 -1.845,9.223 0,2.845 0.501,5.615 1.488,8.271 -1.199,1.512 -1.843,3.428 -1.843,5.508 0,4.846 4.006,8.774 8.768,8.891 l 0,-17.782 c -1.358,0.032 -2.459,0.307 -3.515,0.78 -0.552,-1.84 -0.866,-3.734 -0.866,-5.67 0,-2.232 0.353,-4.375 1.029,-6.378 1.486,0.236 3.038,-0.374 3.942,-1.706 3.365,-4.982 8.952,-7.957 14.953,-7.957 6.088,0 11.725,3.041 15.076,8.135 0.769,1.164 2.039,1.799 3.338,1.799 0.237,0 0.472,-0.027 0.71,-0.072 0.634,1.949 0.978,4.023 0.978,6.179 0,1.714 -0.301,3.398 -0.731,5.039 -1.085,-0.506 -2.271,-0.807 -3.633,-0.838 l 0,17.777 c 4.763,-0.117 8.769,-4.042 8.769,-8.886 0.002,-2.003 -0.594,-3.847 -1.713,-5.335 z"
       id="path11443" /><path
       d="m 356.827,393.285 c -1.635,0 -3.061,1.065 -3.061,2.369 l 0,0.004 c 0,-0.009 0.077,-0.009 0.063,-0.027 0,0 0.099,16.195 0.135,16.144 0.208,1.146 1.455,2.025 2.939,2.025 1.633,0 2.983,-1.061 2.983,-2.367 l 0,-15.78 c 0.002,-1.308 -1.428,-2.368 -3.059,-2.368 z"
       id="path11445" /></g><path
     d="m 207.73588,398.09724 c -22.277,-31.476 -14.814,-75.044 16.659,-97.318 31.475,-22.273 75.045,-14.816 97.321,16.66 22.274,31.471 14.816,75.037 -16.658,97.308 -31.475,22.276 -75.048,14.821 -97.322,-16.65 z"
     id="path11457"
     style="opacity:0.6;fill:#cc3300" /><g
     id="g11467"
     transform="translate(20.687885,-15.364762)"><g
       id="g11469"><path
         d="m 247.348,359.149 c 0,1.928 -2.889,1.928 -2.889,0 0,-1.924 2.889,-1.924 2.889,0"
         id="path11471" /><path
         d="m 254.476,360.944 c -0.702,0.23 -1.485,0.426 -2.318,0.594 -0.326,-0.814 -0.696,-1.646 -1.116,-2.496 0.437,-0.9 0.822,-1.785 1.158,-2.648 0.641,0.11 1.23,0.241 1.765,0.381 0.02,0.072 0.043,0.145 0.078,0.219 0.312,0.659 1.095,0.942 1.757,0.633 0.084,-0.041 0.161,-0.085 0.229,-0.142 0.991,0.458 1.526,0.953 1.532,1.388 0.009,0.487 -0.794,1.327 -3.085,2.071 z m -2.74,8.192 c -0.09,0.051 -0.196,0.074 -0.326,0.074 -0.976,0 -2.675,-1.223 -4.558,-3.418 0.582,-0.746 1.146,-1.535 1.678,-2.339 0.943,-0.077 1.855,-0.186 2.724,-0.327 1.163,3.302 1.214,5.587 0.482,6.01 z m -11.231,0.109 c -0.13,0 -0.235,-0.025 -0.321,-0.072 -0.298,-0.169 -0.537,-0.76 -0.485,-1.893 0.652,-0.314 0.931,-1.093 0.624,-1.748 -0.072,-0.15 -0.171,-0.277 -0.282,-0.385 0.144,-0.594 0.326,-1.217 0.546,-1.868 0.893,0.116 1.835,0.2 2.805,0.249 0.538,0.807 1.091,1.575 1.648,2.283 -1.87,2.206 -3.561,3.434 -4.535,3.434 z m -6.208,-10.004 c -0.014,-0.846 1.979,-1.977 5.404,-2.671 0.326,0.816 0.695,1.654 1.117,2.5 -0.438,0.898 -0.822,1.785 -1.157,2.648 -3.393,-0.593 -5.349,-1.645 -5.364,-2.477 z m 5.627,-6.553 c -0.531,-2.351 -0.226,-3.47 0.199,-3.713 0.089,-0.053 0.196,-0.078 0.327,-0.078 0.526,0 1.263,0.361 2.122,1.029 -0.007,0.205 0.026,0.416 0.12,0.619 0.251,0.533 0.814,0.812 1.372,0.739 0.309,0.316 0.623,0.66 0.943,1.035 -0.583,0.744 -1.146,1.533 -1.677,2.339 -0.946,0.077 -1.856,0.186 -2.727,0.32 -0.28,-0.798 -0.515,-1.571 -0.679,-2.29 z m 9.923,4.111 c -0.147,-0.254 -0.298,-0.502 -0.447,-0.752 0.476,0.038 0.935,0.08 1.375,0.135 -0.168,0.418 -0.351,0.85 -0.55,1.293 -0.127,-0.222 -0.251,-0.449 -0.378,-0.676 z m -4.761,-2.236 c 0.279,-0.394 0.554,-0.771 0.826,-1.133 0.271,0.356 0.547,0.719 0.819,1.107 -0.073,0 -0.146,-0.006 -0.218,-0.006 -0.217,0 -0.436,0 -0.655,0.01 -0.259,0.002 -0.514,0.012 -0.772,0.022 z m -3.457,2.941 c -0.184,-0.398 -0.353,-0.791 -0.512,-1.18 0.409,-0.064 0.835,-0.115 1.273,-0.166 -0.133,0.223 -0.261,0.442 -0.387,0.665 -0.129,0.229 -0.25,0.453 -0.374,0.681 z m 0.387,3.805 c 0.147,0.254 0.296,0.502 0.447,0.75 -0.478,-0.037 -0.935,-0.08 -1.375,-0.131 0.172,-0.427 0.351,-0.858 0.55,-1.297 0.127,0.229 0.245,0.454 0.378,0.678 z m 4.757,2.24 c -0.277,0.395 -0.553,0.774 -0.825,1.131 -0.271,-0.35 -0.545,-0.719 -0.819,-1.107 0.075,0 0.147,0.005 0.224,0.005 0.215,0 0.432,-0.004 0.647,-0.009 0.263,0 0.518,-0.012 0.773,-0.02 z m 1.862,-2.957 c -0.298,0.518 -0.598,1.019 -0.899,1.502 -0.577,0.035 -1.161,0.06 -1.758,0.073 -0.208,0.003 -0.417,0.005 -0.625,0.005 -0.402,0 -0.794,-0.005 -1.179,-0.018 -0.316,-0.492 -0.631,-1.005 -0.94,-1.543 -0.298,-0.517 -0.574,-1.031 -0.84,-1.542 0.263,-0.514 0.536,-1.028 0.828,-1.547 0.297,-0.523 0.599,-1.025 0.9,-1.503 0.566,-0.035 1.151,-0.061 1.757,-0.068 0.211,-0.006 0.423,-0.006 0.632,-0.006 0.398,0 0.791,0.006 1.172,0.02 0.314,0.494 0.629,1.004 0.94,1.543 0.302,0.525 0.58,1.039 0.843,1.541 -0.257,0.5 -0.531,1.018 -0.831,1.543 z m 1.595,0.014 c 0.182,0.404 0.354,0.798 0.513,1.18 -0.415,0.06 -0.838,0.118 -1.274,0.164 0.132,-0.219 0.262,-0.442 0.389,-0.663 0.126,-0.226 0.248,-0.452 0.372,-0.681 z m 1.125,-11.738 c 0.128,0 0.233,0.023 0.321,0.072 0.726,0.413 0.7,2.652 -0.402,5.893 -0.895,-0.119 -1.835,-0.199 -2.808,-0.248 -0.536,-0.806 -1.091,-1.573 -1.647,-2.283 1.873,-2.208 3.564,-3.434 4.536,-3.434 z m 5.172,7.306 c -0.021,-0.104 -0.051,-0.209 -0.097,-0.306 -0.311,-0.661 -1.097,-0.944 -1.754,-0.632 -0.113,0.05 -0.208,0.122 -0.295,0.196 -0.532,-0.145 -1.099,-0.268 -1.699,-0.377 0.242,-0.729 0.444,-1.435 0.589,-2.098 0.605,-2.75 0.294,-4.561 -0.897,-5.24 -0.302,-0.17 -0.644,-0.258 -1.019,-0.258 -1.575,0 -3.558,1.577 -5.443,3.76 -0.255,-0.297 -0.515,-0.577 -0.769,-0.84 0.098,-0.305 0.088,-0.646 -0.061,-0.957 -0.304,-0.646 -1.062,-0.93 -1.71,-0.648 -0.942,-0.719 -1.978,-1.279 -2.922,-1.279 -0.378,0 -0.726,0.09 -1.026,0.26 -1.192,0.688 -1.492,2.499 -0.869,5.242 0.159,0.711 0.383,1.463 0.649,2.242 -0.808,0.17 -1.566,0.364 -2.256,0.59 -2.675,0.872 -4.08,2.059 -4.058,3.436 0.015,0.93 0.712,2.244 3.943,3.239 0.71,0.215 1.5,0.4 2.342,0.552 -0.205,0.629 -0.378,1.232 -0.517,1.809 -0.032,0.012 -0.065,0.018 -0.099,0.033 -0.66,0.311 -0.943,1.1 -0.632,1.756 0.09,0.191 0.218,0.343 0.369,0.465 -0.094,1.656 0.307,2.775 1.187,3.277 0.3,0.168 0.644,0.258 1.019,0.258 1.575,0 3.555,-1.573 5.441,-3.76 0.311,0.355 0.623,0.701 0.931,1.01 1.222,1.24 2.999,2.718 4.528,2.718 0.381,0 0.728,-0.09 1.028,-0.265 1.19,-0.688 1.49,-2.497 0.87,-5.245 -0.158,-0.705 -0.384,-1.458 -0.652,-2.238 0.809,-0.17 1.57,-0.367 2.26,-0.592 2.675,-0.871 4.077,-2.061 4.054,-3.434 -0.005,-0.761 -0.477,-1.785 -2.435,-2.674 z"
         id="path11473" /></g><path
       d="m 262.887,374.795 -34.14,0 0,-49.318 15.516,0 0.177,0.176 0,18.275 18.275,0 0.175,0.174 0,30.693 -0.003,0 z m -15.935,-46.33 12.945,12.947 -12.945,0 0,-12.947 z m -1.529,-5.791 -19.476,0 0,54.92 39.742,0 0,-34.652 -20.266,-20.268 z"
       id="path11475" /></g><path
     style="opacity:0.5;fill:#003399"
     d="m 437.9969,282.26422 a 56.658001,56.658001 0 0 1 -56.658,56.658 56.658001,56.658001 0 0 1 -56.658,-56.658 56.658001,56.658001 0 0 1 56.658,-56.658 56.658001,56.658001 0 0 1 56.658,56.658 z"
     id="circle11477" /><g
     id="g11487"
     transform="translate(20.687885,-15.364762)"><path
       stroke-miterlimit="10"
       d="m 362.276,291.4 c -6.159,-3.867 -13.531,-3.863 -19.688,0 0,-10.336 0,-20.674 0,-31.006 6.157,-3.869 13.529,-3.869 19.688,0 0,10.336 0,20.67 0,31.006 z"
       id="path11489"
       style="fill:none;stroke:#000000;stroke-width:2;stroke-linecap:round;stroke-linejoin:round;stroke-miterlimit:10" /><path
       stroke-miterlimit="10"
       d="m 381.961,291.4 c -6.158,-3.867 -13.528,-3.867 -19.685,0 0,-10.336 0,-20.674 0,-31.006 6.156,-3.869 13.526,-3.869 19.685,0 0,10.336 0,20.67 0,31.006 z"
       id="path11491"
       style="fill:none;stroke:#000000;stroke-width:2;stroke-linecap:round;stroke-linejoin:round;stroke-miterlimit:10" /><path
       style="fill:none;stroke:#000000;stroke-width:2;stroke-linecap:round;stroke-linejoin:round;stroke-miterlimit:10"
       d="m 362.276,297.595 -23.163,-4.126 0,-30.082 3.475,-1.275"
       id="polyline11493" /><path
       style="fill:none;stroke:#000000;stroke-width:2;stroke-linecap:round;stroke-linejoin:round;stroke-miterlimit:10"
       d="m 362.276,297.595 23.161,-4.126 0,-30.082 -3.476,-1.275"
       id="polyline11495" /><path
       style="fill:none;stroke:#000000;stroke-width:2;stroke-linecap:round;stroke-linejoin:round;stroke-miterlimit:10"
       d="m 346.664,258.455 0,17.193 4.029,-3.408 3.913,3.408 0,-18.018"
       id="polyline11497" /><path
       stroke-miterlimit="10"
       d="m 367.527,264.974 c 0,0 3.946,-1.885 9.867,0"
       id="path11499"
       style="fill:none;stroke:#000000;stroke-width:2;stroke-linecap:round;stroke-linejoin:round;stroke-miterlimit:10" /><path
       stroke-miterlimit="10"
       d="m 367.527,270.857 c 0,0 3.946,-1.883 9.867,0"
       id="path11501"
       style="fill:none;stroke:#000000;stroke-width:2;stroke-linecap:round;stroke-linejoin:round;stroke-miterlimit:10" /><path
       stroke-miterlimit="10"
       d="m 367.527,276.74 c 0,0 3.946,-1.882 9.867,0"
       id="path11503"
       style="fill:none;stroke:#000000;stroke-width:2;stroke-linecap:round;stroke-linejoin:round;stroke-miterlimit:10" /><path
       stroke-miterlimit="10"
       d="m 367.527,282.621 c 0,0 3.946,-1.884 9.867,0"
       id="path11505"
       style="fill:none;stroke:#000000;stroke-width:2;stroke-linecap:round;stroke-linejoin:round;stroke-miterlimit:10" /></g><g
     id="g11507"
     transform="translate(20.687885,-15.364762)"><path
       d="m 203.965,234.026 -45.068,0 0,-45.07 45.068,0 0,45.07 z m -49.576,-49.576 0,54.082 54.082,0 0,-54.082 -54.082,0 z"
       id="path11509" /><path
       d="m 167.348,210.482 c 6.225,-3.25 8.012,1.694 12.271,3.614 6.394,0.74 1.813,-16.951 9.159,-16.888 8.66,3.23 12.299,28.562 12.299,28.562 l -39.295,0 c 0,10e-4 1.216,-13.008 5.566,-15.288 z"
       id="path11511" /></g><path
     d="m 295.95088,540.95124 c -0.201,-0.736 -0.937,-1.137 -1.607,-0.938 l -9.245,2.409 c -0.734,0.205 -1.137,0.939 -0.937,1.609 0.133,0.602 0.668,1.004 1.273,1.004 0.133,0 0.201,0 0.335,-0.064 l 9.244,-2.344 c 0.67,-0.266 1.136,-0.938 0.937,-1.676 z m 3.953,-9.845 c -0.202,-0.737 -0.937,-1.135 -1.608,-0.938 l -13.193,3.416 c -0.735,0.199 -1.136,0.938 -0.938,1.609 0.132,0.602 0.67,1.002 1.273,1.002 0.132,0 0.202,0 0.333,-0.064 l 13.196,-3.416 c 0.669,-0.204 1.136,-0.94 0.937,-1.609 z m 0,-8.977 c -0.202,-0.736 -0.937,-1.135 -1.608,-0.938 l -13.193,3.418 c -0.735,0.201 -1.136,0.938 -0.938,1.605 0.132,0.606 0.67,1.006 1.273,1.006 0.132,0 0.202,0 0.333,-0.069 l 13.129,-3.414 c 0.736,-0.202 1.203,-0.936 1.004,-1.608 z m 3.145,-8.037 -22.101,5.693 0,32.354 22.101,-5.694 0,-32.353 z m -24.78,5.693 -22.104,-5.693 0,32.354 22.104,5.694 0,-32.355 z m 27.46,-7.434 0,35.164 c 0,0.604 -0.4,1.137 -1.004,1.274 l -24.78,6.365 c -0.135,0.064 -0.205,0.064 -0.337,0.064 -0.133,0 -0.202,0 -0.334,-0.064 l -24.782,-6.365 c -0.604,-0.131 -1.006,-0.67 -1.006,-1.272 l 0,-35.164 c 0,-0.403 0.203,-0.805 0.538,-1.073 0.335,-0.27 0.735,-0.334 1.137,-0.27 l 24.447,6.363 24.447,-6.297 c 0.402,-0.131 0.803,0 1.138,0.271 0.335,0.202 0.536,0.604 0.536,1.004 z m -35.563,29.005 -9.244,-2.413 c -0.737,-0.199 -1.473,0.271 -1.609,0.939 -0.203,0.734 0.268,1.473 0.938,1.607 l 9.246,2.415 c 0.132,0 0.201,0.064 0.334,0.064 0.604,0 1.138,-0.402 1.273,-1.004 0.265,-0.74 -0.204,-1.411 -0.938,-1.608 z m 3.952,-7.841 -13.194,-3.414 c -0.734,-0.203 -1.472,0.268 -1.607,0.939 -0.202,0.734 0.269,1.471 0.938,1.607 l 13.192,3.414 c 0.133,0 0.203,0.068 0.335,0.068 0.605,0 1.139,-0.402 1.274,-1.006 0.265,-0.668 -0.203,-1.405 -0.938,-1.608 z m 1.004,-7.367 c -0.132,0.606 -0.669,1.004 -1.272,1.004 -0.133,0 -0.202,0 -0.335,-0.066 l -13.197,-3.348 c -0.737,-0.204 -1.138,-0.938 -0.938,-1.61 0.201,-0.736 0.938,-1.135 1.609,-0.938 l 13.192,3.418 c 0.672,0.134 1.14,0.87 0.941,1.54 z"
     id="path11521" /><g
     id="g11531"
     transform="translate(20.687885,-15.364762)"><path
       d="m 72.084,427.912 c 0,-0.699 0.14,-1.359 0.342,-1.992 l -5.571,0 0,3.985 5.571,0 c -0.202,-0.635 -0.342,-1.296 -0.342,-1.993 z"
       id="path11533" /><path
       d="m 85.068,427.804 c 0,0.7 -0.141,1.359 -0.341,1.992 l 37.609,0 0,-3.986 -37.608,0 c 0.2,0.629 0.34,1.295 0.34,1.994 z"
       id="path11535" /><path
       d="m 83.269,432.637 c -1.191,1.152 -2.805,1.871 -4.59,1.871 -1.786,0 -3.397,-0.719 -4.587,-1.871 l -7.237,0 0,4.412 55.482,0 0,-4.412 -39.068,0 z"
       id="path11537" /><path
       d="m 78.679,424.275 c -2.006,0 -3.639,1.635 -3.639,3.637 0,2.008 1.633,3.639 3.639,3.639 2.007,0 3.638,-1.627 3.638,-3.639 -10e-4,-2.002 -1.631,-3.637 -3.638,-3.637 z"
       id="path11539" /><path
       d="m 94.59,418.566 c -5.436,0 -9.842,-4.414 -9.842,-9.855 0,-5.441 4.408,-9.846 9.842,-9.846 5.446,0 9.856,4.408 9.856,9.846 0.003,5.441 -4.408,9.855 -9.856,9.855 z m -27.736,-26.52 0,31.209 7.158,0 c 1.196,-1.199 2.845,-1.943 4.669,-1.943 1.824,0 3.473,0.744 4.67,1.943 l 38.985,0 0,-31.209 -55.482,0 z"
       id="path11541" /><path
       d="m 91.128,415.221 c -0.569,0.306 -0.989,0.066 -0.989,-0.594 l 0,-11.855 c 0,-0.633 0.42,-0.9 0.989,-0.57 l 10.271,5.934 c 0.569,0.326 0.569,0.836 0,1.168 l -10.271,5.917 z"
       id="path11543" /></g><path
     style="fill:none;stroke:#231f20;stroke-width:0.5;stroke-miterlimit:10"
     d="m 41.691883,680.64728 387.996017,0"
     id="line11551" /><path
     style="fill:none"
     d="m 46.957886,692.88324 373.730014,0 0,46.33 -373.730014,0 z"
     id="rect11553" /><path
     style="fill:none"
     d="m 40.002884,44.232239 327.374996,0 0,117.184001 -327.374996,0 z"
     id="rect11563" /><path
     d="m 155.26888,660.24624 c -0.179,0 -0.322,-0.145 -0.322,-0.324 0,-0.178 0.146,-0.323 0.322,-0.323 0.179,0 0.322,0.145 0.322,0.323 0,0.179 -0.143,0.324 -0.322,0.324 z m 6.628,0.623 c -0.616,0.391 -4.947,3.041 -5.439,2.711 -0.242,-0.162 0.758,-1.551 0.318,-2.145 -0.622,-0.838 -0.466,-1.973 -0.776,-2.924 -0.278,-0.852 -1.349,-1.472 -1.511,-2.268 -0.14,-0.684 0.797,-1.053 0.271,-1.766 -0.604,0.371 -1.206,0.743 -1.811,1.117 -0.322,-1.443 0.385,-2.748 -1.636,-1.289 -1.67,1.205 -3.213,2.215 -4.057,4.174 -0.641,1.488 -0.339,3.787 -2.041,4.407 -1.79,0.654 -3.642,1.33 -5.34,2.201 -1.252,0.642 -2.396,2.279 -3.831,2.445 -1.585,0.184 -2.021,-3.281 -2.174,-4.299 -0.261,-1.727 -0.493,-3.564 -2.447,-4.154 -1.581,-0.474 -3.211,0.797 -3.515,2.35 0.024,0.184 0.03,0.596 -0.056,0.51 0.698,0.703 1.983,-2.172 2.742,-0.557 0.916,1.947 0.711,4.443 1.134,6.52 0.627,3.094 2.016,7.93 5.448,8.959 0.867,0.262 2.138,-0.395 2.05,0.867 -0.063,0.934 -0.793,1.568 0.043,2.43 1.137,1.174 5.435,0.617 6.961,0.527 0.68,-0.039 4.193,-0.342 3.207,-1.832 -0.609,-0.926 -2.433,-0.521 -3.342,-0.521 0.55,-0.971 1.633,-1.508 1.957,-2.625 1.217,1.631 1.945,5.109 4.113,5.109 0.583,0 2.909,0.252 2.382,-1.088 -0.304,-0.768 -1.018,-0.518 -1.511,-1.025 -2.613,-2.697 -2.109,-9.952 1.979,-10.952 2.444,-0.6 5.194,-2.406 6.78,-4.347 0.883,-1.079 3.226,-2.512 3.507,-3.954 0.457,-2.298 -3.262,1.329 -3.405,1.419 z"
     id="path11573" /><path
     d="m 273.95788,652.61524 c 0.948,-0.21 1.039,0 1.562,0 0.62,2.591 -3.699,2.098 -5.465,2.863 -2.912,1.262 -4.624,4.863 -7.548,7.023 -2.532,1.877 -4.788,2.043 -7.548,3.385 0.572,1.837 -1.043,3.656 -0.521,5.726 0.222,0.881 1.654,1.59 2.083,2.602 0.565,1.328 0.766,4.359 0.52,5.465 -0.282,1.266 -2.094,2.73 -3.122,1.822 -1.027,-0.91 1.164,-1.992 1.043,-3.385 -0.191,-2.16 -2.374,-3.482 -4.945,-3.383 -1.657,2.312 -3.867,7.795 -6.247,6.506 -2.38,-1.287 3.483,-3.42 2.863,-6.248 -0.668,-3.042 -5.203,-3.112 -8.325,-1.82 -0.514,1.727 -0.65,4.605 -1.562,6.506 -0.9,1.875 -2.964,3.68 -4.685,1.039 0.167,-1.137 1.991,-0.611 2.34,-1.562 0.481,-1.518 0.578,-3.416 0.521,-5.465 -2.66,-0.381 -4.295,2.029 -5.985,3.121 -0.988,0.639 -2.207,0.887 -3.121,1.562 -1.211,0.891 -2.682,4.252 -4.164,2.861 -1.484,-1.391 5.599,-5.172 6.246,-8.069 0.778,-3.484 -2.106,-5.08 -4.165,-5.465 -2.688,-0.496 -6.098,1.072 -6.505,-1.293 0.003,-1.301 0.532,-2.021 1.316,-3.289 1.626,-2.051 1.459,-1.416 1.289,-3.997 3.268,2.028 9.496,2.815 14.572,2.34 4.112,-0.383 8.059,-1.83 13.01,-1.301 2.572,0.273 4.977,1.84 7.286,2.082 7.235,0.764 8.426,-4.443 11.971,-7.023 2.273,-1.658 6.341,-2.394 7.286,-2.603 z"
     id="path11575"
     style="clip-rule:evenodd;fill-rule:evenodd" /><path
     d="m 42.643885,588.12724 c -17.067,-24.113 -11.352,-57.494 12.763,-74.559 24.115,-17.064 57.494995,-11.354 74.563995,12.762 17.065,24.111 11.353,57.493 -12.764,74.557 -24.113995,17.064 -57.496995,11.353 -74.562995,-12.76 z"
     id="path11577"
     style="opacity:0.5;fill:#f06022" /><g
     id="g11587"
     transform="translate(20.687885,-15.364762)"><path
       d="m 72.869,557.548 12.466,0 c 1.525,0 2.715,0.523 2.452,2.393 l -0.409,4.035 c -0.346,1.771 -1.237,2.495 -2.763,2.495 l -10.17,0 c -1.524,0 -2.094,-0.869 -2.762,-2.495 l -1.376,-3.934 c -0.43,-1.802 0.914,-2.494 2.562,-2.494 z m -12.196,2.494 -1.376,3.934 c -0.669,1.625 -1.237,2.495 -2.763,2.495 l -10.174,0 c -1.523,0 -2.419,-0.719 -2.761,-2.495 l -0.411,-4.035 c -0.262,-1.87 0.925,-2.393 2.452,-2.393 l 12.468,0 c 1.648,0 2.992,0.692 2.565,2.494 z m 3.56,-4.43 -27.164,0 c 0,0 1.23,9.573 1.422,10.235 0.197,0.69 1.053,0.672 1.596,0.711 0.543,0.039 1.292,0.362 1.651,0.863 0.727,1.01 1.771,0.984 1.771,0.984 0,0 16.14,0 17.125,0 0.986,0 1.674,-0.787 2.323,-3.837 0.375,-1.758 1.548,-2.516 2.578,-2.516 0.927,0 2.203,0.757 2.578,2.516 0.648,3.051 1.34,3.837 2.322,3.837 0.985,0 17.126,0 17.126,0 0,0 1.044,0.03 1.771,-0.984 0.358,-0.501 1.107,-0.824 1.651,-0.863 0.542,-0.039 1.398,-0.021 1.596,-0.711 0.191,-0.662 1.422,-10.235 1.422,-10.235 l -29.768,0 z"
       id="path11589" /><path
       d="m 50.983,544.277 c 1.012,-2.331 0.66,3.156 0.792,3.699 0.132,0.539 0.537,-0.119 0.659,-0.453 0.185,-0.494 0.644,-2.762 0.265,-6.674 -0.525,-5.438 -3.23,-1.445 -3.23,-1.445 l -11.937,15.152 8.441,0 c 10e-4,0 4.807,-9.808 5.01,-10.279 z"
       id="path11591" /><path
       d="m 79.756,547.972 c 0.133,-0.539 -0.219,-6.027 0.792,-3.699 0.203,0.473 5.011,10.283 5.011,10.283 l 8.442,0 -11.938,-15.152 c 0,0 -2.703,-3.997 -3.23,1.445 -0.378,3.912 0.081,6.18 0.265,6.674 0.122,0.331 0.526,0.992 0.658,0.449 z"
       id="path11593" /></g></svg>