<?xml version="1.0" encoding="UTF-8" standalone="no"?>
<svg
   xmlns:dc="http://purl.org/dc/elements/1.1/"
   xmlns:cc="http://creativecommons.org/ns#"
   xmlns:rdf="http://www.w3.org/1999/02/22-rdf-syntax-ns#"
   xmlns:svg="http://www.w3.org/2000/svg"
   xmlns="http://www.w3.org/2000/svg"
   version="1.1"
   id="svg6645"
   viewBox="0 0 29.094001 38.552999"
   height="10.880513mm"
   width="8.2109737mm">
  <defs
     id="defs6647" />
  <metadata
     id="metadata6650">
    <rdf:RDF>
      <cc:Work
         rdf:about="">
        <dc:format>image/svg+xml</dc:format>
        <dc:type
           rdf:resource="http://purl.org/dc/dcmitype/StillImage" />
        <dc:title></dc:title>
      </cc:Work>
    </rdf:RDF>
  </metadata>
  <g
     transform="translate(-522.59586,1.2000096)"
     id="layer1">
    <path
       id="path6059"
       d="m 546.22986,30.07099 -18.173,0 0,-23.9889996 18.173,0 0,23.9889996 z m 3.938,-12.728 c 0.162,0.225 0.384,0.364 0.631,0.364 0.492,0 0.891,-0.557 0.891,-1.241 0,-0.489 -0.235,-0.899 -0.504,-1.109 -0.303,-0.242 -0.462,-0.572 -0.527,-1.146 -0.025,-0.21 -0.336,-3.57 -0.396,-3.439 -0.25,0.461 -1.078,-0.265 -0.285,-2.2949996 0.499,-1.278 0.165,-4.188 0.165,-4.188 -0.056,-0.504 -0.076,-1.2 -0.076,-1.273 0,-0.922 0.679,-0.809 0.785,-1.795 0.041,-0.37599996 -0.05,-0.71399996 -0.225,-0.93999996 -0.161,-0.243 -0.406,-0.373 -0.676,-0.313 -0.71,0.146 -0.626,1.09299996 -1.287,1.09299996 -0.053,0 -0.554,-0.029 -0.917,-0.10599996 0,0 -2.088,-0.467 -3.004,0.22999996 -1.456,1.105 -1.976,-0.05 -1.646,-0.39699996 0.094,-0.083 -2.316,-0.517 -2.468,-0.55 -0.409,-0.094 -0.649,-0.314 -0.823,-0.737 -0.151,-0.376 -0.444,-0.70100004 -0.795,-0.70100004 -0.492,0 -0.891,0.55700004 -0.891,1.24100004 0,0.688 0.398,1.24099996 0.891,1.24099996 0.128,0 0.253,-0.036 0.364,-0.106 0,0.477 -1,0.865 -2.231,0.865 -1.235,0 -2.234,-0.389 -2.234,-0.865 0.11,0.066 0.234,0.106 0.363,0.106 0.492,0 0.892,-0.55399996 0.892,-1.24099996 0,-0.685 -0.399,-1.24100004 -0.892,-1.24100004 -0.351,0 -0.644,0.32500004 -0.794,0.70100004 -0.175,0.423 -0.412,0.644 -0.821,0.737 -0.151,0.037 -2.564,0.467 -2.468,0.55 0.331,0.34799996 -0.19,1.50299996 -1.646,0.39699996 -0.918,-0.69699996 -3.003,-0.22999996 -3.003,-0.22999996 -0.364,0.077 -0.861,0.10599996 -0.917,0.10599996 -0.661,-0.003 -0.578,-0.94599996 -1.287,-1.09299996 -0.271,-0.056 -0.512,0.07 -0.677,0.313 -0.173,0.227 -0.265,0.564 -0.224,0.93999996 0.106,0.986 0.784,0.873 0.786,1.795 0,0.073 -0.021,0.77 -0.076,1.273 0,0 -0.336,2.91 0.164,4.188 0.793,2.0299996 -0.035,2.7559996 -0.285,2.2949996 -0.061,-0.131 -0.371,3.229 -0.396,3.439 -0.065,0.571 -0.226,0.903 -0.528,1.146 -0.27,0.212 -0.505,0.62 -0.505,1.109 0,0.685 0.399,1.241 0.891,1.241 0.245,0 0.467,-0.14 0.629,-0.361 0.108,0.204 0.171,0.459 0.171,0.735 0,0.271 -0.062,0.522 -0.166,0.727 l -0.003,0 c -0.161,-0.225 -0.382,-0.364 -0.63,-0.364 -0.492,0 -0.891,0.556 -0.891,1.245 0,0.489 0.235,0.896 0.505,1.107 0.302,0.242 0.462,0.572 0.528,1.146 0.025,0.209 0.335,3.57 0.396,3.438 0.25,-0.461 1.078,0.266 0.285,2.294 -0.5,1.281 -0.164,4.188 -0.164,4.188 0.053,0.504 0.076,1.201 0.076,1.276 0,0.922 -0.679,0.807 -0.786,1.792 -0.041,0.377 0.051,0.715 0.224,0.943 0.165,0.244 0.407,0.37 0.677,0.314 0.709,-0.146 0.626,-1.095 1.287,-1.095 0.054,0 0.553,0.028 0.917,0.106 0,0 2.087,0.469 3.003,-0.229 1.456,-1.104 1.977,0.05 1.646,0.396 -0.094,0.085 2.317,0.518 2.468,0.552 0.409,0.093 0.648,0.315 0.821,0.735 0.15,0.374 0.443,0.701 0.794,0.701 0.492,0 0.892,-0.556 0.892,-1.243 0,-0.685 -0.399,-1.242 -0.892,-1.242 -0.129,0 -0.252,0.038 -0.363,0.108 0,-0.476 0.999,-0.864 2.231,-0.864 1.231,0 2.231,0.389 2.231,0.864 -0.111,-0.066 -0.235,-0.108 -0.364,-0.108 -0.491,0 -0.89,0.558 -0.89,1.242 0,0.688 0.399,1.243 0.89,1.243 0.354,0 0.644,-0.324 0.795,-0.701 0.174,-0.423 0.412,-0.645 0.82,-0.735 0.152,-0.035 2.564,-0.467 2.469,-0.552 -0.331,-0.347 0.189,-1.5 1.646,-0.396 0.918,0.698 3.003,0.229 3.003,0.229 0.363,-0.074 0.863,-0.106 0.916,-0.106 0.662,0.004 0.578,0.948 1.287,1.095 0.271,0.056 0.513,-0.07 0.677,-0.314 0.174,-0.227 0.265,-0.564 0.226,-0.943 -0.104,-0.985 -0.783,-0.873 -0.786,-1.793 0,-0.074 0.021,-0.771 0.076,-1.275 0,0 0.335,-2.907 -0.164,-4.188 -0.792,-2.028 0.035,-2.751 0.286,-2.294 0.059,0.132 0.37,-3.229 0.396,-3.438 0.064,-0.571 0.224,-0.904 0.527,-1.146 0.27,-0.211 0.505,-0.618 0.505,-1.107 0,-0.688 -0.4,-1.242 -0.891,-1.242 -0.245,0 -0.467,0.137 -0.629,0.361 -0.108,-0.207 -0.172,-0.459 -0.172,-0.735 0,-0.271 0.064,-0.522 0.167,-0.727 l 0.005,-0.003 z" />
    <path
       id="path6073"
       d="m 537.90986,20.63399 0,-1.553 c 0,0 -3.099,-0.767 -4.634,1.553 0,-2.557 2.078,-4.635 4.634,-4.635 l 0,-1.55 3.097,3.097 -3.097,3.088 z m -0.767,-8.501 c -3.417,0 -6.183,2.768 -6.183,6.182 0,3.417 2.767,6.183 6.183,6.183 3.416,0 6.182,-2.767 6.182,-6.183 0,-3.416 -2.767,-6.182 -6.182,-6.182 z" />
  </g>
</svg>
