<?xml version="1.0" encoding="UTF-8" standalone="no"?>
<svg
   xmlns:dc="http://purl.org/dc/elements/1.1/"
   xmlns:cc="http://creativecommons.org/ns#"
   xmlns:rdf="http://www.w3.org/1999/02/22-rdf-syntax-ns#"
   xmlns:svg="http://www.w3.org/2000/svg"
   xmlns="http://www.w3.org/2000/svg"
   version="1.1"
   id="svg15330"
   viewBox="0 0 388.92061 10.76098"
   height="3.0369878mm"
   width="109.76204mm">
  <defs
     id="defs15332" />
  <metadata
     id="metadata15335">
    <rdf:RDF>
      <cc:Work
         rdf:about="">
        <dc:format>image/svg+xml</dc:format>
        <dc:type
           rdf:resource="http://purl.org/dc/dcmitype/StillImage" />
        <dc:title></dc:title>
      </cc:Work>
    </rdf:RDF>
  </metadata>
  <g
     transform="translate(-180.5397,-549.83886)"
     id="layer1">
    <path
       id="rect14505"
       d="m 454.09328,549.83886 30.947,0 0,10.689 -30.947,0 z"
       style="fill:#333399" />
    <path
       id="rect14507"
       d="m 418.18029,549.83886 30.947,0 0,10.689 -30.947,0 z"
       style="opacity:0.75;fill:#333399" />
    <path
       id="rect14509"
       d="m 381.88428,549.83886 30.94701,0 0,10.689 -30.94701,0 z"
       style="opacity:0.5;fill:#333399" />
    <path
       id="rect14511"
       d="m 345.97129,549.83886 30.946,0 0,10.689 -30.946,0 z"
       style="opacity:0.3;fill:#333399" />
    <path
       id="rect14513"
       d="m 309.67429,549.83886 30.947,0 0,10.689 -30.947,0 z"
       style="fill:#009900" />
    <path
       id="rect14515"
       d="m 273.7613,549.83886 30.94699,0 0,10.689 -30.94699,0 z"
       style="opacity:0.7;fill:#009900" />
    <path
       id="rect14517"
       d="m 237.7073,549.90984 30.947,0 0,10.69 -30.947,0 z"
       style="opacity:0.4;fill:#009900" />
  </g>
</svg>
