<?xml version="1.0" encoding="UTF-8" standalone="no"?>
<!-- Created with Inkscape (http://www.inkscape.org/) -->

<svg
   xmlns:dc="http://purl.org/dc/elements/1.1/"
   xmlns:cc="http://creativecommons.org/ns#"
   xmlns:rdf="http://www.w3.org/1999/02/22-rdf-syntax-ns#"
   xmlns:svg="http://www.w3.org/2000/svg"
   xmlns="http://www.w3.org/2000/svg"
   xmlns:sodipodi="http://sodipodi.sourceforge.net/DTD/sodipodi-0.dtd"
   xmlns:inkscape="http://www.inkscape.org/namespaces/inkscape"
   width="109.76204mm"
   height="3.0369878mm"
   viewBox="0 0 388.92061 10.76098"
   id="svg15330"
   version="1.1"
   inkscape:version="0.91 r13725"
   sodipodi:docname="free-scale.svg">
  <defs
     id="defs15332" />
  <sodipodi:namedview
     id="base"
     pagecolor="#ffffff"
     bordercolor="#666666"
     borderopacity="1.0"
     inkscape:pageopacity="0.0"
     inkscape:pageshadow="2"
     inkscape:zoom="1.979899"
     inkscape:cx="59.262147"
     inkscape:cy="-34.30571"
     inkscape:document-units="px"
     inkscape:current-layer="layer1"
     showgrid="false"
     fit-margin-top="0"
     fit-margin-left="0"
     fit-margin-right="0"
     fit-margin-bottom="0"
     inkscape:window-width="2560"
     inkscape:window-height="1536"
     inkscape:window-x="0"
     inkscape:window-y="27"
     inkscape:window-maximized="1" />
  <metadata
     id="metadata15335">
    <rdf:RDF>
      <cc:Work
         rdf:about="">
        <dc:format>image/svg+xml</dc:format>
        <dc:type
           rdf:resource="http://purl.org/dc/dcmitype/StillImage" />
        <dc:title />
      </cc:Work>
    </rdf:RDF>
  </metadata>
  <g
     inkscape:label="Layer 1"
     inkscape:groupmode="layer"
     id="layer1"
     transform="translate(-180.5397,-549.83886)">
    <g
       transform="translate(491.82189,557.68156)"
       style="font-size:8.73009968px;font-family:Lato;fill:#000100;stroke:#000000;stroke-opacity:1"
       id="text14471">
      <path
         inkscape:connector-curvature="0"
         d="m 6.7658273,-6.1110698 0,6.1110698 -0.087301,0 0,-5.8404367 q 0,-0.021825 0,-0.039285 0,-0.021825 0.00436,-0.043651 l -2.6757755,4.6575081 q -0.030555,0.043651 -0.061111,0.043651 l -0.02619,0 q -0.030555,0 -0.061111,-0.043651 L 1.0956275,-5.9277377 q 0.00437,0.021825 0.00437,0.043651 0,0.021825 0,0.043651 l 0,5.8404367 -0.087301,0 0,-6.1110698 0.03492,0 q 0.039285,0 0.061111,0.03492 l 2.7761717,4.6749684 q 0.01746,0.02619 0.02619,0.048015 0.013095,0.021825 0.021825,0.043651 0.00873,-0.021825 0.01746,-0.043651 0.013095,-0.021825 0.030555,-0.048015 l 2.6888707,-4.6749684 q 0.021825,-0.03492 0.061111,-0.03492 l 0.03492,0 z"
         style="font-size:8.73009968px;font-family:Lato;fill:#000100;stroke:#000000;stroke-opacity:1"
         id="path15260" />
      <path
         inkscape:connector-curvature="0"
         d="m 14.021632,-3.0555349 q 0,0.7245983 -0.209523,1.3007849 -0.205157,0.5761865 -0.580552,0.98213618 -0.371029,0.40158458 -0.89047,0.61983708 -0.519441,0.21388744 -1.148008,0.21388744 -0.624202,0 -1.143643,-0.21388744 Q 9.5343603,-0.37102924 9.158966,-0.77261382 8.7879368,-1.1785635 8.5784144,-1.75475 8.373257,-2.3309366 8.373257,-3.0555349 q 0,-0.7202332 0.2051574,-1.2964198 0.2095224,-0.5805516 0.5805516,-0.9865013 0.3753943,-0.4059496 0.89047,-0.6242021 0.519441,-0.2182525 1.143643,-0.2182525 0.628567,0 1.148008,0.2182525 0.519441,0.2138875 0.89047,0.6198371 0.375395,0.4059496 0.580552,0.9865013 0.209523,0.5761865 0.209523,1.3007848 z m -0.113492,0 q 0,-0.7115031 -0.200792,-1.2745945 -0.196427,-0.5630915 -0.554361,-0.955946 -0.357934,-0.3928544 -0.859915,-0.5980118 -0.497616,-0.2095224 -1.099993,-0.2095224 -0.593647,0 -1.091262,0.2095224 -0.4976159,0.2051574 -0.8599151,0.5980118 -0.3579341,0.3928545 -0.5630914,0.955946 -0.2007923,0.5630914 -0.2007923,1.2745945 0,0.7115031 0.2007923,1.2745946 0.2051573,0.5587263 0.5630914,0.95158083 0.3622992,0.38848944 0.8599151,0.59801183 0.497615,0.20515734 1.091262,0.20515734 0.602377,0 1.099993,-0.20515734 0.501981,-0.20952239 0.859915,-0.59801183 0.357934,-0.39285453 0.554361,-0.95158083 0.200792,-0.5630915 0.200792,-1.2745946 z"
         style="font-size:8.73009968px;font-family:Lato;fill:#000100;stroke:#000000;stroke-opacity:1"
         id="path15262" />
      <path
         inkscape:connector-curvature="0"
         d="m 15.730139,-3.0380747 1.230944,0 q 0.4496,0 0.807534,-0.1047612 0.362299,-0.1091262 0.615472,-0.3055535 0.257538,-0.2007923 0.392855,-0.4845205 0.139681,-0.2880933 0.139681,-0.6503924 0,-0.7464236 -0.48452,-1.0912625 -0.484521,-0.349204 -1.392451,-0.349204 l -1.309515,0 0,2.9856941 z M 19.571383,0 19.501542,0 q -0.03492,0 -0.05675,-0.00436505 -0.02182,-0.0087301 -0.05674,-0.04801555 l -2.287286,-2.7412513 q -0.03492,-0.043651 -0.07421,-0.074206 -0.03492,-0.030555 -0.08294,-0.048016 -0.04365,-0.021825 -0.109126,-0.02619 -0.06111,-0.00873 -0.152777,-0.00873 l -0.951581,0 0,2.9507737 -0.104761,0 0,-6.1110698 1.414276,0 q 0.955946,0 1.466657,0.3710293 0.515075,0.3710292 0.515075,1.1567382 0,0.3710292 -0.144046,0.6722176 -0.144047,0.2968234 -0.40595,0.5063458 -0.261903,0.2095224 -0.628567,0.3273788 -0.362299,0.1178563 -0.803169,0.1265864 0.04365,0.01746 0.07857,0.048016 0.03492,0.02619 0.06984,0.065476 L 19.571383,0 Z"
         style="font-size:8.73009968px;font-family:Lato;fill:#000100;stroke:#000000;stroke-opacity:1"
         id="path15264" />
      <path
         inkscape:connector-curvature="0"
         d="M 24.354114,-0.0960311 24.345383,0 l -3.57061,0 0,-6.1110698 3.57061,0 0,0.096031 -3.465849,0 0,2.8634727 2.942043,0 0,0.096031 -2.942043,0 0,2.9595038 3.47458,0 z"
         style="font-size:8.73009968px;font-family:Lato;fill:#000100;stroke:#000000;stroke-opacity:1"
         id="path15266" />
      <path
         inkscape:connector-curvature="0"
         d="m 28.450167,-3.0380747 1.230944,0 q 0.4496,0 0.807534,-0.1047612 0.362299,-0.1091262 0.615472,-0.3055535 0.257538,-0.2007923 0.392855,-0.4845205 0.139681,-0.2880933 0.139681,-0.6503924 0,-0.7464236 -0.48452,-1.0912625 -0.484521,-0.349204 -1.392451,-0.349204 l -1.309515,0 0,2.9856941 z M 32.291411,0 32.22157,0 Q 32.18665,0 32.16482,-0.00436505 32.143,-0.01309515 32.10807,-0.0523806 l -2.287287,-2.7412513 q -0.03492,-0.043651 -0.0742,-0.074206 -0.03492,-0.030555 -0.08294,-0.048016 -0.04365,-0.021825 -0.109127,-0.02619 -0.06111,-0.00873 -0.152776,-0.00873 l -0.951581,0 0,2.9507737 -0.104761,0 0,-6.1110698 1.414276,0 q 0.955946,0 1.466657,0.3710293 0.515075,0.3710292 0.515075,1.1567382 0,0.3710292 -0.144046,0.6722176 -0.144047,0.2968234 -0.40595,0.5063458 -0.261903,0.2095224 -0.628567,0.3273788 -0.362299,0.1178563 -0.803169,0.1265864 0.04365,0.01746 0.07857,0.048016 0.03492,0.02619 0.06984,0.065476 L 32.291411,0 Z"
         style="font-size:8.73009968px;font-family:Lato;fill:#000100;stroke:#000000;stroke-opacity:1"
         id="path15268" />
      <path
         inkscape:connector-curvature="0"
         d="M 37.074142,-0.0960311 37.065411,0 l -3.57061,0 0,-6.1110698 3.57061,0 0,0.096031 -3.465849,0 0,2.8634727 2.942043,0 0,0.096031 -2.942043,0 0,2.9595038 3.47458,0 z"
         style="font-size:8.73009968px;font-family:Lato;fill:#000100;stroke:#000000;stroke-opacity:1"
         id="path15270" />
      <path
         inkscape:connector-curvature="0"
         d="m 41.404545,-5.5523434 q -0.01309,0.02619 -0.04365,0.02619 -0.03055,0 -0.0742,-0.039285 -0.04365,-0.043651 -0.113492,-0.1047612 -0.06984,-0.065476 -0.174602,-0.1396816 -0.100396,-0.074206 -0.244442,-0.1353166 -0.144047,-0.065476 -0.331744,-0.1047612 -0.187697,-0.043651 -0.43214,-0.043651 -0.375394,0 -0.667853,0.1178564 -0.288093,0.1134913 -0.48452,0.3055535 -0.196428,0.1920622 -0.301189,0.445235 -0.100396,0.2531729 -0.100396,0.5281711 0,0.353569 0.135317,0.5892817 0.139681,0.2357127 0.362299,0.3972195 0.222617,0.1615069 0.510711,0.2706331 0.288093,0.1047612 0.584916,0.2051574 0.296824,0.096031 0.584917,0.2051573 0.288093,0.1091263 0.510711,0.2793632 0.222617,0.1658719 0.357934,0.4146797 0.139681,0.2444428 0.139681,0.6154721 0,0.3753942 -0.126586,0.702773 -0.126586,0.32301368 -0.366664,0.56745647 -0.240078,0.24007774 -0.589282,0.37975933 -0.349204,0.1396816 -0.794439,0.1396816 -0.309919,0 -0.554361,-0.05674565 -0.244443,-0.0523806 -0.4496,-0.15277674 -0.200793,-0.1047612 -0.37103,-0.24880785 -0.170237,-0.14841169 -0.327378,-0.33610883 l 0.01746,-0.0174602 q 0.01309,-0.0130951 0.02182,-0.0174602 0.0087,-0.00873 0.03055,-0.00873 0.02619,0 0.07421,0.0567456 0.05238,0.0523806 0.139682,0.13968159 0.0873,0.082936 0.209522,0.17896704 0.122222,0.0960311 0.296824,0.1833321 0.174602,0.0829359 0.397219,0.13968159 0.226983,0.0523806 0.515076,0.0523806 0.42341,0 0.750789,-0.13531654 0.331743,-0.13531655 0.558726,-0.36229914 0.231348,-0.23134764 0.349204,-0.53690117 0.122221,-0.3055535 0.122221,-0.6503924 0,-0.2880933 -0.09167,-0.4976157 -0.0873,-0.2095224 -0.240077,-0.3579341 -0.152777,-0.1527768 -0.357935,-0.2575379 -0.200792,-0.1091263 -0.432139,-0.1920622 -0.231348,-0.087301 -0.471426,-0.1571418 -0.240078,-0.074206 -0.471425,-0.1615069 -0.231348,-0.087301 -0.436505,-0.1964272 -0.200793,-0.1134913 -0.353569,-0.2706331 -0.152777,-0.1615069 -0.244443,-0.3797593 -0.0873,-0.2226176 -0.0873,-0.5238059 0,-0.2924584 0.109126,-0.5587264 0.109126,-0.2706332 0.318649,-0.4757905 0.209522,-0.2051574 0.515076,-0.3273788 0.309918,-0.1222214 0.707138,-0.1222214 0.445235,0 0.785709,0.1440467 0.344839,0.1440466 0.646027,0.4583302 l -0.01746,0.02619 z"
         style="font-size:8.73009968px;font-family:Lato;fill:#000100;stroke:#000000;stroke-opacity:1"
         id="path15272" />
      <path
         inkscape:connector-curvature="0"
         d="m 47.024957,-6.0150387 -2.296017,0 0,6.0150387 -0.104761,0 0,-6.0150387 -2.313476,0 0,-0.096031 4.714254,0 0,0.096031 z"
         style="font-size:8.73009968px;font-family:Lato;fill:#000100;stroke:#000000;stroke-opacity:1"
         id="path15274" />
      <path
         inkscape:connector-curvature="0"
         d="m 48.263403,-3.0380747 1.230944,0 q 0.4496,0 0.807534,-0.1047612 0.362299,-0.1091262 0.615472,-0.3055535 0.257538,-0.2007923 0.392855,-0.4845205 0.139681,-0.2880933 0.139681,-0.6503924 0,-0.7464236 -0.48452,-1.0912625 -0.484521,-0.349204 -1.392451,-0.349204 l -1.309515,0 0,2.9856941 z M 52.104647,0 52.034806,0 q -0.03492,0 -0.05675,-0.00436505 -0.02182,-0.0087301 -0.05674,-0.04801555 L 49.63403,-2.7936319 q -0.03492,-0.043651 -0.07421,-0.074206 -0.03492,-0.030555 -0.08294,-0.048016 -0.04365,-0.021825 -0.109126,-0.02619 -0.06111,-0.00873 -0.152777,-0.00873 l -0.951581,0 0,2.9507737 -0.104761,0 0,-6.1110698 1.414276,0 q 0.955946,0 1.466657,0.3710293 0.515076,0.3710292 0.515076,1.1567382 0,0.3710292 -0.144047,0.6722176 -0.144047,0.2968234 -0.40595,0.5063458 -0.261903,0.2095224 -0.628567,0.3273788 -0.362299,0.1178563 -0.803169,0.1265864 0.04365,0.01746 0.07857,0.048016 0.03492,0.02619 0.06984,0.065476 L 52.104647,0 Z"
         style="font-size:8.73009968px;font-family:Lato;fill:#000100;stroke:#000000;stroke-opacity:1"
         id="path15276" />
      <path
         inkscape:connector-curvature="0"
         d="m 53.412794,0 -0.104761,0 0,-6.1110698 0.104761,0 0,6.1110698 z"
         style="font-size:8.73009968px;font-family:Lato;fill:#000100;stroke:#000000;stroke-opacity:1"
         id="path15278" />
      <path
         inkscape:connector-curvature="0"
         d="m 59.952869,-0.82499442 q 0.01746,0 0.03055,0.0130952 l 0.03929,0.0349204 q -0.192062,0.18769714 -0.41468,0.34483894 -0.218252,0.15277674 -0.480155,0.26626804 -0.261903,0.10912624 -0.576187,0.17023694 -0.314284,0.06547575 -0.694043,0.06547575 -0.615472,0 -1.134913,-0.21388744 -0.519441,-0.2182525 -0.8992,-0.62420213 -0.37976,-0.40594968 -0.593647,-0.98213628 -0.209522,-0.5805516 -0.209522,-1.3051499 0,-0.698408 0.209522,-1.2745944 0.213887,-0.5761866 0.598012,-0.9865014 0.388489,-0.4146796 0.92539,-0.6372973 0.541267,-0.2269826 1.191659,-0.2269826 0.301188,0 0.567457,0.048016 0.266268,0.043651 0.50198,0.1353165 0.240078,0.091666 0.45833,0.2269826 0.218253,0.1309515 0.427775,0.3055535 l -0.01746,0.02619 q -0.0087,0.01746 -0.04365,0.01746 -0.03056,0 -0.157142,-0.1047612 -0.122222,-0.1047612 -0.353569,-0.2313476 -0.231348,-0.1265865 -0.576187,-0.2313477 -0.340474,-0.1047612 -0.807534,-0.1047612 -0.619837,0 -1.139278,0.2138875 -0.515076,0.2095224 -0.89047,0.6067419 -0.371029,0.3928545 -0.580552,0.9559459 -0.209522,0.5630914 -0.209522,1.2614994 0,0.7115031 0.205157,1.2745946 0.209523,0.5630914 0.576187,0.95594593 0.366664,0.39285449 0.86428,0.60237688 0.50198,0.20515734 1.086897,0.20515734 0.371029,0 0.663488,-0.0523806 0.292458,-0.0523806 0.532536,-0.15277674 0.244442,-0.10039615 0.4496,-0.24444279 0.209522,-0.1484117 0.41468,-0.33610884 0.02182,-0.0218253 0.03492,-0.0218253 z"
         style="font-size:8.73009968px;font-family:Lato;fill:#000100;stroke:#000000;stroke-opacity:1"
         id="path15280" />
      <path
         inkscape:connector-curvature="0"
         d="m 65.235398,-6.0150387 -2.296016,0 0,6.0150387 -0.104761,0 0,-6.0150387 -2.313477,0 0,-0.096031 4.714254,0 0,0.096031 z"
         style="font-size:8.73009968px;font-family:Lato;fill:#000100;stroke:#000000;stroke-opacity:1"
         id="path15282" />
      <path
         inkscape:connector-curvature="0"
         d="m 66.473845,0 -0.104762,0 0,-6.1110698 0.104762,0 0,6.1110698 z"
         style="font-size:8.73009968px;font-family:Lato;fill:#000100;stroke:#000000;stroke-opacity:1"
         id="path15284" />
      <path
         inkscape:connector-curvature="0"
         d="M 72.861139,-6.1110698 70.31195,0 l -0.0873,0 -2.549189,-6.1110698 0.07857,0 q 0.03929,0 0.05238,0.043651 l 2.392047,5.74440561 q 0.02183,0.0480156 0.03492,0.0916661 0.01746,0.0436505 0.03492,0.091666 0.01746,-0.0480156 0.03056,-0.091666 0.01746,-0.0436505 0.03928,-0.0916661 l 2.392047,-5.74440561 q 0.01309,-0.043651 0.06111,-0.043651 l 0.06984,0 z"
         style="font-size:8.73009968px;font-family:Lato;fill:#000100;stroke:#000000;stroke-opacity:1"
         id="path15286" />
      <path
         inkscape:connector-curvature="0"
         d="M 77.638412,-0.0960311 77.629681,0 l -3.57061,0 0,-6.1110698 3.57061,0 0,0.096031 -3.465849,0 0,2.8634727 2.942043,0 0,0.096031 -2.942043,0 0,2.9595038 3.47458,0 z"
         style="font-size:8.73009968px;font-family:Lato;fill:#000100;stroke:#000000;stroke-opacity:1"
         id="path15288" />
    </g>
    <g
       transform="translate(179.527,557.68126)"
       style="font-size:8.73009968px;font-family:Lato;fill:#000100;stroke:#000000;stroke-opacity:1"
       id="text14475">
      <path
         inkscape:connector-curvature="0"
         d="m 6.7658273,-6.1110698 0,6.1110698 -0.087301,0 0,-5.8404367 q 0,-0.021825 0,-0.039285 0,-0.021825 0.00436,-0.043651 l -2.6757755,4.6575081 q -0.030555,0.043651 -0.061111,0.043651 l -0.02619,0 q -0.030555,0 -0.061111,-0.043651 L 1.0956275,-5.9277377 q 0.00437,0.021825 0.00437,0.043651 0,0.021825 0,0.043651 l 0,5.8404367 -0.087301,0 0,-6.1110698 0.03492,0 q 0.039285,0 0.061111,0.03492 l 2.7761717,4.6749684 q 0.01746,0.02619 0.02619,0.048015 0.013095,0.021825 0.021825,0.043651 0.00873,-0.021825 0.01746,-0.043651 0.013095,-0.021825 0.030555,-0.048015 l 2.6888707,-4.6749684 q 0.021825,-0.03492 0.061111,-0.03492 l 0.03492,0 z"
         style="font-size:8.73009968px;font-family:Lato;fill:#000100;stroke:#000000;stroke-opacity:1"
         id="path15243" />
      <path
         inkscape:connector-curvature="0"
         d="m 14.021632,-3.0555349 q 0,0.7245983 -0.209523,1.3007849 -0.205157,0.5761865 -0.580552,0.98213618 -0.371029,0.40158458 -0.89047,0.61983708 -0.519441,0.21388744 -1.148008,0.21388744 -0.624202,0 -1.143643,-0.21388744 Q 9.5343603,-0.37102924 9.158966,-0.77261382 8.7879368,-1.1785635 8.5784144,-1.75475 8.373257,-2.3309366 8.373257,-3.0555349 q 0,-0.7202332 0.2051574,-1.2964198 0.2095224,-0.5805516 0.5805516,-0.9865013 0.3753943,-0.4059496 0.89047,-0.6242021 0.519441,-0.2182525 1.143643,-0.2182525 0.628567,0 1.148008,0.2182525 0.519441,0.2138875 0.89047,0.6198371 0.375395,0.4059496 0.580552,0.9865013 0.209523,0.5761865 0.209523,1.3007848 z m -0.113492,0 q 0,-0.7115031 -0.200792,-1.2745945 -0.196427,-0.5630915 -0.554361,-0.955946 -0.357934,-0.3928544 -0.859915,-0.5980118 -0.497616,-0.2095224 -1.099993,-0.2095224 -0.593647,0 -1.091262,0.2095224 -0.4976159,0.2051574 -0.8599151,0.5980118 -0.3579341,0.3928545 -0.5630914,0.955946 -0.2007923,0.5630914 -0.2007923,1.2745945 0,0.7115031 0.2007923,1.2745946 0.2051573,0.5587263 0.5630914,0.95158083 0.3622992,0.38848944 0.8599151,0.59801183 0.497615,0.20515734 1.091262,0.20515734 0.602377,0 1.099993,-0.20515734 0.501981,-0.20952239 0.859915,-0.59801183 0.357934,-0.39285453 0.554361,-0.95158083 0.200792,-0.5630915 0.200792,-1.2745946 z"
         style="font-size:8.73009968px;font-family:Lato;fill:#000100;stroke:#000000;stroke-opacity:1"
         id="path15245" />
      <path
         inkscape:connector-curvature="0"
         d="m 15.730139,-3.0380747 1.230944,0 q 0.4496,0 0.807534,-0.1047612 0.362299,-0.1091262 0.615472,-0.3055535 0.257538,-0.2007923 0.392855,-0.4845205 0.139681,-0.2880933 0.139681,-0.6503924 0,-0.7464236 -0.48452,-1.0912625 -0.484521,-0.349204 -1.392451,-0.349204 l -1.309515,0 0,2.9856941 z M 19.571383,0 19.501542,0 q -0.03492,0 -0.05675,-0.00436505 -0.02182,-0.0087301 -0.05674,-0.04801555 l -2.287286,-2.7412513 q -0.03492,-0.043651 -0.07421,-0.074206 -0.03492,-0.030555 -0.08294,-0.048016 -0.04365,-0.021825 -0.109126,-0.02619 -0.06111,-0.00873 -0.152777,-0.00873 l -0.951581,0 0,2.9507737 -0.104761,0 0,-6.1110698 1.414276,0 q 0.955946,0 1.466657,0.3710293 0.515075,0.3710292 0.515075,1.1567382 0,0.3710292 -0.144046,0.6722176 -0.144047,0.2968234 -0.40595,0.5063458 -0.261903,0.2095224 -0.628567,0.3273788 -0.362299,0.1178563 -0.803169,0.1265864 0.04365,0.01746 0.07857,0.048016 0.03492,0.02619 0.06984,0.065476 L 19.571383,0 Z"
         style="font-size:8.73009968px;font-family:Lato;fill:#000100;stroke:#000000;stroke-opacity:1"
         id="path15247" />
      <path
         inkscape:connector-curvature="0"
         d="M 24.354114,-0.0960311 24.345383,0 l -3.57061,0 0,-6.1110698 3.57061,0 0,0.096031 -3.465849,0 0,2.8634727 2.942043,0 0,0.096031 -2.942043,0 0,2.9595038 3.47458,0 z"
         style="font-size:8.73009968px;font-family:Lato;fill:#000100;stroke:#000000;stroke-opacity:1"
         id="path15249" />
      <path
         inkscape:connector-curvature="0"
         d="m 33.5791,-3.0555349 q 0,0.7245983 -0.209522,1.3007849 -0.205157,0.5761865 -0.580552,0.98213618 -0.371029,0.40158458 -0.89047,0.61983708 -0.519441,0.21388744 -1.148008,0.21388744 -0.624202,0 -1.143643,-0.21388744 -0.515076,-0.2182525 -0.89047,-0.61983708 -0.371029,-0.40594968 -0.580552,-0.98213618 -0.205157,-0.5761866 -0.205157,-1.3007849 0,-0.7202332 0.205157,-1.2964198 0.209523,-0.5805516 0.580552,-0.9865013 0.375394,-0.4059496 0.89047,-0.6242021 0.519441,-0.2182525 1.143643,-0.2182525 0.628567,0 1.148008,0.2182525 0.519441,0.2138875 0.89047,0.6198371 0.375395,0.4059496 0.580552,0.9865013 0.209522,0.5761865 0.209522,1.3007848 z m -0.113491,0 q 0,-0.7115031 -0.200792,-1.2745945 -0.196427,-0.5630915 -0.554362,-0.955946 -0.357934,-0.3928544 -0.859914,-0.5980118 -0.497616,-0.2095224 -1.099993,-0.2095224 -0.593647,0 -1.091262,0.2095224 -0.497616,0.2051574 -0.859915,0.5980118 -0.357934,0.3928545 -0.563092,0.955946 -0.200792,0.5630914 -0.200792,1.2745945 0,0.7115031 0.200792,1.2745946 0.205158,0.5587263 0.563092,0.95158083 0.362299,0.38848944 0.859915,0.59801183 0.497615,0.20515734 1.091262,0.20515734 0.602377,0 1.099993,-0.20515734 0.50198,-0.20952239 0.859914,-0.59801183 0.357935,-0.39285453 0.554362,-0.95158083 0.200792,-0.5630915 0.200792,-1.2745946 z"
         style="font-size:8.73009968px;font-family:Lato;fill:#000100;stroke:#000000;stroke-opacity:1"
         id="path15251" />
      <path
         inkscape:connector-curvature="0"
         d="m 36.562202,-2.7063309 q 0.4496,0 0.811899,-0.1265864 0.362299,-0.1309515 0.615472,-0.3535691 0.257538,-0.2269826 0.39722,-0.528171 0.139681,-0.3011885 0.139681,-0.6503924 0,-0.8162644 -0.49325,-1.2353091 -0.488886,-0.4234099 -1.471022,-0.4234099 l -1.274595,0 0,3.3174379 1.274595,0 z m 0,-3.4047389 q 0.999596,0 1.532132,0.43214 0.536902,0.4321399 0.536902,1.31388 0,0.3797593 -0.152777,0.702773 -0.148412,0.3186486 -0.42341,0.5499963 -0.274998,0.2313476 -0.654758,0.3622991 -0.379759,0.1309515 -0.838089,0.1309515 l -1.274595,0 0,2.6190299 -0.104761,0 0,-6.1110698 1.379356,0 z"
         style="font-size:8.73009968px;font-family:Lato;fill:#000100;stroke:#000000;stroke-opacity:1"
         id="path15253" />
      <path
         inkscape:connector-curvature="0"
         d="M 43.638766,-0.0960311 43.630036,0 l -3.570611,0 0,-6.1110698 3.570611,0 0,0.096031 -3.465849,0 0,2.8634727 2.942043,0 0,0.096031 -2.942043,0 0,2.9595038 3.474579,0 z"
         style="font-size:8.73009968px;font-family:Lato;fill:#000100;stroke:#000000;stroke-opacity:1"
         id="path15255" />
      <path
         inkscape:connector-curvature="0"
         d="m 49.645349,-6.1110698 0,6.1110698 -0.02619,0 q -0.02619,0 -0.04802,-0.03055535 l -4.34759,-5.91900755 q 0.0044,0.030555 0.0044,0.056746 0,0.02619 0,0.052381 l 0,5.8404367 -0.0873,0 0,-6.1110698 0.03492,0 q 0.03928,0 0.06111,0.03492 l 4.325764,5.88845226 q -0.0044,-0.0218252 -0.0044,-0.0436505 0,-0.0261903 0,-0.0480155 l 0,-5.83170666 0.0873,0 z"
         style="font-size:8.73009968px;font-family:Lato;fill:#000100;stroke:#000000;stroke-opacity:1"
         id="path15257" />
    </g>
    <path
       inkscape:connector-curvature="0"
       style="fill:#333399"
       d="m 454.09328,549.83886 30.947,0 0,10.689 -30.947,0 z"
       id="rect14505" />
    <path
       inkscape:connector-curvature="0"
       style="opacity:0.75;fill:#333399"
       d="m 418.18029,549.83886 30.947,0 0,10.689 -30.947,0 z"
       id="rect14507" />
    <path
       inkscape:connector-curvature="0"
       style="opacity:0.5;fill:#333399"
       d="m 381.88428,549.83886 30.94701,0 0,10.689 -30.94701,0 z"
       id="rect14509" />
    <path
       inkscape:connector-curvature="0"
       style="opacity:0.3;fill:#333399"
       d="m 345.97129,549.83886 30.946,0 0,10.689 -30.946,0 z"
       id="rect14511" />
    <path
       inkscape:connector-curvature="0"
       style="fill:#009900"
       d="m 309.67429,549.83886 30.947,0 0,10.689 -30.947,0 z"
       id="rect14513" />
    <path
       inkscape:connector-curvature="0"
       style="opacity:0.7;fill:#009900"
       d="m 273.7613,549.83886 30.94699,0 0,10.689 -30.94699,0 z"
       id="rect14515" />
    <path
       inkscape:connector-curvature="0"
       style="opacity:0.4;fill:#009900"
       d="m 237.7073,549.90984 30.947,0 0,10.69 -30.947,0 z"
       id="rect14517" />
  </g>
</svg>
