<?xml version="1.0" encoding="UTF-8" standalone="no"?>
<svg
   xmlns:dc="http://purl.org/dc/elements/1.1/"
   xmlns:cc="http://creativecommons.org/ns#"
   xmlns:rdf="http://www.w3.org/1999/02/22-rdf-syntax-ns#"
   xmlns:svg="http://www.w3.org/2000/svg"
   xmlns="http://www.w3.org/2000/svg"
   version="1.1"
   id="svg17695"
   viewBox="0 0 440.82409 49.633444"
   height="14.007661mm"
   width="124.41035mm">
  <defs
     id="defs17697" />
  <metadata
     id="metadata17700">
    <rdf:RDF>
      <cc:Work
         rdf:about="">
        <dc:format>image/svg+xml</dc:format>
        <dc:type
           rdf:resource="http://purl.org/dc/dcmitype/StillImage" />
        <dc:title></dc:title>
      </cc:Work>
    </rdf:RDF>
  </metadata>
  <g
     transform="translate(-1239.588,-124.68834)"
     id="layer1">
    <g
       id="g16646"
       transform="translate(1214.588,31.127784)">
      <path
         id="path16648"
         d="m 221.268,117.449 -10.168,0 0,-1.393 10.168,0 0,1.393 z m 0,2.785 -10.168,0 0,-1.395 10.168,0 0,1.395 z m 0,2.787 -10.168,0 0,-1.393 10.168,0 0,1.393 z m 0,2.79 -10.168,0 0,-1.393 10.168,0 0,1.393 z M 211.1,113.27 l 10.168,0 0,1.395 -10.168,0 0,-1.395 z m -6.254,-6.502 0,28.883 c 0,0 -2.445,-1.348 -5.745,-1.348 -0.809,0 -12.207,0 -12.207,0 l 0,-29.59 c 0,0 11.398,0 12.207,0 6.385,0 5.745,2.055 5.745,2.055 z m 22.58,-4.192 -13.329,0 c -4.357,0 -6.489,1.025 -7.525,2.09 -1.034,-1.064 -3.165,-2.09 -7.524,-2.09 l -13.328,0 c -0.636,0 -1.146,0.521 -1.146,1.158 l 0,31.543 c 0,0.637 0.511,1.156 1.146,1.156 l 13.324,0 c 2.812,0 5.622,1.203 5.65,1.348 l 0.016,0 c 0.571,0.43 0.576,0.422 1.146,0.422 l 1.525,0 c 0.581,0 0.609,0.01 1.126,-0.535 0.093,-0.158 2.998,-1.234 5.583,-1.234 l 13.327,0 c 0.636,0 1.147,-0.52 1.147,-1.154 l 0,-31.545 c 0.01,-0.637 -0.504,-1.159 -1.138,-1.159 z" />
      <rect
         id="rect16650"
         height="1.393"
         width="10.169"
         y="118.84"
         x="190.662" />
      <rect
         id="rect16652"
         height="1.395"
         width="5.7199998"
         y="113.27"
         x="195.11099" />
      <rect
         id="rect16654"
         height="1.393"
         width="10.169"
         y="116.057"
         x="190.662" />
      <rect
         id="rect16656"
         height="1.393"
         width="10.169"
         y="121.629"
         x="190.662" />
      <rect
         id="rect16658"
         height="1.393"
         width="10.169"
         y="124.418"
         x="190.662" />
    </g>
    <g
       id="g16660"
       style="opacity:0.8"
       transform="translate(1214.588,31.127784)">
      <path
         id="path16662"
         d="m 269.002,117.449 -10.168,0 0,-1.393 10.168,0 0,1.393 z m 0,2.785 -10.168,0 0,-1.395 10.168,0 0,1.395 z m 0,2.787 -10.168,0 0,-1.393 10.168,0 0,1.393 z m 0,2.79 -10.168,0 0,-1.393 10.168,0 0,1.393 z m -10.168,-12.541 10.168,0 0,1.395 -10.168,0 0,-1.395 z m -6.254,-6.502 0,28.883 c 0,0 -2.445,-1.348 -5.746,-1.348 -0.809,0 -12.206,0 -12.206,0 l 0,-29.59 c 0,0 11.397,0 12.206,0 6.387,0 5.746,2.055 5.746,2.055 z m 22.578,-4.192 -13.326,0 c -4.359,0 -6.49,1.025 -7.525,2.09 -1.035,-1.064 -3.166,-2.09 -7.525,-2.09 l -13.328,0 c -0.635,0 -1.146,0.521 -1.146,1.158 l 0,31.543 c 0,0.637 0.511,1.156 1.146,1.156 l 13.325,0 c 2.813,0 5.622,1.203 5.651,1.348 l 0.014,0 c 0.572,0.43 0.576,0.422 1.146,0.422 l 1.525,0 c 0.582,0 0.607,0.01 1.127,-0.535 0.092,-0.158 2.996,-1.234 5.582,-1.234 l 13.328,0 c 0.635,0 1.146,-0.52 1.146,-1.154 l 0,-31.545 c 0.011,-0.637 -0.505,-1.159 -1.14,-1.159 z" />
      <rect
         id="rect16664"
         height="1.393"
         width="10.171"
         y="118.84"
         x="238.396" />
      <rect
         id="rect16666"
         height="1.395"
         width="5.7210002"
         y="113.27"
         x="242.84599" />
      <rect
         id="rect16668"
         height="1.393"
         width="10.171"
         y="116.057"
         x="238.396" />
      <rect
         id="rect16670"
         height="1.393"
         width="10.171"
         y="121.629"
         x="238.396" />
      <rect
         id="rect16672"
         height="1.393"
         width="10.171"
         y="124.418"
         x="238.396" />
    </g>
    <g
       id="g16674"
       style="opacity:0.7"
       transform="translate(1214.588,31.127784)">
      <path
         id="path16676"
         d="m 316.736,117.449 -10.168,0 0,-1.393 10.168,0 0,1.393 z m 0,2.785 -10.168,0 0,-1.395 10.168,0 0,1.395 z m 0,2.787 -10.168,0 0,-1.393 10.168,0 0,1.393 z m 0,2.79 -10.168,0 0,-1.393 10.168,0 0,1.393 z m -10.168,-12.541 10.168,0 0,1.395 -10.168,0 0,-1.395 z m -6.254,-6.502 0,28.883 c 0,0 -2.445,-1.348 -5.746,-1.348 -0.809,0 -12.205,0 -12.205,0 l 0,-29.59 c 0,0 11.396,0 12.205,0 6.387,0 5.746,2.055 5.746,2.055 z m 22.579,-4.192 -13.328,0 c -4.357,0 -6.488,1.025 -7.525,2.09 -1.033,-1.064 -3.164,-2.09 -7.523,-2.09 l -13.328,0 c -0.635,0 -1.146,0.521 -1.146,1.158 l 0,31.543 c 0,0.637 0.512,1.156 1.146,1.156 l 13.324,0 c 2.812,0 5.623,1.203 5.65,1.348 l 0.016,0 c 0.572,0.43 0.576,0.422 1.146,0.422 l 1.525,0 c 0.58,0 0.607,0.01 1.127,-0.535 0.092,-0.158 2.996,-1.234 5.582,-1.234 l 13.326,0 c 0.637,0 1.148,-0.52 1.148,-1.154 l 0,-31.545 c 0.008,-0.637 -0.506,-1.159 -1.14,-1.159 z" />
      <rect
         id="rect16678"
         height="1.393"
         width="10.168"
         y="118.84"
         x="286.13101" />
      <rect
         id="rect16680"
         height="1.395"
         width="5.7210002"
         y="113.27"
         x="290.578" />
      <rect
         id="rect16682"
         height="1.393"
         width="10.168"
         y="116.057"
         x="286.13101" />
      <rect
         id="rect16684"
         height="1.393"
         width="10.168"
         y="121.629"
         x="286.13101" />
      <rect
         id="rect16686"
         height="1.393"
         width="10.168"
         y="124.418"
         x="286.13101" />
    </g>
    <g
       id="g16688"
       style="opacity:0.4"
       transform="translate(1214.588,31.127784)">
      <path
         id="path16690"
         d="m 364.937,117.449 -10.166,0 0,-1.393 10.166,0 0,1.393 z m 0,2.785 -10.166,0 0,-1.395 10.166,0 0,1.395 z m 0,2.787 -10.166,0 0,-1.393 10.166,0 0,1.393 z m 0,2.79 -10.166,0 0,-1.393 10.166,0 0,1.393 z m -10.166,-12.541 10.166,0 0,1.395 -10.166,0 0,-1.395 z m -6.254,-6.502 0,28.883 c 0,0 -2.445,-1.348 -5.746,-1.348 -0.809,0 -12.204,0 -12.204,0 l 0,-29.59 c 0,0 11.396,0 12.204,0 6.386,0 5.746,2.055 5.746,2.055 z m 22.578,-4.192 -13.328,0 c -4.359,0 -6.488,1.025 -7.525,2.09 -1.033,-1.064 -3.164,-2.09 -7.523,-2.09 l -13.327,0 c -0.635,0 -1.146,0.521 -1.146,1.158 l 0,31.543 c 0,0.637 0.512,1.156 1.146,1.156 l 13.323,-0.002 c 2.812,0 5.623,1.205 5.65,1.35 l 0.016,0 c 0.572,0.428 0.576,0.422 1.146,0.422 l 1.523,0 c 0.582,0 0.609,0.01 1.129,-0.535 0.092,-0.158 2.996,-1.236 5.582,-1.236 l 13.326,0 c 0.635,0 1.148,-0.518 1.148,-1.152 l 0,-31.545 c 0.008,-0.637 -0.506,-1.159 -1.14,-1.159 z" />
      <rect
         id="rect16692"
         height="1.393"
         width="10.167"
         y="118.84"
         x="334.33401" />
      <rect
         id="rect16694"
         height="1.395"
         width="5.7199998"
         y="113.27"
         x="338.78101" />
      <rect
         id="rect16696"
         height="1.393"
         width="10.167"
         y="116.057"
         x="334.33401" />
      <rect
         id="rect16698"
         height="1.393"
         width="10.167"
         y="121.629"
         x="334.33401" />
      <rect
         id="rect16700"
         height="1.393"
         width="10.167"
         y="124.418"
         x="334.33401" />
    </g>
    <g
       id="g16702"
       style="opacity:0.2"
       transform="translate(1214.588,31.127784)">
      <path
         id="path16704"
         d="m 411.737,117.449 -10.168,0 0,-1.393 10.168,0 0,1.393 z m 0,2.785 -10.168,0 0,-1.395 10.168,0 0,1.395 z m 0,2.787 -10.168,0 0,-1.393 10.168,0 0,1.393 z m 0,2.79 -10.168,0 0,-1.393 10.168,0 0,1.393 z m -10.168,-12.541 10.168,0 0,1.395 -10.168,0 0,-1.395 z m -6.254,-6.502 0,28.883 c 0,0 -2.445,-1.348 -5.746,-1.348 -0.809,0 -12.206,0 -12.206,0 l 0,-29.59 c 0,0 11.397,0 12.206,0 6.387,0 5.746,2.055 5.746,2.055 z m 22.579,-4.192 -13.328,0 c -4.357,0 -6.488,1.025 -7.523,2.09 -1.035,-1.064 -3.166,-2.09 -7.525,-2.09 l -13.329,0 c -0.636,0 -1.147,0.521 -1.147,1.158 l 0,31.543 c 0,0.637 0.512,1.154 1.147,1.154 l 13.325,0 c 2.812,0 5.623,1.205 5.65,1.35 l 0.016,0 c 0.572,0.428 0.576,0.422 1.146,0.422 l 1.525,0 c 0.58,0 0.607,0.01 1.127,-0.535 0.092,-0.158 2.996,-1.236 5.582,-1.236 l 13.326,0 c 0.637,0 1.148,-0.518 1.148,-1.152 l 0,-31.545 c 0.008,-0.637 -0.506,-1.159 -1.14,-1.159 z" />
      <rect
         id="rect16706"
         height="1.393"
         width="10.169"
         y="118.84"
         x="381.13101" />
      <rect
         id="rect16708"
         height="1.395"
         width="5.7210002"
         y="113.27"
         x="385.57901" />
      <rect
         id="rect16710"
         height="1.393"
         width="10.169"
         y="116.057"
         x="381.13101" />
      <rect
         id="rect16712"
         height="1.393"
         width="10.169"
         y="121.629"
         x="381.13101" />
      <rect
         id="rect16714"
         height="1.393"
         width="10.169"
         y="124.418"
         x="381.13101" />
    </g>
    <g
       id="g16716"
       style="opacity:0.2"
       transform="translate(1214.588,31.127784)">
      <path
         id="path16718"
         d="m 458.527,117.449 -10.167,0 0,-1.393 10.167,0 0,1.393 z m 0,2.785 -10.167,0 0,-1.395 10.167,0 0,1.395 z m 0,2.787 -10.167,0 0,-1.393 10.167,0 0,1.393 z m 0,2.79 -10.167,0 0,-1.393 10.167,0 0,1.393 z m -10.167,-12.541 10.167,0 0,1.395 -10.167,0 0,-1.395 z m -6.254,-6.502 0,28.883 c 0,0 -2.445,-1.348 -5.746,-1.348 -0.809,0 -12.205,0 -12.205,0 l 0,-29.59 c 0,0 11.396,0 12.205,0 6.387,0 5.746,2.055 5.746,2.055 z m 22.578,-4.192 -13.327,0 c -4.357,0 -6.488,1.025 -7.523,2.09 -1.035,-1.064 -3.166,-2.09 -7.525,-2.09 l -13.328,0 c -0.635,0 -1.146,0.521 -1.146,1.158 l 0,31.543 c 0,0.637 0.512,1.154 1.146,1.154 l 13.324,0 c 2.812,0 5.623,1.205 5.65,1.35 l 0.016,0 c 0.572,0.428 0.576,0.422 1.146,0.422 l 1.525,0 c 0.58,0 0.607,0.01 1.127,-0.535 0.092,-0.158 2.996,-1.236 5.582,-1.236 l 13.325,0 c 0.637,0 1.148,-0.518 1.148,-1.152 l 0,-31.545 c 0.008,-0.637 -0.506,-1.159 -1.14,-1.159 z" />
      <rect
         id="rect16720"
         height="1.393"
         width="10.168"
         y="118.84"
         x="427.923" />
      <rect
         id="rect16722"
         height="1.393"
         width="10.168"
         y="116.057"
         x="427.923" />
      <rect
         id="rect16724"
         height="1.393"
         width="10.168"
         y="121.629"
         x="427.923" />
      <rect
         id="rect16726"
         height="1.393"
         width="10.168"
         y="124.418"
         x="427.923" />
    </g>
    <path
       id="path16728"
       d="m 1333.543,168.30378 c 0,0 0.01,-1.348 0.01,-1.543 l 19.208,0 c -0.277,0.59 -0.496,1.211 -0.603,1.844 -0.15,0.867 -0.074,1.684 0.119,2.449 l -16.065,-0.051 c -1.47,0 -2.665,-1.207 -2.665,-2.699 m 21.226,-34.979 c 0,2.789 -0.025,27.387 -0.031,30.184 l -18.341,0 11.484,-9.73 -0.022,-20.467 c 1.041,0.005 5.942,0.013 6.91,0.013 m 1.786,37.742 -0.755,0 c -0.439,-0.5 -0.603,-1.129 -0.471,-1.904 0.22,-1.279 1.13,-2.338 1.564,-2.492 l -0.01,-0.014 c 0.616,-0.223 1.073,-0.82 1.073,-1.523 l 0.031,-33.43 c 0,-0.896 -0.724,-1.625 -1.603,-1.631 0,0 -6.691,-0.006 -8.526,-0.018 0,-1.574 0.01,-3.736 0.01,-3.736 0,-0.66 -0.382,-1.252 -0.987,-1.506 -0.603,-0.252 -1.287,-0.113 -1.752,0.342 l -11.194,11.236 c -1.968,1.975 -3.52,5.709 -3.524,8.518 l -0.088,23.387 c -0.01,3.271 2.619,5.951 5.868,5.965 l 20.353,0.061 c 0.884,0 1.606,-0.73 1.606,-1.619 l 0,-0.006 c 0,-0.899 -0.707,-1.626 -1.599,-1.63" />
    <g
       id="g16730"
       transform="translate(1214.588,31.127784)">
      <line
         id="line16732"
         y2="118.377"
         x2="155.519"
         y1="118.377"
         x1="168.784"
         stroke-miterlimit="10"
         style="fill:none;stroke:#231f20;stroke-width:2;stroke-linecap:round;stroke-miterlimit:10" />
      <polyline
         id="polyline16734"
         points="165.852,115.223    169.028,118.4 165.807,121.621  "
         stroke-miterlimit="10"
         style="fill:none;stroke:#231f20;stroke-width:2;stroke-linecap:round;stroke-miterlimit:10" />
    </g>
    <g
       id="g16736"
       transform="translate(1214.588,31.127784)">
      <line
         id="line16738"
         y2="118.377"
         x2="88.811996"
         y1="118.377"
         x1="102.078"
         stroke-miterlimit="10"
         style="fill:none;stroke:#231f20;stroke-width:2;stroke-linecap:round;stroke-miterlimit:10" />
      <polyline
         id="polyline16740"
         points="99.146,115.223    102.322,118.4 99.101,121.621  "
         stroke-miterlimit="10"
         style="fill:none;stroke:#231f20;stroke-width:2;stroke-linecap:round;stroke-miterlimit:10" />
    </g>
    <g
       id="g16742"
       transform="translate(1214.588,31.127784)">
      <path
         id="path16744"
         d="m 44.897,111.941 c -1.645,0 -2.583,1.115 -2.583,3.17 0,3.17 3.287,6.279 6.163,8.861 2.877,-2.582 6.163,-5.691 6.163,-8.861 0,-2.758 -1.645,-3.17 -2.583,-3.17 -1.115,0 -2.465,1.525 -2.877,2.055 -0.352,0.471 -1.115,0.471 -1.409,0 -0.41,-0.529 -1.757,-2.055 -2.874,-2.055 z m 3.581,14.086 c -0.235,0 -0.41,-0.059 -0.587,-0.234 -3.286,-2.877 -7.337,-6.516 -7.337,-10.682 0,-3.637 2.232,-4.932 4.344,-4.932 1.468,0 2.818,1.117 3.58,1.939 0.765,-0.822 2.112,-1.939 3.58,-1.939 2.112,0 4.344,1.291 4.344,4.932 0,4.225 -4.051,7.809 -7.337,10.682 -0.178,0.176 -0.352,0.234 -0.587,0.234 z" />
      <path
         id="path16746"
         d="m 76.944,137.002 -45.194,0 c -0.471,0 -0.88,-0.41 -0.88,-0.881 0,-0.471 0.409,-0.881 0.88,-0.881 l 44.313,0 0,-24.65 c 0,-0.471 0.409,-0.879 0.881,-0.879 0.47,0 0.879,0.408 0.879,0.879 l 0,25.531 c 0,0.529 -0.409,0.881 -0.879,0.881 z" />
      <path
         id="path16748"
         d="m 74.009,134.068 -45.194,0 c -0.471,0 -0.881,-0.41 -0.881,-0.881 0,-0.471 0.41,-0.881 0.881,-0.881 l 44.313,0 0,-24.65 c 0,-0.471 0.409,-0.881 0.88,-0.881 0.471,0 0.88,0.41 0.88,0.881 l 0,25.531 c 10e-4,0.53 -0.409,0.881 -0.879,0.881 z" />
      <path
         id="path16750"
         d="m 26.762,129.371 43.433,0 0,-23.709 -43.433,0 0,23.709 z m 44.312,1.762 -45.193,0 c -0.471,0 -0.881,-0.41 -0.881,-0.881 l 0,-25.531 c 0,-0.471 0.41,-0.881 0.881,-0.881 l 45.193,0 c 0.472,0 0.881,0.41 0.881,0.881 l 0,25.531 c 0,0.529 -0.409,0.881 -0.881,0.881 z" />
      <path
         id="path16752"
         d="m 36.445,117.518 c 0,-3.58 1.525,-6.75 3.992,-8.92 l -9.861,0 c -0.471,0 -0.88,0.408 -0.88,0.881 l 0,16.139 c 0,0.471 0.409,0.881 0.88,0.881 l 9.861,0 c -2.466,-2.231 -3.992,-5.403 -3.992,-8.981 z" />
      <path
         id="path16754"
         d="m 66.379,108.598 -9.861,0 c 2.464,2.23 3.992,5.398 3.992,8.92 0,3.522 -1.526,6.75 -3.992,8.92 l 9.861,0 c 0.471,0 0.88,-0.41 0.88,-0.881 l 0,-16.141 c 0,-0.467 -0.409,-0.818 -0.88,-0.818 z" />
    </g>
  </g>
</svg>
