<?xml version="1.0" encoding="UTF-8" standalone="no"?>
<svg
   xmlns:dc="http://purl.org/dc/elements/1.1/"
   xmlns:cc="http://creativecommons.org/ns#"
   xmlns:rdf="http://www.w3.org/1999/02/22-rdf-syntax-ns#"
   xmlns:svg="http://www.w3.org/2000/svg"
   xmlns="http://www.w3.org/2000/svg"
   width="101.35532mm"
   height="45.418598mm"
   viewBox="0 0 359.13301 160.93204"
   id="svg20460"
   version="1.1">
  <defs
     id="defs20462" />
  <metadata
     id="metadata20465">
    <rdf:RDF>
      <cc:Work
         rdf:about="">
        <dc:format>image/svg+xml</dc:format>
        <dc:type
           rdf:resource="http://purl.org/dc/dcmitype/StillImage" />
        <dc:title></dc:title>
      </cc:Work>
    </rdf:RDF>
  </metadata>
  <g
     id="g16864"
     transform="translate(-34.868,-898.085)">
    <path
       id="path16866"
       d="m 394.001,965.265 -239.309,0 0,-6.291 239.309,0 0,6.291 z m 0,12.588 -239.309,0 0,-6.301 239.309,0 0,6.301 z m 0,12.582 -239.309,0 0,-6.287 239.309,0 0,6.287 z m 0,12.597 -239.309,0 0,-6.293 239.309,0 0,6.293 z m -239.309,-56.646 239.309,0 0,6.295 -239.309,0 0,-6.295 z m -28.246,-29.367 0,130.473 c 0,0 -11.047,-6.098 -25.953,-6.098 -3.656,0 -55.137,0 -55.137,0 l 0,-133.66 c 0,0 51.48,0 55.137,0 28.842,-0.001 25.953,9.285 25.953,9.285 z m 101.989,-18.934 -60.203,0 c -19.686,0 -29.312,4.635 -33.992,9.438 -4.674,-4.803 -14.299,-9.438 -33.988,-9.438 l -60.204,0 c -2.869,0 -5.18,2.35 -5.18,5.225 l 0,142.498 c 0,2.875 2.311,5.213 5.18,5.213 l 60.191,0 c 12.703,0 25.391,5.438 25.518,6.098 l 0.072,0 c 2.582,1.926 2.602,1.898 5.174,1.898 l 6.893,0 c 2.623,0 2.75,0.041 5.084,-2.418 0.42,-0.713 13.545,-5.578 25.223,-5.578 l 60.195,0 c 2.877,0 5.188,-2.35 5.188,-5.213 l 0,-142.498 c 0.038,-2.875 -2.282,-5.225 -5.151,-5.225 z" />
    <path
       d="m 62.375999,971.552 45.932001,0 0,6.291 -45.932001,0 z"
       id="rect16868" />
    <path
       d="m 82.468002,946.38599 25.839998,0 0,6.295 -25.839998,0 z"
       id="rect16870" />
    <path
       d="m 62.375999,958.974 45.932001,0 0,6.291 -45.932001,0 z"
       id="rect16872" />
    <path
       d="m 62.375999,984.14697 45.932001,0 0,6.287 -45.932001,0 z"
       id="rect16874" />
    <path
       d="m 62.375999,996.73901 45.932001,0 0,6.29299 -45.932001,0 z"
       id="rect16876" />
  </g>
  <path
     style="fill:#ffff00"
     d="m 120.065,16.31398 239.06799,0 0,26.5 -239.06799,0 z"
     id="rect16878" />
  <path
     style="fill:#ffff00"
     d="m 120.065,110.68004 239.06799,0 0,26.5 -239.06799,0 z"
     id="rect16880" />
</svg>
