<?xml version="1.0" encoding="UTF-8" standalone="no"?>
<svg
   xmlns:dc="http://purl.org/dc/elements/1.1/"
   xmlns:cc="http://creativecommons.org/ns#"
   xmlns:rdf="http://www.w3.org/1999/02/22-rdf-syntax-ns#"
   xmlns:svg="http://www.w3.org/2000/svg"
   xmlns="http://www.w3.org/2000/svg"
   xmlns:sodipodi="http://sodipodi.sourceforge.net/DTD/sodipodi-0.dtd"
   xmlns:inkscape="http://www.inkscape.org/namespaces/inkscape"
   version="1.1"
   id="svg20460"
   viewBox="0 0 359.13301 160.93204"
   height="45.418598mm"
   width="101.35532mm"
   inkscape:version="0.91 r13725"
   sodipodi:docname="oer-3.svg">
  <sodipodi:namedview
     pagecolor="#ffffff"
     bordercolor="#666666"
     borderopacity="1"
     objecttolerance="10"
     gridtolerance="10"
     guidetolerance="10"
     inkscape:pageopacity="0"
     inkscape:pageshadow="2"
     inkscape:window-width="2560"
     inkscape:window-height="1536"
     id="namedview71721"
     showgrid="false"
     inkscape:zoom="0.97456921"
     inkscape:cx="179.56652"
     inkscape:cy="80.46602"
     inkscape:window-x="0"
     inkscape:window-y="27"
     inkscape:window-maximized="1"
     inkscape:current-layer="svg20460" />
  <defs
     id="defs20462" />
  <metadata
     id="metadata20465">
    <rdf:RDF>
      <cc:Work
         rdf:about="">
        <dc:format>image/svg+xml</dc:format>
        <dc:type
           rdf:resource="http://purl.org/dc/dcmitype/StillImage" />
        <dc:title />
      </cc:Work>
    </rdf:RDF>
  </metadata>
  <g
     transform="translate(569.05349,-406.1819)"
     id="layer1">
    <g
       id="g16864"
       transform="translate(-603.92149,-491.9031)">
      <path
         id="path16866"
         d="m 394.001,965.265 -239.309,0 0,-6.291 239.309,0 0,6.291 z m 0,12.588 -239.309,0 0,-6.301 239.309,0 0,6.301 z m 0,12.582 -239.309,0 0,-6.287 239.309,0 0,6.287 z m 0,12.597 -239.309,0 0,-6.293 239.309,0 0,6.293 z m -239.309,-56.646 239.309,0 0,6.295 -239.309,0 0,-6.295 z m -28.246,-29.367 0,130.473 c 0,0 -11.047,-6.098 -25.953,-6.098 -3.656,0 -55.137,0 -55.137,0 l 0,-133.66 c 0,0 51.48,0 55.137,0 28.842,-0.001 25.953,9.285 25.953,9.285 z m 101.989,-18.934 -60.203,0 c -19.686,0 -29.312,4.635 -33.992,9.438 -4.674,-4.803 -14.299,-9.438 -33.988,-9.438 l -60.204,0 c -2.869,0 -5.18,2.35 -5.18,5.225 l 0,142.498 c 0,2.875 2.311,5.213 5.18,5.213 l 60.191,0 c 12.703,0 25.391,5.438 25.518,6.098 l 0.072,0 c 2.582,1.926 2.602,1.898 5.174,1.898 l 6.893,0 c 2.623,0 2.75,0.041 5.084,-2.418 0.42,-0.713 13.545,-5.578 25.223,-5.578 l 60.195,0 c 2.877,0 5.188,-2.35 5.188,-5.213 l 0,-142.498 c 0.038,-2.875 -2.282,-5.225 -5.151,-5.225 z" />
      <path
         style=""
         d="m 62.375999,971.552 45.932001,0 0,6.291 -45.932001,0 z"
         id="rect16868" />
      <path
         style=""
         d="m 82.468002,946.38599 25.839998,0 0,6.295 -25.839998,0 z"
         id="rect16870" />
      <path
         style=""
         d="m 62.375999,958.974 45.932001,0 0,6.291 -45.932001,0 z"
         id="rect16872" />
      <path
         style=""
         d="m 62.375999,984.14697 45.932001,0 0,6.287 -45.932001,0 z"
         id="rect16874" />
      <path
         style=""
         d="m 62.375999,996.73901 45.932001,0 0,6.29299 -45.932001,0 z"
         id="rect16876" />
    </g>
    <path
       style="fill:#ffff00"
       d="m -448.98849,422.49588 239.06799,0 0,26.5 -239.06799,0 z"
       id="rect16878" />
    <path
       style="fill:#ffff00"
       d="m -448.98849,516.86194 239.06799,0 0,26.5 -239.06799,0 z"
       id="rect16880" />
    <g
       style="font-size:24px;font-family:Lato;fill:#000100"
       id="text16884">
      <path
         d="m -363.53679,444.54209 q 1.104,-0.036 1.968,-0.42 0.876,-0.384 1.476,-1.008 0.6,-0.636 0.912,-1.452 0.312,-0.828 0.312,-1.752 0,-0.984 -0.372,-1.632 -0.372,-0.66 -0.984,-1.092 -0.612,-0.444 -1.404,-0.732 -0.78,-0.288 -1.596,-0.552 l -0.312,8.64 z m 0.336,-16.68 q -1.008,0.024 -1.788,0.348 -0.768,0.312 -1.308,0.84 -0.528,0.528 -0.804,1.224 -0.264,0.684 -0.264,1.428 0,0.9 0.324,1.524 0.324,0.624 0.864,1.056 0.54,0.432 1.236,0.72 0.708,0.288 1.464,0.54 l 0.276,-7.68 z m -0.024,7.764 q 0.852,0.276 1.68,0.576 0.828,0.3 1.476,0.768 0.66,0.456 1.056,1.152 0.408,0.684 0.408,1.74 0,1.008 -0.336,1.884 -0.324,0.876 -0.96,1.548 -0.636,0.66 -1.56,1.056 -0.912,0.396 -2.076,0.432 l -0.108,2.904 q 0,0.192 -0.144,0.192 l -0.12,0 0.108,-3.096 q -0.84,0 -1.512,-0.156 -0.66,-0.156 -1.212,-0.432 -0.552,-0.276 -1.02,-0.684 -0.468,-0.408 -0.9,-0.912 l 0.048,-0.048 q 0.036,-0.036 0.06,-0.048 0.024,-0.024 0.084,-0.024 0.072,0 0.204,0.156 0.144,0.144 0.372,0.372 0.24,0.228 0.576,0.504 0.348,0.264 0.816,0.492 0.48,0.228 1.092,0.384 0.612,0.156 1.404,0.156 l 0.3,-8.724 q -0.792,-0.252 -1.536,-0.552 -0.744,-0.3 -1.32,-0.756 -0.576,-0.456 -0.936,-1.128 -0.348,-0.672 -0.348,-1.68 0,-0.792 0.288,-1.524 0.3,-0.732 0.864,-1.284 0.564,-0.564 1.38,-0.9 0.828,-0.348 1.896,-0.372 l 0.084,-2.256 q 0,-0.192 0.144,-0.192 l 0.12,0 -0.084,2.448 q 1.164,0.024 2.064,0.42 0.912,0.396 1.716,1.236 l -0.048,0.072 q -0.036,0.072 -0.12,0.072 -0.12,0 -0.336,-0.228 -0.216,-0.24 -0.636,-0.528 -0.408,-0.288 -1.056,-0.528 -0.636,-0.252 -1.596,-0.276 l -0.276,7.764 z"
         style="font-size:24px;font-family:Lato;fill:#000100"
         id="path72314" />
      <path
         d="m -344.77892,444.35009 0,0.24 -8.352,0 0,-0.24 4.08,0 0,-15.552 q 0,-0.168 0.012,-0.336 0.012,-0.18 0.036,-0.348 l -4.344,3.924 q -0.12,0.12 -0.24,0 l -0.072,-0.096 4.728,-4.248 0.168,0 0,16.656 3.984,0 z"
         style="font-size:24px;font-family:Lato;fill:#000100"
         id="path72316" />
      <path
         d="m -329.94504,427.79009 0,0.144 q 0,0.072 -0.048,0.168 l -8.352,16.344 q -0.072,0.144 -0.264,0.144 l -0.144,0 8.376,-16.368 q 0.024,-0.048 0.048,-0.084 0.024,-0.048 0.06,-0.084 l -10.5,0 q -0.144,0 -0.144,-0.144 l 0,-0.12 10.968,0 z"
         style="font-size:24px;font-family:Lato;fill:#000100"
         id="path72318" />
      <path
         d="m -319.41917,439.16609 0,-10.44 q 0,-0.12 0,-0.228 0.012,-0.108 0.024,-0.228 l -8.268,10.896 8.244,0 z m 3.816,0 0,0.096 q 0,0.144 -0.192,0.144 l -3.36,0 0,5.184 -0.264,0 0,-5.184 -8.352,0 q -0.132,0 -0.168,-0.024 -0.024,-0.036 -0.048,-0.096 l -0.024,-0.096 8.688,-11.424 0.168,0 0,11.4 3.552,0 z"
         style="font-size:24px;font-family:Lato;fill:#000100"
         id="path72320" />
      <path
         d="m -289.31754,427.79009 0,16.8 -0.24,0 0,-16.056 q 0,-0.06 0,-0.108 0,-0.06 0.012,-0.12 l -7.356,12.804 q -0.084,0.12 -0.168,0.12 l -0.072,0 q -0.084,0 -0.168,-0.12 l -7.596,-12.816 q 0.012,0.06 0.012,0.12 0,0.06 0,0.12 l 0,16.056 -0.24,0 0,-16.8 0.096,0 q 0.108,0 0.168,0.096 l 7.632,12.852 q 0.048,0.072 0.072,0.132 0.036,0.06 0.06,0.12 0.024,-0.06 0.048,-0.12 0.036,-0.06 0.084,-0.132 l 7.392,-12.852 q 0.06,-0.096 0.168,-0.096 l 0.096,0 z"
         style="font-size:24px;font-family:Lato;fill:#000100"
         id="path72322" />
      <path
         d="m -283.47054,444.59009 -0.288,0 0,-16.8 0.288,0 0,16.8 z"
         style="font-size:24px;font-family:Lato;fill:#000100"
         id="path72324" />
      <path
         d="m -269.04317,444.32609 0,0.264 -8.856,0 0,-16.8 0.288,0 0,16.536 8.568,0 z"
         style="font-size:24px;font-family:Lato;fill:#000100"
         id="path72326" />
      <path
         d="m -257.04317,444.32609 0,0.264 -8.856,0 0,-16.8 0.288,0 0,16.536 8.568,0 z"
         style="font-size:24px;font-family:Lato;fill:#000100"
         id="path72328" />
      <path
         d="m -253.61117,444.59009 -0.288,0 0,-16.8 0.288,0 0,16.8 z"
         style="font-size:24px;font-family:Lato;fill:#000100"
         id="path72330" />
      <path
         d="m -233.65179,436.19009 q 0,1.992 -0.576,3.576 -0.564,1.584 -1.596,2.7 -1.02,1.104 -2.448,1.704 -1.428,0.588 -3.156,0.588 -1.716,0 -3.144,-0.588 -1.416,-0.6 -2.448,-1.704 -1.02,-1.116 -1.596,-2.7 -0.564,-1.584 -0.564,-3.576 0,-1.98 0.564,-3.564 0.576,-1.596 1.596,-2.712 1.032,-1.116 2.448,-1.716 1.428,-0.6 3.144,-0.6 1.728,0 3.156,0.6 1.428,0.588 2.448,1.704 1.032,1.116 1.596,2.712 0.576,1.584 0.576,3.576 z m -0.312,0 q 0,-1.956 -0.552,-3.504 -0.54,-1.548 -1.524,-2.628 -0.984,-1.08 -2.364,-1.644 -1.368,-0.576 -3.024,-0.576 -1.632,0 -3,0.576 -1.368,0.564 -2.364,1.644 -0.984,1.08 -1.548,2.628 -0.552,1.548 -0.552,3.504 0,1.956 0.552,3.504 0.564,1.536 1.548,2.616 0.996,1.068 2.364,1.644 1.368,0.564 3,0.564 1.656,0 3.024,-0.564 1.38,-0.576 2.364,-1.644 0.984,-1.08 1.524,-2.616 0.552,-1.548 0.552,-3.504 z"
         style="font-size:24px;font-family:Lato;fill:#000100"
         id="path72332" />
      <path
         d="m -216.85892,427.79009 0,16.8 -0.072,0 q -0.072,0 -0.132,-0.084 l -11.952,-16.272 q 0.012,0.084 0.012,0.156 0,0.072 0,0.144 l 0,16.056 -0.24,0 0,-16.8 0.096,0 q 0.108,0 0.168,0.096 l 11.892,16.188 q -0.012,-0.06 -0.012,-0.12 0,-0.072 0,-0.132 l 0,-16.032 0.24,0 z"
         style="font-size:24px;font-family:Lato;fill:#000100"
         id="path72334" />
    </g>
    <g
       style="font-size:24px;font-family:Lato;fill:#000100"
       id="text16888">
      <path
         d="m -297.3069,521.18202 -6.312,0 0,16.536 -0.288,0 0,-16.536 -6.36,0 0,-0.264 12.96,0 0,0.264 z"
         style="font-size:24px;font-family:Lato;fill:#000100"
         id="path72337" />
      <path
         d="m -280.97415,529.31802 q 0,1.992 -0.576,3.576 -0.564,1.584 -1.596,2.7 -1.02,1.104 -2.448,1.704 -1.428,0.588 -3.156,0.588 -1.716,0 -3.144,-0.588 -1.416,-0.6 -2.448,-1.704 -1.02,-1.116 -1.596,-2.7 -0.564,-1.584 -0.564,-3.576 0,-1.98 0.564,-3.564 0.576,-1.596 1.596,-2.712 1.032,-1.116 2.448,-1.716 1.428,-0.6 3.144,-0.6 1.728,0 3.156,0.6 1.428,0.588 2.448,1.704 1.032,1.116 1.596,2.712 0.576,1.584 0.576,3.576 z m -0.312,0 q 0,-1.956 -0.552,-3.504 -0.54,-1.548 -1.524,-2.628 -0.984,-1.08 -2.364,-1.644 -1.368,-0.576 -3.024,-0.576 -1.632,0 -3,0.576 -1.368,0.564 -2.364,1.644 -0.984,1.08 -1.548,2.628 -0.552,1.548 -0.552,3.504 0,1.956 0.552,3.504 0.564,1.536 1.548,2.616 0.996,1.068 2.364,1.644 1.368,0.564 3,0.564 1.656,0 3.024,-0.564 1.38,-0.576 2.364,-1.644 0.984,-1.08 1.524,-2.616 0.552,-1.548 0.552,-3.504 z"
         style="font-size:24px;font-family:Lato;fill:#000100"
         id="path72339" />
      <path
         d="m -255.94552,529.31802 q 0,1.992 -0.576,3.552 -0.564,1.56 -1.596,2.64 -1.02,1.08 -2.448,1.644 -1.428,0.564 -3.156,0.564 l -6,0 0,-16.8 6,0 q 1.728,0 3.156,0.564 1.428,0.564 2.448,1.644 1.032,1.08 1.596,2.64 0.576,1.56 0.576,3.552 z m -0.312,0 q 0,-1.956 -0.552,-3.468 -0.54,-1.524 -1.524,-2.568 -0.984,-1.044 -2.364,-1.584 -1.368,-0.54 -3.024,-0.54 l -5.712,0 0,16.32 5.712,0 q 1.656,0 3.024,-0.54 1.38,-0.54 2.364,-1.584 0.984,-1.044 1.524,-2.556 0.552,-1.524 0.552,-3.48 z"
         style="font-size:24px;font-family:Lato;fill:#000100"
         id="path72341" />
      <path
         d="m -242.62327,531.74202 -4.14,-9.936 q -0.06,-0.132 -0.108,-0.252 -0.036,-0.12 -0.084,-0.252 -0.048,0.132 -0.096,0.252 -0.036,0.12 -0.096,0.252 l -4.14,9.936 8.664,0 z m 2.796,5.976 -0.216,0 q -0.108,0 -0.144,-0.12 l -2.34,-5.616 -8.856,0 -2.34,5.616 q -0.036,0.12 -0.168,0.12 l -0.192,0 7.008,-16.8 0.24,0 7.008,16.8 z"
         style="font-size:24px;font-family:Lato;fill:#000100"
         id="path72343" />
      <path
         d="m -227.69752,521.18202 -6.312,0 0,16.536 -0.288,0 0,-16.536 -6.36,0 0,-0.264 12.96,0 0,0.264 z"
         style="font-size:24px;font-family:Lato;fill:#000100"
         id="path72345" />
      <path
         d="m -214.7409,537.45402 -0.024,0.264 -9.816,0 0,-16.8 9.816,0 0,0.264 -9.528,0 0,7.872 8.088,0 0,0.264 -8.088,0 0,8.136 9.552,0 z"
         style="font-size:24px;font-family:Lato;fill:#000100"
         id="path72347" />
    </g>
  </g>
</svg>
