<?xml version="1.0" encoding="UTF-8" standalone="no"?>
<svg
   xmlns:dc="http://purl.org/dc/elements/1.1/"
   xmlns:cc="http://creativecommons.org/ns#"
   xmlns:rdf="http://www.w3.org/1999/02/22-rdf-syntax-ns#"
   xmlns:svg="http://www.w3.org/2000/svg"
   xmlns="http://www.w3.org/2000/svg"
   xmlns:sodipodi="http://sodipodi.sourceforge.net/DTD/sodipodi-0.dtd"
   xmlns:inkscape="http://www.inkscape.org/namespaces/inkscape"
   version="1.1"
   id="svg7234"
   viewBox="0 0 68.956997 78.475998"
   height="22.147671mm"
   width="19.461197mm"
   inkscape:version="0.91 r13725"
   sodipodi:docname="pdmoon.svg">
  <sodipodi:namedview
     pagecolor="#ffffff"
     bordercolor="#666666"
     borderopacity="1"
     objecttolerance="10"
     gridtolerance="10"
     guidetolerance="10"
     inkscape:pageopacity="0"
     inkscape:pageshadow="2"
     inkscape:window-width="1583"
     inkscape:window-height="1162"
     id="namedview9709"
     showgrid="false"
     inkscape:zoom="3.0072889"
     inkscape:cx="34.478498"
     inkscape:cy="39.237999"
     inkscape:window-x="0"
     inkscape:window-y="27"
     inkscape:window-maximized="0"
     inkscape:current-layer="svg7234" />
  <defs
     id="defs7236" />
  <metadata
     id="metadata7239">
    <rdf:RDF>
      <cc:Work
         rdf:about="">
        <dc:format>image/svg+xml</dc:format>
        <dc:type
           rdf:resource="http://purl.org/dc/dcmitype/StillImage" />
        <dc:title />
      </cc:Work>
    </rdf:RDF>
  </metadata>
  <g
     transform="matrix(0.74442262,0,0,0.74442262,-361.82849,-208.49606)"
     id="layer1">
    <g
       id="g6061"
       transform="translate(174.02293,-93.36951)">
      <g
         id="g6063">
        <path
           id="path6065"
           d="m 350.354,449.146 4.712,-4.713 c 0.13,-0.129 0.13,-0.339 0,-0.469 -0.13,-0.132 -0.34,-0.132 -0.47,0 l -5,5.001 c -0.063,0.062 -0.094,0.146 -0.096,0.226 -0.112,0.004 -0.224,0.008 -0.337,0.008 -0.281,0 -0.559,-0.01 -0.834,-0.024 l 2.128,-2.129 c 0.275,-0.186 0.507,-0.418 0.682,-0.682 l 4.927,-4.928 c 0.131,-0.131 0.131,-0.341 0,-0.472 -0.13,-0.129 -0.339,-0.129 -0.47,0 l -4.106,4.105 c -0.019,-0.293 -0.099,-0.573 -0.229,-0.828 l 5.141,-5.14 c 0.13,-0.13 0.13,-0.341 0,-0.471 -0.131,-0.13 -0.34,-0.13 -0.47,0 l -5.066,5.064 c -0.172,-0.179 -0.374,-0.334 -0.599,-0.459 l 6.467,-6.469 c 0.131,-0.129 0.131,-0.339 0,-0.471 -0.13,-0.129 -0.339,-0.129 -0.47,0 l -6.669,6.668 c -0.243,-0.064 -0.498,-0.099 -0.764,-0.099 -0.069,0 -0.137,0.005 -0.205,0.008 l 7.042,-7.04 c 2.153,-0.249 3.831,-2.083 3.831,-4.303 0,-2.233 -1.7,-4.079 -3.874,-4.31 -0.062,-0.024 -0.13,-0.024 -0.196,-0.013 -0.087,-0.002 -0.176,-0.011 -0.265,-0.011 -0.336,0 -0.663,0.041 -0.978,0.113 l 0.88,-0.88 c 0.13,-0.129 0.13,-0.34 0,-0.47 -0.13,-0.131 -0.34,-0.131 -0.47,0 l -11.758,11.758 c -0.191,-0.171 -0.414,-0.309 -0.66,-0.397 l 12.221,-12.223 c 0.131,-0.13 0.131,-0.339 0,-0.469 -0.13,-0.13 -0.339,-0.13 -0.47,0 l -4.577,4.572 c 0.092,-0.318 0.145,-0.655 0.145,-1.006 0,-0.062 -0.007,-0.123 -0.009,-0.186 l 4.245,-4.245 c 0.13,-0.13 0.13,-0.34 0,-0.471 -0.129,-0.13 -0.34,-0.13 -0.47,0 l -3.907,3.904 c -0.074,-0.263 -0.175,-0.517 -0.303,-0.752 l 4.014,-4.014 c 0.131,-0.131 0.131,-0.34 0,-0.471 -0.13,-0.132 -0.34,-0.132 -0.47,0 l -3.924,3.921 c -0.159,-0.193 -0.335,-0.371 -0.53,-0.528 l 3.924,-3.924 c 0.13,-0.129 0.13,-0.34 0,-0.47 -0.13,-0.13 -0.34,-0.13 -0.47,0 l -4.016,4.015 c -0.236,-0.129 -0.49,-0.229 -0.753,-0.305 l 4.039,-4.039 c 7.103,0.845 12.633,6.901 12.633,14.231 -10e-4,7.509 -5.797,13.68 -13.146,14.287 z m -11.581,-4.419 3.955,-3.954 c 0.125,-0.102 0.238,-0.212 0.337,-0.338 l 3.468,-3.468 c 0.046,0.281 0.135,0.549 0.263,0.796 l -7.493,7.494 c -0.18,-0.172 -0.357,-0.351 -0.53,-0.53 z m 3.459,-22.404 -5.611,5.612 c 1.307,-2.354 3.257,-4.304 5.611,-5.612 z m 0.646,5.357 c 0.217,-1.238 1.195,-2.215 2.433,-2.433 l -2.433,2.433 z m 0.229,1.771 c -0.118,-0.256 -0.199,-0.528 -0.242,-0.816 l 3.401,-3.4 c 0.287,0.04 0.561,0.123 0.816,0.24 l -3.975,3.976 z m 2.287,1.714 c -0.287,-0.042 -0.561,-0.127 -0.816,-0.241 l 3.974,-3.976 c 0.118,0.257 0.2,0.528 0.242,0.816 l -3.4,3.401 z m 0.955,-0.014 2.433,-2.434 c -0.218,1.24 -1.195,2.217 -2.433,2.434 z m -11.128,7.037 c 0.065,-0.013 0.127,-0.035 0.177,-0.087 l 7.589,-7.589 c 0.159,0.194 0.335,0.37 0.53,0.529 l -8.051,8.052 c -0.092,-0.298 -0.172,-0.599 -0.245,-0.905 z m 7.082,-8.993 c 0.075,0.265 0.175,0.52 0.304,0.754 l -7.534,7.535 c -0.059,-0.319 -0.109,-0.644 -0.146,-0.971 0.05,-0.014 0.099,-0.038 0.137,-0.078 l 7.239,-7.24 z m -7.448,6.508 c -0.016,-0.277 -0.026,-0.555 -0.026,-0.837 0,-0.068 0.003,-0.134 0.005,-0.199 l 7.472,-7.474 c -0.092,0.32 -0.144,0.657 -0.144,1.005 0,0.062 0.006,0.124 0.008,0.188 l -7.315,7.317 z m 0.18,-3.248 c 0.009,-0.008 0.021,-0.011 0.029,-0.021 l 11.668,-11.666 c 0.009,-0.009 0.013,-0.019 0.02,-0.03 0.401,-0.068 0.809,-0.121 1.22,-0.153 l -13.09,13.091 c 0.034,-0.414 0.086,-0.82 0.153,-1.221 z m 0.759,-2.749 8.209,-8.208 c 0.509,-0.197 1.029,-0.37 1.564,-0.508 l -10.282,10.28 c 0.139,-0.534 0.312,-1.055 0.509,-1.564 z m -0.093,10.083 c 0.01,-0.006 0.022,-0.012 0.031,-0.02 l 8.348,-8.35 c 0.236,0.129 0.49,0.229 0.754,0.304 l -8.825,8.826 c -0.111,-0.248 -0.215,-0.5 -0.308,-0.76 z m 5.649,-2.582 c -0.986,0.072 -1.776,0.861 -1.847,1.848 l -2.832,2.83 c -0.132,-0.235 -0.26,-0.473 -0.379,-0.715 0.039,-0.015 0.073,-0.037 0.104,-0.069 l 9.245,-9.244 c 0.065,0.002 0.125,0.01 0.188,0.01 0.349,0 0.686,-0.053 1.005,-0.144 l -5.484,5.484 z m -0.859,2.859 c -0.175,-0.203 -0.289,-0.458 -0.316,-0.742 l 1.446,-1.445 c 0.283,0.027 0.539,0.141 0.742,0.315 l -1.872,1.872 z m -0.873,-0.184 c 0.09,0.247 0.226,0.47 0.398,0.66 l -2.424,2.424 c -0.062,0.062 -0.091,0.14 -0.094,0.218 -0.167,-0.232 -0.328,-0.471 -0.481,-0.713 0.015,-0.012 0.033,-0.019 0.046,-0.032 l 2.555,-2.557 z m -1.876,3.636 c 0.029,0.008 0.058,0.016 0.086,0.016 0.085,0 0.17,-0.033 0.236,-0.098 l 2.478,-2.477 c 0.246,0.137 0.526,0.216 0.821,0.236 l -3.038,3.038 c -0.2,-0.233 -0.395,-0.47 -0.583,-0.715 z m 5.088,-4.32 c 0,0.309 -0.108,0.589 -0.284,0.815 l -0.237,0.236 c -0.226,0.177 -0.505,0.284 -0.813,0.284 -0.158,0 -0.305,-0.034 -0.446,-0.085 l 1.696,-1.695 c 0.05,0.142 0.084,0.289 0.084,0.445 z m 8.009,-7.478 -2.201,2.198 c -1.05,0.21 -1.88,1.041 -2.09,2.091 l -3.059,3.059 c -0.02,-0.294 -0.101,-0.573 -0.236,-0.819 l 7.691,-7.692 c -0.073,0.313 -0.115,0.64 -0.115,0.977 10e-4,0.062 0.008,0.121 0.01,0.186 z m 0.698,-0.699 c 0.227,-1.614 1.503,-2.89 3.117,-3.117 l -3.117,3.117 z m -3.125,8.07 c 0.238,0.068 0.489,0.107 0.751,0.107 0.069,0 0.138,-0.003 0.206,-0.009 l -7.775,7.775 c -0.014,0.014 -0.021,0.031 -0.032,0.047 -0.218,-0.138 -0.432,-0.281 -0.644,-0.429 l 7.494,-7.491 z m 2.062,-4.066 c 0.189,0.166 0.349,0.367 0.466,0.592 l -2.692,2.691 c -0.226,-0.115 -0.427,-0.275 -0.592,-0.465 l 2.818,-2.818 z m -0.083,-0.857 c -0.245,-0.128 -0.513,-0.217 -0.795,-0.264 l 1.357,-1.357 c 0.066,0.272 0.156,0.535 0.271,0.787 l -0.833,0.834 z m 1.036,0.963 c -0.134,-0.214 -0.295,-0.408 -0.48,-0.577 l 0.616,-0.616 c 0.141,0.208 0.3,0.403 0.474,0.586 l -0.61,0.607 z m 0.294,0.651 0.813,-0.813 c 0.203,0.153 0.417,0.293 0.646,0.412 l -1.358,1.356 c 0.003,-0.067 0.009,-0.134 0.009,-0.204 0,-0.262 -0.04,-0.513 -0.11,-0.751 z m -0.557,0.751 c 0,1.103 -0.898,2.001 -2.001,2.001 -0.062,0 -0.125,-0.004 -0.186,-0.01 l 2.177,-2.177 c 0.006,0.06 0.01,0.124 0.01,0.186 z m -4.001,0 c 0,-0.069 0.003,-0.137 0.01,-0.205 l 1.784,-1.783 c 0.068,-0.008 0.137,-0.012 0.206,-0.012 0.255,0 0.5,0.05 0.724,0.137 l -2.586,2.588 c -0.088,-0.226 -0.138,-0.47 -0.138,-0.725 z m -7.365,9.172 7.388,-7.389 c 0.169,0.187 0.361,0.35 0.577,0.481 l -7.385,7.382 c -0.198,-0.152 -0.391,-0.312 -0.58,-0.474 z m 6.723,-1.668 -3.594,3.595 c -0.031,0.03 -0.054,0.065 -0.07,0.104 -0.243,-0.122 -0.479,-0.246 -0.713,-0.379 l 11.699,-11.7 c 0.279,0.091 0.571,0.153 0.873,0.185 l -7.513,7.513 c -0.274,0.184 -0.507,0.419 -0.682,0.682 z m 0.385,1.615 c -0.049,-0.146 -0.076,-0.295 -0.076,-0.451 0,-0.266 0.076,-0.516 0.21,-0.738 l 0.593,-0.594 c 0.333,-0.21 0.748,-0.336 1.196,-0.336 0.063,0 0.125,0.004 0.188,0.006 l -2.111,2.113 z m 0.983,1.019 c -0.241,-0.106 -0.453,-0.257 -0.623,-0.435 l 2.505,-2.506 c 0.241,0.109 0.453,0.259 0.624,0.435 l -2.506,2.506 z m -1.719,-1.339 c 0.019,0.292 0.098,0.572 0.229,0.825 l -2.141,2.14 c -0.009,0.01 -0.012,0.021 -0.021,0.032 -0.257,-0.093 -0.51,-0.198 -0.76,-0.308 l 2.693,-2.689 z m -1.232,3.231 1.858,-1.858 c 0.172,0.178 0.375,0.333 0.599,0.459 l -1.627,1.627 c -0.281,-0.067 -0.559,-0.143 -0.83,-0.228 z m 2.578,0.541 c -0.327,-0.039 -0.65,-0.087 -0.971,-0.147 l 1.521,-1.521 c 0.244,0.064 0.498,0.1 0.764,0.1 0.069,0 0.137,-0.006 0.205,-0.011 l -1.439,1.441 c -0.042,0.039 -0.065,0.087 -0.08,0.138 z m 3.314,-3.904 c 0,0.267 -0.076,0.516 -0.21,0.739 l -0.594,0.593 c -0.334,0.211 -0.749,0.335 -1.196,0.335 -0.063,0 -0.125,-0.003 -0.188,-0.007 l 2.112,-2.11 c 0.049,0.144 0.076,0.295 0.076,0.45 z m 8.001,-13.668 c 0,1.516 -0.923,2.82 -2.24,3.378 l 0.142,-0.143 c 0.131,-0.13 0.131,-0.34 0,-0.471 -0.13,-0.13 -0.339,-0.13 -0.47,0 l -0.893,0.893 c -0.069,0.003 -0.137,0.01 -0.207,0.01 -0.267,0 -0.526,-0.029 -0.777,-0.086 l 2.345,-2.344 c 0.13,-0.131 0.13,-0.342 0,-0.471 -0.129,-0.131 -0.34,-0.131 -0.471,0 l -2.584,2.586 c -0.238,-0.106 -0.46,-0.238 -0.669,-0.391 l 3.391,-3.391 c 0.13,-0.13 0.13,-0.339 0,-0.47 -0.13,-0.131 -0.34,-0.131 -0.47,0 l -3.422,3.418 c -0.173,-0.183 -0.327,-0.382 -0.46,-0.598 l 4.019,-4.019 c 0.13,-0.13 0.13,-0.341 0,-0.472 -0.13,-0.13 -0.339,-0.13 -0.47,0 l -3.858,3.858 c -0.102,-0.269 -0.173,-0.551 -0.21,-0.846 l 4.081,-4.081 c 1.811,0.222 3.223,1.768 3.223,3.64 z m -10.635,-5.169 -4.204,4.202 c -0.197,-0.154 -0.375,-0.331 -0.529,-0.528 l 4.204,-4.205 c 0.198,0.154 0.375,0.332 0.529,0.531 z m 1.804,-5.804 -3.983,3.981 c -0.064,-0.001 -0.125,-0.009 -0.188,-0.009 -0.349,0 -0.686,0.053 -1.005,0.145 l 4.139,-4.138 c 0.066,-0.004 0.132,-0.007 0.199,-0.007 0.283,0 0.56,0.01 0.838,0.028 z m 1.085,-0.568 c -0.007,-0.009 -0.01,-0.021 -0.02,-0.03 -0.119,-0.118 -0.304,-0.123 -0.433,-0.022 -0.485,-0.048 -0.975,-0.073 -1.47,-0.073 -0.099,0 -0.196,0.005 -0.295,0.006 -0.029,-0.002 -0.059,-0.001 -0.088,0.003 -1.771,0.045 -3.466,0.396 -5.034,1.007 -0.025,0.007 -0.048,0.016 -0.073,0.029 -3.861,1.525 -6.941,4.604 -8.465,8.466 -0.012,0.025 -0.023,0.048 -0.03,0.073 -0.609,1.567 -0.961,3.263 -1.006,5.033 -0.006,0.028 -0.006,0.061 -0.002,0.089 -0.002,0.099 -0.007,0.196 -0.007,0.295 0,7.04 4.877,12.963 11.432,14.568 0,0 0,0.003 0.002,0.003 0.063,0.064 0.149,0.097 0.234,0.097 0.037,0 0.072,-0.009 0.104,-0.021 1.042,0.229 2.12,0.354 3.229,0.354 8.272,0 15.001,-6.729 15.001,-15.002 0.001,-7.621 -5.712,-13.926 -13.079,-14.875 z"
           inkscape:connector-curvature="0" />
        <path
           id="path6067"
           d="m 360.498,422.198 0.863,0 -0.43,0.431 c -0.13,0.132 -0.13,0.34 0,0.471 0.064,0.065 0.149,0.099 0.234,0.099 0.085,0 0.17,-0.033 0.236,-0.098 l 0.432,-0.43 0,0.86 c 0,0.185 0.148,0.334 0.333,0.334 0.184,0 0.333,-0.149 0.333,-0.334 l 0,-0.86 0.431,0.43 c 0.066,0.064 0.151,0.098 0.236,0.098 0.085,0 0.17,-0.033 0.236,-0.098 0.13,-0.13 0.13,-0.34 0,-0.471 l -0.433,-0.432 0.863,0 c 0.184,0 0.333,-0.149 0.333,-0.332 0,-0.186 -0.149,-0.334 -0.333,-0.334 l -0.863,0 0.431,-0.432 c 0.13,-0.129 0.13,-0.34 0,-0.471 -0.13,-0.129 -0.34,-0.129 -0.47,0 l -0.431,0.432 0,-0.863 c 0,-0.186 -0.149,-0.333 -0.333,-0.333 -0.185,0 -0.333,0.147 -0.333,0.333 l 0,0.863 -0.432,-0.432 c -0.129,-0.129 -0.339,-0.129 -0.47,0 -0.13,0.131 -0.13,0.342 0,0.471 l 0.43,0.432 -0.863,0 c -0.184,0 -0.333,0.148 -0.333,0.334 0,0.183 0.148,0.332 0.333,0.332 z"
           inkscape:connector-curvature="0" />
        <path
           id="path6069"
           d="m 360.831,434.199 c 0.722,0 1.333,0.916 1.333,2 0,1.083 -0.611,2 -1.333,2 -0.723,0 -1.333,-0.917 -1.333,-2 0,-1.084 0.61,-2 1.333,-2 z m 0,4.666 c 1.103,0 2,-1.195 2,-2.666 0,-1.47 -0.898,-2.666 -2,-2.666 -1.102,0 -2,1.196 -2,2.666 0,1.471 0.898,2.666 2,2.666 z"
           inkscape:connector-curvature="0" />
      </g>
      <path
         id="path6071"
         d="m 332.449,407.189 2.82,-14.981 53.758,10.131 -7.92,42.031 -1.271,-13.996 4.784,-25.387 -46.207,-8.699 -1.986,10.543 -3.978,0.358 z m 42.428,45.667 -46.823,4.256 -3.847,-42.329 46.819,-4.257 3.851,42.33 z m -54.807,-41.136 5.359,58.964 54.476,-4.949 -5.358,-58.965 -54.477,4.95 z"
         inkscape:connector-curvature="0" />
    </g>
  </g>
</svg>
