<?xml version="1.0" encoding="UTF-8" standalone="no"?>
<svg
   xmlns:dc="http://purl.org/dc/elements/1.1/"
   xmlns:cc="http://creativecommons.org/ns#"
   xmlns:rdf="http://www.w3.org/1999/02/22-rdf-syntax-ns#"
   xmlns:svg="http://www.w3.org/2000/svg"
   xmlns="http://www.w3.org/2000/svg"
   xmlns:sodipodi="http://sodipodi.sourceforge.net/DTD/sodipodi-0.dtd"
   xmlns:inkscape="http://www.inkscape.org/namespaces/inkscape"
   version="1.1"
   id="svg5006"
   viewBox="0 0 66.11 66.111"
   height="18.657993mm"
   width="18.657711mm"
   inkscape:version="0.91 r13725"
   sodipodi:docname="policy.svg">
  <sodipodi:namedview
     pagecolor="#ffffff"
     bordercolor="#666666"
     borderopacity="1"
     objecttolerance="10"
     gridtolerance="10"
     guidetolerance="10"
     inkscape:pageopacity="0"
     inkscape:pageshadow="2"
     inkscape:window-width="2560"
     inkscape:window-height="1536"
     id="namedview8501"
     showgrid="false"
     inkscape:zoom="3.5697539"
     inkscape:cx="-1.9614196"
     inkscape:cy="33.0555"
     inkscape:window-x="0"
     inkscape:window-y="27"
     inkscape:window-maximized="1"
     inkscape:current-layer="svg5006" />
  <defs
     id="defs5008" />
  <metadata
     id="metadata5011">
    <rdf:RDF>
      <cc:Work
         rdf:about="">
        <dc:format>image/svg+xml</dc:format>
        <dc:type
           rdf:resource="http://purl.org/dc/dcmitype/StillImage" />
        <dc:title />
      </cc:Work>
    </rdf:RDF>
  </metadata>
  <g
     transform="matrix(0.77965768,0,0,0.77965768,1191.4036,255.08692)"
     id="layer1">
    <g
       id="g4963"
       transform="translate(-1862.6093,-338.58615)">
      <g
         id="g4965">
        <path
           id="path4967"
           d="m 391.149,51.662 c 0,0.672 0,4.666 0,5.927 0,0.96 -0.242,1.951 -1.005,2.842 -0.793,0.925 -4.233,3.069 -5.464,3.798 -0.844,0.499 -1.44,-0.567 -0.83,-1.035 0.63,-0.479 3.954,-2.541 4.991,-3.253 1.903,-1.309 0.073,-4.175 -2.245,-2.821 -1.002,0.589 -2.075,1.177 -4.262,2.452 -2.104,1.227 -3.507,2.794 -3.934,6.935 -0.212,2.06 1.042,7.685 1.042,7.685 l 7.074,0 c 0,-4.92 5.781,-9.002 7.149,-11.487 0.866,-1.575 0.988,-2.234 0.988,-3.609 0,-2.129 0,-6.724 0,-7.434 10e-4,-2.706 -3.504,-2.645 -3.504,0 z"
           inkscape:connector-curvature="0" />
        <path
           id="path4969"
           d="m 371.747,59.571 c -2.186,-1.272 -3.259,-1.863 -4.261,-2.452 -2.317,-1.356 -4.148,1.513 -2.247,2.819 1.037,0.714 4.359,2.773 4.99,3.255 0.613,0.466 0.016,1.53 -0.827,1.033 -1.231,-0.729 -4.671,-2.873 -5.465,-3.798 -0.763,-0.889 -1.005,-1.882 -1.005,-2.842 0,-1.261 0,-5.255 0,-5.927 0,-2.646 -3.504,-2.704 -3.504,0 0,0.71 0,5.303 0,7.432 0,1.375 0.122,2.034 0.988,3.609 1.368,2.487 7.149,6.569 7.149,11.487 l 7.074,0 c 0,0 1.252,-5.626 1.041,-7.686 -0.427,-4.136 -1.827,-5.703 -3.933,-6.93 z"
           inkscape:connector-curvature="0" />
        <path
           id="path4971"
           d="m 365.26,51.544 c 0,0.632 0.38,1.362 0.864,1.665 l 9.591,5.571 0,-10.024 -10.455,-6.019 0,8.807 z"
           inkscape:connector-curvature="0" />
        <path
           id="path4973"
           d="m 378.375,58.78 9.59,-5.573 c 0.484,-0.301 0.866,-1.031 0.866,-1.663 l 0,-8.807 -10.457,6.019 0,10.024 z"
           inkscape:connector-curvature="0" />
        <path
           id="path4975"
           d="m 377.971,33.963 c -0.504,-0.27 -1.327,-0.231 -1.874,0.086 l -10.345,5.867 11.294,6.501 11.271,-6.486 -10.346,-5.968 z"
           inkscape:connector-curvature="0" />
      </g>
      <path
         id="path4977"
         d="m 403.112,33.757 -2.077,2.078 c 3.752,5.024 5.999,11.23 5.999,17.969 0,16.62 -13.519,30.143 -30.14,30.143 -6.738,0 -12.944,-2.249 -17.969,-5.999 -0.065,-0.046 -0.119,-0.106 -0.181,-0.157 l 2.84,0 c 0.805,0 1.457,-0.65 1.457,-1.456 0,-0.806 -0.651,-1.457 -1.457,-1.457 l -6.32,0 c -0.805,0 -1.457,0.651 -1.457,1.457 l 0,6.324 c 0,0.806 0.651,1.457 1.457,1.457 0.805,0 1.457,-0.651 1.457,-1.457 l 0,-2.749 c 0.046,0.033 0.084,0.077 0.13,0.115 5.569,4.268 12.503,6.836 20.047,6.836 18.222,0 33.052,-14.83 33.052,-33.054 -0.003,-7.542 -2.568,-14.481 -6.838,-20.05 z"
         inkscape:connector-curvature="0" />
      <path
         id="path4979"
         d="m 376.894,23.659 c 6.735,0 12.941,2.251 17.966,5.999 0.18,0.134 0.333,0.303 0.513,0.444 l -3.254,0 c -0.805,0 -1.457,0.653 -1.457,1.456 0,0.806 0.651,1.457 1.457,1.457 l 6.32,0.002 c 0.046,0 0.088,-0.022 0.134,-0.027 0.74,-0.068 1.322,-0.672 1.322,-1.429 l 0,-6.325 c 0,-0.806 -0.651,-1.457 -1.457,-1.457 -0.805,0 -1.457,0.651 -1.457,1.457 l 0,2.387 c -0.015,-0.01 -0.031,-0.026 -0.046,-0.037 -5.565,-4.268 -12.503,-6.836 -20.043,-6.836 -18.222,0 -33.052,14.826 -33.052,33.054 0,7.539 2.568,14.474 6.831,20.043 l 2.073,-2.074 c -3.745,-5.025 -5.991,-11.235 -5.991,-17.969 0.001,-16.621 13.52,-30.145 30.141,-30.145 z"
         inkscape:connector-curvature="0" />
    </g>
  </g>
</svg>
