<?xml version="1.0" encoding="UTF-8" standalone="no"?>
<svg
   xmlns:dc="http://purl.org/dc/elements/1.1/"
   xmlns:cc="http://creativecommons.org/ns#"
   xmlns:rdf="http://www.w3.org/1999/02/22-rdf-syntax-ns#"
   xmlns:svg="http://www.w3.org/2000/svg"
   xmlns="http://www.w3.org/2000/svg"
   version="1.1"
   id="svg19058"
   viewBox="0 0 312.64562 161.60053"
   height="45.607262mm"
   width="88.235542mm">
  <defs
     id="defs19060" />
  <metadata
     id="metadata19063">
    <rdf:RDF>
      <cc:Work
         rdf:about="">
        <dc:format>image/svg+xml</dc:format>
        <dc:type
           rdf:resource="http://purl.org/dc/dcmitype/StillImage" />
        <dc:title></dc:title>
      </cc:Work>
    </rdf:RDF>
  </metadata>
  <g
     transform="translate(73.465678,-131.56193)"
     id="layer1">
    <g
       id="g18188"
       style="opacity:0.7"
       transform="translate(-109.50568,132.05947)">
      <g
         id="g18190"
         transform="translate(125,125)">
        <circle
           id="circle18192"
           r="4.506"
           cy="-43.021999"
           cx="118.453"
           style="opacity:0.43999999;fill:#009900;stroke:#00b6c1" />
        <path
           id="path18194"
           d="m 121.53,-30.494 c -1.942,-3.963 -0.305,-8.749 3.659,-10.693 3.963,-1.943 8.753,-0.306 10.694,3.66 1.943,3.963 0.304,8.75 -3.658,10.693 -3.964,1.945 -8.751,0.304 -10.695,-3.66 z"
           style="opacity:0.43999999;fill:#009900;stroke:#00b6c1" />
        <path
           id="path18196"
           d="m 78.25,-53.73 c -2.936,-5.989 -0.46,-13.223 5.53,-16.16 5.988,-2.936 13.225,-0.462 16.16,5.528 2.936,5.988 0.46,13.224 -5.532,16.162 -5.986,2.934 -13.223,0.458 -16.158,-5.53 z"
           style="opacity:0.85;fill:#009900;stroke:#00b6c1" />
        <circle
           id="circle18198"
           r="7.1240001"
           cy="-66.209999"
           cx="-29.936001"
           style="opacity:0.85;fill:#009900;stroke:#00b6c1" />
        <path
           id="path18200"
           d="m 40.832,-100.898 c -4.066,-8.297 -0.636,-18.322 7.665,-22.39 8.295,-4.067 18.319,-0.638 22.387,7.661 4.066,8.297 0.637,18.324 -7.661,22.389 -8.3,4.068 -18.323,0.639 -22.391,-7.66 z"
           style="opacity:0.85;fill:#009900;stroke:#00b6c1" />
        <circle
           id="circle18202"
           r="11.42"
           cy="-55.636002"
           cx="34.405998"
           style="opacity:0.85;fill:#009900;stroke:#00b6c1" />
        <circle
           id="circle18204"
           r="8.0249996"
           cy="-31.725"
           cx="85.859001"
           style="opacity:0.85;fill:#009900;stroke:#00b6c1" />
        <circle
           id="circle18206"
           r="20.436001"
           cy="-8.507"
           cx="186.45799"
           style="opacity:0.43999999;fill:#009900;stroke:#00b6c1" />
        <circle
           id="circle18208"
           r="7.2950001"
           cy="-78.484001"
           cx="-62.174"
           style="opacity:0.85;fill:#009900;stroke:#00b6c1" />
        <circle
           id="circle18210"
           r="2.809"
           cy="14.319"
           cx="116.021"
           style="opacity:0.85;fill:#009900;stroke:#00b6c1" />
        <circle
           id="circle18212"
           r="8.6330004"
           cy="-13.945"
           cx="183.23199"
           style="opacity:0.43999999;fill:#009900;stroke:#00b6c1" />
        <circle
           id="circle18214"
           r="5.7140002"
           cy="-53.373001"
           cx="-13.17"
           style="opacity:0.85;fill:#009900;stroke:#00b6c1" />
        <circle
           id="circle18216"
           r="6.3049998"
           cy="29.298"
           cx="180.923"
           style="opacity:0.43999999;fill:#009900;stroke:#00b6c1" />
        <circle
           id="circle18218"
           r="3.1630001"
           cy="-51.924"
           cx="84.112999"
           style="opacity:0.85;fill:#009900;stroke:#00b6c1" />
        <path
           id="path18220"
           d="m 135.755,-44.485 c -3.515,-7.176 -0.55,-15.846 6.626,-19.362 7.179,-3.519 15.849,-0.553 19.365,6.625 3.518,7.176 0.552,15.846 -6.626,19.364 -7.175,3.518 -15.846,0.55 -19.365,-6.627 z"
           style="opacity:0.43999999;fill:#009900;stroke:#00b6c1" />
        <path
           id="path18222"
           d="m 215.926,7.463 c -0.93,-1.896 -0.145,-4.188 1.751,-5.119 1.898,-0.93 4.188,-0.145 5.118,1.753 0.932,1.895 0.148,4.187 -1.751,5.117 -1.896,0.931 -4.188,0.145 -5.118,-1.751 z"
           style="opacity:0.43999999;fill:#009900;stroke:#00b6c1" />
        <path
           id="path18224"
           d="m 115.113,-32.026 c -1.016,-2.074 -0.16,-4.575 1.912,-5.593 2.072,-1.014 4.576,-0.158 5.593,1.914 1.016,2.074 0.159,4.576 -1.912,5.594 -2.074,1.011 -4.578,0.157 -5.593,-1.915 z"
           style="opacity:0.43999999;fill:#009900;stroke:#00b6c1" />
        <circle
           id="circle18226"
           r="8.5190001"
           cy="-62.549999"
           cx="29.417999"
           style="opacity:0.85;fill:#009900;stroke:#00b6c1" />
        <circle
           id="circle18228"
           r="5.829"
           cy="-68.569"
           cx="98.976997"
           style="opacity:0.43999999;fill:#009900;stroke:#00b6c1" />
        <circle
           id="circle18230"
           r="5.6420002"
           cy="-76.343002"
           cx="67.105003"
           style="opacity:0.85;fill:#009900;stroke:#00b6c1" />
        <path
           id="path18232"
           d="m -45.618,-65.546 c -1.696,-3.46 -0.267,-7.642 3.197,-9.338 3.461,-1.698 7.644,-0.267 9.341,3.194 1.696,3.463 0.266,7.645 -3.195,9.343 -3.463,1.697 -7.646,0.265 -9.343,-3.199 z"
           style="opacity:0.85;fill:#009900;stroke:#00b6c1" />
        <circle
           id="circle18234"
           r="3.859"
           cy="-28.562"
           cx="93.723999"
           style="opacity:0.85;fill:#009900;stroke:#00b6c1" />
        <circle
           id="circle18236"
           r="8.6309996"
           cy="19.455999"
           cx="177.13901"
           style="opacity:0.43999999;fill:#009900;stroke:#00b6c1" />
        <circle
           id="circle18238"
           r="10.613"
           cy="-96.361"
           cx="36.349998"
           style="opacity:0.85;fill:#009900;stroke:#00b6c1" />
        <circle
           id="circle18240"
           r="7.7140002"
           cy="-23.754999"
           cx="179.381"
           style="opacity:0.43999999;fill:#009900;stroke:#00b6c1" />
        <circle
           id="circle18242"
           r="5.776"
           cy="-110.543"
           cx="-82.683998"
           style="opacity:0.85;fill:#009900;stroke:#00b6c1" />
        <path
           id="path18244"
           d="m 20.865,-79.414 c -1.999,-4.078 -0.312,-9.006 3.765,-11.006 4.08,-2 9.008,-0.312 11.007,3.767 1.999,4.077 0.312,9.006 -3.765,11.003 -4.079,2.002 -9.007,0.314 -11.007,-3.764 z"
           style="opacity:0.85;fill:#009900;stroke:#00b6c1" />
        <circle
           id="circle18246"
           r="3.869"
           cy="-19.694"
           cx="161.547"
           style="opacity:0.43999999;fill:#009900;stroke:#00b6c1" />
        <path
           id="path18248"
           d="m 151.939,13.092 c -2.41,-4.919 -0.377,-10.862 4.543,-13.273 4.916,-2.408 10.859,-0.377 13.271,4.541 2.411,4.919 0.377,10.861 -4.541,13.271 -4.919,2.412 -10.86,0.378 -13.273,-4.539 z"
           style="opacity:0.43999999;fill:#009900;stroke:#00b6c1" />
        <circle
           id="circle18250"
           r="4.7649999"
           cy="-1.423"
           cx="119.499"
           style="opacity:0.85;fill:#009900;stroke:#00b6c1" />
        <circle
           id="circle18252"
           r="14.859"
           cy="-2.4189999"
           cx="178.808"
           style="opacity:0.43999999;fill:#009900;stroke:#00b6c1" />
        <circle
           id="circle18254"
           r="10.295"
           cy="-33.271"
           cx="55.599998"
           style="opacity:0.85;fill:#009900;stroke:#00b6c1" />
        <circle
           id="circle18256"
           r="2.7030001"
           cy="-47.671001"
           cx="113.618"
           style="opacity:0.43999999;fill:#009900;stroke:#00b6c1" />
        <path
           id="path18258"
           d="m -32.118,-51.104 c -1.569,-3.201 -0.247,-7.067 2.955,-8.638 3.202,-1.569 7.068,-0.245 8.637,2.956 1.568,3.198 0.245,7.068 -2.956,8.637 -3.201,1.569 -7.068,0.243 -8.636,-2.955 z"
           style="opacity:0.85;fill:#009900;stroke:#00b6c1" />
        <circle
           id="circle18260"
           r="6.5749998"
           cy="-35.764999"
           cx="108.42"
           style="opacity:0.43999999;fill:#009900;stroke:#00b6c1" />
        <circle
           id="circle18262"
           r="11.934"
           cy="-57.745998"
           cx="67.348"
           style="opacity:0.85;fill:#009900;stroke:#00b6c1" />
        <circle
           id="circle18264"
           r="3.45"
           cy="-16.393"
           cx="130.94701"
           style="opacity:0.43999999;fill:#009900;stroke:#00b6c1" />
        <circle
           id="circle18266"
           r="7.178"
           cy="-98.485001"
           cx="12.045"
           style="opacity:0.85;fill:#009900;stroke:#00b6c1" />
        <circle
           id="circle18268"
           r="3.0309999"
           cy="-59.098"
           cx="132.161"
           style="opacity:0.43999999;fill:#009900;stroke:#00b6c1" />
        <circle
           id="circle18270"
           r="8.434"
           cy="-68.788002"
           cx="-15.13"
           style="opacity:0.85;fill:#009900;stroke:#00b6c1" />
        <circle
           id="circle18272"
           r="5.6090002"
           cy="21.875"
           cx="196.071"
           style="opacity:0.43999999;fill:#009900;stroke:#00b6c1" />
        <circle
           id="circle18274"
           r="2.6500001"
           cy="15.652"
           cx="175.354"
           style="opacity:0.43999999;fill:#009900;stroke:#00b6c1" />
        <circle
           id="circle18276"
           r="9.4370003"
           cy="-15.524"
           cx="105.311"
           style="opacity:0.85;fill:#009900;stroke:#00b6c1" />
        <circle
           id="circle18278"
           r="8.677"
           cy="-18.635"
           cx="135.52299"
           style="opacity:0.43999999;fill:#009900;stroke:#00b6c1" />
        <path
           id="path18280"
           d="m -87.905,-72.893 c -1.104,-2.247 -0.173,-4.965 2.075,-6.064 2.25,-1.105 4.965,-0.174 6.069,2.074 1.101,2.248 0.171,4.966 -2.078,6.067 -2.248,1.101 -4.964,0.172 -6.066,-2.077 z"
           style="opacity:0.85;fill:#009900;stroke:#00b6c1" />
        <path
           id="path18282"
           d="M 94.002,11.073 C 93.4,9.845 93.907,8.36 95.139,7.757 c 1.229,-0.603 2.714,-0.094 3.315,1.135 0.604,1.229 0.096,2.715 -1.134,3.318 -1.229,0.602 -2.716,0.093 -3.318,-1.137 z"
           style="opacity:0.85;fill:#009900;stroke:#00b6c1" />
      </g>
    </g>
  </g>
</svg>
