<?xml version="1.0" encoding="UTF-8" standalone="no"?>
<svg
   xmlns:dc="http://purl.org/dc/elements/1.1/"
   xmlns:cc="http://creativecommons.org/ns#"
   xmlns:rdf="http://www.w3.org/1999/02/22-rdf-syntax-ns#"
   xmlns:svg="http://www.w3.org/2000/svg"
   xmlns="http://www.w3.org/2000/svg"
   version="1.1"
   id="svg40620"
   viewBox="0 0 182.25201 62.791001"
   height="17.721016mm"
   width="51.435566mm">
  <defs
     id="defs40622" />
  <metadata
     id="metadata40625">
    <rdf:RDF>
      <cc:Work
         rdf:about="">
        <dc:format>image/svg+xml</dc:format>
        <dc:type
           rdf:resource="http://purl.org/dc/dcmitype/StillImage" />
        <dc:title></dc:title>
      </cc:Work>
    </rdf:RDF>
  </metadata>
  <g
     transform="translate(-620.30257,-40.966705)"
     id="layer1">
    <g
       id="g38473"
       style="opacity:0.7"
       transform="translate(561.83957,25.806704)">
      <g
         id="g38475"
         transform="translate(125,125)">
        <circle
           id="circle38477"
           r="2.451"
           cy="-80.160004"
           cx="52.292999"
           style="opacity:0.43999999;fill:#009900;stroke:#00b6c1" />
        <path
           id="path38479"
           d="m 56.407,-74.475 c -1.789,-1.6 -1.943,-4.348 -0.344,-6.137 1.6,-1.793 4.35,-1.947 6.139,-0.346 1.791,1.602 1.943,4.348 0.344,6.139 -1.599,1.791 -4.348,1.944 -6.139,0.344 z"
           style="opacity:0.43999999;fill:#009900;stroke:#00b6c1" />
        <path
           id="path38481"
           d="m 29.838,-77.334 c -2.703,-2.418 -2.936,-6.57 -0.518,-9.275 2.418,-2.703 6.57,-2.938 9.275,-0.52 2.705,2.418 2.938,6.57 0.52,9.279 -2.417,2.704 -6.572,2.936 -9.277,0.516 z"
           style="opacity:0.85;fill:#009900;stroke:#00b6c1" />
        <circle
           id="circle38483"
           r="3.875"
           cy="-61.492001"
           cx="-27.240999"
           style="opacity:0.85;fill:#009900;stroke:#00b6c1" />
        <circle
           id="circle38485"
           r="9.1029997"
           cy="-100.237"
           cx="7.3979998"
           style="opacity:0.85;fill:#009900;stroke:#00b6c1" />
        <circle
           id="circle38487"
           r="6.211"
           cy="-69.323997"
           cx="7.3509998"
           style="opacity:0.85;fill:#009900;stroke:#00b6c1" />
        <circle
           id="circle38489"
           r="4.3649998"
           cy="-67.799004"
           cx="38.174999"
           style="opacity:0.85;fill:#009900;stroke:#00b6c1" />
        <path
           id="path38491"
           d="m 86.219,-68.387 c -4.576,-4.094 -4.969,-11.121 -0.877,-15.695 4.092,-4.576 11.119,-4.971 15.695,-0.881 4.576,4.094 4.969,11.119 0.879,15.697 -4.091,4.577 -11.121,4.969 -15.697,0.879 z"
           style="opacity:0.43999999;fill:#009900;stroke:#00b6c1" />
        <circle
           id="circle38493"
           r="3.9690001"
           cy="-61.084"
           cx="-46"
           style="opacity:0.85;fill:#009900;stroke:#00b6c1" />
        <circle
           id="circle38495"
           r="1.528"
           cy="-50.761002"
           cx="62.797001"
           style="opacity:0.85;fill:#009900;stroke:#00b6c1" />
        <circle
           id="circle38497"
           r="4.6950002"
           cy="-78.757004"
           cx="90.890999"
           style="opacity:0.43999999;fill:#009900;stroke:#00b6c1" />
        <circle
           id="circle38499"
           r="3.108"
           cy="-58.451"
           cx="-16.166"
           style="opacity:0.85;fill:#009900;stroke:#00b6c1" />
        <circle
           id="circle38501"
           r="3.4300001"
           cy="-56.487999"
           cx="98.573997"
           style="opacity:0.43999999;fill:#009900;stroke:#00b6c1" />
        <circle
           id="circle38503"
           r="1.72"
           cy="-77.622002"
           cx="33.165001"
           style="opacity:0.85;fill:#009900;stroke:#00b6c1" />
        <circle
           id="circle38505"
           r="7.8709998"
           cy="-90.306"
           cx="65.960999"
           style="opacity:0.43999999;fill:#009900;stroke:#00b6c1" />
        <circle
           id="circle38507"
           r="2.0799999"
           cy="-76.205002"
           cx="113.135"
           style="opacity:0.43999999;fill:#009900;stroke:#00b6c1" />
        <path
           id="path38509"
           d="m 52.86,-73.934 c -0.938,-0.84 -1.018,-2.275 -0.182,-3.211 0.838,-0.936 2.273,-1.018 3.211,-0.18 0.936,0.838 1.016,2.275 0.18,3.211 -0.838,0.934 -2.274,1.016 -3.209,0.18 z"
           style="opacity:0.43999999;fill:#009900;stroke:#00b6c1" />
        <path
           id="path38511"
           d="m 0.334,-68.334 c -1.908,-1.707 -2.072,-4.635 -0.365,-6.543 1.705,-1.908 4.635,-2.072 6.541,-0.367 1.91,1.707 2.072,4.635 0.367,6.545 -1.705,1.906 -4.634,2.07 -6.543,0.365 z"
           style="opacity:0.85;fill:#009900;stroke:#00b6c1" />
        <circle
           id="circle38513"
           r="3.171"
           cy="-89.052002"
           cx="37.25"
           style="opacity:0.43999999;fill:#009900;stroke:#00b6c1" />
        <circle
           id="circle38515"
           r="3.069"
           cy="-86.449997"
           cx="19.597"
           style="opacity:0.85;fill:#009900;stroke:#00b6c1" />
        <circle
           id="circle38517"
           r="3.7980001"
           cy="-60.778"
           cx="-32.478001"
           style="opacity:0.85;fill:#009900;stroke:#00b6c1" />
        <circle
           id="circle38519"
           r="2.099"
           cy="-67.811996"
           cx="42.786999"
           style="opacity:0.85;fill:#009900;stroke:#00b6c1" />
        <circle
           id="circle38521"
           r="4.6950002"
           cy="-60.675999"
           cx="94.653"
           style="opacity:0.43999999;fill:#009900;stroke:#00b6c1" />
        <circle
           id="circle38523"
           r="5.7719998"
           cy="-90.248001"
           cx="0"
           style="opacity:0.85;fill:#009900;stroke:#00b6c1" />
        <circle
           id="circle38525"
           r="4.1950002"
           cy="-82.913002"
           cx="86.943001"
           style="opacity:0.43999999;fill:#009900;stroke:#00b6c1" />
        <circle
           id="circle38527"
           r="3.141"
           cy="-73.044998"
           cx="-62.896"
           style="opacity:0.85;fill:#009900;stroke:#00b6c1" />
        <path
           id="path38529"
           d="m -4.337,-78.539 c -1.842,-1.646 -2,-4.477 -0.354,-6.318 1.646,-1.841 4.477,-2 6.316,-0.352 1.842,1.645 2,4.475 0.354,6.314 -1.646,1.844 -4.475,2.002 -6.316,0.356 z"
           style="opacity:0.85;fill:#009900;stroke:#00b6c1" />
        <path
           id="path38531"
           d="m 77.383,-75.65 c -0.867,-0.771 -0.939,-2.104 -0.166,-2.971 0.773,-0.865 2.104,-0.939 2.971,-0.166 0.867,0.775 0.939,2.105 0.166,2.973 -0.773,0.868 -2.105,0.941 -2.971,0.164 z"
           style="opacity:0.43999999;fill:#009900;stroke:#00b6c1" />
        <path
           id="path38533"
           d="m 80.649,-58.729 c -2.221,-1.986 -2.412,-5.396 -0.426,-7.619 1.986,-2.219 5.396,-2.41 7.619,-0.426 2.221,1.986 2.412,5.396 0.426,7.619 -1.986,2.221 -5.396,2.413 -7.619,0.426 z"
           style="opacity:0.43999999;fill:#009900;stroke:#00b6c1" />
        <circle
           id="circle38535"
           r="2.5910001"
           cy="-59.405998"
           cx="61.330002"
           style="opacity:0.85;fill:#009900;stroke:#00b6c1" />
        <circle
           id="circle38537"
           r="8.0819998"
           cy="-72.042999"
           cx="91.017998"
           style="opacity:0.43999999;fill:#009900;stroke:#00b6c1" />
        <circle
           id="circle38539"
           r="5.599"
           cy="-62.388"
           cx="22.608999"
           style="opacity:0.85;fill:#009900;stroke:#00b6c1" />
        <circle
           id="circle38541"
           r="1.471"
           cy="-81.514999"
           cx="48.904999"
           style="opacity:0.43999999;fill:#009900;stroke:#00b6c1" />
        <circle
           id="circle38543"
           r="3.5109999"
           cy="-56.049"
           cx="-22.912001"
           style="opacity:0.85;fill:#009900;stroke:#00b6c1" />
        <circle
           id="circle38545"
           r="3.5769999"
           cy="-74.449997"
           cx="48.720001"
           style="opacity:0.43999999;fill:#009900;stroke:#00b6c1" />
        <path
           id="path38547"
           d="m 19.196,-72.287 c -2.672,-2.391 -2.9,-6.494 -0.512,-9.166 2.391,-2.672 6.492,-2.902 9.166,-0.512 2.672,2.387 2.902,6.492 0.512,9.166 -2.389,2.672 -6.492,2.901 -9.166,0.512 z"
           style="opacity:0.85;fill:#009900;stroke:#00b6c1" />
        <circle
           id="circle38549"
           r="1.876"
           cy="-69.293999"
           cx="64.038002"
           style="opacity:0.43999999;fill:#009900;stroke:#00b6c1" />
        <circle
           id="circle38551"
           r="3.905"
           cy="-86.347"
           cx="-12.684"
           style="opacity:0.85;fill:#009900;stroke:#00b6c1" />
        <circle
           id="circle38553"
           r="1.648"
           cy="-91.066002"
           cx="55.914001"
           style="opacity:0.43999999;fill:#009900;stroke:#00b6c1" />
        <path
           id="path38555"
           d="m -23.365,-62.398 c -1.889,-1.691 -2.051,-4.59 -0.361,-6.48 1.688,-1.887 4.588,-2.051 6.479,-0.361 1.887,1.688 2.049,4.588 0.361,6.479 -1.69,1.885 -4.59,2.047 -6.479,0.362 z"
           style="opacity:0.85;fill:#009900;stroke:#00b6c1" />
        <path
           id="path38557"
           d="m 102.657,-61.055 c -1.258,-1.123 -1.365,-3.053 -0.242,-4.309 1.123,-1.256 3.053,-1.365 4.307,-0.24 1.258,1.123 1.367,3.051 0.242,4.307 -1.124,1.26 -3.051,1.365 -4.307,0.242 z"
           style="opacity:0.43999999;fill:#009900;stroke:#00b6c1" />
        <circle
           id="circle38559"
           r="1.441"
           cy="-62.227001"
           cx="92.974998"
           style="opacity:0.43999999;fill:#009900;stroke:#00b6c1" />
        <path
           id="path38561"
           d="m 47.874,-59.783 c -2.115,-1.893 -2.295,-5.137 -0.406,-7.252 1.891,-2.111 5.135,-2.293 7.248,-0.404 2.113,1.889 2.295,5.135 0.406,7.248 -1.891,2.113 -5.135,2.295 -7.248,0.408 z"
           style="opacity:0.85;fill:#009900;stroke:#00b6c1" />
        <circle
           id="circle38563"
           r="4.7199998"
           cy="-71.360001"
           cx="65.884003"
           style="opacity:0.43999999;fill:#009900;stroke:#00b6c1" />
        <circle
           id="circle38565"
           r="2.467"
           cy="-54.839001"
           cx="-56.181"
           style="opacity:0.85;fill:#009900;stroke:#00b6c1" />
        <circle
           id="circle38567"
           r="1.349"
           cy="-48.897999"
           cx="51.933998"
           style="opacity:0.85;fill:#009900;stroke:#00b6c1" />
      </g>
    </g>
  </g>
</svg>
