<?xml version="1.0" encoding="UTF-8" standalone="no"?>
<svg
   xmlns:dc="http://purl.org/dc/elements/1.1/"
   xmlns:cc="http://creativecommons.org/ns#"
   xmlns:rdf="http://www.w3.org/1999/02/22-rdf-syntax-ns#"
   xmlns:svg="http://www.w3.org/2000/svg"
   xmlns="http://www.w3.org/2000/svg"
   version="1.1"
   id="svg25821"
   viewBox="0 0 204.49437 75.853999"
   height="21.407684mm"
   width="57.712856mm">
  <defs
     id="defs25823" />
  <metadata
     id="metadata25826">
    <rdf:RDF>
      <cc:Work
         rdf:about="">
        <dc:format>image/svg+xml</dc:format>
        <dc:type
           rdf:resource="http://purl.org/dc/dcmitype/StillImage" />
        <dc:title></dc:title>
      </cc:Work>
    </rdf:RDF>
  </metadata>
  <g
     transform="translate(102.24719,-365.86378)"
     id="layer1">
    <g
       id="g25094"
       style="opacity:0.7"
       transform="translate(-158.42781,351.11178)">
      <circle
         id="circle25096"
         r="2.763"
         cy="51.751999"
         cx="126.694"
         style="opacity:0.43999999;fill:#009900;stroke:#00b6c1" />
      <path
         id="path25098"
         d="m 122.793,44.869 c 1.806,2.016 1.636,5.113 -0.381,6.92 -2.014,1.807 -5.114,1.637 -6.92,-0.381 -1.805,-2.017 -1.635,-5.113 0.381,-6.92 2.016,-1.808 5.115,-1.634 6.92,0.381 z"
         style="opacity:0.43999999;fill:#009900;stroke:#00b6c1" />
      <circle
         id="circle25100"
         r="7.4060001"
         cy="56.326"
         cx="146.687"
         style="opacity:0.85;fill:#009900;stroke:#00b6c1" />
      <circle
         id="circle25102"
         r="4.3670001"
         cy="40.756001"
         cx="218.12801"
         style="opacity:0.85;fill:#009900;stroke:#00b6c1" />
      <circle
         id="circle25104"
         r="10.261"
         cy="79.845001"
         cx="174.48801"
         style="opacity:0.85;fill:#009900;stroke:#00b6c1" />
      <path
         id="path25106"
         d="m 183.611,40.545 c 2.581,2.882 2.336,7.309 -0.544,9.889 -2.881,2.58 -7.308,2.336 -9.888,-0.546 -2.581,-2.878 -2.336,-7.306 0.545,-9.887 2.88,-2.58 7.307,-2.337 9.887,0.544 z"
         style="opacity:0.85;fill:#009900;stroke:#00b6c1" />
      <circle
         id="circle25108"
         r="4.921"
         cy="39.661999"
         cx="144.052"
         style="opacity:0.85;fill:#009900;stroke:#00b6c1" />
      <circle
         id="circle25110"
         r="12.531"
         cy="42.692001"
         cx="80.818001"
         style="opacity:0.43999999;fill:#009900;stroke:#00b6c1" />
      <circle
         id="circle25112"
         r="4.473"
         cy="42.639"
         cx="239.19701"
         style="opacity:0.85;fill:#009900;stroke:#00b6c1" />
      <circle
         id="circle25114"
         r="1.722"
         cy="17.504"
         cx="118.592"
         style="opacity:0.85;fill:#009900;stroke:#00b6c1" />
      <circle
         id="circle25116"
         r="5.2940001"
         cy="45.363998"
         cx="83.625"
         style="opacity:0.43999999;fill:#009900;stroke:#00b6c1" />
      <circle
         id="circle25118"
         r="3.503"
         cy="35.967999"
         cx="206.09801"
         style="opacity:0.85;fill:#009900;stroke:#00b6c1" />
      <circle
         id="circle25120"
         r="3.8659999"
         cy="19.459"
         cx="77.795998"
         style="opacity:0.43999999;fill:#009900;stroke:#00b6c1" />
      <circle
         id="circle25122"
         r="1.9400001"
         cy="51.293999"
         cx="148.442"
         style="opacity:0.85;fill:#009900;stroke:#00b6c1" />
      <circle
         id="circle25124"
         r="8.875"
         cy="61.412998"
         cx="110.115"
         style="opacity:0.43999999;fill:#009900;stroke:#00b6c1" />
      <path
         id="path25126"
         d="m 60.77,38.167 c 0.864,0.966 0.783,2.449 -0.182,3.313 -0.965,0.864 -2.448,0.782 -3.312,-0.184 -0.864,-0.963 -0.784,-2.445 0.183,-3.311 0.962,-0.864 2.446,-0.782 3.311,0.182 z"
         style="opacity:0.43999999;fill:#009900;stroke:#00b6c1" />
      <path
         id="path25128"
         d="m 126.836,44.706 c 0.944,1.056 0.856,2.674 -0.198,3.62 -1.055,0.941 -2.674,0.854 -3.618,-0.199 -0.946,-1.057 -0.856,-2.676 0.198,-3.62 1.054,-0.943 2.675,-0.855 3.618,0.199 z"
         style="opacity:0.43999999;fill:#009900;stroke:#00b6c1" />
      <circle
         id="circle25130"
         r="5.223"
         cy="48.469002"
         cx="182.49001"
         style="opacity:0.85;fill:#009900;stroke:#00b6c1" />
      <circle
         id="circle25132"
         r="3.5739999"
         cy="63.59"
         cx="142.438"
         style="opacity:0.43999999;fill:#009900;stroke:#00b6c1" />
      <circle
         id="circle25134"
         r="3.46"
         cy="62.876999"
         cx="162.541"
         style="opacity:0.85;fill:#009900;stroke:#00b6c1" />
      <circle
         id="circle25136"
         r="4.2810001"
         cy="40.611"
         cx="224.084"
         style="opacity:0.85;fill:#009900;stroke:#00b6c1" />
      <circle
         id="circle25138"
         r="2.3659999"
         cy="39.104"
         cx="138.884"
         style="opacity:0.85;fill:#009900;stroke:#00b6c1" />
      <circle
         id="circle25140"
         r="5.2919998"
         cy="24.639"
         cx="81.667"
         style="opacity:0.43999999;fill:#009900;stroke:#00b6c1" />
      <circle
         id="circle25142"
         r="6.5079999"
         cy="69.575996"
         cx="184.021"
         style="opacity:0.85;fill:#009900;stroke:#00b6c1" />
      <circle
         id="circle25144"
         r="4.73"
         cy="50.514"
         cx="87.529999"
         style="opacity:0.43999999;fill:#009900;stroke:#00b6c1" />
      <circle
         id="circle25146"
         r="3.5420001"
         cy="58.146999"
         cx="256.633"
         style="opacity:0.85;fill:#009900;stroke:#00b6c1" />
      <circle
         id="circle25148"
         r="5.0430002"
         cy="60.363998"
         cx="186.58501"
         style="opacity:0.85;fill:#009900;stroke:#00b6c1" />
      <circle
         id="circle25150"
         r="2.372"
         cy="45.151001"
         cx="97.380997"
         style="opacity:0.43999999;fill:#009900;stroke:#00b6c1" />
      <path
         id="path25152"
         d="m 97.597,24.203 c 2.242,2.502 2.03,6.348 -0.473,8.59 -2.501,2.238 -6.346,2.028 -8.588,-0.473 -2.241,-2.502 -2.029,-6.348 0.472,-8.589 2.503,-2.241 6.348,-2.03 8.589,0.472 z"
         style="opacity:0.43999999;fill:#009900;stroke:#00b6c1" />
      <circle
         id="circle25154"
         r="2.921"
         cy="27.374001"
         cx="119.157"
         style="opacity:0.85;fill:#009900;stroke:#00b6c1" />
      <circle
         id="circle25156"
         r="9.1110001"
         cy="37.827"
         cx="84.32"
         style="opacity:0.43999999;fill:#009900;stroke:#00b6c1" />
      <circle
         id="circle25158"
         r="6.3130002"
         cy="35.542"
         cx="162.16701"
         style="opacity:0.85;fill:#009900;stroke:#00b6c1" />
      <circle
         id="circle25160"
         r="1.658"
         cy="53.692001"
         cx="130.321"
         style="opacity:0.43999999;fill:#009900;stroke:#00b6c1" />
      <circle
         id="circle25162"
         r="3.9579999"
         cy="34.118"
         cx="213.955"
         style="opacity:0.85;fill:#009900;stroke:#00b6c1" />
      <circle
         id="circle25164"
         r="4.0320001"
         cy="45.799999"
         cx="131.408"
         style="opacity:0.43999999;fill:#009900;stroke:#00b6c1" />
      <circle
         id="circle25166"
         r="7.3179998"
         cy="51.941002"
         cx="159.304"
         style="opacity:0.85;fill:#009900;stroke:#00b6c1" />
      <circle
         id="circle25168"
         r="2.115"
         cy="38.112999"
         cx="114.891"
         style="opacity:0.43999999;fill:#009900;stroke:#00b6c1" />
      <circle
         id="circle25170"
         r="4.402"
         cy="66.787003"
         cx="198.72"
         style="opacity:0.85;fill:#009900;stroke:#00b6c1" />
      <circle
         id="circle25172"
         r="1.858"
         cy="63.52"
         cx="121.278"
         style="opacity:0.43999999;fill:#009900;stroke:#00b6c1" />
      <circle
         id="circle25174"
         r="5.171"
         cy="44.740002"
         cx="209.819"
         style="opacity:0.85;fill:#009900;stroke:#00b6c1" />
      <circle
         id="circle25176"
         r="3.4389999"
         cy="26.358999"
         cx="70.091003"
         style="opacity:0.43999999;fill:#009900;stroke:#00b6c1" />
      <circle
         id="circle25178"
         r="1.625"
         cy="26.586"
         cx="83.352997"
         style="opacity:0.43999999;fill:#009900;stroke:#00b6c1" />
      <circle
         id="circle25180"
         r="5.7870002"
         cy="33.335999"
         cx="129.877"
         style="opacity:0.85;fill:#009900;stroke:#00b6c1" />
      <circle
         id="circle25182"
         r="5.3200002"
         cy="40.198002"
         cx="112.563"
         style="opacity:0.43999999;fill:#009900;stroke:#00b6c1" />
      <path
         id="path25184"
         d="m 253.453,35.059 c 1.025,1.143 0.928,2.901 -0.216,3.924 -1.144,1.027 -2.902,0.929 -3.927,-0.215 -1.024,-1.143 -0.927,-2.902 0.217,-3.926 1.144,-1.026 2.901,-0.928 3.926,0.217 z"
         style="opacity:0.85;fill:#009900;stroke:#00b6c1" />
      <circle
         id="circle25186"
         r="1.52"
         cy="16.771999"
         cx="130.996"
         style="opacity:0.85;fill:#009900;stroke:#00b6c1" />
    </g>
  </g>
</svg>
