<?xml version="1.0" encoding="UTF-8" standalone="no"?>
<!-- Created with Inkscape (http://www.inkscape.org/) -->

<svg
   xmlns:dc="http://purl.org/dc/elements/1.1/"
   xmlns:cc="http://creativecommons.org/ns#"
   xmlns:rdf="http://www.w3.org/1999/02/22-rdf-syntax-ns#"
   xmlns:svg="http://www.w3.org/2000/svg"
   xmlns="http://www.w3.org/2000/svg"
   xmlns:sodipodi="http://sodipodi.sourceforge.net/DTD/sodipodi-0.dtd"
   xmlns:inkscape="http://www.inkscape.org/namespaces/inkscape"
   width="115.76633mm"
   height="106.28144mm"
   viewBox="0 0 410.19564 376.58773"
   id="svg3795"
   version="1.1"
   inkscape:version="0.91 r13725"
   sodipodi:docname="total-licensed-works.svg">
  <defs
     id="defs3797">
    <linearGradient
       id="SVGID_1_"
       gradientUnits="userSpaceOnUse"
       x1="82.724602"
       y1="336.30621"
       x2="420.5679"
       y2="336.30621">
      <stop
         offset="0"
         style="stop-color:#99CC00"
         id="stop382" />
      <stop
         offset="0.0941"
         style="stop-color:#66CC33"
         id="stop384" />
      <stop
         offset="0.1483"
         style="stop-color:#5FC82F"
         id="stop386" />
      <stop
         offset="0.2282"
         style="stop-color:#4BBE25"
         id="stop388" />
      <stop
         offset="0.324"
         style="stop-color:#2AAE15"
         id="stop390" />
      <stop
         offset="0.4258"
         style="stop-color:#009900"
         id="stop392" />
      <stop
         offset="0.5599"
         style="stop-color:#00A83D"
         id="stop394" />
      <stop
         offset="0.8509"
         style="stop-color:#00CCCC"
         id="stop396" />
      <stop
         offset="0.97"
         style="stop-color:#333399"
         id="stop398" />
    </linearGradient>
  </defs>
  <sodipodi:namedview
     id="base"
     pagecolor="#ffffff"
     bordercolor="#666666"
     borderopacity="1.0"
     inkscape:pageopacity="0.0"
     inkscape:pageshadow="2"
     inkscape:zoom="1.4718586"
     inkscape:cx="341.20389"
     inkscape:cy="53.447051"
     inkscape:document-units="px"
     inkscape:current-layer="layer1"
     showgrid="false"
     fit-margin-top="2"
     fit-margin-left="2"
     fit-margin-right="2"
     fit-margin-bottom="2"
     inkscape:window-width="2560"
     inkscape:window-height="1536"
     inkscape:window-x="0"
     inkscape:window-y="27"
     inkscape:window-maximized="1" />
  <metadata
     id="metadata3800">
    <rdf:RDF>
      <cc:Work
         rdf:about="">
        <dc:format>image/svg+xml</dc:format>
        <dc:type
           rdf:resource="http://purl.org/dc/dcmitype/StillImage" />
        <dc:title></dc:title>
      </cc:Work>
    </rdf:RDF>
  </metadata>
  <g
     inkscape:label="Layer 1"
     inkscape:groupmode="layer"
     id="layer1"
     transform="translate(1127.9559,275.93166)">
    <path
       style="fill:none"
       d="m -866.34576,-257.89703 55.102,0 0,55.681 -55.102,0 z"
       id="rect351"
       inkscape:connector-curvature="0" />
    <path
       style="fill:none;stroke:#989898;stroke-width:0.25;stroke-linejoin:round;stroke-miterlimit:10"
       inkscape:connector-curvature="0"
       id="path365"
       d="m -1069.4798,-266.82305 336.725,0 m -336.725,57.058 336.306,0 m -336.306,55.159 336.306,0 m -336.306,57.059 336.306,0 m -336.306,55.157 336.306,0 m -336.306,57.06 336.306,0"
       stroke-miterlimit="10" />
    <path
       style="fill:none;stroke:#989898;stroke-width:0.25;stroke-linejoin:round;stroke-miterlimit:10"
       inkscape:connector-curvature="0"
       id="path369"
       d="M -1069.0648,-266.82305"
       stroke-miterlimit="10" />
    <path
       style="fill:none;stroke:#989898;stroke-linejoin:round;stroke-miterlimit:10"
       inkscape:connector-curvature="0"
       id="path371"
       d="M -1057.6748,71.06895"
       stroke-miterlimit="10" />
    <path
       style="fill:none;stroke:#989898;stroke-width:0.25;stroke-linejoin:round;stroke-miterlimit:10"
       inkscape:connector-curvature="0"
       id="path375"
       d="m -1062.4378,71.06895 4.361,0"
       stroke-miterlimit="10" />
    <path
       style="fill:none;stroke:#989898;stroke-width:0.25;stroke-linejoin:round;stroke-miterlimit:10"
       inkscape:connector-curvature="0"
       id="path379"
       d="m -733.1748,-266.83005 0,347.736 m -35.629,-10.129 0,10.129 m -145.364,-10.129 0,10.128 m -143.909,-347.735 0,347.735"
       stroke-miterlimit="10" />
    <path
       transform="translate(-1140.7788,-420.47305)"
       style="opacity:0.8;fill:url(#SVGID_1_)"
       d="m 407.801,491.936 -325.076,0 0,-39.27 1.225,-0.54 143.349,-75.117 145.764,-135.872 35.58,-60.46"
       id="polyline400"
       inkscape:connector-curvature="0" />
    <path
       transform="translate(-1140.7788,-420.47305)"
       style="fill:none;stroke:#333399;stroke-width:2;stroke-linecap:round;stroke-miterlimit:10"
       d="m 83.141,452.437 143.412,-74.682 145.763,-135.872 35.247,-59.89"
       id="polyline402"
       inkscape:connector-curvature="0" />
    <g
       style="font-size:8px;font-family:Lato;fill:#231f20;stroke:#000000;stroke-opacity:1"
       id="text404">
      <path
         d="m -1063.0059,93.417447 q 0.04,0 0.04,0.04 l 0,0.048 -3.504,0 0,-0.04 q 0,-0.02 0.012,-0.032 0.012,-0.016 0.02,-0.024 l 2.016,-2.048 q 0.244,-0.252 0.464,-0.492 0.22,-0.24 0.384,-0.488 0.168,-0.248 0.264,-0.512 0.096,-0.264 0.096,-0.564 0,-0.364 -0.124,-0.624 -0.124,-0.264 -0.328,-0.432 -0.204,-0.168 -0.464,-0.248 -0.26,-0.08 -0.532,-0.08 -0.312,0 -0.576,0.096 -0.26,0.096 -0.46,0.272 -0.2,0.172 -0.332,0.412 -0.128,0.24 -0.176,0.532 -0.012,0.064 -0.064,0.064 l -0.04,0 q 0.044,-0.336 0.18,-0.604 0.14,-0.272 0.356,-0.46 0.216,-0.188 0.496,-0.288 0.284,-0.104 0.616,-0.104 0.288,0 0.564,0.084 0.28,0.084 0.496,0.264 0.216,0.176 0.348,0.452 0.136,0.276 0.136,0.664 0,0.32 -0.104,0.596 -0.1,0.276 -0.272,0.528 -0.172,0.252 -0.4,0.496 -0.224,0.24 -0.472,0.492 l -1.976,2.016 q 0.084,-0.008 0.192,-0.012 0.112,-0.004 0.248,-0.004 l 2.896,0 z"
         style="font-size:8px;font-family:Lato;fill:#231f20;stroke:#000000;stroke-opacity:1"
         id="path4231"
         inkscape:connector-curvature="0" />
      <path
         d="m -1058.0612,90.705447 q 0,0.736 -0.16,1.276 -0.156,0.536 -0.428,0.888 -0.268,0.352 -0.632,0.524 -0.36,0.168 -0.764,0.168 -0.404,0 -0.768,-0.168 -0.36,-0.172 -0.632,-0.524 -0.268,-0.352 -0.428,-0.888 -0.156,-0.54 -0.156,-1.276 0,-0.736 0.156,-1.272 0.16,-0.54 0.428,-0.892 0.272,-0.356 0.632,-0.528 0.364,-0.172 0.768,-0.172 0.404,0 0.764,0.172 0.364,0.172 0.632,0.528 0.272,0.352 0.428,0.892 0.16,0.536 0.16,1.272 z m -0.104,0 q 0,-0.72 -0.152,-1.244 -0.148,-0.524 -0.404,-0.864 -0.256,-0.344 -0.6,-0.508 -0.34,-0.168 -0.724,-0.168 -0.384,0 -0.728,0.168 -0.344,0.164 -0.604,0.508 -0.256,0.34 -0.408,0.864 -0.148,0.524 -0.148,1.244 0,0.72 0.148,1.244 0.152,0.524 0.408,0.864 0.26,0.34 0.604,0.504 0.344,0.164 0.728,0.164 0.384,0 0.724,-0.164 0.344,-0.164 0.6,-0.504 0.256,-0.34 0.404,-0.864 0.152,-0.524 0.152,-1.244 z"
         style="font-size:8px;font-family:Lato;fill:#231f20;stroke:#000000;stroke-opacity:1"
         id="path4233"
         inkscape:connector-curvature="0" />
      <path
         d="m -1053.4206,90.705447 q 0,0.736 -0.16,1.276 -0.156,0.536 -0.428,0.888 -0.268,0.352 -0.632,0.524 -0.36,0.168 -0.764,0.168 -0.404,0 -0.768,-0.168 -0.36,-0.172 -0.632,-0.524 -0.268,-0.352 -0.428,-0.888 -0.156,-0.54 -0.156,-1.276 0,-0.736 0.156,-1.272 0.16,-0.54 0.428,-0.892 0.272,-0.356 0.632,-0.528 0.364,-0.172 0.768,-0.172 0.404,0 0.764,0.172 0.364,0.172 0.632,0.528 0.272,0.352 0.428,0.892 0.16,0.536 0.16,1.272 z m -0.104,0 q 0,-0.72 -0.152,-1.244 -0.148,-0.524 -0.404,-0.864 -0.256,-0.344 -0.6,-0.508 -0.34,-0.168 -0.724,-0.168 -0.384,0 -0.728,0.168 -0.344,0.164 -0.604,0.508 -0.256,0.34 -0.408,0.864 -0.148,0.524 -0.148,1.244 0,0.72 0.148,1.244 0.152,0.524 0.408,0.864 0.26,0.34 0.604,0.504 0.344,0.164 0.728,0.164 0.384,0 0.724,-0.164 0.344,-0.164 0.6,-0.504 0.256,-0.34 0.404,-0.864 0.152,-0.524 0.152,-1.244 z"
         style="font-size:8px;font-family:Lato;fill:#231f20;stroke:#000000;stroke-opacity:1"
         id="path4235"
         inkscape:connector-curvature="0" />
      <path
         d="m -1050.768,93.489447 q 0.396,0 0.708,-0.12 0.316,-0.12 0.532,-0.332 0.216,-0.216 0.332,-0.508 0.116,-0.296 0.116,-0.64 0,-0.364 -0.116,-0.656 -0.112,-0.292 -0.32,-0.496 -0.204,-0.204 -0.492,-0.312 -0.288,-0.112 -0.632,-0.112 -0.408,0 -0.728,0.144 -0.316,0.14 -0.532,0.364 -0.216,0.22 -0.332,0.492 -0.112,0.272 -0.112,0.536 0,0.356 0.112,0.656 0.112,0.3 0.316,0.52 0.208,0.216 0.5,0.34 0.292,0.124 0.648,0.124 z m -0.856,-3.328 q -0.216,0.3 -0.364,0.54 -0.148,0.236 -0.236,0.456 0.104,-0.216 0.268,-0.384 0.164,-0.172 0.372,-0.292 0.208,-0.12 0.444,-0.184 0.24,-0.064 0.492,-0.064 0.38,0 0.688,0.124 0.308,0.124 0.524,0.344 0.216,0.22 0.332,0.524 0.12,0.304 0.12,0.664 0,0.376 -0.132,0.684 -0.132,0.308 -0.372,0.532 -0.236,0.22 -0.564,0.344 -0.328,0.12 -0.716,0.12 -0.368,0 -0.676,-0.116 -0.304,-0.12 -0.528,-0.348 -0.22,-0.228 -0.344,-0.56 -0.124,-0.332 -0.124,-0.76 0,-0.292 0.168,-0.708 0.172,-0.416 0.568,-0.956 l 1.624,-2.192 q 0.012,-0.02 0.024,-0.02 0.012,-0.004 0.024,-0.004 l 0.08,0 -1.672,2.256 z"
         style="font-size:8px;font-family:Lato;fill:#231f20;stroke:#000000;stroke-opacity:1"
         id="path4237"
         inkscape:connector-curvature="0" />
    </g>
    <g
       style="font-size:8px;font-family:Lato;fill:#231f20;stroke:#000000;stroke-opacity:1"
       id="text406">
      <path
         d="m -918.42627,93.417447 q 0.04,0 0.04,0.04 l 0,0.048 -3.504,0 0,-0.04 q 0,-0.02 0.012,-0.032 0.012,-0.016 0.02,-0.024 l 2.016,-2.048 q 0.244,-0.252 0.464,-0.492 0.22,-0.24 0.384,-0.488 0.168,-0.248 0.264,-0.512 0.096,-0.264 0.096,-0.564 0,-0.364 -0.124,-0.624 -0.124,-0.264 -0.328,-0.432 -0.204,-0.168 -0.464,-0.248 -0.26,-0.08 -0.532,-0.08 -0.312,0 -0.576,0.096 -0.26,0.096 -0.46,0.272 -0.2,0.172 -0.332,0.412 -0.128,0.24 -0.176,0.532 -0.012,0.064 -0.064,0.064 l -0.04,0 q 0.044,-0.336 0.18,-0.604 0.14,-0.272 0.356,-0.46 0.216,-0.188 0.496,-0.288 0.284,-0.104 0.616,-0.104 0.288,0 0.564,0.084 0.28,0.084 0.496,0.264 0.216,0.176 0.348,0.452 0.136,0.276 0.136,0.664 0,0.32 -0.104,0.596 -0.1,0.276 -0.272,0.528 -0.172,0.252 -0.4,0.496 -0.224,0.24 -0.472,0.492 l -1.976,2.016 q 0.084,-0.008 0.192,-0.012 0.112,-0.004 0.248,-0.004 l 2.896,0 z"
         style="font-size:8px;font-family:Lato;fill:#231f20;stroke:#000000;stroke-opacity:1"
         id="path4222"
         inkscape:connector-curvature="0" />
      <path
         d="m -913.48164,90.705447 q 0,0.736 -0.16,1.276 -0.156,0.536 -0.428,0.888 -0.268,0.352 -0.632,0.524 -0.36,0.168 -0.764,0.168 -0.404,0 -0.768,-0.168 -0.36,-0.172 -0.632,-0.524 -0.268,-0.352 -0.428,-0.888 -0.156,-0.54 -0.156,-1.276 0,-0.736 0.156,-1.272 0.16,-0.54 0.428,-0.892 0.272,-0.356 0.632,-0.528 0.364,-0.172 0.768,-0.172 0.404,0 0.764,0.172 0.364,0.172 0.632,0.528 0.272,0.352 0.428,0.892 0.16,0.536 0.16,1.272 z m -0.104,0 q 0,-0.72 -0.152,-1.244 -0.148,-0.524 -0.404,-0.864 -0.256,-0.344 -0.6,-0.508 -0.34,-0.168 -0.724,-0.168 -0.384,0 -0.728,0.168 -0.344,0.164 -0.604,0.508 -0.256,0.34 -0.408,0.864 -0.148,0.524 -0.148,1.244 0,0.72 0.148,1.244 0.152,0.524 0.408,0.864 0.26,0.34 0.604,0.504 0.344,0.164 0.728,0.164 0.384,0 0.724,-0.164 0.344,-0.164 0.6,-0.504 0.256,-0.34 0.404,-0.864 0.152,-0.524 0.152,-1.244 z"
         style="font-size:8px;font-family:Lato;fill:#231f20;stroke:#000000;stroke-opacity:1"
         id="path4224"
         inkscape:connector-curvature="0" />
      <path
         d="m -909.22902,93.425447 0,0.08 -2.784,0 0,-0.08 1.36,0 0,-5.184 q 0,-0.056 0.004,-0.112 0.004,-0.06 0.012,-0.116 l -1.448,1.308 q -0.04,0.04 -0.08,0 l -0.024,-0.032 1.576,-1.416 0.056,0 0,5.552 1.328,0 z"
         style="font-size:8px;font-family:Lato;fill:#231f20;stroke:#000000;stroke-opacity:1"
         id="path4226"
         inkscape:connector-curvature="0" />
      <path
         d="m -904.20039,90.705447 q 0,0.736 -0.16,1.276 -0.156,0.536 -0.428,0.888 -0.268,0.352 -0.632,0.524 -0.36,0.168 -0.764,0.168 -0.404,0 -0.768,-0.168 -0.36,-0.172 -0.632,-0.524 -0.268,-0.352 -0.428,-0.888 -0.156,-0.54 -0.156,-1.276 0,-0.736 0.156,-1.272 0.16,-0.54 0.428,-0.892 0.272,-0.356 0.632,-0.528 0.364,-0.172 0.768,-0.172 0.404,0 0.764,0.172 0.364,0.172 0.632,0.528 0.272,0.352 0.428,0.892 0.16,0.536 0.16,1.272 z m -0.104,0 q 0,-0.72 -0.152,-1.244 -0.148,-0.524 -0.404,-0.864 -0.256,-0.344 -0.6,-0.508 -0.34,-0.168 -0.724,-0.168 -0.384,0 -0.728,0.168 -0.344,0.164 -0.604,0.508 -0.256,0.34 -0.408,0.864 -0.148,0.524 -0.148,1.244 0,0.72 0.148,1.244 0.152,0.524 0.408,0.864 0.26,0.34 0.604,0.504 0.344,0.164 0.728,0.164 0.384,0 0.724,-0.164 0.344,-0.164 0.6,-0.504 0.256,-0.34 0.404,-0.864 0.152,-0.524 0.152,-1.244 z"
         style="font-size:8px;font-family:Lato;fill:#231f20;stroke:#000000;stroke-opacity:1"
         id="path4228"
         inkscape:connector-curvature="0" />
    </g>
    <g
       style="font-size:8px;font-family:Lato;fill:#231f20;stroke:#000000;stroke-opacity:1"
       id="text408">
      <path
         d="m -773.33978,93.417447 q 0.04,0 0.04,0.04 l 0,0.048 -3.504,0 0,-0.04 q 0,-0.02 0.012,-0.032 0.012,-0.016 0.02,-0.024 l 2.016,-2.048 q 0.244,-0.252 0.464,-0.492 0.22,-0.24 0.384,-0.488 0.168,-0.248 0.264,-0.512 0.096,-0.264 0.096,-0.564 0,-0.364 -0.124,-0.624 -0.124,-0.264 -0.328,-0.432 -0.204,-0.168 -0.464,-0.248 -0.26,-0.08 -0.532,-0.08 -0.312,0 -0.576,0.096 -0.26,0.096 -0.46,0.272 -0.2,0.172 -0.332,0.412 -0.128,0.24 -0.176,0.532 -0.012,0.064 -0.064,0.064 l -0.04,0 q 0.044,-0.336 0.18,-0.604 0.14,-0.272 0.356,-0.46 0.216,-0.188 0.496,-0.288 0.284,-0.104 0.616,-0.104 0.288,0 0.564,0.084 0.28,0.084 0.496,0.264 0.216,0.176 0.348,0.452 0.136,0.276 0.136,0.664 0,0.32 -0.104,0.596 -0.1,0.276 -0.272,0.528 -0.172,0.252 -0.4,0.496 -0.224,0.24 -0.472,0.492 l -1.976,2.016 q 0.084,-0.008 0.192,-0.012 0.112,-0.004 0.248,-0.004 l 2.896,0 z"
         style="font-size:8px;font-family:Lato;fill:#231f20;stroke:#000000;stroke-opacity:1"
         id="path4213"
         inkscape:connector-curvature="0" />
      <path
         d="m -768.39516,90.705447 q 0,0.736 -0.16,1.276 -0.156,0.536 -0.428,0.888 -0.268,0.352 -0.632,0.524 -0.36,0.168 -0.764,0.168 -0.404,0 -0.768,-0.168 -0.36,-0.172 -0.632,-0.524 -0.268,-0.352 -0.428,-0.888 -0.156,-0.54 -0.156,-1.276 0,-0.736 0.156,-1.272 0.16,-0.54 0.428,-0.892 0.272,-0.356 0.632,-0.528 0.364,-0.172 0.768,-0.172 0.404,0 0.764,0.172 0.364,0.172 0.632,0.528 0.272,0.352 0.428,0.892 0.16,0.536 0.16,1.272 z m -0.104,0 q 0,-0.72 -0.152,-1.244 -0.148,-0.524 -0.404,-0.864 -0.256,-0.344 -0.6,-0.508 -0.34,-0.168 -0.724,-0.168 -0.384,0 -0.728,0.168 -0.344,0.164 -0.604,0.508 -0.256,0.34 -0.408,0.864 -0.148,0.524 -0.148,1.244 0,0.72 0.148,1.244 0.152,0.524 0.408,0.864 0.26,0.34 0.604,0.504 0.344,0.164 0.728,0.164 0.384,0 0.724,-0.164 0.344,-0.164 0.6,-0.504 0.256,-0.34 0.404,-0.864 0.152,-0.524 0.152,-1.244 z"
         style="font-size:8px;font-family:Lato;fill:#231f20;stroke:#000000;stroke-opacity:1"
         id="path4215"
         inkscape:connector-curvature="0" />
      <path
         d="m -764.14253,93.425447 0,0.08 -2.784,0 0,-0.08 1.36,0 0,-5.184 q 0,-0.056 0.004,-0.112 0.004,-0.06 0.012,-0.116 l -1.448,1.308 q -0.04,0.04 -0.08,0 l -0.024,-0.032 1.576,-1.416 0.056,0 0,5.552 1.328,0 z"
         style="font-size:8px;font-family:Lato;fill:#231f20;stroke:#000000;stroke-opacity:1"
         id="path4217"
         inkscape:connector-curvature="0" />
      <path
         d="m -760.32991,91.697447 0,-3.48 q 0,-0.04 0,-0.076 0.004,-0.036 0.008,-0.076 l -2.756,3.632 2.748,0 z m 1.272,0 0,0.032 q 0,0.048 -0.064,0.048 l -1.12,0 0,1.728 -0.088,0 0,-1.728 -2.784,0 q -0.044,0 -0.056,-0.008 -0.008,-0.012 -0.016,-0.032 l -0.008,-0.032 2.896,-3.808 0.056,0 0,3.8 1.184,0 z"
         style="font-size:8px;font-family:Lato;fill:#231f20;stroke:#000000;stroke-opacity:1"
         id="path4219"
         inkscape:connector-curvature="0" />
    </g>
    <g
       style="font-size:8px;font-family:Lato;fill:#231f20;stroke:#000000;stroke-opacity:1"
       id="text410">
      <path
         d="m -738.67279,93.417447 q 0.04,0 0.04,0.04 l 0,0.048 -3.504,0 0,-0.04 q 0,-0.02 0.012,-0.032 0.012,-0.016 0.02,-0.024 l 2.016,-2.048 q 0.244,-0.252 0.464,-0.492 0.22,-0.24 0.384,-0.488 0.168,-0.248 0.264,-0.512 0.096,-0.264 0.096,-0.564 0,-0.364 -0.124,-0.624 -0.124,-0.264 -0.328,-0.432 -0.204,-0.168 -0.464,-0.248 -0.26,-0.08 -0.532,-0.08 -0.312,0 -0.576,0.096 -0.26,0.096 -0.46,0.272 -0.2,0.172 -0.332,0.412 -0.128,0.24 -0.176,0.532 -0.012,0.064 -0.064,0.064 l -0.04,0 q 0.044,-0.336 0.18,-0.604 0.14,-0.272 0.356,-0.46 0.216,-0.188 0.496,-0.288 0.284,-0.104 0.616,-0.104 0.288,0 0.564,0.084 0.28,0.084 0.496,0.264 0.216,0.176 0.348,0.452 0.136,0.276 0.136,0.664 0,0.32 -0.104,0.596 -0.1,0.276 -0.272,0.528 -0.172,0.252 -0.4,0.496 -0.224,0.24 -0.472,0.492 l -1.976,2.016 q 0.084,-0.008 0.192,-0.012 0.112,-0.004 0.248,-0.004 l 2.896,0 z"
         style="font-size:8px;font-family:Lato;fill:#231f20;stroke:#000000;stroke-opacity:1"
         id="path4204"
         inkscape:connector-curvature="0" />
      <path
         d="m -733.72817,90.705447 q 0,0.736 -0.16,1.276 -0.156,0.536 -0.428,0.888 -0.268,0.352 -0.632,0.524 -0.36,0.168 -0.764,0.168 -0.404,0 -0.768,-0.168 -0.36,-0.172 -0.632,-0.524 -0.268,-0.352 -0.428,-0.888 -0.156,-0.54 -0.156,-1.276 0,-0.736 0.156,-1.272 0.16,-0.54 0.428,-0.892 0.272,-0.356 0.632,-0.528 0.364,-0.172 0.768,-0.172 0.404,0 0.764,0.172 0.364,0.172 0.632,0.528 0.272,0.352 0.428,0.892 0.16,0.536 0.16,1.272 z m -0.104,0 q 0,-0.72 -0.152,-1.244 -0.148,-0.524 -0.404,-0.864 -0.256,-0.344 -0.6,-0.508 -0.34,-0.168 -0.724,-0.168 -0.384,0 -0.728,0.168 -0.344,0.164 -0.604,0.508 -0.256,0.34 -0.408,0.864 -0.148,0.524 -0.148,1.244 0,0.72 0.148,1.244 0.152,0.524 0.408,0.864 0.26,0.34 0.604,0.504 0.344,0.164 0.728,0.164 0.384,0 0.724,-0.164 0.344,-0.164 0.6,-0.504 0.256,-0.34 0.404,-0.864 0.152,-0.524 0.152,-1.244 z"
         style="font-size:8px;font-family:Lato;fill:#231f20;stroke:#000000;stroke-opacity:1"
         id="path4206"
         inkscape:connector-curvature="0" />
      <path
         d="m -729.47554,93.425447 0,0.08 -2.784,0 0,-0.08 1.36,0 0,-5.184 q 0,-0.056 0.004,-0.112 0.004,-0.06 0.012,-0.116 l -1.448,1.308 q -0.04,0.04 -0.08,0 l -0.024,-0.032 1.576,-1.416 0.056,0 0,5.552 1.328,0 z"
         style="font-size:8px;font-family:Lato;fill:#231f20;stroke:#000000;stroke-opacity:1"
         id="path4208"
         inkscape:connector-curvature="0" />
      <path
         d="m -727.69892,90.213447 q 0.308,-0.08 0.576,-0.116 0.272,-0.036 0.512,-0.036 0.436,0 0.764,0.124 0.332,0.12 0.552,0.34 0.224,0.216 0.336,0.524 0.112,0.304 0.112,0.672 0,0.44 -0.152,0.784 -0.152,0.344 -0.408,0.58 -0.256,0.236 -0.596,0.36 -0.336,0.124 -0.708,0.124 -0.216,0 -0.416,-0.036 -0.2,-0.036 -0.376,-0.092 -0.172,-0.06 -0.316,-0.132 -0.144,-0.076 -0.252,-0.156 l 0.024,-0.032 q 0.012,-0.024 0.048,-0.024 0.028,0 0.124,0.06 0.096,0.056 0.256,0.128 0.164,0.072 0.388,0.132 0.228,0.056 0.52,0.056 0.356,0 0.676,-0.112 0.32,-0.116 0.56,-0.336 0.24,-0.224 0.38,-0.552 0.144,-0.332 0.144,-0.76 0,-0.34 -0.1,-0.628 -0.096,-0.288 -0.3,-0.496 -0.204,-0.212 -0.52,-0.328 -0.312,-0.12 -0.74,-0.12 -0.24,0 -0.52,0.04 -0.276,0.036 -0.596,0.116 l -0.072,-0.032 0.424,-2.36 2.4,0 0,0.04 q 0,0.02 -0.016,0.036 -0.016,0.012 -0.04,0.012 l -2.26,0 -0.408,2.22 z"
         style="font-size:8px;font-family:Lato;fill:#231f20;stroke:#000000;stroke-opacity:1"
         id="path4210"
         inkscape:connector-curvature="0" />
    </g>
    <g
       id="text412"
       style="stroke:#000000;stroke-opacity:1">
      <path
         d="m -1117.0913,18.05615 q 0.04,0 0.04,0.04 l 0,0.048 -3.504,0 0,-0.04 q 0,-0.02 0.012,-0.032 0.012,-0.016 0.02,-0.024 l 2.016,-2.048 q 0.244,-0.252 0.464,-0.492 0.22,-0.24 0.384,-0.488 0.168,-0.248 0.264,-0.512 0.096,-0.264 0.096,-0.564 0,-0.364 -0.124,-0.624 -0.124,-0.264 -0.328,-0.432 -0.204,-0.168 -0.464,-0.248 -0.26,-0.08 -0.532,-0.08 -0.312,0 -0.576,0.096 -0.26,0.096 -0.46,0.272 -0.2,0.172 -0.332,0.412 -0.128,0.24 -0.176,0.532 -0.012,0.064 -0.064,0.064 l -0.04,0 q 0.044,-0.336 0.18,-0.604 0.14,-0.272 0.356,-0.46 0.216,-0.188 0.496,-0.288 0.284,-0.104 0.616,-0.104 0.288,0 0.564,0.084 0.28,0.084 0.496,0.264 0.216,0.176 0.348,0.452 0.136,0.276 0.136,0.664 0,0.32 -0.104,0.596 -0.1,0.276 -0.272,0.528 -0.172,0.252 -0.4,0.496 -0.224,0.24 -0.472,0.492 l -1.976,2.016 q 0.084,-0.008 0.192,-0.012 0.112,-0.004 0.248,-0.004 l 2.896,0 z"
         style="font-size:8px;font-family:Lato;fill:#231f20;stroke:#000000;stroke-opacity:1"
         id="path4183"
         inkscape:connector-curvature="0" />
      <path
         d="m -1112.1467,15.34415 q 0,0.736 -0.16,1.276 -0.156,0.536 -0.428,0.888 -0.268,0.352 -0.632,0.524 -0.36,0.168 -0.764,0.168 -0.404,0 -0.768,-0.168 -0.36,-0.172 -0.632,-0.524 -0.268,-0.352 -0.428,-0.888 -0.156,-0.54 -0.156,-1.276 0,-0.736 0.156,-1.272 0.16,-0.54 0.428,-0.892 0.272,-0.356 0.632,-0.528 0.364,-0.172 0.768,-0.172 0.404,0 0.764,0.172 0.364,0.172 0.632,0.528 0.272,0.352 0.428,0.892 0.16,0.536 0.16,1.272 z m -0.104,0 q 0,-0.72 -0.152,-1.244 -0.148,-0.524 -0.404,-0.864 -0.256,-0.344 -0.6,-0.508 -0.34,-0.168 -0.724,-0.168 -0.384,0 -0.728,0.168 -0.344,0.164 -0.604,0.508 -0.256,0.34 -0.408,0.864 -0.148,0.524 -0.148,1.244 0,0.72 0.148,1.244 0.152,0.524 0.408,0.864 0.26,0.34 0.604,0.504 0.344,0.164 0.728,0.164 0.384,0 0.724,-0.164 0.344,-0.164 0.6,-0.504 0.256,-0.34 0.404,-0.864 0.152,-0.524 0.152,-1.244 z"
         style="font-size:8px;font-family:Lato;fill:#231f20;stroke:#000000;stroke-opacity:1"
         id="path4185"
         inkscape:connector-curvature="0" />
      <path
         d="m -1107.5061,15.34415 q 0,0.736 -0.16,1.276 -0.156,0.536 -0.428,0.888 -0.268,0.352 -0.632,0.524 -0.36,0.168 -0.764,0.168 -0.404,0 -0.768,-0.168 -0.36,-0.172 -0.632,-0.524 -0.268,-0.352 -0.428,-0.888 -0.156,-0.54 -0.156,-1.276 0,-0.736 0.156,-1.272 0.16,-0.54 0.428,-0.892 0.272,-0.356 0.632,-0.528 0.364,-0.172 0.768,-0.172 0.404,0 0.764,0.172 0.364,0.172 0.632,0.528 0.272,0.352 0.428,0.892 0.16,0.536 0.16,1.272 z m -0.104,0 q 0,-0.72 -0.152,-1.244 -0.148,-0.524 -0.404,-0.864 -0.256,-0.344 -0.6,-0.508 -0.34,-0.168 -0.724,-0.168 -0.384,0 -0.728,0.168 -0.344,0.164 -0.604,0.508 -0.256,0.34 -0.408,0.864 -0.148,0.524 -0.148,1.244 0,0.72 0.148,1.244 0.152,0.524 0.408,0.864 0.26,0.34 0.604,0.504 0.344,0.164 0.728,0.164 0.384,0 0.724,-0.164 0.344,-0.164 0.6,-0.504 0.256,-0.34 0.404,-0.864 0.152,-0.524 0.152,-1.244 z"
         style="font-size:8px;font-family:Lato;fill:#231f20;stroke:#000000;stroke-opacity:1"
         id="path4187"
         inkscape:connector-curvature="0" />
      <path
         d="m -1099.4273,12.54415 0,5.6 -0.08,0 0,-5.352 q 0,-0.02 0,-0.036 0,-0.02 0,-0.04 l -2.452,4.268 q -0.028,0.04 -0.056,0.04 l -0.024,0 q -0.028,0 -0.056,-0.04 l -2.532,-4.272 q 0,0.02 0,0.04 0,0.02 0,0.04 l 0,5.352 -0.08,0 0,-5.6 0.032,0 q 0.036,0 0.056,0.032 l 2.544,4.284 q 0.016,0.024 0.024,0.044 0.012,0.02 0.02,0.04 0.01,-0.02 0.016,-0.04 0.012,-0.02 0.028,-0.044 l 2.464,-4.284 q 0.02,-0.032 0.056,-0.032 l 0.032,0 z"
         style="font-size:8px;font-family:Lato;fill:#231f20;stroke:#000000;stroke-opacity:1"
         id="path4189"
         inkscape:connector-curvature="0" />
      <path
         d="m -1097.4913,18.14415 -0.096,0 0,-5.6 0.096,0 0,5.6 z"
         style="font-size:8px;font-family:Lato;fill:#231f20;stroke:#000000;stroke-opacity:1"
         id="path4191"
         inkscape:connector-curvature="0" />
      <path
         d="m -1092.6821,18.05615 0,0.088 -2.952,0 0,-5.6 0.096,0 0,5.512 2.856,0 z"
         style="font-size:8px;font-family:Lato;fill:#231f20;stroke:#000000;stroke-opacity:1"
         id="path4193"
         inkscape:connector-curvature="0" />
      <path
         d="m -1088.6821,18.05615 0,0.088 -2.952,0 0,-5.6 0.096,0 0,5.512 2.856,0 z"
         style="font-size:8px;font-family:Lato;fill:#231f20;stroke:#000000;stroke-opacity:1"
         id="path4195"
         inkscape:connector-curvature="0" />
      <path
         d="m -1087.5381,18.14415 -0.096,0 0,-5.6 0.096,0 0,5.6 z"
         style="font-size:8px;font-family:Lato;fill:#231f20;stroke:#000000;stroke-opacity:1"
         id="path4197"
         inkscape:connector-curvature="0" />
      <path
         d="m -1080.885,15.34415 q 0,0.664 -0.192,1.192 -0.188,0.528 -0.532,0.9 -0.34,0.368 -0.816,0.568 -0.476,0.196 -1.052,0.196 -0.572,0 -1.048,-0.196 -0.472,-0.2 -0.816,-0.568 -0.34,-0.372 -0.532,-0.9 -0.188,-0.528 -0.188,-1.192 0,-0.66 0.188,-1.188 0.192,-0.532 0.532,-0.904 0.344,-0.372 0.816,-0.572 0.476,-0.2 1.048,-0.2 0.576,0 1.052,0.2 0.476,0.196 0.816,0.568 0.344,0.372 0.532,0.904 0.192,0.528 0.192,1.192 z m -0.104,0 q 0,-0.652 -0.184,-1.168 -0.18,-0.516 -0.508,-0.876 -0.328,-0.36 -0.788,-0.548 -0.456,-0.192 -1.008,-0.192 -0.544,0 -1,0.192 -0.456,0.188 -0.788,0.548 -0.328,0.36 -0.516,0.876 -0.184,0.516 -0.184,1.168 0,0.652 0.184,1.168 0.188,0.512 0.516,0.872 0.332,0.356 0.788,0.548 0.456,0.188 1,0.188 0.552,0 1.008,-0.188 0.46,-0.192 0.788,-0.548 0.328,-0.36 0.508,-0.872 0.184,-0.516 0.184,-1.168 z"
         style="font-size:8px;font-family:Lato;fill:#231f20;stroke:#000000;stroke-opacity:1"
         id="path4199"
         inkscape:connector-curvature="0" />
      <path
         d="m -1075.2874,12.54415 0,5.6 -0.024,0 q -0.024,0 -0.044,-0.028 l -3.984,-5.424 q 0,0.028 0,0.052 0,0.024 0,0.048 l 0,5.352 -0.08,0 0,-5.6 0.032,0 q 0.036,0 0.056,0.032 l 3.964,5.396 q 0,-0.02 0,-0.04 0,-0.024 0,-0.044 l 0,-5.344 0.08,0 z"
         style="font-size:8px;font-family:Lato;fill:#231f20;stroke:#000000;stroke-opacity:1"
         id="path4201"
         inkscape:connector-curvature="0" />
    </g>
    <g
       id="text420"
       style="stroke:#000000;stroke-opacity:1">
      <path
         d="m -1118.0033,-40.99685 0,-3.48 q 0,-0.04 0,-0.076 0,-0.036 0.01,-0.076 l -2.756,3.632 2.748,0 z m 1.272,0 0,0.032 q 0,0.048 -0.064,0.048 l -1.12,0 0,1.728 -0.088,0 0,-1.728 -2.784,0 q -0.044,0 -0.056,-0.008 -0.01,-0.012 -0.016,-0.032 l -0.01,-0.032 2.896,-3.808 0.056,0 0,3.8 1.184,0 z"
         style="font-size:8px;font-family:Lato;fill:#231f20;stroke:#000000;stroke-opacity:1"
         id="path4162"
         inkscape:connector-curvature="0" />
      <path
         d="m -1112.1467,-41.98885 q 0,0.736 -0.16,1.276 -0.156,0.536 -0.428,0.888 -0.268,0.352 -0.632,0.524 -0.36,0.168 -0.764,0.168 -0.404,0 -0.768,-0.168 -0.36,-0.172 -0.632,-0.524 -0.268,-0.352 -0.428,-0.888 -0.156,-0.54 -0.156,-1.276 0,-0.736 0.156,-1.272 0.16,-0.54 0.428,-0.892 0.272,-0.356 0.632,-0.528 0.364,-0.172 0.768,-0.172 0.404,0 0.764,0.172 0.364,0.172 0.632,0.528 0.272,0.352 0.428,0.892 0.16,0.536 0.16,1.272 z m -0.104,0 q 0,-0.72 -0.152,-1.244 -0.148,-0.524 -0.404,-0.864 -0.256,-0.344 -0.6,-0.508 -0.34,-0.168 -0.724,-0.168 -0.384,0 -0.728,0.168 -0.344,0.164 -0.604,0.508 -0.256,0.34 -0.408,0.864 -0.148,0.524 -0.148,1.244 0,0.72 0.148,1.244 0.152,0.524 0.408,0.864 0.26,0.34 0.604,0.504 0.344,0.164 0.728,0.164 0.384,0 0.724,-0.164 0.344,-0.164 0.6,-0.504 0.256,-0.34 0.404,-0.864 0.152,-0.524 0.152,-1.244 z"
         style="font-size:8px;font-family:Lato;fill:#231f20;stroke:#000000;stroke-opacity:1"
         id="path4164"
         inkscape:connector-curvature="0" />
      <path
         d="m -1107.5061,-41.98885 q 0,0.736 -0.16,1.276 -0.156,0.536 -0.428,0.888 -0.268,0.352 -0.632,0.524 -0.36,0.168 -0.764,0.168 -0.404,0 -0.768,-0.168 -0.36,-0.172 -0.632,-0.524 -0.268,-0.352 -0.428,-0.888 -0.156,-0.54 -0.156,-1.276 0,-0.736 0.156,-1.272 0.16,-0.54 0.428,-0.892 0.272,-0.356 0.632,-0.528 0.364,-0.172 0.768,-0.172 0.404,0 0.764,0.172 0.364,0.172 0.632,0.528 0.272,0.352 0.428,0.892 0.16,0.536 0.16,1.272 z m -0.104,0 q 0,-0.72 -0.152,-1.244 -0.148,-0.524 -0.404,-0.864 -0.256,-0.344 -0.6,-0.508 -0.34,-0.168 -0.724,-0.168 -0.384,0 -0.728,0.168 -0.344,0.164 -0.604,0.508 -0.256,0.34 -0.408,0.864 -0.148,0.524 -0.148,1.244 0,0.72 0.148,1.244 0.152,0.524 0.408,0.864 0.26,0.34 0.604,0.504 0.344,0.164 0.728,0.164 0.384,0 0.724,-0.164 0.344,-0.164 0.6,-0.504 0.256,-0.34 0.404,-0.864 0.152,-0.524 0.152,-1.244 z"
         style="font-size:8px;font-family:Lato;fill:#231f20;stroke:#000000;stroke-opacity:1"
         id="path4166"
         inkscape:connector-curvature="0" />
      <path
         d="m -1099.4273,-44.78885 0,5.6 -0.08,0 0,-5.352 q 0,-0.02 0,-0.036 0,-0.02 0,-0.04 l -2.452,4.268 q -0.028,0.04 -0.056,0.04 l -0.024,0 q -0.028,0 -0.056,-0.04 l -2.532,-4.272 q 0,0.02 0,0.04 0,0.02 0,0.04 l 0,5.352 -0.08,0 0,-5.6 0.032,0 q 0.036,0 0.056,0.032 l 2.544,4.284 q 0.016,0.024 0.024,0.044 0.012,0.02 0.02,0.04 0.01,-0.02 0.016,-0.04 0.012,-0.02 0.028,-0.044 l 2.464,-4.284 q 0.02,-0.032 0.056,-0.032 l 0.032,0 z"
         style="font-size:8px;font-family:Lato;fill:#231f20;stroke:#000000;stroke-opacity:1"
         id="path4168"
         inkscape:connector-curvature="0" />
      <path
         d="m -1097.4913,-39.18885 -0.096,0 0,-5.6 0.096,0 0,5.6 z"
         style="font-size:8px;font-family:Lato;fill:#231f20;stroke:#000000;stroke-opacity:1"
         id="path4170"
         inkscape:connector-curvature="0" />
      <path
         d="m -1092.6821,-39.27685 0,0.088 -2.952,0 0,-5.6 0.096,0 0,5.512 2.856,0 z"
         style="font-size:8px;font-family:Lato;fill:#231f20;stroke:#000000;stroke-opacity:1"
         id="path4172"
         inkscape:connector-curvature="0" />
      <path
         d="m -1088.6821,-39.27685 0,0.088 -2.952,0 0,-5.6 0.096,0 0,5.512 2.856,0 z"
         style="font-size:8px;font-family:Lato;fill:#231f20;stroke:#000000;stroke-opacity:1"
         id="path4174"
         inkscape:connector-curvature="0" />
      <path
         d="m -1087.5381,-39.18885 -0.096,0 0,-5.6 0.096,0 0,5.6 z"
         style="font-size:8px;font-family:Lato;fill:#231f20;stroke:#000000;stroke-opacity:1"
         id="path4176"
         inkscape:connector-curvature="0" />
      <path
         d="m -1080.885,-41.98885 q 0,0.664 -0.192,1.192 -0.188,0.528 -0.532,0.9 -0.34,0.368 -0.816,0.568 -0.476,0.196 -1.052,0.196 -0.572,0 -1.048,-0.196 -0.472,-0.2 -0.816,-0.568 -0.34,-0.372 -0.532,-0.9 -0.188,-0.528 -0.188,-1.192 0,-0.66 0.188,-1.188 0.192,-0.532 0.532,-0.904 0.344,-0.372 0.816,-0.572 0.476,-0.2 1.048,-0.2 0.576,0 1.052,0.2 0.476,0.196 0.816,0.568 0.344,0.372 0.532,0.904 0.192,0.528 0.192,1.192 z m -0.104,0 q 0,-0.652 -0.184,-1.168 -0.18,-0.516 -0.508,-0.876 -0.328,-0.36 -0.788,-0.548 -0.456,-0.192 -1.008,-0.192 -0.544,0 -1,0.192 -0.456,0.188 -0.788,0.548 -0.328,0.36 -0.516,0.876 -0.184,0.516 -0.184,1.168 0,0.652 0.184,1.168 0.188,0.512 0.516,0.872 0.332,0.356 0.788,0.548 0.456,0.188 1,0.188 0.552,0 1.008,-0.188 0.46,-0.192 0.788,-0.548 0.328,-0.36 0.508,-0.872 0.184,-0.516 0.184,-1.168 z"
         style="font-size:8px;font-family:Lato;fill:#231f20;stroke:#000000;stroke-opacity:1"
         id="path4178"
         inkscape:connector-curvature="0" />
      <path
         d="m -1075.2874,-44.78885 0,5.6 -0.024,0 q -0.024,0 -0.044,-0.028 l -3.984,-5.424 q 0,0.028 0,0.052 0,0.024 0,0.048 l 0,5.352 -0.08,0 0,-5.6 0.032,0 q 0.036,0 0.056,0.032 l 3.964,5.396 q 0,-0.02 0,-0.04 0,-0.024 0,-0.044 l 0,-5.344 0.08,0 z"
         style="font-size:8px;font-family:Lato;fill:#231f20;stroke:#000000;stroke-opacity:1"
         id="path4180"
         inkscape:connector-curvature="0" />
    </g>
    <g
       id="text428"
       style="stroke:#000000;stroke-opacity:1">
      <path
         d="m -1118.7753,-94.537851 q 0.396,0 0.708,-0.12 0.316,-0.12 0.532,-0.332 0.216,-0.216 0.332,-0.508 0.116,-0.296 0.116,-0.64 0,-0.364 -0.116,-0.656 -0.112,-0.292 -0.32,-0.496 -0.204,-0.204 -0.492,-0.312 -0.288,-0.112 -0.632,-0.112 -0.408,0 -0.728,0.144 -0.316,0.14 -0.532,0.364 -0.216,0.22 -0.332,0.492 -0.112,0.272 -0.112,0.536 0,0.356 0.112,0.656 0.112,0.3 0.316,0.52 0.208,0.216 0.5,0.34 0.292,0.124 0.648,0.124 z m -0.856,-3.328 q -0.216,0.3 -0.364,0.54 -0.148,0.236 -0.236,0.456 0.104,-0.216 0.268,-0.384 0.164,-0.172 0.372,-0.292 0.208,-0.12 0.444,-0.184 0.24,-0.064 0.492,-0.064 0.38,0 0.688,0.124 0.308,0.124 0.524,0.344 0.216,0.22 0.332,0.524 0.12,0.304 0.12,0.664 0,0.376 -0.132,0.684 -0.132,0.308 -0.372,0.532 -0.236,0.22 -0.564,0.344 -0.328,0.12 -0.716,0.12 -0.368,0 -0.676,-0.116 -0.304,-0.12 -0.528,-0.348 -0.22,-0.228 -0.344,-0.56 -0.124,-0.332 -0.124,-0.76 0,-0.292 0.168,-0.708 0.172,-0.416 0.568,-0.956 l 1.624,-2.191999 q 0.012,-0.02 0.024,-0.02 0.012,-0.004 0.024,-0.004 l 0.08,0 -1.672,2.255999 z"
         style="font-size:8px;font-family:Lato;fill:#231f20;stroke:#000000;stroke-opacity:1"
         id="path4141"
         inkscape:connector-curvature="0" />
      <path
         d="m -1112.1467,-97.321851 q 0,0.736 -0.16,1.276 -0.156,0.536 -0.428,0.888 -0.268,0.352 -0.632,0.524 -0.36,0.168 -0.764,0.168 -0.404,0 -0.768,-0.168 -0.36,-0.172 -0.632,-0.524 -0.268,-0.352 -0.428,-0.888 -0.156,-0.54 -0.156,-1.276 0,-0.736 0.156,-1.272 0.16,-0.54 0.428,-0.892 0.272,-0.356 0.632,-0.527999 0.364,-0.172 0.768,-0.172 0.404,0 0.764,0.172 0.364,0.171999 0.632,0.527999 0.272,0.352 0.428,0.892 0.16,0.536 0.16,1.272 z m -0.104,0 q 0,-0.72 -0.152,-1.244 -0.148,-0.524 -0.404,-0.864 -0.256,-0.344 -0.6,-0.508 -0.34,-0.167999 -0.724,-0.167999 -0.384,0 -0.728,0.167999 -0.344,0.164 -0.604,0.508 -0.256,0.34 -0.408,0.864 -0.148,0.524 -0.148,1.244 0,0.72 0.148,1.244 0.152,0.524 0.408,0.864 0.26,0.34 0.604,0.504 0.344,0.164 0.728,0.164 0.384,0 0.724,-0.164 0.344,-0.164 0.6,-0.504 0.256,-0.34 0.404,-0.864 0.152,-0.524 0.152,-1.244 z"
         style="font-size:8px;font-family:Lato;fill:#231f20;stroke:#000000;stroke-opacity:1"
         id="path4143"
         inkscape:connector-curvature="0" />
      <path
         d="m -1107.5061,-97.321851 q 0,0.736 -0.16,1.276 -0.156,0.536 -0.428,0.888 -0.268,0.352 -0.632,0.524 -0.36,0.168 -0.764,0.168 -0.404,0 -0.768,-0.168 -0.36,-0.172 -0.632,-0.524 -0.268,-0.352 -0.428,-0.888 -0.156,-0.54 -0.156,-1.276 0,-0.736 0.156,-1.272 0.16,-0.54 0.428,-0.892 0.272,-0.356 0.632,-0.527999 0.364,-0.172 0.768,-0.172 0.404,0 0.764,0.172 0.364,0.171999 0.632,0.527999 0.272,0.352 0.428,0.892 0.16,0.536 0.16,1.272 z m -0.104,0 q 0,-0.72 -0.152,-1.244 -0.148,-0.524 -0.404,-0.864 -0.256,-0.344 -0.6,-0.508 -0.34,-0.167999 -0.724,-0.167999 -0.384,0 -0.728,0.167999 -0.344,0.164 -0.604,0.508 -0.256,0.34 -0.408,0.864 -0.148,0.524 -0.148,1.244 0,0.72 0.148,1.244 0.152,0.524 0.408,0.864 0.26,0.34 0.604,0.504 0.344,0.164 0.728,0.164 0.384,0 0.724,-0.164 0.344,-0.164 0.6,-0.504 0.256,-0.34 0.404,-0.864 0.152,-0.524 0.152,-1.244 z"
         style="font-size:8px;font-family:Lato;fill:#231f20;stroke:#000000;stroke-opacity:1"
         id="path4145"
         inkscape:connector-curvature="0" />
      <path
         d="m -1099.4273,-100.12185 0,5.599999 -0.08,0 0,-5.352 q 0,-0.02 0,-0.036 0,-0.02 0,-0.04 l -2.452,4.268 q -0.028,0.04 -0.056,0.04 l -0.024,0 q -0.028,0 -0.056,-0.04 l -2.532,-4.272 q 0,0.02 0,0.04 0,0.02 0,0.04 l 0,5.352 -0.08,0 0,-5.599999 0.032,0 q 0.036,0 0.056,0.032 l 2.544,4.283999 q 0.016,0.024 0.024,0.044 0.012,0.02 0.02,0.04 0.01,-0.02 0.016,-0.04 0.012,-0.02 0.028,-0.044 l 2.464,-4.283999 q 0.02,-0.032 0.056,-0.032 l 0.032,0 z"
         style="font-size:8px;font-family:Lato;fill:#231f20;stroke:#000000;stroke-opacity:1"
         id="path4147"
         inkscape:connector-curvature="0" />
      <path
         d="m -1097.4913,-94.521851 -0.096,0 0,-5.599999 0.096,0 0,5.599999 z"
         style="font-size:8px;font-family:Lato;fill:#231f20;stroke:#000000;stroke-opacity:1"
         id="path4149"
         inkscape:connector-curvature="0" />
      <path
         d="m -1092.6821,-94.609851 0,0.088 -2.952,0 0,-5.599999 0.096,0 0,5.511999 2.856,0 z"
         style="font-size:8px;font-family:Lato;fill:#231f20;stroke:#000000;stroke-opacity:1"
         id="path4151"
         inkscape:connector-curvature="0" />
      <path
         d="m -1088.6821,-94.609851 0,0.088 -2.952,0 0,-5.599999 0.096,0 0,5.511999 2.856,0 z"
         style="font-size:8px;font-family:Lato;fill:#231f20;stroke:#000000;stroke-opacity:1"
         id="path4153"
         inkscape:connector-curvature="0" />
      <path
         d="m -1087.5381,-94.521851 -0.096,0 0,-5.599999 0.096,0 0,5.599999 z"
         style="font-size:8px;font-family:Lato;fill:#231f20;stroke:#000000;stroke-opacity:1"
         id="path4155"
         inkscape:connector-curvature="0" />
      <path
         d="m -1080.885,-97.321851 q 0,0.664 -0.192,1.192 -0.188,0.528 -0.532,0.9 -0.34,0.368 -0.816,0.568 -0.476,0.196 -1.052,0.196 -0.572,0 -1.048,-0.196 -0.472,-0.2 -0.816,-0.568 -0.34,-0.372 -0.532,-0.9 -0.188,-0.528 -0.188,-1.192 0,-0.66 0.188,-1.188 0.192,-0.532 0.532,-0.904 0.344,-0.372 0.816,-0.572 0.476,-0.199999 1.048,-0.199999 0.576,0 1.052,0.199999 0.476,0.196 0.816,0.568 0.344,0.372 0.532,0.904 0.192,0.528 0.192,1.192 z m -0.104,0 q 0,-0.652 -0.184,-1.168 -0.18,-0.516 -0.508,-0.876 -0.328,-0.36 -0.788,-0.548 -0.456,-0.191999 -1.008,-0.191999 -0.544,0 -1,0.191999 -0.456,0.188 -0.788,0.548 -0.328,0.36 -0.516,0.876 -0.184,0.516 -0.184,1.168 0,0.652 0.184,1.168 0.188,0.512 0.516,0.872 0.332,0.356 0.788,0.548 0.456,0.188 1,0.188 0.552,0 1.008,-0.188 0.46,-0.192 0.788,-0.548 0.328,-0.36 0.508,-0.872 0.184,-0.516 0.184,-1.168 z"
         style="font-size:8px;font-family:Lato;fill:#231f20;stroke:#000000;stroke-opacity:1"
         id="path4157"
         inkscape:connector-curvature="0" />
      <path
         d="m -1075.2874,-100.12185 0,5.599999 -0.024,0 q -0.024,0 -0.044,-0.028 l -3.984,-5.424 q 0,0.028 0,0.052 0,0.024 0,0.048 l 0,5.352 -0.08,0 0,-5.599999 0.032,0 q 0.036,0 0.056,0.032 l 3.964,5.395999 q 0,-0.02 0,-0.04 0,-0.024 0,-0.044 l 0,-5.343999 0.08,0 z"
         style="font-size:8px;font-family:Lato;fill:#231f20;stroke:#000000;stroke-opacity:1"
         id="path4159"
         inkscape:connector-curvature="0" />
    </g>
    <g
       id="text436"
       style="stroke:#000000;stroke-opacity:1">
      <path
         d="m -1118.7713,-151.20385 q 0.364,0 0.668,-0.1 0.304,-0.1 0.524,-0.284 0.224,-0.184 0.348,-0.444 0.124,-0.264 0.124,-0.588 0,-0.292 -0.08,-0.512 -0.076,-0.22 -0.208,-0.38 -0.132,-0.164 -0.304,-0.268 -0.168,-0.108 -0.352,-0.172 -0.184,-0.064 -0.372,-0.088 -0.188,-0.028 -0.348,-0.028 -0.164,0 -0.352,0.028 -0.184,0.024 -0.368,0.088 -0.184,0.064 -0.356,0.172 -0.168,0.104 -0.3,0.268 -0.132,0.16 -0.212,0.38 -0.076,0.22 -0.076,0.512 0,0.324 0.124,0.588 0.124,0.26 0.344,0.444 0.224,0.184 0.528,0.284 0.304,0.1 0.668,0.1 z m -1.456,-4.256 q 0,0.256 0.088,0.492 0.092,0.236 0.272,0.42 0.184,0.18 0.456,0.292 0.272,0.108 0.64,0.108 0.364,0 0.636,-0.108 0.276,-0.112 0.456,-0.292 0.184,-0.184 0.272,-0.42 0.092,-0.236 0.092,-0.492 0,-0.28 -0.1,-0.52 -0.1,-0.244 -0.288,-0.416 -0.188,-0.176 -0.46,-0.276 -0.268,-0.1 -0.608,-0.1 -0.34,0 -0.612,0.1 -0.268,0.1 -0.456,0.276 -0.188,0.172 -0.288,0.416 -0.1,0.24 -0.1,0.52 z m 1.836,1.348 q 0.272,0.044 0.52,0.148 0.252,0.104 0.44,0.288 0.192,0.18 0.304,0.444 0.116,0.26 0.116,0.612 0,0.348 -0.132,0.628 -0.128,0.276 -0.364,0.468 -0.232,0.192 -0.556,0.296 -0.32,0.104 -0.708,0.104 -0.388,0 -0.712,-0.104 -0.32,-0.104 -0.556,-0.296 -0.232,-0.192 -0.364,-0.468 -0.128,-0.28 -0.128,-0.628 0,-0.352 0.112,-0.612 0.116,-0.264 0.304,-0.444 0.192,-0.184 0.44,-0.288 0.252,-0.104 0.524,-0.148 -0.28,-0.052 -0.5,-0.176 -0.216,-0.124 -0.368,-0.3 -0.148,-0.176 -0.228,-0.396 -0.076,-0.224 -0.076,-0.476 0,-0.288 0.104,-0.54 0.108,-0.256 0.304,-0.444 0.2,-0.188 0.488,-0.296 0.288,-0.112 0.656,-0.112 0.364,0 0.652,0.112 0.292,0.108 0.488,0.296 0.2,0.188 0.304,0.444 0.108,0.252 0.108,0.54 0,0.252 -0.08,0.476 -0.076,0.22 -0.228,0.396 -0.148,0.176 -0.368,0.3 -0.216,0.124 -0.496,0.176 z"
         style="font-size:8px;font-family:Lato;fill:#231f20;stroke:#000000;stroke-opacity:1"
         id="path4120"
         inkscape:connector-curvature="0" />
      <path
         d="m -1112.1467,-153.98785 q 0,0.736 -0.16,1.276 -0.156,0.536 -0.428,0.888 -0.268,0.352 -0.632,0.524 -0.36,0.168 -0.764,0.168 -0.404,0 -0.768,-0.168 -0.36,-0.172 -0.632,-0.524 -0.268,-0.352 -0.428,-0.888 -0.156,-0.54 -0.156,-1.276 0,-0.736 0.156,-1.272 0.16,-0.54 0.428,-0.892 0.272,-0.356 0.632,-0.528 0.364,-0.172 0.768,-0.172 0.404,0 0.764,0.172 0.364,0.172 0.632,0.528 0.272,0.352 0.428,0.892 0.16,0.536 0.16,1.272 z m -0.104,0 q 0,-0.72 -0.152,-1.244 -0.148,-0.524 -0.404,-0.864 -0.256,-0.344 -0.6,-0.508 -0.34,-0.168 -0.724,-0.168 -0.384,0 -0.728,0.168 -0.344,0.164 -0.604,0.508 -0.256,0.34 -0.408,0.864 -0.148,0.524 -0.148,1.244 0,0.72 0.148,1.244 0.152,0.524 0.408,0.864 0.26,0.34 0.604,0.504 0.344,0.164 0.728,0.164 0.384,0 0.724,-0.164 0.344,-0.164 0.6,-0.504 0.256,-0.34 0.404,-0.864 0.152,-0.524 0.152,-1.244 z"
         style="font-size:8px;font-family:Lato;fill:#231f20;stroke:#000000;stroke-opacity:1"
         id="path4122"
         inkscape:connector-curvature="0" />
      <path
         d="m -1107.5061,-153.98785 q 0,0.736 -0.16,1.276 -0.156,0.536 -0.428,0.888 -0.268,0.352 -0.632,0.524 -0.36,0.168 -0.764,0.168 -0.404,0 -0.768,-0.168 -0.36,-0.172 -0.632,-0.524 -0.268,-0.352 -0.428,-0.888 -0.156,-0.54 -0.156,-1.276 0,-0.736 0.156,-1.272 0.16,-0.54 0.428,-0.892 0.272,-0.356 0.632,-0.528 0.364,-0.172 0.768,-0.172 0.404,0 0.764,0.172 0.364,0.172 0.632,0.528 0.272,0.352 0.428,0.892 0.16,0.536 0.16,1.272 z m -0.104,0 q 0,-0.72 -0.152,-1.244 -0.148,-0.524 -0.404,-0.864 -0.256,-0.344 -0.6,-0.508 -0.34,-0.168 -0.724,-0.168 -0.384,0 -0.728,0.168 -0.344,0.164 -0.604,0.508 -0.256,0.34 -0.408,0.864 -0.148,0.524 -0.148,1.244 0,0.72 0.148,1.244 0.152,0.524 0.408,0.864 0.26,0.34 0.604,0.504 0.344,0.164 0.728,0.164 0.384,0 0.724,-0.164 0.344,-0.164 0.6,-0.504 0.256,-0.34 0.404,-0.864 0.152,-0.524 0.152,-1.244 z"
         style="font-size:8px;font-family:Lato;fill:#231f20;stroke:#000000;stroke-opacity:1"
         id="path4124"
         inkscape:connector-curvature="0" />
      <path
         d="m -1099.4273,-156.78785 0,5.6 -0.08,0 0,-5.352 q 0,-0.02 0,-0.036 0,-0.02 0,-0.04 l -2.452,4.268 q -0.028,0.04 -0.056,0.04 l -0.024,0 q -0.028,0 -0.056,-0.04 l -2.532,-4.272 q 0,0.02 0,0.04 0,0.02 0,0.04 l 0,5.352 -0.08,0 0,-5.6 0.032,0 q 0.036,0 0.056,0.032 l 2.544,4.284 q 0.016,0.024 0.024,0.044 0.012,0.02 0.02,0.04 0.01,-0.02 0.016,-0.04 0.012,-0.02 0.028,-0.044 l 2.464,-4.284 q 0.02,-0.032 0.056,-0.032 l 0.032,0 z"
         style="font-size:8px;font-family:Lato;fill:#231f20;stroke:#000000;stroke-opacity:1"
         id="path4126"
         inkscape:connector-curvature="0" />
      <path
         d="m -1097.4913,-151.18785 -0.096,0 0,-5.6 0.096,0 0,5.6 z"
         style="font-size:8px;font-family:Lato;fill:#231f20;stroke:#000000;stroke-opacity:1"
         id="path4128"
         inkscape:connector-curvature="0" />
      <path
         d="m -1092.6821,-151.27585 0,0.088 -2.952,0 0,-5.6 0.096,0 0,5.512 2.856,0 z"
         style="font-size:8px;font-family:Lato;fill:#231f20;stroke:#000000;stroke-opacity:1"
         id="path4130"
         inkscape:connector-curvature="0" />
      <path
         d="m -1088.6821,-151.27585 0,0.088 -2.952,0 0,-5.6 0.096,0 0,5.512 2.856,0 z"
         style="font-size:8px;font-family:Lato;fill:#231f20;stroke:#000000;stroke-opacity:1"
         id="path4132"
         inkscape:connector-curvature="0" />
      <path
         d="m -1087.5381,-151.18785 -0.096,0 0,-5.6 0.096,0 0,5.6 z"
         style="font-size:8px;font-family:Lato;fill:#231f20;stroke:#000000;stroke-opacity:1"
         id="path4134"
         inkscape:connector-curvature="0" />
      <path
         d="m -1080.885,-153.98785 q 0,0.664 -0.192,1.192 -0.188,0.528 -0.532,0.9 -0.34,0.368 -0.816,0.568 -0.476,0.196 -1.052,0.196 -0.572,0 -1.048,-0.196 -0.472,-0.2 -0.816,-0.568 -0.34,-0.372 -0.532,-0.9 -0.188,-0.528 -0.188,-1.192 0,-0.66 0.188,-1.188 0.192,-0.532 0.532,-0.904 0.344,-0.372 0.816,-0.572 0.476,-0.2 1.048,-0.2 0.576,0 1.052,0.2 0.476,0.196 0.816,0.568 0.344,0.372 0.532,0.904 0.192,0.528 0.192,1.192 z m -0.104,0 q 0,-0.652 -0.184,-1.168 -0.18,-0.516 -0.508,-0.876 -0.328,-0.36 -0.788,-0.548 -0.456,-0.192 -1.008,-0.192 -0.544,0 -1,0.192 -0.456,0.188 -0.788,0.548 -0.328,0.36 -0.516,0.876 -0.184,0.516 -0.184,1.168 0,0.652 0.184,1.168 0.188,0.512 0.516,0.872 0.332,0.356 0.788,0.548 0.456,0.188 1,0.188 0.552,0 1.008,-0.188 0.46,-0.192 0.788,-0.548 0.328,-0.36 0.508,-0.872 0.184,-0.516 0.184,-1.168 z"
         style="font-size:8px;font-family:Lato;fill:#231f20;stroke:#000000;stroke-opacity:1"
         id="path4136"
         inkscape:connector-curvature="0" />
      <path
         d="m -1075.2874,-156.78785 0,5.6 -0.024,0 q -0.024,0 -0.044,-0.028 l -3.984,-5.424 q 0,0.028 0,0.052 0,0.024 0,0.048 l 0,5.352 -0.08,0 0,-5.6 0.032,0 q 0.036,0 0.056,0.032 l 3.964,5.396 q 0,-0.02 0,-0.04 0,-0.024 0,-0.044 l 0,-5.344 0.08,0 z"
         style="font-size:8px;font-family:Lato;fill:#231f20;stroke:#000000;stroke-opacity:1"
         id="path4138"
         inkscape:connector-curvature="0" />
    </g>
    <g
       style="font-size:8px;font-family:Lato;fill:#231f20;stroke:#000000;stroke-opacity:1"
       id="text444">
      <path
         d="m -1105.5381,-207.26785 0,0.08 -2.784,0 0,-0.08 1.36,0 0,-5.184 q 0,-0.056 0,-0.112 0,-0.06 0.012,-0.116 l -1.448,1.308 q -0.04,0.04 -0.08,0 l -0.024,-0.032 1.576,-1.416 0.056,0 0,5.552 1.328,0 z"
         style="font-size:8px;font-family:Lato;fill:#231f20;stroke:#000000;stroke-opacity:1"
         id="path4103"
         inkscape:connector-curvature="0" />
      <path
         d="m -1099.9322,-207.26785 q 0.404,0 0.724,-0.088 0.32,-0.088 0.54,-0.26 0.224,-0.176 0.34,-0.436 0.116,-0.264 0.116,-0.608 0,-0.304 -0.124,-0.548 -0.12,-0.248 -0.344,-0.42 -0.22,-0.176 -0.54,-0.268 -0.316,-0.092 -0.704,-0.092 l -1.584,0 0,2.72 1.576,0 z m -1.576,-5.44 0,2.64 1.4,0 q 0.448,0 0.76,-0.124 0.312,-0.124 0.508,-0.316 0.196,-0.196 0.284,-0.428 0.088,-0.236 0.088,-0.46 0,-0.624 -0.416,-0.968 -0.412,-0.344 -1.264,-0.344 l -1.36,0 z m 1.36,-0.08 q 0.892,0 1.328,0.36 0.44,0.356 0.44,1.032 0,0.248 -0.1,0.48 -0.096,0.232 -0.268,0.416 -0.172,0.184 -0.408,0.308 -0.236,0.12 -0.512,0.148 0.36,0.024 0.644,0.132 0.288,0.104 0.488,0.284 0.204,0.176 0.312,0.42 0.108,0.244 0.108,0.548 0,0.356 -0.124,0.632 -0.12,0.276 -0.356,0.464 -0.232,0.184 -0.572,0.28 -0.336,0.096 -0.764,0.096 l -1.672,0 0,-5.6 1.456,0 z"
         style="font-size:8px;font-family:Lato;fill:#231f20;stroke:#000000;stroke-opacity:1"
         id="path4105"
         inkscape:connector-curvature="0" />
      <path
         d="m -1096.5551,-207.18785 -0.096,0 0,-5.6 0.096,0 0,5.6 z"
         style="font-size:8px;font-family:Lato;fill:#231f20;stroke:#000000;stroke-opacity:1"
         id="path4107"
         inkscape:connector-curvature="0" />
      <path
         d="m -1091.746,-207.27585 0,0.088 -2.952,0 0,-5.6 0.096,0 0,5.512 2.856,0 z"
         style="font-size:8px;font-family:Lato;fill:#231f20;stroke:#000000;stroke-opacity:1"
         id="path4109"
         inkscape:connector-curvature="0" />
      <path
         d="m -1087.746,-207.27585 0,0.088 -2.952,0 0,-5.6 0.096,0 0,5.512 2.856,0 z"
         style="font-size:8px;font-family:Lato;fill:#231f20;stroke:#000000;stroke-opacity:1"
         id="path4111"
         inkscape:connector-curvature="0" />
      <path
         d="m -1086.602,-207.18785 -0.096,0 0,-5.6 0.096,0 0,5.6 z"
         style="font-size:8px;font-family:Lato;fill:#231f20;stroke:#000000;stroke-opacity:1"
         id="path4113"
         inkscape:connector-curvature="0" />
      <path
         d="m -1079.9489,-209.98785 q 0,0.664 -0.192,1.192 -0.188,0.528 -0.532,0.9 -0.34,0.368 -0.816,0.568 -0.476,0.196 -1.052,0.196 -0.572,0 -1.048,-0.196 -0.472,-0.2 -0.816,-0.568 -0.34,-0.372 -0.532,-0.9 -0.188,-0.528 -0.188,-1.192 0,-0.66 0.188,-1.188 0.192,-0.532 0.532,-0.904 0.344,-0.372 0.816,-0.572 0.476,-0.2 1.048,-0.2 0.576,0 1.052,0.2 0.476,0.196 0.816,0.568 0.344,0.372 0.532,0.904 0.192,0.528 0.192,1.192 z m -0.104,0 q 0,-0.652 -0.184,-1.168 -0.18,-0.516 -0.508,-0.876 -0.328,-0.36 -0.788,-0.548 -0.456,-0.192 -1.008,-0.192 -0.544,0 -1,0.192 -0.456,0.188 -0.788,0.548 -0.328,0.36 -0.516,0.876 -0.184,0.516 -0.184,1.168 0,0.652 0.184,1.168 0.188,0.512 0.516,0.872 0.332,0.356 0.788,0.548 0.456,0.188 1,0.188 0.552,0 1.008,-0.188 0.46,-0.192 0.788,-0.548 0.328,-0.36 0.508,-0.872 0.184,-0.516 0.184,-1.168 z"
         style="font-size:8px;font-family:Lato;fill:#231f20;stroke:#000000;stroke-opacity:1"
         id="path4115"
         inkscape:connector-curvature="0" />
      <path
         d="m -1074.3512,-212.78785 0,5.6 -0.024,0 q -0.024,0 -0.044,-0.028 l -3.984,-5.424 q 0,0.028 0,0.052 0,0.024 0,0.048 l 0,5.352 -0.08,0 0,-5.6 0.032,0 q 0.036,0 0.056,0.032 l 3.964,5.396 q 0,-0.02 0,-0.04 0,-0.024 0,-0.044 l 0,-5.344 0.08,0 z"
         style="font-size:8px;font-family:Lato;fill:#231f20;stroke:#000000;stroke-opacity:1"
         id="path4117"
         inkscape:connector-curvature="0" />
    </g>
    <g
       style="font-size:8px;font-family:Lato;fill:#000000;stroke:#000000;stroke-opacity:1"
       id="text446">
      <path
         d="m -1111.6504,-263.26106 0,0.08 -2.784,0 0,-0.08 1.36,0 0,-5.184 q 0,-0.056 0,-0.112 0,-0.06 0.012,-0.116 l -1.448,1.308 q -0.04,0.04 -0.08,0 l -0.024,-0.032 1.576,-1.416 0.056,0 0,5.552 1.328,0 z"
         style="font-size:8px;font-family:Lato;fill:#000000;stroke:#000000;stroke-opacity:1"
         id="path4082"
         inkscape:connector-curvature="0" />
      <path
         d="m -1110.2578,-263.37306 q 0,-0.108 0.072,-0.184 0.076,-0.08 0.184,-0.08 0.108,0 0.184,0.08 0.08,0.076 0.08,0.184 0,0.108 -0.08,0.184 -0.076,0.072 -0.184,0.072 -0.108,0 -0.184,-0.072 -0.072,-0.076 -0.072,-0.184 z"
         style="font-size:8px;font-family:Lato;fill:#000000;stroke:#000000;stroke-opacity:1"
         id="path4084"
         inkscape:connector-curvature="0" />
      <path
         d="m -1105.0664,-263.26906 q 0.04,0 0.04,0.04 l 0,0.048 -3.504,0 0,-0.04 q 0,-0.02 0.012,-0.032 0.012,-0.016 0.02,-0.024 l 2.016,-2.048 q 0.244,-0.252 0.464,-0.492 0.22,-0.24 0.384,-0.488 0.168,-0.248 0.264,-0.512 0.096,-0.264 0.096,-0.564 0,-0.364 -0.124,-0.624 -0.124,-0.264 -0.328,-0.432 -0.204,-0.168 -0.464,-0.248 -0.26,-0.08 -0.532,-0.08 -0.312,0 -0.576,0.096 -0.26,0.096 -0.46,0.272 -0.2,0.172 -0.332,0.412 -0.128,0.24 -0.176,0.532 -0.012,0.064 -0.064,0.064 l -0.04,0 q 0.044,-0.336 0.18,-0.604 0.14,-0.272 0.356,-0.46 0.216,-0.188 0.496,-0.288 0.284,-0.104 0.616,-0.104 0.288,0 0.564,0.084 0.28,0.084 0.496,0.264 0.216,0.176 0.348,0.452 0.136,0.276 0.136,0.664 0,0.32 -0.104,0.596 -0.1,0.276 -0.272,0.528 -0.172,0.252 -0.4,0.496 -0.224,0.24 -0.472,0.492 l -1.976,2.016 q 0.084,-0.008 0.192,-0.012 0.112,-0.004 0.248,-0.004 l 2.896,0 z"
         style="font-size:8px;font-family:Lato;fill:#000000;stroke:#000000;stroke-opacity:1"
         id="path4086"
         inkscape:connector-curvature="0" />
      <path
         d="m -1099.5445,-263.26106 q 0.404,0 0.724,-0.088 0.32,-0.088 0.54,-0.26 0.224,-0.176 0.34,-0.436 0.116,-0.264 0.116,-0.608 0,-0.304 -0.124,-0.548 -0.12,-0.248 -0.344,-0.42 -0.22,-0.176 -0.54,-0.268 -0.316,-0.092 -0.704,-0.092 l -1.584,0 0,2.72 1.576,0 z m -1.576,-5.44 0,2.64 1.4,0 q 0.448,0 0.76,-0.124 0.312,-0.124 0.508,-0.316 0.196,-0.196 0.284,-0.428 0.088,-0.236 0.088,-0.46 0,-0.624 -0.416,-0.968 -0.412,-0.344 -1.264,-0.344 l -1.36,0 z m 1.36,-0.08 q 0.892,0 1.328,0.36 0.44,0.356 0.44,1.032 0,0.248 -0.1,0.48 -0.096,0.232 -0.268,0.416 -0.172,0.184 -0.408,0.308 -0.236,0.12 -0.512,0.148 0.36,0.024 0.644,0.132 0.288,0.104 0.488,0.284 0.204,0.176 0.312,0.42 0.108,0.244 0.108,0.548 0,0.356 -0.124,0.632 -0.12,0.276 -0.356,0.464 -0.232,0.184 -0.572,0.28 -0.336,0.096 -0.764,0.096 l -1.672,0 0,-5.6 1.456,0 z"
         style="font-size:8px;font-family:Lato;fill:#000000;stroke:#000000;stroke-opacity:1"
         id="path4088"
         inkscape:connector-curvature="0" />
      <path
         d="m -1096.1674,-263.18106 -0.096,0 0,-5.6 0.096,0 0,5.6 z"
         style="font-size:8px;font-family:Lato;fill:#000000;stroke:#000000;stroke-opacity:1"
         id="path4090"
         inkscape:connector-curvature="0" />
      <path
         d="m -1091.3583,-263.26906 0,0.088 -2.952,0 0,-5.6 0.096,0 0,5.512 2.856,0 z"
         style="font-size:8px;font-family:Lato;fill:#000000;stroke:#000000;stroke-opacity:1"
         id="path4092"
         inkscape:connector-curvature="0" />
      <path
         d="m -1087.3583,-263.26906 0,0.088 -2.952,0 0,-5.6 0.096,0 0,5.512 2.856,0 z"
         style="font-size:8px;font-family:Lato;fill:#000000;stroke:#000000;stroke-opacity:1"
         id="path4094"
         inkscape:connector-curvature="0" />
      <path
         d="m -1086.2143,-263.18106 -0.096,0 0,-5.6 0.096,0 0,5.6 z"
         style="font-size:8px;font-family:Lato;fill:#000000;stroke:#000000;stroke-opacity:1"
         id="path4096"
         inkscape:connector-curvature="0" />
      <path
         d="m -1079.5612,-265.98106 q 0,0.664 -0.192,1.192 -0.188,0.528 -0.532,0.9 -0.34,0.368 -0.816,0.568 -0.476,0.196 -1.052,0.196 -0.572,0 -1.048,-0.196 -0.472,-0.2 -0.816,-0.568 -0.34,-0.372 -0.532,-0.9 -0.188,-0.528 -0.188,-1.192 0,-0.66 0.188,-1.188 0.192,-0.532 0.532,-0.904 0.344,-0.372 0.816,-0.572 0.476,-0.2 1.048,-0.2 0.576,0 1.052,0.2 0.476,0.196 0.816,0.568 0.344,0.372 0.532,0.904 0.192,0.528 0.192,1.192 z m -0.104,0 q 0,-0.652 -0.184,-1.168 -0.18,-0.516 -0.508,-0.876 -0.328,-0.36 -0.788,-0.548 -0.456,-0.192 -1.008,-0.192 -0.544,0 -1,0.192 -0.456,0.188 -0.788,0.548 -0.328,0.36 -0.516,0.876 -0.184,0.516 -0.184,1.168 0,0.652 0.184,1.168 0.188,0.512 0.516,0.872 0.332,0.356 0.788,0.548 0.456,0.188 1,0.188 0.552,0 1.008,-0.188 0.46,-0.192 0.788,-0.548 0.328,-0.36 0.508,-0.872 0.184,-0.516 0.184,-1.168 z"
         style="font-size:8px;font-family:Lato;fill:#000000;stroke:#000000;stroke-opacity:1"
         id="path4098"
         inkscape:connector-curvature="0" />
      <path
         d="m -1073.9635,-268.78106 0,5.6 -0.024,0 q -0.024,0 -0.044,-0.028 l -3.984,-5.424 q 0,0.028 0,0.052 0,0.024 0,0.048 l 0,5.352 -0.08,0 0,-5.6 0.032,0 q 0.036,0 0.056,0.032 l 3.964,5.396 q 0,-0.02 0,-0.04 0,-0.024 0,-0.044 l 0,-5.344 0.08,0 z"
         style="font-size:8px;font-family:Lato;fill:#000000;stroke:#000000;stroke-opacity:1"
         id="path4100"
         inkscape:connector-curvature="0" />
    </g>
    <g
       id="text450">
      <path
         d="m -1093.7232,46.167951 -1.744,0 0,4.9 -1.076,0 0,-4.9 -1.744,0 0,-0.884 4.564,0 0,0.884 z"
         style="font-style:normal;font-variant:normal;font-weight:bold;font-stretch:normal;font-size:8px;font-family:Lato;-inkscape-font-specification:'Lato Bold';fill:#000100"
         id="path4045"
         inkscape:connector-curvature="0" />
      <path
         d="m -1087.6379,48.175951 q 0,0.636 -0.212,1.18 -0.208,0.54 -0.592,0.936 -0.384,0.396 -0.924,0.62 -0.54,0.22 -1.2,0.22 -0.656,0 -1.196,-0.22 -0.54,-0.224 -0.928,-0.62 -0.384,-0.396 -0.596,-0.936 -0.212,-0.544 -0.212,-1.18 0,-0.636 0.212,-1.176 0.212,-0.544 0.596,-0.94 0.388,-0.396 0.928,-0.616 0.54,-0.224 1.196,-0.224 0.44,0 0.828,0.104 0.388,0.1 0.712,0.288 0.324,0.184 0.58,0.452 0.26,0.264 0.44,0.592 0.18,0.328 0.272,0.712 0.096,0.384 0.096,0.808 z m -1.1,0 q 0,-0.476 -0.128,-0.852 -0.128,-0.38 -0.364,-0.644 -0.236,-0.264 -0.576,-0.404 -0.336,-0.14 -0.76,-0.14 -0.424,0 -0.764,0.14 -0.336,0.14 -0.576,0.404 -0.236,0.264 -0.364,0.644 -0.128,0.376 -0.128,0.852 0,0.476 0.128,0.856 0.128,0.376 0.364,0.64 0.24,0.26 0.576,0.4 0.34,0.14 0.764,0.14 0.424,0 0.76,-0.14 0.34,-0.14 0.576,-0.4 0.236,-0.264 0.364,-0.64 0.128,-0.38 0.128,-0.856 z"
         style="font-style:normal;font-variant:normal;font-weight:bold;font-stretch:normal;font-size:8px;font-family:Lato;-inkscape-font-specification:'Lato Bold';fill:#000100"
         id="path4047"
         inkscape:connector-curvature="0" />
      <path
         d="m -1082.8482,46.167951 -1.744,0 0,4.9 -1.076,0 0,-4.9 -1.744,0 0,-0.884 4.564,0 0,0.884 z"
         style="font-style:normal;font-variant:normal;font-weight:bold;font-stretch:normal;font-size:8px;font-family:Lato;-inkscape-font-specification:'Lato Bold';fill:#000100"
         id="path4049"
         inkscape:connector-curvature="0" />
      <path
         d="m -1079.5979,48.883951 -0.704,-1.924 q -0.052,-0.128 -0.108,-0.304 -0.056,-0.176 -0.112,-0.38 -0.052,0.204 -0.108,0.384 -0.056,0.176 -0.108,0.308 l -0.7,1.916 1.84,0 z m 1.9,2.184 -0.832,0 q -0.14,0 -0.228,-0.068 -0.088,-0.072 -0.132,-0.176 l -0.432,-1.18 -2.396,0 -0.432,1.18 q -0.032,0.092 -0.124,0.168 -0.092,0.076 -0.228,0.076 l -0.84,0 2.276,-5.784 1.096,0 2.272,5.784 z"
         style="font-style:normal;font-variant:normal;font-weight:bold;font-stretch:normal;font-size:8px;font-family:Lato;-inkscape-font-specification:'Lato Bold';fill:#000100"
         id="path4051"
         inkscape:connector-curvature="0" />
      <path
         d="m -1073.7034,50.179951 0,0.888 -3.388,0 0,-5.784 1.076,0 0,4.896 2.312,0 z"
         style="font-style:normal;font-variant:normal;font-weight:bold;font-stretch:normal;font-size:8px;font-family:Lato;-inkscape-font-specification:'Lato Bold';fill:#000100"
         id="path4053"
         inkscape:connector-curvature="0" />
      <path
         d="m -1106.6553,59.780949 0,0.888 -3.388,0 0,-5.784 1.076,0 0,4.896 2.312,0 z"
         style="font-style:normal;font-variant:normal;font-weight:bold;font-stretch:normal;font-size:8px;font-family:Lato;-inkscape-font-specification:'Lato Bold';fill:#000100"
         id="path4055"
         inkscape:connector-curvature="0" />
      <path
         d="m -1104.807,60.668949 -1.08,0 0,-5.784 1.08,0 0,5.784 z"
         style="font-style:normal;font-variant:normal;font-weight:bold;font-stretch:normal;font-size:8px;font-family:Lato;-inkscape-font-specification:'Lato Bold';fill:#000100"
         id="path4057"
         inkscape:connector-curvature="0" />
      <path
         d="m -1099.54,59.304949 q 0.088,0 0.156,0.068 l 0.424,0.46 q -0.352,0.436 -0.868,0.668 -0.512,0.232 -1.232,0.232 -0.644,0 -1.16,-0.22 -0.512,-0.22 -0.876,-0.612 -0.364,-0.392 -0.56,-0.936 -0.192,-0.544 -0.192,-1.188 0,-0.652 0.208,-1.192 0.208,-0.544 0.584,-0.936 0.38,-0.392 0.904,-0.608 0.524,-0.22 1.16,-0.22 0.632,0 1.12,0.208 0.492,0.208 0.836,0.544 l -0.36,0.5 q -0.032,0.048 -0.084,0.084 -0.048,0.036 -0.136,0.036 -0.06,0 -0.124,-0.032 -0.064,-0.036 -0.14,-0.084 -0.076,-0.052 -0.176,-0.112 -0.1,-0.06 -0.232,-0.108 -0.132,-0.052 -0.308,-0.084 -0.172,-0.036 -0.4,-0.036 -0.388,0 -0.712,0.14 -0.32,0.136 -0.552,0.4 -0.232,0.26 -0.36,0.64 -0.128,0.376 -0.128,0.86 0,0.488 0.136,0.868 0.14,0.38 0.376,0.64 0.236,0.26 0.556,0.4 0.32,0.136 0.688,0.136 0.22,0 0.396,-0.024 0.18,-0.024 0.328,-0.076 0.152,-0.052 0.284,-0.132 0.136,-0.084 0.268,-0.204 0.04,-0.036 0.084,-0.056 0.044,-0.024 0.092,-0.024 z"
         style="font-style:normal;font-variant:normal;font-weight:bold;font-stretch:normal;font-size:8px;font-family:Lato;-inkscape-font-specification:'Lato Bold';fill:#000100"
         id="path4059"
         inkscape:connector-curvature="0" />
      <path
         d="m -1097.1351,55.740949 0,1.604 2.024,0 0,0.828 -2.024,0 0,1.636 2.568,0 0,0.86 -3.648,0 0,-5.784 3.648,0 0,0.856 -2.568,0 z"
         style="font-style:normal;font-variant:normal;font-weight:bold;font-stretch:normal;font-size:8px;font-family:Lato;-inkscape-font-specification:'Lato Bold';fill:#000100"
         id="path4061"
         inkscape:connector-curvature="0" />
      <path
         d="m -1088.7454,54.884949 0,5.784 -0.552,0 q -0.128,0 -0.216,-0.04 -0.084,-0.044 -0.164,-0.144 l -3.02,-3.856 q 0.024,0.264 0.024,0.488 l 0,3.552 -0.948,0 0,-5.784 0.564,0 q 0.068,0 0.116,0.008 0.052,0.004 0.088,0.024 0.04,0.016 0.076,0.052 0.036,0.032 0.08,0.088 l 3.032,3.872 q -0.012,-0.14 -0.02,-0.276 -0.01,-0.136 -0.01,-0.252 l 0,-3.516 0.948,0 z"
         style="font-style:normal;font-variant:normal;font-weight:bold;font-stretch:normal;font-size:8px;font-family:Lato;-inkscape-font-specification:'Lato Bold';fill:#000100"
         id="path4063"
         inkscape:connector-curvature="0" />
      <path
         d="m -1084.3695,55.936949 q -0.048,0.084 -0.104,0.124 -0.052,0.036 -0.132,0.036 -0.084,0 -0.184,-0.06 -0.096,-0.064 -0.232,-0.14 -0.136,-0.076 -0.32,-0.136 -0.18,-0.064 -0.428,-0.064 -0.224,0 -0.392,0.056 -0.168,0.052 -0.284,0.148 -0.112,0.096 -0.168,0.232 -0.056,0.132 -0.056,0.292 0,0.204 0.112,0.34 0.116,0.136 0.304,0.232 0.188,0.096 0.428,0.172 0.24,0.076 0.492,0.164 0.252,0.084 0.492,0.2 0.24,0.112 0.428,0.288 0.188,0.172 0.3,0.424 0.116,0.252 0.116,0.612 0,0.392 -0.136,0.736 -0.132,0.34 -0.392,0.596 -0.256,0.252 -0.628,0.4 -0.372,0.144 -0.852,0.144 -0.276,0 -0.544,-0.056 -0.268,-0.052 -0.516,-0.152 -0.244,-0.1 -0.46,-0.24 -0.216,-0.14 -0.384,-0.312 l 0.316,-0.516 q 0.04,-0.056 0.104,-0.092 0.064,-0.04 0.136,-0.04 0.1,0 0.216,0.084 0.116,0.08 0.276,0.18 0.16,0.1 0.372,0.184 0.216,0.08 0.516,0.08 0.46,0 0.712,-0.216 0.252,-0.22 0.252,-0.628 0,-0.228 -0.116,-0.372 -0.112,-0.144 -0.3,-0.24 -0.188,-0.1 -0.428,-0.168 -0.24,-0.068 -0.488,-0.148 -0.248,-0.08 -0.488,-0.192 -0.24,-0.112 -0.428,-0.292 -0.188,-0.18 -0.304,-0.448 -0.112,-0.272 -0.112,-0.668 0,-0.316 0.124,-0.616 0.128,-0.3 0.368,-0.532 0.24,-0.232 0.592,-0.372 0.352,-0.14 0.808,-0.14 0.512,0 0.944,0.16 0.432,0.16 0.736,0.448 l -0.268,0.508 z"
         style="font-style:normal;font-variant:normal;font-weight:bold;font-stretch:normal;font-size:8px;font-family:Lato;-inkscape-font-specification:'Lato Bold';fill:#000100"
         id="path4065"
         inkscape:connector-curvature="0" />
      <path
         d="m -1081.9789,55.740949 0,1.604 2.024,0 0,0.828 -2.024,0 0,1.636 2.568,0 0,0.86 -3.648,0 0,-5.784 3.648,0 0,0.856 -2.568,0 z"
         style="font-style:normal;font-variant:normal;font-weight:bold;font-stretch:normal;font-size:8px;font-family:Lato;-inkscape-font-specification:'Lato Bold';fill:#000100"
         id="path4067"
         inkscape:connector-curvature="0" />
      <path
         d="m -1073.3291,57.776949 q 0,0.636 -0.212,1.168 -0.212,0.532 -0.596,0.916 -0.384,0.384 -0.924,0.596 -0.54,0.212 -1.2,0.212 l -2.204,0 0,-5.784 2.204,0 q 0.66,0 1.2,0.216 0.54,0.212 0.924,0.596 0.384,0.38 0.596,0.912 0.212,0.532 0.212,1.168 z m -1.104,0 q 0,-0.476 -0.128,-0.852 -0.124,-0.38 -0.364,-0.64 -0.236,-0.264 -0.576,-0.404 -0.336,-0.14 -0.76,-0.14 l -1.124,0 0,4.072 1.124,0 q 0.424,0 0.76,-0.14 0.34,-0.14 0.576,-0.4 0.24,-0.264 0.364,-0.64 0.128,-0.38 0.128,-0.856 z"
         style="font-style:normal;font-variant:normal;font-weight:bold;font-stretch:normal;font-size:8px;font-family:Lato;-inkscape-font-specification:'Lato Bold';fill:#000100"
         id="path4069"
         inkscape:connector-curvature="0" />
      <path
         d="m -1094.0672,64.483952 -1.796,5.784 -0.972,0 -1.264,-3.952 q -0.052,-0.144 -0.096,-0.352 -0.024,0.1 -0.048,0.188 -0.024,0.088 -0.052,0.164 l -1.276,3.952 -0.976,0 -1.792,-5.784 0.9,0 q 0.14,0 0.232,0.068 0.096,0.064 0.128,0.176 l 0.984,3.46 q 0.032,0.128 0.06,0.28 0.032,0.148 0.064,0.312 0.032,-0.168 0.068,-0.316 0.04,-0.148 0.084,-0.276 l 1.136,-3.46 q 0.032,-0.092 0.124,-0.168 0.096,-0.076 0.232,-0.076 l 0.316,0 q 0.14,0 0.228,0.068 0.088,0.068 0.132,0.176 l 1.132,3.46 q 0.084,0.248 0.152,0.572 0.052,-0.316 0.116,-0.572 l 0.984,-3.46 q 0.024,-0.1 0.12,-0.172 0.1,-0.072 0.236,-0.072 l 0.844,0 z"
         style="font-style:normal;font-variant:normal;font-weight:bold;font-stretch:normal;font-size:8px;font-family:Lato;-inkscape-font-specification:'Lato Bold';fill:#000100"
         id="path4071"
         inkscape:connector-curvature="0" />
      <path
         d="m -1087.9504,67.375952 q 0,0.636 -0.212,1.18 -0.208,0.54 -0.592,0.936 -0.384,0.396 -0.924,0.62 -0.54,0.22 -1.2,0.22 -0.656,0 -1.196,-0.22 -0.54,-0.224 -0.928,-0.62 -0.384,-0.396 -0.596,-0.936 -0.212,-0.544 -0.212,-1.18 0,-0.636 0.212,-1.176 0.212,-0.544 0.596,-0.94 0.388,-0.396 0.928,-0.616 0.54,-0.224 1.196,-0.224 0.44,0 0.828,0.104 0.388,0.1 0.712,0.288 0.324,0.184 0.58,0.452 0.26,0.264 0.44,0.592 0.18,0.328 0.272,0.712 0.096,0.384 0.096,0.808 z m -1.1,0 q 0,-0.476 -0.128,-0.852 -0.128,-0.38 -0.364,-0.644 -0.236,-0.264 -0.576,-0.404 -0.336,-0.14 -0.76,-0.14 -0.424,0 -0.764,0.14 -0.336,0.14 -0.576,0.404 -0.236,0.264 -0.364,0.644 -0.128,0.376 -0.128,0.852 0,0.476 0.128,0.856 0.128,0.376 0.364,0.64 0.24,0.26 0.576,0.4 0.34,0.14 0.764,0.14 0.424,0 0.76,-0.14 0.34,-0.14 0.576,-0.4 0.236,-0.264 0.364,-0.64 0.128,-0.38 0.128,-0.856 z"
         style="font-style:normal;font-variant:normal;font-weight:bold;font-stretch:normal;font-size:8px;font-family:Lato;-inkscape-font-specification:'Lato Bold';fill:#000100"
         id="path4073"
         inkscape:connector-curvature="0" />
      <path
         d="m -1085.2496,67.235952 q 0.304,0 0.528,-0.076 0.228,-0.076 0.372,-0.208 0.148,-0.136 0.22,-0.32 0.072,-0.184 0.072,-0.404 0,-0.44 -0.292,-0.676 -0.288,-0.236 -0.884,-0.236 l -0.688,0 0,1.92 0.672,0 z m 2.768,3.032 -0.972,0 q -0.276,0 -0.4,-0.216 l -1.216,-1.852 q -0.068,-0.104 -0.152,-0.148 -0.08,-0.044 -0.24,-0.044 l -0.46,0 0,2.26 -1.076,0 0,-5.784 1.764,0 q 0.588,0 1.008,0.124 0.424,0.12 0.692,0.34 0.272,0.22 0.4,0.528 0.128,0.304 0.128,0.672 0,0.292 -0.088,0.552 -0.084,0.26 -0.248,0.472 -0.16,0.212 -0.4,0.372 -0.236,0.16 -0.54,0.252 0.104,0.06 0.192,0.144 0.088,0.08 0.16,0.192 l 1.448,2.136 z"
         style="font-style:normal;font-variant:normal;font-weight:bold;font-stretch:normal;font-size:8px;font-family:Lato;-inkscape-font-specification:'Lato Bold';fill:#000100"
         id="path4075"
         inkscape:connector-curvature="0" />
      <path
         d="m -1080.781,66.907952 0.252,0 q 0.152,0 0.252,-0.04 0.1,-0.044 0.172,-0.136 l 1.596,-2.02 q 0.1,-0.128 0.208,-0.176 0.112,-0.052 0.28,-0.052 l 0.928,0 -1.948,2.404 q -0.172,0.22 -0.356,0.312 0.132,0.048 0.236,0.136 0.108,0.084 0.204,0.224 l 2.008,2.708 -0.948,0 q -0.192,0 -0.288,-0.052 -0.092,-0.056 -0.156,-0.16 l -1.636,-2.136 q -0.076,-0.108 -0.176,-0.152 -0.1,-0.044 -0.288,-0.044 l -0.34,0 0,2.544 -1.076,0 0,-5.784 1.076,0 0,2.424 z"
         style="font-style:normal;font-variant:normal;font-weight:bold;font-stretch:normal;font-size:8px;font-family:Lato;-inkscape-font-specification:'Lato Bold';fill:#000100"
         id="path4077"
         inkscape:connector-curvature="0" />
      <path
         d="m -1073.2926,65.535952 q -0.048,0.084 -0.104,0.124 -0.052,0.036 -0.132,0.036 -0.084,0 -0.184,-0.06 -0.096,-0.064 -0.232,-0.14 -0.136,-0.076 -0.32,-0.136 -0.18,-0.064 -0.428,-0.064 -0.224,0 -0.392,0.056 -0.168,0.052 -0.284,0.148 -0.112,0.096 -0.168,0.232 -0.056,0.132 -0.056,0.292 0,0.204 0.112,0.34 0.116,0.136 0.304,0.232 0.188,0.096 0.428,0.172 0.24,0.076 0.492,0.164 0.252,0.084 0.492,0.2 0.24,0.112 0.428,0.288 0.188,0.172 0.3,0.424 0.116,0.252 0.116,0.612 0,0.392 -0.136,0.736 -0.132,0.34 -0.392,0.596 -0.256,0.252 -0.628,0.4 -0.372,0.144 -0.852,0.144 -0.276,0 -0.544,-0.056 -0.268,-0.052 -0.516,-0.152 -0.244,-0.1 -0.46,-0.24 -0.216,-0.14 -0.384,-0.312 l 0.316,-0.516 q 0.04,-0.056 0.104,-0.092 0.064,-0.04 0.136,-0.04 0.1,0 0.216,0.084 0.116,0.08 0.276,0.18 0.16,0.1 0.372,0.184 0.216,0.08 0.516,0.08 0.46,0 0.712,-0.216 0.252,-0.22 0.252,-0.628 0,-0.228 -0.116,-0.372 -0.112,-0.144 -0.3,-0.24 -0.188,-0.1 -0.428,-0.168 -0.24,-0.068 -0.488,-0.148 -0.248,-0.08 -0.488,-0.192 -0.24,-0.112 -0.428,-0.292 -0.188,-0.18 -0.304,-0.448 -0.112,-0.272 -0.112,-0.668 0,-0.316 0.124,-0.616 0.128,-0.3 0.368,-0.532 0.24,-0.232 0.592,-0.372 0.352,-0.14 0.808,-0.14 0.512,0 0.944,0.16 0.432,0.16 0.736,0.448 l -0.268,0.508 z"
         style="font-style:normal;font-variant:normal;font-weight:bold;font-stretch:normal;font-size:8px;font-family:Lato;-inkscape-font-specification:'Lato Bold';fill:#000100"
         id="path4079"
         inkscape:connector-curvature="0" />
    </g>
  </g>
</svg>
